<svg xmlns="http://www.w3.org/2000/svg" viewBox="0 0 1000 800"><defs><style>.cls-1{opacity:0.5;}.cls-2{fill:#eed5d5;}.cls-3{fill:#efbfa5;}.cls-4{fill:#8cabef;}.cls-5{fill:#3b3387;}.cls-6{fill:#eff5f1;}.cls-7{fill:#353a85;}.cls-8{fill:#292949;}.cls-9{fill:#babcbe;}.cls-10{fill:#909497;}.cls-11{fill:#3e3d3b;}.cls-12{fill:#e0e0e1;}.cls-13{fill:#474ebb;}.cls-14{fill:#e1cfb5;}.cls-15{fill:#f4c7b3;}.cls-16{fill:#5d66d3;}.cls-17{fill:#d6c7ac;}.cls-18{fill:#454446;}.cls-19{fill:#d67086;}</style></defs><title>aid</title><g id="Shadow"><g class="cls-1"><path class="cls-2" d="M464.71,638.64c-25.06.09-50.13.77-75.15,3.93-9.44,1.19-18.68,3.81-28.13,4.86-18.89,2.11-37.44,6.05-56.4,7.87-15.26,1.46-30.59,2.32-45.81,4.18A142.15,142.15,0,0,1,215,657.94c-10.48-2.13-21-3.32-31.32-6.74-11.53-3.82-24-6.56-36.07-6.46-17.13.14-33.81.16-50.2,6.91-5.76,2.37-12.8,6.26-17.17,11.23-10,11.39-11.36,39.79-1.37,51.59,16.82,19.87,52.73,27.67,76.31,28,25.84.4,51-1.78,76.82-3.06,24.05-1.19,48-2.88,72.13-2.82,49.19.12,98.39,0,147.5-3.73,46.13-3.5,92.38-2.3,138.62-2.3,47.42,0,94.51.42,141.58,7.57,20.51,3.12,41.41,4.21,62,6.39,18.46,2,36.2,0,54.59-1.84a118.47,118.47,0,0,0,44.8-13.62c11.11-6,30.9-24.73,34.3-39.1,9.55-40.29-134.52-39.32-156.64-39.23-24.75.1-49.69,1-74.42,0-10.4-.45-20.65-2.76-30.8-5.28s-20.3-1.88-30.55-2.94c-42.76-4.41-85.62-3.77-128.52-3.77C492.65,638.73,478.68,638.59,464.71,638.64Z"/></g></g><g id="object"><polygon class="cls-3" points="320.99 652.1 320.99 687.08 333.56 687.08 339.57 647.73 320.99 652.1"/><polygon class="cls-3" points="392.5 645.18 399.31 689.21 414.06 688.58 412.16 644.34 392.5 645.18"/><polygon class="cls-4" points="314.97 524.2 314.97 635.7 314.97 654.83 341.21 653.74 355.97 576.67 373.49 505.28 314.97 524.2"/><polygon class="cls-4" points="414.25 500.04 417.52 647.81 388.01 647.73 381.59 596.33 354.6 509.24 414.25 500.04"/><path class="cls-5" d="M338.59,332.12l-.67.25c-10.62,4.13-19,22.67-23.74,33.56-12.33,28.12-17.72,57.42-18.7,88.5-.53,16.73-.33,33.49.2,50.23.15,4.63,4.16,46,2.11,47,21-10.14,42.42-19.73,64.81-25.52s45.95-7.69,68.57-2.42c-6.88-52.56-16.85-106-31.23-156.85-1.72-6.07-2.87-12.55-5.42-18.31-2.93-6.63-7.34-8.58-12.9-12.5a36,36,0,0,0-5.93-3.64C364.64,327.52,349.78,328,338.59,332.12Z"/><path class="cls-6" d="M417.74,499.42c-28,4.28-74.6,7.54-102.61,11.82-1.51-50.63,3.48-109.11,15.7-158.11,2.21-8.89,5.48-18.48,13.25-23,8.32-4.85,26-4.19,31,5.23,7.43,13.79,8.9,35.73,12.21,51.07C394.83,421.13,413.1,464.21,417.74,499.42Z"/><path class="cls-3" d="M373.17,294.15c-4.16-20.61-29.92-16.73-37.12.09-4.74,11.07,2.14,27.31,13.29,32q-1,4.23-1.68,8.53l9.47.53c1,.05,2.12,0,2.71-.75a3.1,3.1,0,0,0,.42-1.7c.08-2,.17-4,.25-6l.72-.23c6-2,10.26-7.65,12-13.73S374.42,300.34,373.17,294.15Z"/><path class="cls-7" d="M370.58,299.79c3.27,6.21,1.25,13.72-.55,20.16-1.6,5.71-1.88,9.34,4.61,9.75,3.65.23,10.15.71,12.8-2.49,2-2.43-.34-8.53-1.89-10.85-1.18-1.77-3.64-2.36-4.78-4.17a6.91,6.91,0,0,1-.82-2.48,35.69,35.69,0,0,1-.26-10.72,36.34,36.34,0,0,0,.67-7.26c-.27-3.52-3.39-7.17-5.2-10.15-3.37-5.54-13-12.13-19.27-6.33a10.36,10.36,0,0,0-2.54,5.15,8.68,8.68,0,0,0-.38,3.42c.69,4.57,5,4.66,8.21,6.36A23.1,23.1,0,0,1,370.58,299.79Z"/><path class="cls-7" d="M337.67,306.28c.27,3.27,2.55,6.58,1.22,9.57a14.11,14.11,0,0,1-2.77,3.37,11.61,11.61,0,0,0-2.28,11.2l-19.5,2.43a5.91,5.91,0,0,1-2.93-.13c-2-.79-2.47-3.28-2.69-5.38-.44-4.13-.83-8.58,1.2-12.21.94-1.68,2.34-3.07,3.27-4.76,4.5-8.11-3.11-19.82,2.8-27,2.64-3.19,7.07-4.12,10.59-6.3,6.13-3.8,9.34-11.33,15.71-14.72,12-6.41,26.9,7.09,21.21,19.67C358.86,292.32,336.59,293.11,337.67,306.28Z"/><path class="cls-5" d="M339.38,333.63S330.47,459.36,350,484.15s27.87,34.13,27.87,34.13L298,551.53S277.8,378.26,339.38,333.63Z"/><polygon class="cls-7" points="320.99 683.8 307.87 696.92 314.43 703.48 334.1 691.45 334.1 682.85 320.99 683.8"/><polygon class="cls-7" points="398.14 681.61 413.85 683.66 428.06 696.18 418.92 699.86 398.41 693.62 398.14 681.61"/><polygon class="cls-8" points="816.39 683.83 816.61 686.07 817.32 693.52 832.39 699.97 838.86 692.03 830.96 685.08 830.24 684.77 830.15 685.7 816.39 683.83"/><path class="cls-9" d="M815.63,683.72l.76.11-.5-5.2,14.35,6.14L842.17,559.1l1.47-5.93c-11.28.16-24.68.33-38.18.44Z"/><polygon class="cls-10" points="816.39 683.83 830.15 685.7 830.24 684.77 815.89 678.63 816.39 683.83"/><path class="cls-9" d="M755.36,553.54l2.78,32.9L786,671.72l13.59-1.81.22,1.67h.08l-10-87.89,8.58-30C782.63,553.75,767.2,553.75,755.36,553.54Z"/><polygon class="cls-8" points="785.96 671.72 785.1 671.83 778.89 680.37 787.12 686.98 800.56 677.49 799.77 671.58 786.49 673.35 785.96 671.72"/><polygon class="cls-11" points="785.96 671.72 786.49 673.35 799.77 671.58 799.55 669.91 785.96 671.72"/><path class="cls-12" d="M849.64,362.28c1.75,8.23,8.26,14.27,14.62,20A346.82,346.82,0,0,0,850,350.46,28.07,28.07,0,0,0,849.64,362.28Z"/><path class="cls-13" d="M874.39,418.48a22.6,22.6,0,0,1-5.57,4.2c-5.21,2.79-11.26,3.66-17.17,3.65-4.73,0-9.53-.54-14.16.47s-9.2,4-10.37,8.61c-.65,2.53-.44,5.71-2.62,7.14a6.72,6.72,0,0,1-3.55.76c-3.75.11-8,0-10.51-2.77-3.9-4.3-1.62-12.92-6.88-15.36-1.54-.72-3.32-.61-5-.89-7.11-1.21-10.6-9.26-9.91-16.65a18.3,18.3,0,0,1,1-4.44c2.94-8.2,9.75-14.29,14.91-21.31,10.08-13.71,16.89-32,10.7-48.25a43.25,43.25,0,0,1-1.65-4.63,11.86,11.86,0,0,1-.39-2.65c-.09-4.83,3.51-8.82,5.84-13.06.22-.4.42-.81.61-1.25a22.38,22.38,0,0,0,1.19-3.55l-1,.49a16.29,16.29,0,0,1-8,3.79l-27.91,13.3-11.19,45.57-7.68,31.26-.11.46-28.86,149.3c3.43.44,10.33.71,19.27.87,11.84.21,27.27.21,43,.12l7.05,0c13.5-.11,26.9-.28,38.18-.44,17.28-.25,29.57-.5,29.57-.5S883.72,475.51,874.39,418.48Z"/><path class="cls-14" d="M811.84,312.78a16.29,16.29,0,0,0,8-3.79Z"/><path class="cls-15" d="M813.16,272c-3-2.62-6.38-3.1-10.18-3.13-1.79,0-2.39.45-3.32.29a4.52,4.52,0,0,1-1.58-.7c-1.36-.85-2.57-3.06-3.2-4.86-3.53,2.22-6.09,6.24-6.79,12.37-.77,6.66-.76,13.68,1.52,20.34s7.15,12.93,13.47,15.4l1.1.39a16.28,16.28,0,0,0,7.66.68l8-3.79c.39-.34.78-.7,1.15-1.07C823.58,296.59,820.74,278.68,813.16,272Z"/><path class="cls-8" d="M866.88,384.62l-2.62-2.36c.58,1.49,1.16,3,1.73,4.52s1.14,3.08,1.71,4.65c.36,1,.72,2,1.06,3.08-.34-1-.7-2.07-1.06-3.08-.57-1.57-1.13-3.12-1.71-4.65s-1.15-3-1.73-4.52c-6.36-5.71-12.87-11.75-14.62-20a28.24,28.24,0,0,1,.38-11.82c1.35-6.33,3.91-12.66,4.57-19.12,1.15-11.07.24-27-2.46-37.8-2.89-11.57-9.18-22-16.74-31.16-9.16-11.07-26.2-23.45-38.26-9l-.41.51a22.82,22.82,0,0,0-4.1-1.57c-8.33,7-10.48,18.32-9.6,28.71s6.13,22.19,3.16,32.51a10.8,10.8,0,0,0-.64,3,2.66,2.66,0,0,0,1.45,2.51,3.85,3.85,0,0,0,1.85.07c5.1-.66,10.65-1.54,14.11-5.35a8.64,8.64,0,0,0,1.23-1.7l-1.1-.39c-6.31-2.47-11.19-8.74-13.47-15.4s-2.29-13.68-1.52-20.34c.7-6.13,3.26-10.15,6.79-12.37.63,1.8,1.84,4,3.2,4.86a4.52,4.52,0,0,0,1.58.7c.93.16,1.53-.3,3.32-.29,3.8,0,7.2.51,10.18,3.13,7.58,6.68,10.42,24.59,7.8,35.92,7.14-7.12,10-20.36,5.31-30.25-.27-.57-.56-1.12-.85-1.65.29.53.58,1.08.85,1.65,4.7,9.89,1.83,23.13-5.31,30.25-.05.2-.09.39-.14.58a22.38,22.38,0,0,1-1.19,3.55c-.19.44-.39.85-.61,1.25-2.33,4.24-5.93,8.23-5.84,13.06a11.86,11.86,0,0,0,.39,2.65,44,44,0,0,0,1.65,4.63c6.19,16.23-.62,34.54-10.7,48.25-5.16,7-12,13.11-14.91,21.31a18.3,18.3,0,0,0-1,4.44c-.69,7.39,2.8,15.45,9.91,16.65,1.68.28,3.46.17,5,.89,5.26,2.44,3,11.06,6.88,15.36,2.51,2.78,6.76,2.88,10.51,2.77a6.72,6.72,0,0,0,3.55-.76c2.19-1.43,2-4.61,2.62-7.14,1.17-4.58,5.75-7.6,10.37-8.61s9.42-.47,14.16-.47c5.91,0,12-.86,17.17-3.65a22.6,22.6,0,0,0,5.57-4.2c-.2-1.22-.41-2.44-.63-3.64.22,1.2.43,2.42.63,3.64a17.87,17.87,0,0,0,4.93-9.34C880.93,399.7,874,391.07,866.88,384.62ZM813,264.05a30,30,0,0,1,2.88,1.68A30,30,0,0,0,813,264.05Z"/><polygon class="cls-15" points="707.57 291.99 703.6 284.8 705.71 277.87 704.47 276.68 702.94 278.14 703.05 271.89 699.88 267.92 693.13 268.29 687.87 272.87 688.94 279.53 694 285.75 699.02 295.83 707.57 291.99"/><polygon class="cls-13" points="706.81 286.26 694.78 289.32 720.78 351.93 779.35 362.25 787.63 328.12 735.38 321.87 706.81 286.26"/><polygon class="cls-7" points="240.12 506.24 235.08 575.27 218.38 689.55 205.53 689.55 197.42 584.1 193.83 498.79 240.12 506.24"/><polygon class="cls-8" points="205.61 688.02 205.61 694.96 219.5 701.91 226.44 694.96 219.5 688.02 205.61 688.02"/><polygon class="cls-7" points="149.15 489.97 154.03 586.73 165.21 697.81 178.36 697.81 189.05 592.57 204.67 481.8 149.15 489.97"/><polygon class="cls-8" points="178.29 696.24 178.29 703.35 164.06 710.47 156.95 703.35 164.06 696.24 178.29 696.24"/><path class="cls-15" d="M194,334.84l-13.46-1.32a66.74,66.74,0,0,1,.72-10.75c-3.75-1.31-8.07-3.28-8.73-7.19a11.39,11.39,0,0,1,.22-3.72q1.31-7.64,2.62-15.26a13.69,13.69,0,0,1,1.57-5.08c1.68-2.65,4.93-3.81,8-4.35,7.87-1.38,16.46.32,22.57,5.47a12.2,12.2,0,0,1,3.82,5c1.11,3.09.29,6.5-.54,9.67q-1.14,4.4-2.3,8.79c-.87,3.37-2.15,7.2-5.39,8.47-1.72.67-3.76.48-5.32,1.47C195,327.81,195.41,331.91,194,334.84Z"/><path class="cls-8" d="M225.49,282.82a36.12,36.12,0,0,0-.25-11.65c-.51-2.39-3.55-9.89-2.63-12-1.73,3.67-6.41,4.68-10.45,5.09-15.15,1.51-32-2.23-46,5.54a18.07,18.07,0,0,0-6.15,6.08,27.1,27.1,0,0,0,0,28.65,38.34,38.34,0,0,0,4.22,5.3c3.18,3.44,7,7.69,11.36,9,.1-3.91-3.48-16.22-.48-19.43,4.21-4.5,11.86-3.63,17.33-2.85a80.12,80.12,0,0,0,20.93.11,24.7,24.7,0,0,0,6.72-1.42c5.07-2.12,4.89-6.83,5.34-11.64C225.45,283.32,225.47,283.07,225.49,282.82Z"/><polygon class="cls-15" points="99.16 428.77 98.2 437.23 102.97 443.03 102.25 444.67 100.21 443.87 102.79 449.82 101.32 454.87 94.71 457.19 87.86 454.89 86.25 448.09 88.64 440.12 89.45 428.48 99.16 428.77"/><polygon class="cls-16" points="100.7 434.56 87.97 436.39 88.09 366.14 162.11 333.18 161.77 371.4 117.71 387.76 100.7 434.56"/><polygon class="cls-15" points="253.04 246.57 253.48 238.06 248.36 232.57 248.98 230.89 251.07 231.56 248.13 225.78 249.28 220.65 255.73 217.92 262.72 219.8 264.74 226.49 262.85 234.59 262.76 246.25 253.04 246.57"/><polygon class="cls-16" points="251.16 240.88 263.75 238.27 264.74 286.71 259.8 324.15 227.6 371.4 201.24 333.27 231.85 310.77 251.16 240.88"/><polygon class="cls-16" points="204.64 331.38 162.11 333.18 140.64 414.89 122.91 528.18 259.8 531.51 227.6 371.4 204.64 331.38"/><polygon class="cls-8" points="664.68 679.58 665.73 687.71 650.51 697.94 641.33 690.85 648.41 681.67 663.64 671.44 664.68 679.58"/><polygon class="cls-8" points="665.2 676.85 653.46 573.11 667.58 456.97 664.41 432.26 601.32 429.87 599.04 470.08 609.63 573.26 649.48 682.15 665.2 676.85"/><polygon class="cls-9" points="595.39 315.08 563.66 323.73 526.96 388.76 544.34 404.86 568.81 375.88 595.39 315.08"/><polygon class="cls-8" points="555.02 441.49 554.86 546.18 575.93 680.95 591.1 680.8 599.43 556.17 618.95 431.43 555.02 441.49"/><polygon class="cls-8" points="591.07 687.19 574.75 695.56 566.47 687.44 574.59 679.16 590.99 678.99 591.07 687.19"/><path class="cls-9" d="M674.11,477.1c-.14-4.54-.39-8.32-.43-9.68-.33-12.17-1.41-24.31-2.93-36.39-1.37-10.83-3.09-37.71-4.94-48.47-1.53-8.89-6.87-31.07-10.72-39.31-9.58-20.49-6.62-22.39-48.7-28.47-18.44-2.67-22.8,8.83-37.88,22-1.49,1.31-1.4,9.07-1.75,11.12-.61,3.62-1.26,7.24-2,10.83q-.88,4.25-2,8.45h0s-12.66,57.6-21,69.83S516.1,466.39,545,476.83a103.1,103.1,0,0,0,15.62,4.08s23.66-2.63,35.83-2.54A207.42,207.42,0,0,1,630,481.49c7.37,1.23,14.88,3,21.47,6.46,6.29,3.29,10.83,8.12,17.21,11.52a3.35,3.35,0,0,0,2,.56C674.24,499.52,674.42,486.65,674.11,477.1Z"/><polygon class="cls-17" points="584.58 407.4 599.62 411.16 601.51 404.8 591.78 399.94 594.07 397.35 580.8 395.7 577.94 402.05 584.58 407.4"/><polygon class="cls-18" points="581.01 408.25 584.92 392.45 547.6 378.69 526.96 388.76 533.32 408.12 581.01 408.25"/><path class="cls-15" d="M606.34,320.56c2.13,1.05,7.14,1.42,12.36-.62a2.72,2.72,0,0,0,1.75-2.56,70,70,0,0,0-.76-9.49c3.92-1.38,8.45-3.45,9.13-7.55a11.41,11.41,0,0,0-.23-3.9l-2.76-16a14.38,14.38,0,0,0-1.66-5.32c-1.76-2.77-5.18-4-8.41-4.55-8.26-1.43-17.26.36-23.66,5.76a12.76,12.76,0,0,0-4,5.27c-1.16,3.24-.29,6.82.58,10.14.81,3.07,1.61,6.14,2.42,9.21.93,3.54,2.27,7.55,5.67,8.87,1.81.71,3.94.5,5.58,1.54C605.23,313.2,604.84,317.49,606.34,320.56Z"/><path class="cls-8" d="M558.68,267.37a34.75,34.75,0,0,0-2.66-3.82c-2.12-2.61-4.73-4.85-6.43-7.74s-2.31-6.83-.26-9.5c1.32-1.72,3.46-2.58,5.54-3.19a40.31,40.31,0,0,1,21.19-.4c6.59,1.68,12.5,4.47,19.14,2,6.24-2.34,10.75-1.39,17.27.94,7.06,2.52,16.54,3.11,22.93,6.67a18.81,18.81,0,0,1,6.45,6.37,28.4,28.4,0,0,1,.08,30,40.2,40.2,0,0,1-4.42,5.57c-3.33,3.61-7.31,8.07-11.89,9.41-.11-4.1,3.62-17,.47-20.38-5-5.33-16.28-3.47-22.48-2.16-6.76,1.44-12.78,6.22-19.48,7.24-4.82.74-11-1.62-15.07-4.12C564,281.21,561.64,272.24,558.68,267.37Z"/><polygon class="cls-9" points="641.33 322.65 667.58 345.66 697.15 408.25 653.53 408.52 641.33 322.65"/><path class="cls-19" d="M585.8,328.5c-33.5-1.06-74.59,18.84-83.18,47.82-11.44-28-63.49-43-96.72-38.58-87.67,11.56-112.58,111.22-72,175.38,21.86,34.53,52.28,64.16,85.16,90.49,27.54,22,98,68.2,98.24,68,.22.16,65.78-52.78,91-77.46,30.11-29.46,57.43-62,75.75-98.51C718.1,427.79,674.19,331.28,585.8,328.5Z"/><path class="cls-2" d="M857.09,346.17c-18.82-.59-41.91,10.59-46.74,26.88-6.43-15.73-35.69-24.15-54.36-21.68-49.27,6.49-63.27,62.5-40.44,98.56,12.28,19.4,29.38,36.06,47.86,50.85,15.48,12.39,55.1,38.33,55.21,38.23.12.09,37-29.66,51.13-43.53,16.92-16.56,32.28-34.83,42.57-55.36C931.45,402,906.77,347.73,857.09,346.17Z"/><path class="cls-19" d="M208.1,355.91c-14.24-3.81-33.83.58-40.42,12.13-2.08-13.13-22.87-24.77-37.53-26.23-38.7-3.85-59.37,36.32-48.42,67.86,5.89,17,15.94,32.72,27.38,47.29,9.58,12.21,35.13,39.05,35.23,39,.08.09,33.46-16,46.73-24,15.85-9.59,30.81-20.77,42.32-34.57C254.77,411.7,245.66,366,208.1,355.91Z"/><path class="cls-19" d="M732.42,154c-12.94.59-28.18,9.48-30.63,20.91-5.24-10.45-25.75-14.67-38.42-12-33.45,7.06-40.08,46.21-22.51,69.73,9.45,12.65,22,23.17,35.51,32.33,11.27,7.68,39.81,23.37,39.88,23.29S740,266,749,255.73c10.73-12.26,20.29-25.6,26.26-40.22C786.36,188.33,766.57,152.45,732.42,154Z"/><path class="cls-2" d="M362.41,115c-15.74-4-37.27,1-44.4,13.85-2.46-14.44-25.5-27-41.69-28.45-42.69-3.77-65,40.75-52.54,75.39,6.71,18.64,18,35.86,30.75,51.79,10.71,13.33,39.2,42.6,39.31,42.54s36.68-18,51.21-27.05c17.35-10.77,33.71-23.27,46.22-38.62C414.53,175.9,403.93,125.61,362.41,115Z"/><polygon class="cls-5" points="335.42 333.63 311.15 347.11 266.87 423.08 272.34 437.84 339.57 468.45 348.65 454.78 299.69 419.2 334.1 371.15 335.42 333.63"/><polygon class="cls-3" points="347.2 456.95 360.88 462.98 363.07 478.83 354.87 481.02 342.39 464.2 347.2 456.95"/><polygon class="cls-15" points="857.09 346.17 868.04 339.07 879.56 345.09 878.25 355.44 864.26 355.44 857.09 346.17"/><polygon class="cls-15" points="676.63 410.08 687.58 402.97 699.1 408.99 697.79 419.35 683.8 419.35 676.63 410.08"/><polygon class="cls-15" points="543.63 331.88 554.57 324.78 566.09 330.8 564.78 341.16 550.8 341.16 543.63 331.88"/><polygon class="cls-3" points="391.01 340.07 401.95 332.97 413.47 338.99 412.17 349.35 398.18 349.35 391.01 340.07"/></g></svg>