<svg xmlns="http://www.w3.org/2000/svg" viewBox="0 0 500 400"><defs><style>.cls-1{isolation:isolate;}.cls-2{fill:#ffd524;}.cls-3{fill:#ffc32e;}.cls-4{fill:#ffe2b2;}.cls-5{fill:#3d4051;}.cls-6{fill:#ff582a;}.cls-7{fill:#ae1e0b;}.cls-8{fill:#009fda;}.cls-9{fill:#0071b8;}.cls-10{fill:#484d5b;}.cls-11{fill:#cadfef;}.cls-12{fill:#fff;}.cls-13{fill:#8d5115;}.cls-14{fill:#774206;}.cls-15{mix-blend-mode:multiply;}.cls-16{fill:#00c4d8;}.cls-17{fill:#008c41;}.cls-18{fill:#00b255;}</style></defs><title>education</title><g class="cls-1"><g id="OBJECTS"><path class="cls-2" d="M401.83,285.78,457.12,199a5.58,5.58,0,0,1,7.7-1.71l5.7,3.63a5.58,5.58,0,0,1,1.7,7.7L416.93,295.4l-9.63,6.51-9,6.11L400,297.26Z"/><path class="cls-3" d="M409.38,290.59l58.29-91.48,2.85,1.81a5.58,5.58,0,0,1,1.7,7.7L416.93,295.4Z"/><polygon class="cls-4" points="401.83 285.78 416.93 295.4 407.3 301.91 398.27 308.02 400 297.26 401.83 285.78"/><polygon class="cls-5" points="400 297.26 407.3 301.91 398.27 308.02 400 297.26"/><path class="cls-6" d="M451.45,207.9l5.67-8.9a5.58,5.58,0,0,1,7.7-1.71l5.7,3.63a5.58,5.58,0,0,1,1.7,7.7l-5.67,8.9Z"/><rect class="cls-5" x="448.37" y="212.22" width="17.91" height="6.25" transform="translate(727.3 642.69) rotate(-147.5)"/><path class="cls-7" d="M459,212.71l8.67-13.6,2.85,1.81a5.58,5.58,0,0,1,1.7,7.7l-5.67,8.9Z"/><path class="cls-8" d="M49.46,126.22l97.62-32.54a5.56,5.56,0,0,1,7,3.52l2.14,6.41a5.57,5.57,0,0,1-3.53,7L55.12,143.2l-11.57-1-10.87-.95L40.81,134Z"/><path class="cls-9" d="M52.29,134.71,155.2,100.4l1.07,3.21a5.57,5.57,0,0,1-3.53,7L55.12,143.2Z"/><polygon class="cls-4" points="49.46 126.22 55.12 143.2 43.55 142.19 32.68 141.24 40.81 133.97 49.46 126.22"/><polygon class="cls-5" points="40.81 133.97 43.55 142.19 32.68 141.24 40.81 133.97"/><path class="cls-2" d="M137.07,97l10-3.33a5.56,5.56,0,0,1,7,3.52l2.14,6.41a5.57,5.57,0,0,1-3.53,7l-10,3.34Z"/><rect class="cls-5" x="127.99" y="103.37" width="17.91" height="6.25" transform="translate(79.22 270.08) rotate(-108.44)"/><path class="cls-3" d="M139.9,105.5l15.3-5.1,1.07,3.21a5.57,5.57,0,0,1-3.53,7l-10,3.34Z"/><path class="cls-5" d="M244.56,132.73,176.18,156.1l12.07,34.79a79.29,79.29,0,0,0,68.27-23.69Z"/><polygon class="cls-5" points="283.99 121.52 222.4 177.28 139.51 171.66 148.13 163.87 152.77 159.66 201.09 115.9 266.13 120.31 272.38 120.74 283.99 121.52"/><polygon class="cls-10" points="272.38 120.74 219.42 168.69 148.13 163.87 152.77 159.66 201.09 115.9 266.13 120.31 272.38 120.74"/><polygon class="cls-2" points="136.89 219.45 133.54 219.15 137.92 170.5 210.67 140.64 211.95 143.75 141.09 172.83 136.89 219.45"/><path class="cls-2" d="M137,201.31l-.69-.22c-2.07.79-9.29,4.81-10.71,22.89l15,2.32C144.44,208.66,138.77,202.7,137,201.31Z"/><path class="cls-11" d="M435.28,93.05a8,8,0,1,1,10.82,3.38A8,8,0,0,1,435.28,93.05Zm13-6.83a6.69,6.69,0,1,0-2.83,9A6.7,6.7,0,0,0,448.31,86.22Z"/><rect class="cls-12" x="388.59" y="107.93" width="30.69" height="2.31" transform="translate(313.15 -299.35) rotate(62.36)"/><polygon class="cls-11" points="368.91 147.26 362.51 153.71 370.05 148.64 376.66 143.18 375.52 141.8 368.91 147.26"/><rect class="cls-5" x="363.69" y="117.76" width="83.71" height="5.23" transform="translate(16.28 286) rotate(-39.58)"/><path class="cls-12" d="M384.5,144.2a5,5,0,1,1,.67-7A5,5,0,0,1,384.5,144.2Z"/><path class="cls-11" d="M383.15,142.56a2.83,2.83,0,1,1,.38-4A2.84,2.84,0,0,1,383.15,142.56Z"/><polygon class="cls-11" points="353.04 116.97 344.1 118.56 352.56 115.25 360.81 112.92 361.3 114.65 353.04 116.97"/><rect class="cls-5" x="354.15" y="99.55" width="83.71" height="5.23" transform="translate(-12.87 111.03) rotate(-15.71)"/><rect class="cls-5" x="439.41" y="86.11" width="14.31" height="2.04" transform="translate(10.55 217.15) rotate(-27.65)"/><path class="cls-11" d="M397.32,112.55h0a1.52,1.52,0,0,1,.64-2l10.33-5.41a1.52,1.52,0,0,1,2,.64h0a1.52,1.52,0,0,1-.64,2l-10.33,5.41A1.51,1.51,0,0,1,397.32,112.55Z"/><path class="cls-12" d="M440,96.81a5.54,5.54,0,1,1,2.34-7.48A5.54,5.54,0,0,1,440,96.81Z"/><path class="cls-11" d="M438.91,94.65a3.1,3.1,0,1,1,1.31-4.19A3.11,3.11,0,0,1,438.91,94.65Z"/><rect class="cls-12" x="458.03" y="67.79" width="5.95" height="23.56" rx="1.58" transform="translate(317.64 -365.75) rotate(62.36)"/><path class="cls-11" d="M276.43,339.7s-10.37-25-30.82-27.34-60.39,21.22-129.15,21.22L103,354H276.43Z"/><path class="cls-12" d="M276.43,339.7s1.71-21.92-9.21-27.5c-13.54-6.91-63.65,7.9-123.66-33.76L125,315s22,14.12,60.09,18.12C233.69,338.22,253.66,309.49,276.43,339.7Z"/><path class="cls-11" d="M276.43,339.7s10.37-25,30.81-27.34,60.4,21.22,129.16,21.22L449.88,354H276.43Z"/><path class="cls-12" d="M276.43,336.77s5-25,25.4-27.7,66.9,16.14,79.91,17.54,51.57,2.55,51.57,2.55l7.13,10.54s-44.65-.43-58.23-1.94c-16.73-1.86-53-22.77-77.59-19.28s-27.41,21.24-27.41,21.24Z"/><rect class="cls-13" x="94.62" y="354.02" width="367.03" height="10.22"/><path class="cls-13" d="M289.44,372.6h-26A13.47,13.47,0,0,1,250,359.13h53A13.47,13.47,0,0,1,289.44,372.6Z"/><path class="cls-14" d="M287.16,365.07H265.71A11.1,11.1,0,0,1,254.6,354h0l21.83-17.19L298.27,354h0A11.11,11.11,0,0,1,287.16,365.07Z"/><path class="cls-2" d="M298.26,354a11.06,11.06,0,0,1-2.12,6.54L276.43,345,256.71,360.5a11.06,11.06,0,0,1-2.12-6.54l21.84-17.19Z"/><g class="cls-15"><path class="cls-16" d="M125.16,81.6a4.7,4.7,0,0,1-6.22,2.33L108.12,79a.66.66,0,0,1,.55-1.21l10.82,4.91a3.37,3.37,0,0,0,2.79-6.14l-12.5-5.68a2.36,2.36,0,0,0-2,4.29l10.33,4.7A1.39,1.39,0,0,0,120,79.2a1.4,1.4,0,0,0-.69-1.84l-7.65-3.47a.67.67,0,0,1-.33-.88.67.67,0,0,1,.88-.33l7.65,3.47a2.72,2.72,0,0,1-2.25,4.95l-10.33-4.7a3.68,3.68,0,1,1,3-6.7l12.5,5.68A4.7,4.7,0,0,1,125.16,81.6Z"/></g><g class="cls-15"><path class="cls-16" d="M108.18,175.77c.25-.12.51-.24.75-.37,2.49-1.31,3.77-2.9,3.6-4.49-.21-1.95-2.5-3.36-6-4,.34-3.5-.41-6.1-2.22-6.82s-4.14.65-6.31,3.42c-2.94-1.94-5.59-2.49-7.07-1.23-1.22,1-1.39,3.08-.48,5.75a8.21,8.21,0,0,0,.29.78c-2.87,1.32-4.56,3.07-4.37,4.89.15,1.36,1.33,2.47,3.22,3.22a13.85,13.85,0,0,0,2.75.75c-.33,3.51.41,6.11,2.23,6.83s4.14-.65,6.31-3.42a13.89,13.89,0,0,0,2.52,1.35c1.89.76,3.5.77,4.55-.12C109.37,181.13,109.35,178.7,108.18,175.77Zm.69-6.87c1.45.57,2.31,1.33,2.4,2.14.1,1-1,2.2-2.94,3.23-.21.12-.44.22-.67.33a25.16,25.16,0,0,0-2-3.32,24.17,24.17,0,0,0,.7-3.06A12.67,12.67,0,0,1,108.87,168.9Zm-8.94,7.68c-.77.09-1.51.13-2.23.16-.51-.51-1-1.06-1.51-1.65s-1.08-1.32-1.56-2c.24-.78.52-1.57.84-2.39s.67-1.59,1-2.31c.8-.15,1.64-.28,2.51-.37s1.51-.13,2.23-.15c.5.51,1,1.05,1.51,1.64s1.09,1.33,1.56,2c-.24.78-.52,1.57-.85,2.39s-.67,1.59-1,2.31C101.62,176.37,100.78,176.49,99.93,176.58Zm1.73,1.06c-.34.59-.69,1.15-1,1.67-.55-.41-1.1-.86-1.66-1.37l1.1-.09C100.6,177.79,101.14,177.72,101.66,177.64Zm-5.71-.9q-1.12,0-2.13-.15a19.42,19.42,0,0,1,.39-1.93c.32.42.65.84,1,1.26S95.71,176.47,96,176.74Zm-2.22-5a23.11,23.11,0,0,1-1.26-2.23,22.15,22.15,0,0,1,2.45-.77c-.22.49-.43,1-.63,1.49S93.9,171.25,93.73,171.75ZM97.27,167c.35-.59.69-1.15,1-1.66q.81.6,1.65,1.35l-1.1.1C98.33,166.82,97.8,166.89,97.27,167Zm5.72.9q1.13,0,2.13.15c-.1.62-.23,1.26-.39,1.93-.32-.42-.66-.84-1-1.26S103.23,168.14,103,167.87Zm2.22,5a20.57,20.57,0,0,1,1.25,2.24,22.06,22.06,0,0,1-2.45.76c.22-.48.44-1,.64-1.49S105,173.36,105.21,172.86Zm-1.34-11.57c1.11.44,1.67,2.5,1.41,5.44a26.56,26.56,0,0,0-3.53-.15,26.08,26.08,0,0,0-2.66-2.32C100.93,162,102.75,160.84,103.87,161.29Zm-12.09,2c.62-.53,1.77-.49,3.21.09a12.63,12.63,0,0,1,2.26,1.21,27.12,27.12,0,0,0-1.6,2.7,24.61,24.61,0,0,0-3.7,1.06c-.1-.24-.19-.47-.27-.7C91,165.52,91,163.93,91.78,163.27Zm-4.11,10.3c-.12-1.12,1.23-2.46,3.62-3.56a25.58,25.58,0,0,0,1.94,3.31,28.53,28.53,0,0,0-.7,3.08C89.63,175.85,87.8,174.76,87.67,173.57Zm7.4,9.76c-1.12-.45-1.67-2.51-1.41-5.46a24.77,24.77,0,0,0,3.52.16,26,26,0,0,0,2.67,2.31C98,182.66,96.19,183.77,95.07,183.33Zm12.08-2c-.91.78-3,.31-5.47-1.29a25.69,25.69,0,0,0,1.61-2.72,25,25,0,0,0,3.69-1.06C108,178.72,108,180.62,107.15,181.34Z"/><path class="cls-16" d="M100.39,170a2.49,2.49,0,1,0,1.39,3.24A2.5,2.5,0,0,0,100.39,170Z"/></g><g class="cls-15"><path class="cls-16" d="M453.36,280.62a6.9,6.9,0,0,0,3.57,8.13L456,292a3.81,3.81,0,0,0-3.45,2.46l7.27,2.15a3.82,3.82,0,0,0-1.56-3.94l1-3.29a6.87,6.87,0,0,0,7.4-4.89l2.57-8.71-13.23-3.9Z"/><path class="cls-16" d="M460.31,297.45l-8.69-2.57a.71.71,0,1,0-.4,1.37l8.69,2.56a.71.71,0,0,0,.4-1.36Z"/><path class="cls-16" d="M449.1,275.59a3.84,3.84,0,0,0,2.59,4.76l.76.22.43-1.46-.76-.22a2.31,2.31,0,0,1,1.31-4.44l.76.23.43-1.46-.76-.23A3.84,3.84,0,0,0,449.1,275.59Z"/><path class="cls-16" d="M470.31,277.85l-.76-.23-.43,1.46.76.23a2.31,2.31,0,1,1-1.31,4.43l-.76-.22-.43,1.46.76.22a3.83,3.83,0,1,0,2.17-7.35Z"/></g><g class="cls-15"><path class="cls-16" d="M457.24,137.24l-2.48-4.35-6.6,3.76,2.49,4.36a6.87,6.87,0,1,0,6.59-3.77Zm1.91,11a4.78,4.78,0,0,1-6.52-1.78.06.06,0,0,0,0,0l8.28-4.73,0,0A4.77,4.77,0,0,1,459.15,148.23Z"/><path class="cls-16" d="M447.62,135.53l6.46-3.69a1.34,1.34,0,0,0,.5-1.84,1.36,1.36,0,0,0-1.85-.51l-6.45,3.68a1.36,1.36,0,1,0,1.34,2.36Z"/></g><g class="cls-15"><path class="cls-16" d="M327.36,96.27a5.1,5.1,0,0,0-1.89-8.14l-.35-2.22a2.79,2.79,0,0,0-2.57-2.36l-8.6-.62a2.8,2.8,0,0,0-2.87,1.93l-.74,2.26a5.1,5.1,0,0,0-2.94,7.77l3.16-2.74.71.82a8,8,0,0,0-.72,10l-1.49,1.29a.89.89,0,0,0-.09,1.25.88.88,0,0,0,1.25.09l1.49-1.29a8,8,0,0,0,10,.74l1.47,1.69a.89.89,0,1,0,1.34-1.16l-1.47-1.69a8.05,8.05,0,0,0,.72-10l.83-.73Zm-4.61.85-5.21,2.7a.87.87,0,0,1-.47.1.91.91,0,0,1-.58-.28l-3.69-3.85a.91.91,0,0,1,0-1.26.89.89,0,0,1,1.26,0l3.23,3.38,4.61-2.4a.88.88,0,0,1,1.2.38A.9.9,0,0,1,322.75,97.12Zm-2-8.51,2.73,3.16-.84.73a8,8,0,0,0-3.82-2l.08-1.15a1.05,1.05,0,1,0-2.1-.15l-.08,1.15a8,8,0,0,0-4.09,1.41L311.9,91l3.16-2.74a5.13,5.13,0,0,0-3.42-1.3l.57-1.72a1.62,1.62,0,0,1,1.66-1.12l8.59.62A1.62,1.62,0,0,1,324,86.1l.27,1.7A5.08,5.08,0,0,0,320.73,88.61Z"/><path class="cls-16" d="M328.51,85.93c-.64-.42-1.31.56-.67,1a5.66,5.66,0,0,1,2.57,5c0,.76,1.15.85,1.18.09A6.9,6.9,0,0,0,328.51,85.93Z"/><path class="cls-16" d="M330.81,84.45a.59.59,0,0,0-.66,1,5.7,5.7,0,0,1,2.57,5c0,.76,1.15.85,1.18.08A6.87,6.87,0,0,0,330.81,84.45Z"/><path class="cls-16" d="M307.32,84.42a.59.59,0,0,1,.52,1.06A5.68,5.68,0,0,0,304.59,90c-.08.76-1.26.68-1.18-.08A6.87,6.87,0,0,1,307.32,84.42Z"/><path class="cls-16" d="M305.24,82.62a.59.59,0,0,1,.53,1.06,5.68,5.68,0,0,0-3.25,4.54c-.08.75-1.27.67-1.18-.09A6.86,6.86,0,0,1,305.24,82.62Z"/></g><g class="cls-15"><path class="cls-16" d="M198.58,87.47l.42,1.91-4.83,1.06.38,1.71,4.36-1,.42,1.9-4.36,1,.38,1.72,5-1.09.42,1.91-7.34,1.61-2-9.14Z"/><path class="cls-16" d="M206.12,88.67l.33,1.49-5.82,1.28L200.3,90Zm.62,2.82.33,1.48-5.82,1.28-.33-1.48Z"/><path class="cls-16" d="M219.82,87.72l1,4.45-2.32.51-.83-3.78a1.17,1.17,0,0,0-1.45-1,1.44,1.44,0,0,0-1,1.88l.77,3.49-2.32.51L212.83,90a1.16,1.16,0,0,0-1.44-1,1.45,1.45,0,0,0-1,1.89l.77,3.48-2.31.51-1.55-7.06,2.31-.51.25,1.16a2.59,2.59,0,0,1,2-1.76,2.4,2.4,0,0,1,2.7,1.07,2.57,2.57,0,0,1,2.12-2.12A2.5,2.5,0,0,1,219.82,87.72Z"/><path class="cls-16" d="M224.4,85.9a1.54,1.54,0,0,0-1,2c.23,1,.95,1.59,1.78,1.4a1.48,1.48,0,0,0,1.21-1.1l1.93.6a3.76,3.76,0,1,1-4.4-4.81,3.54,3.54,0,0,1,3.52,1l-1.47,1.35A1.65,1.65,0,0,0,224.4,85.9Z"/><path class="cls-16" d="M230.13,80.94c-.07-.28-.32-.4-.7-.31a2.45,2.45,0,0,0-1.3,1l-.74-.89a3.66,3.66,0,0,1,2-1.27c1.06-.24,2,.15,2.14,1a2.93,2.93,0,0,1-.63,2l-.84,1.31,2.24-.49.24,1.1-4,.88-.21-.9,1.48-2.38A1.66,1.66,0,0,0,230.13,80.94Z"/></g><g class="cls-15"><path class="cls-16" d="M147.75,237.39a10,10,0,0,0-4.86,7.82,11.31,11.31,0,0,0,3.31,8.69A15.4,15.4,0,0,0,151,257c4.86,2.09,11.37,2.46,15.82-.79,1.37-1,2.75-2.59,2.62-4.42-.14-2-2-2.41-3.49-3.13a7.83,7.83,0,0,1-3.1-3.32c-1.68-2.88-3.16-6.12-6-7.9a9,9,0,0,0-9.11-.09Zm8.15,19.38a2,2,0,1,1,1.07-2.64A2,2,0,0,1,155.9,256.77Zm7.16-5.95a1.48,1.48,0,1,1-1.86-.95A1.49,1.49,0,0,1,163.06,250.82Zm-11.86.35a2,2,0,0,1-3.71,1.59,2,2,0,0,1,1.07-2.66A2,2,0,0,1,151.2,251.17ZM147,248.69a2,2,0,1,1,1.06-2.65A2,2,0,0,1,147,248.69Zm9.1-7.12a2,2,0,1,1-2.65-1.06A2,2,0,0,1,156.12,241.57Zm-5.88-1a2,2,0,1,1-2.65-1.06A2,2,0,0,1,150.24,240.52Z"/><path class="cls-16" d="M135.43,257.77s0,0,0,.07l0,0a.3.3,0,0,0,.08.08l0,0,.15.11.11.06.1.05.16.09h0c2.94,1.46,14.67,5.24,22,7.32h0l.53.15h0c.51.14,1.15.3,1.82.46.39.1.8.19,1.2.27l.39.08,1.07.2c.21,0,.41.06.58.07h.05a1.77,1.77,0,0,0,1.34,1.14,3,3,0,0,0,.41,0,7.71,7.71,0,0,0,1.59-.31,2.66,2.66,0,0,1,2.22.55l.11.08.26.22a6.16,6.16,0,0,0-1-2.29,4.71,4.71,0,0,0-2.11-1.61,2.5,2.5,0,0,0-1.82-.06,1.88,1.88,0,0,0-.37.21c-.38-.18-1-.42-1.63-.66-1.11-.41-2.43-.84-3.35-1.09C151,260.7,135.64,257,135.43,257.77Z"/></g><polygon class="cls-12" points="80.38 46.14 77.88 48.94 78.76 52.59 75.32 51.08 72.12 53.05 72.5 49.31 69.64 46.87 73.31 46.08 74.74 42.6 76.63 45.85 80.38 46.14"/><polygon class="cls-12" points="172.74 204.69 170.24 207.5 171.12 211.15 167.68 209.63 164.48 211.6 164.86 207.86 162 205.43 165.67 204.63 167.1 201.16 168.99 204.41 172.74 204.69"/><polygon class="cls-12" points="273.83 94.02 270.14 94.76 268.67 98.22 266.82 94.94 263.08 94.6 265.62 91.83 264.79 88.17 268.21 89.74 271.44 87.81 271 91.54 273.83 94.02"/><polygon class="cls-12" points="470.16 50.98 466.47 51.72 464.99 55.18 463.14 51.9 459.4 51.56 461.95 48.8 461.11 45.13 464.53 46.7 467.76 44.77 467.32 48.51 470.16 50.98"/><polygon class="cls-12" points="431.79 177.75 428.11 178.49 426.63 181.94 424.78 178.66 421.04 178.33 423.58 175.56 422.75 171.89 426.17 173.46 429.4 171.53 428.96 175.27 431.79 177.75"/><polygon class="cls-12" points="472.76 325.28 469.07 326.02 467.59 329.47 465.75 326.2 462.01 325.86 464.55 323.09 463.72 319.42 467.14 320.99 470.37 319.06 469.93 322.8 472.76 325.28"/><polygon class="cls-12" points="49.28 178.64 45.59 179.38 44.11 182.84 42.27 179.56 38.52 179.22 41.07 176.46 40.24 172.79 43.65 174.36 46.88 172.43 46.45 176.17 49.28 178.64"/><path class="cls-6" d="M334.5,153.23l-7,1.22-5.59-4.38a13.07,13.07,0,0,0-11.85-2.42c-4.91,1.53-10.49,6.41-13.17,19.82-5.36,26.81,19.58,30.87,19.58,30.87s23.89,8.22,31.85-18c4-13.08,1.37-20-2.23-23.68A13.1,13.1,0,0,0,334.5,153.23Z"/><path class="cls-7" d="M324,199.53a27.52,27.52,0,0,1-7.5-1.2s-24.93-4.06-19.57-30.86c2.68-13.42,8.26-18.28,13.16-19.82a13.1,13.1,0,0,1,11.86,2.42l2,1.57c-4.68,1.8-9.8,6.84-12.34,19.52C308.15,188.27,317.07,196.11,324,199.53Z"/><path class="cls-5" d="M339.09,145.17a16.86,16.86,0,0,0-16.19,14.76c-.36,2.64,3.71,3.61,4.07.93.89-6.53,5.59-11.17,12.26-11.51C341.91,149.22,341.78,145,339.09,145.17Z"/><path class="cls-17" d="M323.07,140c4,6.65.92,15.81.92,15.81s-9.53-1.63-13.51-8.28-.91-15.82-.91-15.82S319.09,133.29,323.07,140Z"/><path class="cls-13" d="M391.64,209.94c-4.06,1-17.46,8.09-24.64,12.4-37,22.19-102.3,65-100.34,68.27s70.45-34.26,107.43-56.46c7.18-4.31,19.64-12.63,22.52-15.92Z"/><path class="cls-12" d="M374.09,234.15c7.18-4.31,19.64-12.63,22.52-15.92l-5-8.29c-4.06,1-17.46,8.09-24.64,12.4l-2.44,1.47,7.09,11.8Z"/><path class="cls-14" d="M273.42,288.81c-4,1.67-6.42,2.37-6.76,1.8-2-3.27,63.37-46.09,100.33-68.28,7.19-4.31,20.59-11.34,24.64-12.39l2,3.32c-4.05,1.05-17.45,8.07-24.64,12.39C338.56,243.91,288.94,276.13,273.42,288.81Z"/><path class="cls-11" d="M393.62,213.25c-4.06,1.06-17.45,8.08-24.65,12.4l-2.41,1.46-2-3.3,2.41-1.47c7.2-4.31,20.6-11.36,24.65-12.4Z"/><path class="cls-5" d="M391.12,215.63a8.75,8.75,0,0,1-.49-7.25c1-2.78,3.58-5,6.4-6.35a23.25,23.25,0,0,1,12.91-2.1A29.88,29.88,0,0,1,421.58,204c-.57.06-1.12.13-1.67.22l-.66.12c-3.94.74-7.22,2.38-9.47,6.07-1.38,2.29-2.43,4.77-4.31,6.77a9.58,9.58,0,0,1-1.5,1.32A8.73,8.73,0,0,1,391.12,215.63Z"/><path class="cls-3" d="M33.6,42,60.08,91.68a2.89,2.89,0,0,1-1.21,3.92l-7.45,4a2.89,2.89,0,0,1-3.92-1.19L21,48.66a2.91,2.91,0,0,1,1.2-3.93l7.45-4A2.91,2.91,0,0,1,33.6,42Z"/><path class="cls-2" d="M22.21,44.73A2.92,2.92,0,0,0,21,48.66L47.49,98.38a2.91,2.91,0,0,0,3.93,1.19l3.73-2L25.94,42.74Z"/><path class="cls-3" d="M19.69,31h0a3,3,0,0,0-1.59,3.05l.28,2.25a15.69,15.69,0,0,0,1.71,5.45l1.82,3.41L26.05,43l4.15-2.21-1.82-3.41a15.54,15.54,0,0,0-3.56-4.46L23.11,31.4A3,3,0,0,0,19.69,31Z"/><path class="cls-2" d="M22.29,30.9a2.75,2.75,0,0,0-.05,1l.28,2.25a15.57,15.57,0,0,0,1.72,5.45L26.06,43l-4.15,2.21-1.81-3.4a15.38,15.38,0,0,1-1.73-5.45l-.27-2.25A3.06,3.06,0,0,1,19.68,31h0A3,3,0,0,1,22.29,30.9Z"/><rect class="cls-5" x="21.52" y="46.38" width="14.26" height="2.89" transform="translate(-19.12 19.08) rotate(-28.04)"/><rect class="cls-5" x="24.29" y="51.6" width="14.26" height="2.89" transform="translate(-21.25 21) rotate(-28.04)"/><path class="cls-5" d="M43.37,67.79c2.56,4.82,3.22,9.48,1.46,10.42S39.57,76,37,71.18s-3.22-9.48-1.46-10.42S40.8,63,43.37,67.79Z"/><rect class="cls-5" x="42.34" y="85.47" width="14.26" height="2.89" transform="translate(-35.05 33.46) rotate(-28.04)"/><rect class="cls-5" x="45.12" y="90.69" width="14.26" height="2.89" transform="translate(-37.18 35.38) rotate(-28.04)"/><path class="cls-17" d="M270.88,246.9,233.45,289a2.89,2.89,0,0,1-4.09.24l-6.31-5.61a2.89,2.89,0,0,1-.25-4.1l37.42-42.11a2.92,2.92,0,0,1,4.11-.24l6.31,5.61A2.92,2.92,0,0,1,270.88,246.9Z"/><path class="cls-18" d="M264.32,237.19a2.9,2.9,0,0,0-4.1.24l-37.42,42.1a2.9,2.9,0,0,0,.24,4.1l3.16,2.8L267.48,240Z"/><path class="cls-17" d="M276.31,230.05h0a3,3,0,0,0-3.41-.42l-2,1a15.59,15.59,0,0,0-4.52,3.51l-2.56,2.88,3.51,3.12,3.51,3.12,2.56-2.88a15.53,15.53,0,0,0,2.95-4.9l.8-2.12A3,3,0,0,0,276.31,230.05Z"/><path class="cls-18" d="M277.32,232.45a2.93,2.93,0,0,0-.91.29l-2,1a15.39,15.39,0,0,0-4.51,3.5l-2.56,2.88-3.52-3.12,2.56-2.88a15.46,15.46,0,0,1,4.52-3.51l2-1a3,3,0,0,1,3.41.42h0A3,3,0,0,1,277.32,232.45Z"/><rect class="cls-5" x="262.21" y="237.16" width="2.89" height="14.26" transform="translate(-94.09 279.08) rotate(-48.37)"/><rect class="cls-5" x="258.28" y="241.58" width="2.89" height="14.26" transform="translate(-98.71 277.63) rotate(-48.37)"/><path class="cls-5" d="M250.05,265c-3.63,4.08-7.78,6.32-9.27,5s.25-5.71,3.87-9.79,7.78-6.31,9.27-5S253.67,261,250.05,265Z"/><rect class="cls-5" x="232.79" y="270.27" width="2.89" height="14.26" transform="translate(-128.71 268.19) rotate(-48.37)"/><rect class="cls-5" x="228.86" y="274.69" width="2.89" height="14.26" transform="translate(-133.33 266.72) rotate(-48.37)"/><path class="cls-7" d="M244.16,221.84,190,237.41a2.89,2.89,0,0,1-3.59-2l-2.33-8.11a2.9,2.9,0,0,1,2-3.6l54.14-15.57a2.89,2.89,0,0,1,3.59,2l2.34,8.11A2.92,2.92,0,0,1,244.16,221.84Z"/><path class="cls-6" d="M243.81,210.12a2.91,2.91,0,0,0-3.6-2l-54.13,15.57a2.9,2.9,0,0,0-2,3.59l1.18,4.06L245,214.18Z"/><path class="cls-7" d="M257.75,210.51h0a3,3,0,0,0-2.65-2.19l-2.25-.2a15.81,15.81,0,0,0-5.69.55l-3.72,1.07,1.3,4.51,1.3,4.51,3.71-1.06a15.74,15.74,0,0,0,5.11-2.56l1.81-1.37A3,3,0,0,0,257.75,210.51Z"/><path class="cls-6" d="M257.32,213.07a3,3,0,0,0-.92-.24l-2.26-.19a15.64,15.64,0,0,0-5.69.55l-3.7,1.07-1.3-4.52,3.7-1.07a15.64,15.64,0,0,1,5.69-.55l2.26.21a3,3,0,0,1,2.65,2.17h0A3,3,0,0,1,257.32,213.07Z"/><rect class="cls-5" x="238" y="208.65" width="2.89" height="14.26" transform="translate(-50.33 74.62) rotate(-16.05)"/><rect class="cls-5" x="232.32" y="210.28" width="2.89" height="14.26" transform="translate(-51 73.11) rotate(-16.05)"/><path class="cls-5" d="M216.86,226c-5.25,1.51-10,1.18-10.5-.73s3.25-4.7,8.5-6.21,9.95-1.18,10.5.74S222.1,224.52,216.86,226Z"/><rect class="cls-5" x="195.44" y="220.89" width="2.89" height="14.26" transform="translate(-55.37 63.32) rotate(-16.05)"/><rect class="cls-5" x="189.75" y="222.53" width="2.89" height="14.26" transform="translate(-56.04 61.82) rotate(-16.05)"/></g></g></svg>