<svg id="OBJECTS" xmlns="http://www.w3.org/2000/svg" xmlns:xlink="http://www.w3.org/1999/xlink" viewBox="0 0 354.7 343.79"><defs><style>.cls-1{fill:#f0678f;}.cls-2{fill:#b3aad3;}.cls-3{fill:#51c0b1;}.cls-4{fill:#f17fb1;}.cls-5{fill:#f0593b;}.cls-6{fill:url(#linear-gradient);}.cls-7{fill:url(#linear-gradient-2);}.cls-8{fill:url(#linear-gradient-3);}.cls-9{fill:url(#linear-gradient-4);}.cls-10{fill:url(#linear-gradient-5);}.cls-11{fill:#7cd0e8;}.cls-12{fill:#f9c1b9;}.cls-13{fill:#f16953;}.cls-14{fill:#f79828;}.cls-15{fill:#ffcc73;}.cls-16{fill:#ffcb73;}.cls-17,.cls-49,.cls-61,.cls-62{fill:#fff;}.cls-18{fill:#b4aad3;}.cls-19{fill:#f0593a;}.cls-20{fill:#f06952;}.cls-21{fill:#2b2b2b;}.cls-22{fill:#fbd7d6;}.cls-23{fill:#f17fb0;}.cls-24{fill:#c2b9db;}.cls-25{fill:#fab21b;}.cls-26{fill:#b2aad3;}.cls-27{fill:#fbb21a;}.cls-28{fill:#ec9796;}.cls-29{fill:#f4aea6;}.cls-30{fill:#4a4793;}.cls-31{fill:#0ab0be;}.cls-32{fill:#54c7e3;}.cls-33{fill:#7acfe7;}.cls-34{fill:#8c4b5d;}.cls-35{fill:#673542;}.cls-36{fill:#9ae3f4;}.cls-37{fill:none;}.cls-38{fill:#635ba7;}.cls-39{fill:#4fc1b2;}.cls-40{fill:#55c7e4;}.cls-41{fill:#f7f7f7;}.cls-42{fill:#ebe9f4;}.cls-43{fill:#635ba8;}.cls-44{fill:url(#linear-gradient-6);}.cls-45{fill:url(#linear-gradient-7);}.cls-46{fill:url(#linear-gradient-8);}.cls-47,.cls-48,.cls-49,.cls-50{opacity:0.4;}.cls-47{fill:url(#linear-gradient-9);}.cls-48{fill:url(#linear-gradient-10);}.cls-50{fill:url(#linear-gradient-11);}.cls-51{fill:#e3e3e8;}.cls-52{fill:#42b29f;}.cls-53{fill:#582938;}.cls-54{fill:#421c2a;}.cls-55{fill:#ed9996;}.cls-56{fill:#f27fb2;}.cls-57{fill:#8e4f4f;}.cls-58{fill:#3d1926;}.cls-59{fill:#f4b2ab;}.cls-60{fill:#111;}.cls-61{font-size:20.29px;}.cls-61,.cls-62{font-family:MyriadPro-Regular, Myriad Pro;}.cls-62{font-size:20.29px;}</style><linearGradient id="linear-gradient" x1="223.68" y1="320.98" x2="223.68" y2="341.8" gradientTransform="translate(19.72 -30.83) rotate(-32.03)" gradientUnits="userSpaceOnUse"><stop offset="0" stop-color="#f79828"/><stop offset="1" stop-color="#f0593a"/></linearGradient><linearGradient id="linear-gradient-2" x1="431.71" y1="28.4" x2="431.71" y2="49.21" gradientTransform="matrix(0.92, 0.39, -0.39, 0.92, -50.63, 16.59)" gradientUnits="userSpaceOnUse"><stop offset="0" stop-color="#51c0b1"/><stop offset="0.99" stop-color="#7acfe7"/></linearGradient><linearGradient id="linear-gradient-3" x1="156.07" y1="-24.56" x2="156.07" y2="-3.75" gradientTransform="matrix(1, -0.04, 0.04, 1, -43.15, 122.91)" xlink:href="#linear-gradient-2"/><linearGradient id="linear-gradient-4" x1="249.21" y1="-28.26" x2="249.21" y2="-7.45" gradientTransform="matrix(0.93, -0.36, 0.36, 0.93, -29.64, 278.53)" gradientUnits="userSpaceOnUse"><stop offset="0" stop-color="#f79828"/><stop offset="0.99" stop-color="#f17fb0"/></linearGradient><linearGradient id="linear-gradient-5" x1="393.72" y1="3.27" x2="393.72" y2="24.09" gradientTransform="translate(-80.42 15.01) rotate(12.95)" xlink:href="#linear-gradient-4"/><linearGradient id="linear-gradient-6" x1="339.38" y1="86.92" x2="348.23" y2="86.92" gradientTransform="translate(13.81 -115.69) rotate(36.09)" xlink:href="#linear-gradient-2"/><linearGradient id="linear-gradient-7" x1="329.65" y1="100.69" x2="337.5" y2="100.69" gradientTransform="translate(13.81 -115.69) rotate(36.09)" xlink:href="#linear-gradient-2"/><linearGradient id="linear-gradient-8" x1="741.99" y1="90.05" x2="749.84" y2="90.05" gradientTransform="matrix(-0.84, -0.55, -0.55, 0.84, 914.08, 504.54)" xlink:href="#linear-gradient-2"/><linearGradient id="linear-gradient-9" x1="243.7" y1="127.18" x2="251.23" y2="127.18" gradientTransform="matrix(0.98, 0.2, -0.2, 0.98, 17.81, -62.98)" xlink:href="#linear-gradient-2"/><linearGradient id="linear-gradient-10" x1="248.42" y1="129.53" x2="256.06" y2="129.53" gradientTransform="matrix(0.98, 0.2, -0.2, 0.98, 17.81, -62.98)" xlink:href="#linear-gradient-2"/><linearGradient id="linear-gradient-11" x1="256.99" y1="129.99" x2="262.98" y2="129.99" gradientTransform="matrix(0.98, 0.2, -0.2, 0.98, 17.81, -62.98)" xlink:href="#linear-gradient-2"/></defs><title>education</title><circle class="cls-1" cx="186.78" cy="167.92" r="167.92"/><path class="cls-2" d="M331.89,184.39l-6.08-4.56.93,7.44-4.55,6.08,7.43-.93L335.7,197l-.93-7.44,4.56-6.08Z" transform="translate(-64.81 -5.97)"/><path class="cls-3" d="M261.92,177.4l-7.31-2.06,3.54,6.6-2.06,7.31,6.6-3.54,7.31,2.07-3.54-6.61,2.07-7.3Z" transform="translate(-64.81 -5.97)"/><path class="cls-4" d="M200.2,243.59l-5.29-4,.81,6.48-4,5.29,6.48-.81,5.29,4-.81-6.48,4-5.29Z" transform="translate(-64.81 -5.97)"/><path class="cls-2" d="M387.62,155.67l-5.3-4,.81,6.48-4,5.29,6.48-.81,5.29,4-.8-6.48,4-5.29Z" transform="translate(-64.81 -5.97)"/><path class="cls-2" d="M120.36,74.86l-1.82-6.36-3.27,5.65L108.91,76l5.65,3.27,1.82,6.36L119.65,80,126,78.13Z" transform="translate(-64.81 -5.97)"/><path class="cls-5" d="M140.64,164.89l-3.41-5.66-1.69,6.3-5.67,3.41,6.31,1.69,3.41,5.67,1.69-6.3,5.67-3.42Z" transform="translate(-64.81 -5.97)"/><path class="cls-6" d="M379.94,130.65s-2.89-6.42-1.41-7.32,6.41,1.93,6.41,1.93,5.9-3.59,7.12-2.44-1,6.29-1,6.29,6.89,3,6.46,4.47-8,2.07-8,2.07-1.55,6.83-3.34,7.44c-1.08.37-3.33-6.67-3.33-6.67s-6.4,1.62-7,.07S379.94,130.65,379.94,130.65Z" transform="translate(-64.81 -5.97)"/><path class="cls-7" d="M329.4,216.09s3.6-6,5.18-5.34,2.1,6.35,2.1,6.35,6.33,2.78,6.08,4.44S337,224.3,337,224.3s1.52,7.35.05,7.85-6.29-5.36-6.29-5.36-6.48,2.64-8,1.53c-.93-.67,3.55-6.55,3.55-6.55s-5-4.32-4.08-5.71S329.4,216.09,329.4,216.09Z" transform="translate(-64.81 -5.97)"/><path class="cls-8" d="M108.21,99.51s.69-7,2.41-7,4.61,4.86,4.61,4.86,6.9-.18,7.39,1.43-4,4.94-4,4.94,4.5,6,3.37,7.09-8-2.19-8-2.19-4.75,5.15-6.6,4.79c-1.13-.21.43-7.44.43-7.44s-6.36-1.78-6.12-3.43S108.21,99.51,108.21,99.51Z" transform="translate(-64.81 -5.97)"/><path class="cls-9" d="M191.16,169.57s-1.64-6.84,0-7.44,5.94,3.08,5.94,3.08,6.46-2.43,7.44-1.07-2.18,6-2.18,6,6.22,4.2,5.52,5.59-8.25.55-8.25.55-2.79,6.42-4.66,6.68c-1.14.17-2-7.17-2-7.17s-6.6.4-6.91-1.24S191.16,169.57,191.16,169.57Z" transform="translate(-64.81 -5.97)"/><path class="cls-10" d="M297.15,112.28s2.5-6.57,4.17-6.16S304.5,112,304.5,112s6.71,1.63,6.76,3.31-5.17,3.72-5.17,3.72,2.77,7,1.41,7.72-7.12-4.19-7.12-4.19-5.93,3.74-7.62,2.91c-1-.51,2.35-7.07,2.35-7.07s-5.67-3.39-5-4.91S297.15,112.28,297.15,112.28Z" transform="translate(-64.81 -5.97)"/><path class="cls-2" d="M220.74,197.88a4,4,0,1,1-4.61-3.34A4,4,0,0,1,220.74,197.88Z" transform="translate(-64.81 -5.97)"/><path class="cls-2" d="M282.08,124.63a4,4,0,1,1-4.62-3.34A4,4,0,0,1,282.08,124.63Z" transform="translate(-64.81 -5.97)"/><path class="cls-11" d="M97.58,85.26A4,4,0,1,1,93,81.92,4,4,0,0,1,97.58,85.26Z" transform="translate(-64.81 -5.97)"/><path class="cls-12" d="M306.22,227.66a2.8,2.8,0,1,1-3.21-2.32A2.79,2.79,0,0,1,306.22,227.66Z" transform="translate(-64.81 -5.97)"/><path class="cls-12" d="M328.71,115.73a2.8,2.8,0,1,1-3.21-2.33A2.8,2.8,0,0,1,328.71,115.73Z" transform="translate(-64.81 -5.97)"/><path class="cls-13" d="M214.51,220.58a2.81,2.81,0,1,1-3.21-2.32A2.81,2.81,0,0,1,214.51,220.58Z" transform="translate(-64.81 -5.97)"/><path class="cls-13" d="M270.58,109a2.8,2.8,0,1,1-3.2-2.32A2.79,2.79,0,0,1,270.58,109Z" transform="translate(-64.81 -5.97)"/><path class="cls-14" d="M113.12,125.87a2.8,2.8,0,1,1-3.2-2.32A2.79,2.79,0,0,1,113.12,125.87Z" transform="translate(-64.81 -5.97)"/><path class="cls-14" d="M70.38,76.61a2.8,2.8,0,1,1-3.21-2.32A2.79,2.79,0,0,1,70.38,76.61Z" transform="translate(-64.81 -5.97)"/><path class="cls-15" d="M360.66,202.68a4.94,4.94,0,1,1-5.65-4.1A4.93,4.93,0,0,1,360.66,202.68Z" transform="translate(-64.81 -5.97)"/><path class="cls-16" d="M300.68,194.19a2.51,2.51,0,1,1-3.43-.91A2.51,2.51,0,0,1,300.68,194.19Z" transform="translate(-64.81 -5.97)"/><path class="cls-17" d="M295.32,191.58c-2.58,2.94-12.45,11.73-7.91,16.36,3.25,3.32,10.31-4.78,12.18-6.72a71.72,71.72,0,0,0,7.53-9.32c1.48-2.17,3.75-5.18,3.38-8-.27-2.06-3-1.33-4.25-.9-4.29,1.53-8,5.19-10.93,8.53-.37.41.28.95.64.54a37.75,37.75,0,0,1,8.08-7,11.76,11.76,0,0,1,4-1.7c2.88-.56,1.09,3.31.59,4.31-2.37,4.79-6.06,9.08-9.7,12.94-1.53,1.63-7.92,8.88-10.79,6.83s1.28-7.74,2.6-9.46c1.6-2.08,3.48-3.94,5.21-5.92C296.33,191.71,295.68,191.17,295.32,191.58Z" transform="translate(-64.81 -5.97)"/><path class="cls-17" d="M300.48,190.92c-3.82-.78-16.35-5-18.13,1.21-1.28,4.47,9.26,6.6,11.87,7.27A70.57,70.57,0,0,0,306,201.34c2.62.22,6.35.7,8.58-1,1.66-1.26-.34-3.3-1.32-4.14-3.45-3-8.46-4.38-12.82-5.3-.53-.11-.68.72-.15.84a37.45,37.45,0,0,1,10.08,3.55,12,12,0,0,1,3.46,2.65c1.91,2.23-2.34,2.58-3.46,2.64-5.33.31-10.89-.78-16-2-2.17-.53-11.63-2.5-11.27-6s7.37-2.71,9.51-2.42c2.6.37,5.15,1.09,7.72,1.62A.43.43,0,0,0,300.48,190.92Z" transform="translate(-64.81 -5.97)"/><path class="cls-17" d="M303.59,194.93c-1.33-3.68-4.24-16.58-10.49-14.84-4.48,1.24-.81,11.34,0,13.91a70.29,70.29,0,0,0,4.5,11.1c1.19,2.35,2.72,5.79,5.32,6.81,1.93.76,2.63-2,2.84-3.29.74-4.49-.67-9.5-2.16-13.69a.42.42,0,0,0-.79.3A37.93,37.93,0,0,1,305,205.69a12,12,0,0,1-.46,4.33c-.9,2.79-3.42-.65-4.06-1.57-3-4.39-5-9.7-6.62-14.75-.69-2.13-3.94-11.23-.75-12.75s6.15,4.87,7,6.85c1.05,2.42,1.76,5,2.66,7.43C303,195.75,303.77,195.44,303.59,194.93Z" transform="translate(-64.81 -5.97)"/><path class="cls-18" d="M309,200.66a1.22,1.22,0,1,1-2.11,1.22,1.22,1.22,0,0,1,2.11-1.22Z" transform="translate(-64.81 -5.97)"/><path class="cls-18" d="M291.77,207.19a1.22,1.22,0,1,1-1.67-.45A1.22,1.22,0,0,1,291.77,207.19Z" transform="translate(-64.81 -5.97)"/><path class="cls-18" d="M292.63,183a1.22,1.22,0,1,1-1.67-.44A1.22,1.22,0,0,1,292.63,183Z" transform="translate(-64.81 -5.97)"/><path class="cls-19" d="M192.11,130.45a17.12,17.12,0,0,0,30.64,12.7l.24-.34C211.92,144.71,200.23,138.93,192.11,130.45Z" transform="translate(-64.81 -5.97)"/><path class="cls-20" d="M218.86,119.46a17,17,0,0,0-23.74,3.59,16.66,16.66,0,0,0-3,7.4c8.12,8.48,19.81,14.26,30.88,12.36A17,17,0,0,0,218.86,119.46Z" transform="translate(-64.81 -5.97)"/><path class="cls-17" d="M203.44,138.19a8,8,0,0,0-1.64-.74c.37-1,.77-1.95,1.2-2.9a45.47,45.47,0,0,0,4.7,2.18c5.24,2.09,11.62,3.83,17.23,2.31a1.84,1.84,0,0,0,.09-.25c-5.58,1.32-11.57-.27-16.79-2.27a42.12,42.12,0,0,1-5.06-2.33c.38-.82.78-1.63,1.19-2.42l.57-1.05c2.92,1.8,6.62,1.77,9.94.94,3.75-.94,6.56-3.48,9.15-6.21l-.23-.42c-2.35,2.47-4.84,4.73-8.17,5.89s-7.39,1.22-10.44-.63a40.53,40.53,0,0,1,5.23-7.19,27.45,27.45,0,0,1,5.77-5.24l-.45-.21a32,32,0,0,0-4.31,3.82,37.18,37.18,0,0,0-6.56,8.61,8.65,8.65,0,0,1-1.29-1.06c-3.7-3.68-1.6-8.22.56-12.23l-.49.15c-2.31,4.2-4.2,8.93-.1,12.73a8.49,8.49,0,0,0,1.07.85l-.21.38c-.54,1-1.07,2-1.57,3.1a38.83,38.83,0,0,1-4.16-2.69,25.74,25.74,0,0,1-5.46-4.84c-.07.15-.13.31-.19.46a29.67,29.67,0,0,0,4.47,4,33.72,33.72,0,0,0,5.17,3.45c-.44,1-.86,2-1.23,3a8.53,8.53,0,0,0-8.09,2.34l.25.55a12.33,12.33,0,0,1,1.82-1.49,6.81,6.81,0,0,1,5.8-.78,21.15,21.15,0,0,0-1.27,9.4l.25.16a22.66,22.66,0,0,1,1.39-9.44,9.92,9.92,0,0,1,2.82,1.53c3.12,2.43,4.85,6.38,5.75,10.4l.66,0C209.81,145.23,207.38,140.54,203.44,138.19Z" transform="translate(-64.81 -5.97)"/><path class="cls-21" d="M340.19,155.05c-.14-1.33-2.19-1.88-3.94-2.12a13.34,13.34,0,0,0,2.32,5.53C339.48,157.4,340.3,156.13,340.19,155.05Z" transform="translate(-64.81 -5.97)"/><path class="cls-22" d="M330.63,155.94l3,4.72h2.71a18.4,18.4,0,0,0,2.26-2.19,13.34,13.34,0,0,1-2.32-5.53,19.47,19.47,0,0,0-2.48-.17Z" transform="translate(-64.81 -5.97)"/><path class="cls-23" d="M300.17,165.52a17.11,17.11,0,0,0,1.71,5c.81,1.7,2.1.88,2.1.88l2.17-1-.61-1.94a31,31,0,0,0-5.26-3.7A2.67,2.67,0,0,0,300.17,165.52Z" transform="translate(-64.81 -5.97)"/><path class="cls-1" d="M301.44,163.56a1.85,1.85,0,0,0-1.16,1.18,31,31,0,0,1,5.26,3.7l-1.85-5.8S302.34,163.17,301.44,163.56Z" transform="translate(-64.81 -5.97)"/><path class="cls-24" d="M306.14,162.13a33.48,33.48,0,0,0,2.19,7.25,1,1,0,0,1-.59,1.13c-.79.27-1.24.65-1.59-.13s-2.52-6.75-2.46-7.74C303.73,162.08,306,161.45,306.14,162.13Z" transform="translate(-64.81 -5.97)"/><path class="cls-16" d="M333.7,153.27c.34-.4.07-.51.07-.51l-27.63,9.37a9,9,0,0,0,.26,1.67l26-8.87C332.25,154.27,333.38,153.64,333.7,153.27Z" transform="translate(-64.81 -5.97)"/><path class="cls-14" d="M336.2,160c-.36-.42-1.81-.25-2.13-.83l-26.25,8.94c.29.76.51,1.27.51,1.27l28-8.73S336.6,160.45,336.2,160Z" transform="translate(-64.81 -5.97)"/><path class="cls-25" d="M334,159c-.12-.79,1.33-1.88,1-2.78s-2.58-1.17-2.58-1.17a.56.56,0,0,1,0-.12l-26,8.87a36.94,36.94,0,0,0,1.42,4.31l26.25-8.94A.49.49,0,0,1,334,159Z" transform="translate(-64.81 -5.97)"/><path class="cls-25" d="M175.53,166.39a53.2,53.2,0,0,0-7.05-6.56c-5.15-3.91-7.71-11.79-7.31-19.24a13.63,13.63,0,0,0-3.15,3.3c-3.77,5.48-2.1,11.92-1,17.29a20.76,20.76,0,0,1-.51,9.93l6.66,2.21,6.66,2.21a20.07,20.07,0,0,1,5-8.44Z" transform="translate(-64.81 -5.97)"/><path class="cls-16" d="M168.48,159.83a53.2,53.2,0,0,1,7.05,6.56c3.68-3.59,8-7.74,7.9-14.08s-3.84-11.13-10-13.17c-4.58-1.52-8.88-1-12.26,1.45C160.77,148,163.33,155.92,168.48,159.83Z" transform="translate(-64.81 -5.97)"/><path class="cls-11" d="M159.59,172.66A43.69,43.69,0,0,0,162.87,161c.26-2.16.68-5.85-.8-7.8-1.63-2.15-3.82.58-3.46,2.43.63,3.15,3.92,3.55,6.6,2.93,3.07-.7,5.43-3.44,6.38-6.29.86-2.6-1.26-5.7-3.85-3.43-2.27,2-.5,6.75.86,8.93,1.56,2.48,4.86,4,7.17,1.82,1-.94,1.24-3.66-.59-4.1-2.66-.64-4.34,2.52-5.31,4.35-2.27,4.33-4.11,10-3.32,15,.11.72,1.2.5,1.1-.2-.73-5.23,1.32-11,3.84-15.42a8.92,8.92,0,0,1,1.55-2c.75-.71,2.26-1.11,2.35.37.16,2.5-3.22,2.27-4.67,1.23a7.94,7.94,0,0,1-2.63-4.41,12.33,12.33,0,0,1-.46-2.68,3.94,3.94,0,0,1,.15-1.28c.28-1.23,2.26-2.56,3-.34.56,1.69-.79,3.6-1.74,4.82a7.54,7.54,0,0,1-4,2.79c-1.51.44-4.2.58-5.2-1a3.21,3.21,0,0,1-.28-2.44,1.17,1.17,0,0,1,1.75-.7,2.55,2.55,0,0,1,.54,1.15c.72,2.41.39,5.21.08,7.61a48.36,48.36,0,0,1-2.76,10.18c-.1.27.34.41.45.15Z" transform="translate(-64.81 -5.97)"/><path class="cls-26" d="M159.39,171.92a23.44,23.44,0,0,1-2.79-1.24l-.84,2.78c-2.51,7.67.7,8.74.7,8.74a26.42,26.42,0,0,0,4.42,1.79A25.32,25.32,0,0,1,159.39,171.92Z" transform="translate(-64.81 -5.97)"/><path class="cls-24" d="M169.92,175.1a81.19,81.19,0,0,1-10.53-3.18A25.32,25.32,0,0,0,160.88,184a23,23,0,0,0,3.14.72C167.79,185.28,169.92,175.1,169.92,175.1Z" transform="translate(-64.81 -5.97)"/><path class="cls-17" d="M156.65,173.26a55.1,55.1,0,0,0,12,3.76" transform="translate(-64.81 -5.97)"/><path class="cls-17" d="M156.57,173.39a24.9,24.9,0,0,0,5.9,2.35c1.82.57,4.28,1.62,6.19,1.45.19,0,.17-.28,0-.34-1.91-.73-4.09-1-6-1.62a49.65,49.65,0,0,1-5.92-2.12c-.17-.08-.28.18-.13.28Z" transform="translate(-64.81 -5.97)"/><path class="cls-17" d="M155.81,176.11a54.47,54.47,0,0,0,12,3.76" transform="translate(-64.81 -5.97)"/><path class="cls-17" d="M155.72,176.24a24.15,24.15,0,0,0,5.91,2.35c1.81.58,4.27,1.62,6.18,1.46.2,0,.17-.29,0-.35-1.9-.73-4.08-1-6-1.61a50.5,50.5,0,0,1-5.93-2.13c-.17-.07-.28.19-.13.28Z" transform="translate(-64.81 -5.97)"/><path class="cls-17" d="M155.53,178.9a51.52,51.52,0,0,0,11,3.53" transform="translate(-64.81 -5.97)"/><path class="cls-17" d="M155.45,179a23.3,23.3,0,0,0,5.44,2.19c1.67.54,3.94,1.52,5.69,1.38.18,0,.15-.25,0-.31-1.75-.68-3.75-.95-5.56-1.52a50.75,50.75,0,0,1-5.45-2c-.16-.07-.26.16-.12.25Z" transform="translate(-64.81 -5.97)"/><path class="cls-4" d="M372.67,176.24c-1.68-6.79-6.37-17.75-6.37-17.75l1.53-8.47s3.66.86,4.19-1c.47-1.66-1.89-2.09-1.89-2.09l-12.35-2.67c-1.91-.41-3.6-.84-4,1.06-.49,2.26,3.92,2.79,3.92,2.79l-1.44,8.38s-.2.24-.57.65A93.76,93.76,0,0,0,372.67,176.24Z" transform="translate(-64.81 -5.97)"/><path class="cls-1" d="M355.68,157.15C353.14,160,343,171.65,342,173.7c-1.17,2.34-.87,4,4.24,5.15l21.57,4.66s4.58,1,5.4-2.8a11.85,11.85,0,0,0-.52-4.47A93.76,93.76,0,0,1,355.68,157.15Z" transform="translate(-64.81 -5.97)"/><path class="cls-27" d="M352.91,163.36s-6.48,7.66-7.06,8.76-2.38,3.83,1.9,4.87,20.91,4.57,20.91,4.57,3.13-.07,2.11-4.61A80.07,80.07,0,0,0,367,165.76S356.28,165.31,352.91,163.36Z" transform="translate(-64.81 -5.97)"/><path class="cls-17" d="M356.39,169.3A1.2,1.2,0,1,1,354,169a1.2,1.2,0,0,1,2.38.32Z" transform="translate(-64.81 -5.97)"/><path class="cls-17" d="M368.77,177.77a1.2,1.2,0,1,1-1-1.35A1.2,1.2,0,0,1,368.77,177.77Z" transform="translate(-64.81 -5.97)"/><path class="cls-17" d="M364,169.57a.75.75,0,0,1-.83.63.74.74,0,1,1,.83-.63Z" transform="translate(-64.81 -5.97)"/><path class="cls-17" d="M350.38,173.29a.74.74,0,0,1-.83.63.73.73,0,0,1-.63-.82.73.73,0,0,1,.82-.64A.75.75,0,0,1,350.38,173.29Z" transform="translate(-64.81 -5.97)"/><path class="cls-17" d="M362.22,175.6a1.69,1.69,0,1,1-1.46-1.9A1.7,1.7,0,0,1,362.22,175.6Z" transform="translate(-64.81 -5.97)"/><path class="cls-28" d="M173,195.51c-6.27,5.61-19.41,29.3-5.13,38.83s33-9.77,35.11-18.33-2.85-10.84-5.58-9.15-3.7,0-3.7-1c0-3,3.23-7.36-1.11-12.3S179.23,189.89,173,195.51ZM191,211.41c-1.78,2.13-4.39,2.88-5.84,1.68s-1.17-3.91.61-6,4.39-2.89,5.83-1.68S192.8,209.28,191,211.41Z" transform="translate(-64.81 -5.97)"/><path class="cls-12" d="M171.84,195.61c-6.27,5.62-19.41,29.31-5.13,38.83a15.1,15.1,0,0,0,5.25,2.24,94.47,94.47,0,0,0,15.64-23.36,3.27,3.27,0,0,1-3.53-.13c-1.45-1.2-1.18-3.9.6-6s4.39-2.88,5.84-1.68a2.31,2.31,0,0,1,.34.36q1.5-3.87,2.74-7.84a8.57,8.57,0,0,0-2.16-4.3C187.09,188.75,178.11,190,171.84,195.61Z" transform="translate(-64.81 -5.97)"/><path class="cls-29" d="M189.9,211.51a6.67,6.67,0,0,1-2.3,1.81A94.47,94.47,0,0,1,172,236.68c13.25,2.84,28-13,29.87-20.56,2.11-8.56-2.86-10.85-5.59-9.16s-3.7,0-3.7-1c0-2.1,1.58-4.85,1.05-8q-1.25,4-2.74,7.84C191.88,207.16,191.52,209.57,189.9,211.51Z" transform="translate(-64.81 -5.97)"/><path class="cls-1" d="M183.17,194.08a4,4,0,0,0-4.57,1.9c-1.83,3,.48,5,3,5.44A10.32,10.32,0,0,1,183.17,194.08Z" transform="translate(-64.81 -5.97)"/><path class="cls-23" d="M185.4,200.45c2.42-2.58,1.23-4.08.38-5a5.33,5.33,0,0,0-2.61-1.38,10.32,10.32,0,0,0-1.56,7.34A4.24,4.24,0,0,0,185.4,200.45Z" transform="translate(-64.81 -5.97)"/><path class="cls-30" d="M172,201.87a4,4,0,0,0-3.74,3.25c-.79,3.39,2.05,4.61,4.59,4.2A10.26,10.26,0,0,1,172,201.87Z" transform="translate(-64.81 -5.97)"/><path class="cls-11" d="M176.12,207.2c1.48-3.21-.12-4.26-1.22-4.85a5.31,5.31,0,0,0-2.91-.48,10.26,10.26,0,0,0,.85,7.45A4.23,4.23,0,0,0,176.12,207.2Z" transform="translate(-64.81 -5.97)"/><path class="cls-31" d="M165.87,215.11a4.05,4.05,0,0,0-1.75,4.64c.92,3.36,4,3.08,6,1.52A10.28,10.28,0,0,1,165.87,215.11Z" transform="translate(-64.81 -5.97)"/><path class="cls-3" d="M172,217.84c-.23-3.53-2.13-3.69-3.39-3.69a5.36,5.36,0,0,0-2.78,1,10.28,10.28,0,0,0,4.29,6.16A4.28,4.28,0,0,0,172,217.84Z" transform="translate(-64.81 -5.97)"/><path class="cls-25" d="M169.71,226.11a4,4,0,0,0-.9,4.87c1.49,3.15,4.47,2.33,6.2.43A10.27,10.27,0,0,1,169.71,226.11Z" transform="translate(-64.81 -5.97)"/><path class="cls-16" d="M176.26,227.71c-.84-3.43-2.75-3.26-4-3a5.31,5.31,0,0,0-2.57,1.44,10.27,10.27,0,0,0,5.3,5.3A4.23,4.23,0,0,0,176.26,227.71Z" transform="translate(-64.81 -5.97)"/><path class="cls-32" d="M188.69,217.32c-5,3.35-11.21,8.45-11.05,13,0,1.24,1.19.94,2.28.75a9.38,9.38,0,0,0,2.74-1.15A39.59,39.59,0,0,1,188.69,217.32Z" transform="translate(-64.81 -5.97)"/><path class="cls-33" d="M197.1,216.11l-2.35-2.44s-2.76,1.44-6.06,3.65a39.59,39.59,0,0,0-6,12.63C188.39,226.7,197.32,217.79,197.1,216.11Z" transform="translate(-64.81 -5.97)"/><path class="cls-34" d="M198.69,214.43a9,9,0,0,0,5.17-3.33,7.61,7.61,0,0,0,1.2-3.86,8.1,8.1,0,0,1-1.7,3.64,6.9,6.9,0,0,1-2,1.64,7.4,7.4,0,0,0-2.89,1.75c-.06.06-.16,0-.11-.08,1-1.38,2.76-1.47,4-2.57a7.18,7.18,0,0,0,2.37-3.79c.08-.34.15-.68.25-1a8.59,8.59,0,0,0-.91,1.34,5.07,5.07,0,0,1-1.38,1.83c-1.67,1.33-3.63,1.84-5.09,3.51a.05.05,0,1,1-.09-.06c1-1.49,2.42-2,3.92-2.89a7,7,0,0,0,2.7-3.15,1.64,1.64,0,0,1,.14-.22c-2.35,2-5.74,2.64-7,6,0,0-.07,0-.06,0,1-4,5.83-4.32,8-7.31h0c-2.31,2.88-8.29,1.3-8.33,6.37a.06.06,0,0,1-.1,0,3.77,3.77,0,0,0,1.94,2.28A.12.12,0,0,1,198.69,214.43Z" transform="translate(-64.81 -5.97)"/><path class="cls-34" d="M204.82,205.77l0,0c-1.77,1.31-2.29-.13-5.37,1.51a5,5,0,0,0-2.63,3.45C197.66,207.49,202.73,207.86,204.82,205.77Z" transform="translate(-64.81 -5.97)"/><path class="cls-34" d="M199.16,214.52c5.11-.23,6.78-6.74,6.27-8.44l-.15.44C205.48,210.45,202.88,213.39,199.16,214.52Z" transform="translate(-64.81 -5.97)"/><path class="cls-35" d="M205.18,205.89v0c-2.21,3-7,3.18-8.1,7.19a0,0,0,1,0,.06,0c1.31-3.29,4.71-3.89,7.09-5.85A7.05,7.05,0,0,0,205.18,205.89Z" transform="translate(-64.81 -5.97)"/><path class="cls-35" d="M204.23,207.22l-.14.21a7.07,7.07,0,0,1-2.75,3.12c-1.51.87-2.9,1.36-4,2.83,0,.06.05.12.1.07,1.48-1.65,3.44-2.13,5.13-3.44A5.29,5.29,0,0,0,204,208.2a8.84,8.84,0,0,1,.92-1.33c.05-.17.1-.33.16-.5A7.75,7.75,0,0,1,204.23,207.22Z" transform="translate(-64.81 -5.97)"/><path class="cls-35" d="M205.16,206.2c0-.1,0-.2,0-.31a7.05,7.05,0,0,1-1,1.33,7.75,7.75,0,0,0,.87-.85Z" transform="translate(-64.81 -5.97)"/><path class="cls-35" d="M205.28,205.85v0a0,0,0,0,0,0,0l0,0-.06-.06,0,.05A.07.07,0,0,1,205.28,205.85Z" transform="translate(-64.81 -5.97)"/><path class="cls-35" d="M204.94,206.87c-.09.33-.18.67-.26,1a7.18,7.18,0,0,1-2.42,3.75c-1.21,1.09-3,1.15-4,2.52,0,.06.05.14.11.07a7.4,7.4,0,0,1,2.92-1.7,7,7,0,0,0,2.06-1.61,8.08,8.08,0,0,0,1.75-3.62c0-.23,0-.47.05-.71Z" transform="translate(-64.81 -5.97)"/><path class="cls-35" d="M205.31,206.31a2.46,2.46,0,0,1,0,.26c0-.14.1-.29.16-.43a.5.5,0,0,0,0-.13C205.41,206.11,205.36,206.21,205.31,206.31Z" transform="translate(-64.81 -5.97)"/><path class="cls-35" d="M205.16,206.3l-.06.07c-.06.17-.11.33-.16.5l.21-.29C205.15,206.49,205.16,206.39,205.16,206.3Z" transform="translate(-64.81 -5.97)"/><path class="cls-35" d="M205.31,206.31c.05-.1.1-.2.14-.3s0,0,0,0l-.13.17C205.3,206.19,205.31,206.25,205.31,206.31Z" transform="translate(-64.81 -5.97)"/><path class="cls-35" d="M205.1,206.37l.06-.07v-.1Z" transform="translate(-64.81 -5.97)"/><path class="cls-35" d="M205.29,205.86a0,0,0,0,1,0,0c0,.08,0,.16,0,.24l.13-.17a.4.4,0,0,0-.11-.14Z" transform="translate(-64.81 -5.97)"/><path class="cls-35" d="M196.77,210.68a4.2,4.2,0,0,0-.14,1.42,0,0,0,0,0,0,.05.73.73,0,0,0,0-.08A5,5,0,0,1,196.77,210.68Z" transform="translate(-64.81 -5.97)"/><path class="cls-35" d="M196.76,212.1c.11-5.07,6.07-3.4,8.42-6.24h0a0,0,0,0,1,0,0s0,0,0,0v0a.35.35,0,0,0-.34.07c-2.13,2.05-7.19,1.62-8.12,4.86a5,5,0,0,0-.13,1.39.73.73,0,0,1,0,.08S196.76,212.15,196.76,212.1Z" transform="translate(-64.81 -5.97)"/><path class="cls-35" d="M205.23,205.75h0l0,0,0-.05A.13.13,0,0,0,205.23,205.75Z" transform="translate(-64.81 -5.97)"/><path class="cls-35" d="M205.25,205.76h0v0s0,0,0,0h0Z" transform="translate(-64.81 -5.97)"/><path class="cls-35" d="M199.1,214.49c3.73-1.09,6.37-4,6.23-7.92-.08.24-.16.48-.23.72a7.62,7.62,0,0,1-1.26,3.85,9.05,9.05,0,0,1-5.21,3.25.09.09,0,0,0-.06.06l.11,0Z" transform="translate(-64.81 -5.97)"/><path class="cls-35" d="M205.2,205.83l0,0h0s0,0,0,0Z" transform="translate(-64.81 -5.97)"/><path class="cls-35" d="M205.2,205.83s0,0,0,0v0A.14.14,0,0,1,205.2,205.83Z" transform="translate(-64.81 -5.97)"/><polygon class="cls-35" points="140.39 199.86 140.39 199.86 140.39 199.86 140.39 199.86"/><path class="cls-35" d="M205.28,205.85a.07.07,0,0,0-.07,0v0h0a.14.14,0,0,0,0,.06c0,.11,0,.21,0,.31l.12-.31Z" transform="translate(-64.81 -5.97)"/><path class="cls-35" d="M205.15,206.58c0,.24,0,.48-.05.71.07-.24.15-.48.23-.72a2.46,2.46,0,0,0,0-.26C205.26,206.4,205.21,206.49,205.15,206.58Z" transform="translate(-64.81 -5.97)"/><path class="cls-35" d="M205.16,206.3c0,.09,0,.19,0,.28.06-.09.11-.18.16-.27s0-.12,0-.18S205.21,206.25,205.16,206.3Z" transform="translate(-64.81 -5.97)"/><path class="cls-35" d="M205.28,205.89l-.12.31v.1c.05-.05.09-.11.14-.17S205.29,206,205.28,205.89Z" transform="translate(-64.81 -5.97)"/><path class="cls-35" d="M205.21,205.82a0,0,0,0,0,0,0h0l0,0Z" transform="translate(-64.81 -5.97)"/><path class="cls-35" d="M205.2,205.83v0h0Z" transform="translate(-64.81 -5.97)"/><path class="cls-35" d="M205.21,205.81v0Z" transform="translate(-64.81 -5.97)"/><path class="cls-1" d="M194.75,213.67c.31,1.72,2.35,2.44,2.35,2.44l.11-.06a7.44,7.44,0,0,1-.34-3.91C195.57,211.67,194.75,213.67,194.75,213.67Z" transform="translate(-64.81 -5.97)"/><path class="cls-23" d="M197.26,212.34a1.21,1.21,0,0,0-.39-.2,7.44,7.44,0,0,0,.34,3.91C199.55,214.75,198.76,213.42,197.26,212.34Z" transform="translate(-64.81 -5.97)"/><path class="cls-36" d="M106.87,139.41s36.48-8,39.22-8.56c2.47-.49,3-.14,3.38.62-6.25,2.45-12.82,3.4-19.88,4.31-7.92,1.32-15.07,3.08-23.21,3.81A2.33,2.33,0,0,1,106.87,139.41Z" transform="translate(-64.81 -5.97)"/><path class="cls-37" d="M114.54,144.52s13.66-3,14.68-3.2,1.17,0,1.31.33l-12.38,11.18q-.34.61-.51,1c-.58.24-.72-.42-.72-.42s-2.49-7.35-2.8-8.2C113.94,144.65,114.54,144.52,114.54,144.52Z" transform="translate(-64.81 -5.97)"/><path class="cls-33" d="M105.75,141.15c.81,2.28,7.48,21.9,7.48,21.9s.47,2.32,2.65.69c.44-.33,31.44-28.68,31.44-28.68s2.64-2.39,2.27-3.33l-.12-.26c-6.25,2.45-12.82,3.4-19.88,4.31-7.92,1.32-15.07,3.08-23.21,3.81A1.17,1.17,0,0,0,105.75,141.15Zm8.79,3.37s13.66-3,14.68-3.2,1.17,0,1.31.33c0,0,.84.08-2.77,3.58s-9.23,8.93-9.76,9.08-.76.32-.36-.52c-.58.24-.72-.42-.72-.42s-2.49-7.35-2.8-8.2C113.94,144.65,114.54,144.52,114.54,144.52Z" transform="translate(-64.81 -5.97)"/><path class="cls-36" d="M129.68,142.89s1-.89.85-1.24c0,0,.84.08-2.77,3.58s-9.23,8.93-9.76,9.08-.76.32-.36-.52a1.35,1.35,0,0,0,.27-.16C118.08,153.5,129.68,142.89,129.68,142.89Z" transform="translate(-64.81 -5.97)"/><path class="cls-38" d="M146,132.68c-.09-.38-.17-.76-.25-1.15a4,4,0,0,0-.11-.58c0-.08.11-.11.11,0a2.74,2.74,0,0,0,.11.57,9.22,9.22,0,0,1,.2,1.17s-.05.05-.06,0Z" transform="translate(-64.81 -5.97)"/><path class="cls-38" d="M141.67,133.74c-.09-.38-.17-.76-.25-1.15a3.71,3.71,0,0,0-.11-.58c0-.08.11-.11.11,0a2.21,2.21,0,0,0,.11.57,9.07,9.07,0,0,1,.2,1.16s0,.06-.06,0Z" transform="translate(-64.81 -5.97)"/><path class="cls-38" d="M137.44,134.6c-.09-.38-.17-.76-.25-1.15a3,3,0,0,0-.12-.58c0-.08.12-.11.12,0a2.21,2.21,0,0,0,.11.57,9.22,9.22,0,0,1,.2,1.17s-.05,0-.06,0Z" transform="translate(-64.81 -5.97)"/><path class="cls-38" d="M133.16,135.57c-.09-.38-.17-.76-.25-1.15a3.73,3.73,0,0,0-.12-.58c0-.08.12-.11.12,0a2.21,2.21,0,0,0,.11.57,9.07,9.07,0,0,1,.2,1.16s-.05.06-.06,0Z" transform="translate(-64.81 -5.97)"/><path class="cls-38" d="M129.62,136.31c-.08-.38-.17-.76-.25-1.15a3.71,3.71,0,0,0-.11-.58c0-.08.11-.11.11,0a2.74,2.74,0,0,0,.11.57,11.27,11.27,0,0,1,.21,1.16s-.06.06-.07,0Z" transform="translate(-64.81 -5.97)"/><path class="cls-38" d="M126.28,137c-.09-.38-.17-.76-.25-1.15a3.73,3.73,0,0,0-.12-.58c0-.08.12-.11.12,0a2.21,2.21,0,0,0,.11.57,9.07,9.07,0,0,1,.2,1.16s0,.06-.06,0Z" transform="translate(-64.81 -5.97)"/><path class="cls-38" d="M123.11,137.77c-.09-.38-.17-.76-.25-1.15a3.73,3.73,0,0,0-.12-.58c0-.08.12-.11.12,0a2.21,2.21,0,0,0,.11.57,8.93,8.93,0,0,1,.2,1.17s0,.05-.06,0Z" transform="translate(-64.81 -5.97)"/><path class="cls-38" d="M119.82,138.52c-.08-.38-.17-.77-.25-1.15a4.08,4.08,0,0,0-.11-.59c0-.07.11-.1.11,0a2.21,2.21,0,0,0,.11.57,9.07,9.07,0,0,1,.2,1.16s0,.06-.06,0Z" transform="translate(-64.81 -5.97)"/><path class="cls-38" d="M117,139c-.09-.39-.17-.77-.25-1.15a3.86,3.86,0,0,0-.12-.59c0-.07.12-.1.12,0a1.86,1.86,0,0,0,.11.57,9.07,9.07,0,0,1,.2,1.16s0,.06-.06,0Z" transform="translate(-64.81 -5.97)"/><path class="cls-38" d="M114.07,139.72c-.09-.38-.18-.77-.26-1.15a2.83,2.83,0,0,0-.11-.58c0-.08.11-.11.12,0a1.86,1.86,0,0,0,.11.57,11.24,11.24,0,0,1,.2,1.16s0,.06-.06,0Z" transform="translate(-64.81 -5.97)"/><path class="cls-38" d="M110.77,140.38c-.09-.38-.18-.76-.26-1.15a3.71,3.71,0,0,0-.11-.58c0-.08.11-.11.11,0a2.74,2.74,0,0,0,.11.57,11,11,0,0,1,.21,1.17s-.06,0-.06,0Z" transform="translate(-64.81 -5.97)"/><path class="cls-4" d="M286.12,160.83c-.52-4.64-2.24-18.57-4.19-18.29-3.51.5-13.64,2.82-13.39,4.6.17,1.18,1.84,9.27,2.64,13.16a2.88,2.88,0,0,0-1.46-.18,3.66,3.66,0,1,0,3.66,3.14,4.33,4.33,0,0,0-.26-1c.08-3.51-1.34-10.23-1.34-10.23s8.84-3.25,10.34-3l1.63,9.27a3,3,0,0,0-1.16-.08,3.66,3.66,0,0,0,1,7.18,3.29,3.29,0,0,0,2.66-3.15h0a3.83,3.83,0,0,0,0-.89A3,3,0,0,0,286.12,160.83Z" transform="translate(-64.81 -5.97)"/><path class="cls-11" d="M393.05,99.94c-1.35-4.47-5.56-17.86-7.43-17.23-3.36,1.13-12.9,5.24-12.33,6.94.37,1.13,3.47,8.78,5,12.47a2.73,2.73,0,0,0-1.47.09,3.65,3.65,0,1,0,4.17,2.42,4,4,0,0,0-.44-.91c-.55-3.46-3.16-9.82-3.16-9.82s8.11-4.79,9.63-4.78l3.28,8.82a3,3,0,0,0-1.15.13,3.66,3.66,0,0,0,2.3,6.88,3.32,3.32,0,0,0,2.06-3.58h0a4.49,4.49,0,0,0-.18-.87A4.72,4.72,0,0,0,393.05,99.94Z" transform="translate(-64.81 -5.97)"/><path class="cls-39" d="M355.92,119s4.86-13.46,3.82-14.72-6.56,16.59-5.19,15.66a28.57,28.57,0,0,1,2.46-1.52" transform="translate(-64.81 -5.97)"/><path class="cls-39" d="M356,116.18s2-12.39-4.63-13.47C349.35,106.73,353.38,115.78,356,116.18Z" transform="translate(-64.81 -5.97)"/><path class="cls-19" d="M344.42,115.27c-3.29,3.35-3.8,9.1-2.68,13.79,1.3,5.44,5.66,5,8,2.69,0,2.79,2.26,5.78,5.91,4.71A27.57,27.57,0,0,1,344.42,115.27Z" transform="translate(-64.81 -5.97)"/><path class="cls-20" d="M357.52,135.59c4.76-2.94,9-8.43,7.57-13.93s-10.2-3.39-10.2-3.39-3.78-7.3-8.67-4.42a8.68,8.68,0,0,0-1.8,1.42,27.57,27.57,0,0,0,11.19,21.19A7.76,7.76,0,0,0,357.52,135.59Z" transform="translate(-64.81 -5.97)"/><path class="cls-17" d="M358.61,119.66s3.37-.65,4.61,1.45A5.82,5.82,0,0,1,363,127c-.81,1.25-.47-3.24-1-4.32S356.29,121.21,358.61,119.66Z" transform="translate(-64.81 -5.97)"/><path class="cls-1" d="M182.61,101.05a23.79,23.79,0,0,0-47.33-4.78,23.26,23.26,0,0,0-.12,2.35l2.08.21c0-.72,0-1.44.11-2.17A21.79,21.79,0,1,1,180.71,101a22.3,22.3,0,0,1-.62,3.41l1.88.19A23.3,23.3,0,0,0,182.61,101.05Z" transform="translate(-64.81 -5.97)"/><path class="cls-13" d="M161.22,77.16a21.8,21.8,0,0,0-23.87,19.5c-.07.73-.11,1.45-.11,2.17l2.15.22a20.62,20.62,0,0,1,.1-2.35,19.55,19.55,0,0,1,38.91,3.93,20,20,0,0,1-.7,3.57l2.39.24a22.3,22.3,0,0,0,.62-3.41A21.79,21.79,0,0,0,161.22,77.16Z" transform="translate(-64.81 -5.97)"/><path class="cls-14" d="M141.14,97a18,18,0,1,1,35.1,7l1.46.15a20,20,0,0,0,.7-3.57,19.55,19.55,0,0,0-38.91-3.93,20.62,20.62,0,0,0-.1,2.35l1.66.16A19.89,19.89,0,0,1,141.14,97Z" transform="translate(-64.81 -5.97)"/><path class="cls-15" d="M160.84,81A18,18,0,0,0,141.14,97a19.89,19.89,0,0,0-.09,2.17l1.84.19a16.87,16.87,0,0,1,.07-2.35,16.07,16.07,0,0,1,32,3.23,16.7,16.7,0,0,1-.77,3.56l2.08.21A18,18,0,0,0,160.84,81Z" transform="translate(-64.81 -5.97)"/><path class="cls-3" d="M144.54,97.38a14.56,14.56,0,1,1,28.22,6.32l1.4.14a16.7,16.7,0,0,0,.77-3.56,16.07,16.07,0,0,0-32-3.23,16.87,16.87,0,0,0-.07,2.35l1.6.16A14.49,14.49,0,0,1,144.54,97.38Z" transform="translate(-64.81 -5.97)"/><path class="cls-40" d="M160.49,84.36a14.52,14.52,0,0,0-16,15.2l1.62.16a13.15,13.15,0,0,1,0-2.17,12.94,12.94,0,1,1,24.95,6l1.66.17a14.56,14.56,0,0,0-12.27-19.34Z" transform="translate(-64.81 -5.97)"/><path class="cls-2" d="M147.77,97.54a11.23,11.23,0,0,1,22.35,2.25,11.51,11.51,0,0,1-1,3.54l1.94.2a12.94,12.94,0,1,0-25-3.81l1.67.17A11.53,11.53,0,0,1,147.77,97.54Z" transform="translate(-64.81 -5.97)"/><path class="cls-41" d="M148,99.44s2.07-9.16-2.16-9.29-4.17,7-4.17,7,1.53-6.86-3.12-6.28c-3.1.66-2.53,6.28-2.53,6.28s-.16-4.78-2.52-4.11c-3.18.89-1.25,5.5-3.24,7l16.78,1.7S147.68,101.35,148,99.44Z" transform="translate(-64.81 -5.97)"/><path class="cls-41" d="M185.41,111.08l-15.6-1.57s-3.62-9.87,2.47-10.82c0,0,4.17-.18,4,5.33,0,0-.26-4.59,2.9-4.27,3.63.37,2,6.7,2,6.7s.07-4.18,2.8-3.79S184.08,108.78,185.41,111.08Z" transform="translate(-64.81 -5.97)"/><path class="cls-20" d="M250.67,152.94c1.53-3.85,1.7-7.17-.82-8.91-3.12-2.15-6.64-.95-10,1.82A33,33,0,0,0,250.67,152.94Z" transform="translate(-64.81 -5.97)"/><path class="cls-20" d="M224.27,167.76s-8,5.53-7.26,9.36,4.63,1.13,4.63,1.13-6.09,5.74-2.73,8.71,6.54-3.52,6.54-3.52-.09,1.2,1.88,2.63c3.48,2.54,7.31-10.75,7.31-10.75Z" transform="translate(-64.81 -5.97)"/><path class="cls-25" d="M226,169s-5.52,3.79-5,6.42,3.17.78,3.17.78-4.18,3.94-1.87,6,4.49-2.42,4.49-2.42-.06.83,1.29,1.81c2.4,1.75,5-7.38,5-7.38Z" transform="translate(-64.81 -5.97)"/><path class="cls-17" d="M239.8,145.85c-6.24,5.06-12.1,15.36-14.44,19.8a75.53,75.53,0,0,0,20.38-3.91,46.86,46.86,0,0,0,4.93-8.8A33,33,0,0,1,239.8,145.85Z" transform="translate(-64.81 -5.97)"/><path class="cls-42" d="M224.27,167.76c2.92,5.94,10.37,7.56,10.37,7.56a108.25,108.25,0,0,0,11.1-13.58,75.53,75.53,0,0,1-20.38,3.91C224.66,167,224.27,167.76,224.27,167.76Z" transform="translate(-64.81 -5.97)"/><path class="cls-43" d="M245.06,160c-1.55,2.12-5,3.14-7.35,1.42s-3.61-4.87-1.66-7.54a5.23,5.23,0,0,1,7.19-1.08C245.6,154.47,246.6,157.84,245.06,160Z" transform="translate(-64.81 -5.97)"/><path class="cls-44" d="M242.72,153.56a4.21,4.21,0,0,0-3.83-.57,4.06,4.06,0,0,0-2,1.45c-1.59,2.17-.57,4.74,1.35,6.14a4.36,4.36,0,0,0,5.15-.32,4.13,4.13,0,0,0,.83-.84C245.46,157.69,244.64,155,242.72,153.56Z" transform="translate(-64.81 -5.97)"/><path class="cls-43" d="M229.28,157.93s-8.27-.84-10.05,3.73-1.83,5.32-1,6.32c1.06,1.31,7-1.42,7-1.42Z" transform="translate(-64.81 -5.97)"/><path class="cls-45" d="M230.11,157.5s-8.27-.84-10.05,3.73-2,5.54-1,6.32c1.29,1,7-1.42,7-1.42Z" transform="translate(-64.81 -5.97)"/><path class="cls-43" d="M241.71,167.13s3.74,7.43.1,10.72-4.32,3.61-5.54,3.22c-1.6-.52-1.16-7-1.16-7Z" transform="translate(-64.81 -5.97)"/><path class="cls-46" d="M241.81,166.2s3.74,7.43.11,10.72-4.45,3.89-5.54,3.22c-1.38-.86-1.17-7-1.17-7Z" transform="translate(-64.81 -5.97)"/><path class="cls-25" d="M255.05,125.6c-1.3-1-2.7-1.95-4.23-2.93l-3.4,2.49s5,7.19,9.6,11A42,42,0,0,0,255.05,125.6Z" transform="translate(-64.81 -5.97)"/><path class="cls-14" d="M255.05,125.6a42,42,0,0,1,2,10.6c2.43,2,4.74,3.13,6.14,1.76C265.48,135.71,262,130.78,255.05,125.6Z" transform="translate(-64.81 -5.97)"/><path class="cls-1" d="M248.19,126.55c2.55-.49,3.83-3.19,3.83-3.19s-.06-.09-.09-.15a12.22,12.22,0,0,1-5.76.63C245.34,125.56,248.19,126.55,248.19,126.55Z" transform="translate(-64.81 -5.97)"/><path class="cls-23" d="M246.51,123.31a2.14,2.14,0,0,0-.34.53,12.22,12.22,0,0,0,5.76-.63C250.29,120.21,248.26,121.3,246.51,123.31Z" transform="translate(-64.81 -5.97)"/><path class="cls-43" d="M249,122.73c-4.28,3.92-12.21,4.62-16.56-.14s-5.69-12.15-.28-17.08a11.58,11.58,0,0,1,16.08.81C252.62,111.08,253.31,118.81,249,122.73Z" transform="translate(-64.81 -5.97)"/><path class="cls-17" d="M246.78,107.82a9.34,9.34,0,0,0-8.06-2.91,9,9,0,0,0-5,2.25c-4.4,4-3.32,10,.23,13.9,2.89,3.17,7.73,3.37,11.3,1.59a9.42,9.42,0,0,0,2.17-1.47C250.89,118,250.33,111.69,246.78,107.82Z" transform="translate(-64.81 -5.97)"/><path class="cls-47" d="M238.72,104.91a9,9,0,0,0-5,2.25,8.79,8.79,0,0,0-2.16,10.06c2.76-4.14,5.58-8.27,8.55-12.37A9,9,0,0,0,238.72,104.91Z" transform="translate(-64.81 -5.97)"/><path class="cls-48" d="M242.29,105.16c-3,5.27-5.85,10.49-8.36,15.91a8.39,8.39,0,0,0,4.84,2.56c1.92-5.84,4-11.63,6-17.45A8.78,8.78,0,0,0,242.29,105.16Z" transform="translate(-64.81 -5.97)"/><path class="cls-49" d="M246.67,107.71a9,9,0,0,0-1.92-1.53c-2,5.82-4.06,11.61-6,17.45a10.66,10.66,0,0,0,3.52,0C242.85,118,245.24,113.09,246.67,107.71Z" transform="translate(-64.81 -5.97)"/><path class="cls-50" d="M246.78,107.82s-.08-.07-.11-.11c-1.43,5.38-3.82,10.32-4.38,15.89a10.88,10.88,0,0,0,2.94-.95,9.42,9.42,0,0,0,2.17-1.47C250.89,118,250.33,111.69,246.78,107.82Z" transform="translate(-64.81 -5.97)"/><path class="cls-49" d="M240.09,104.85c-3,4.1-5.79,8.23-8.55,12.37a12.13,12.13,0,0,0,2.39,3.84h0c2.51-5.42,5.35-10.64,8.36-15.91A9.73,9.73,0,0,0,240.09,104.85Z" transform="translate(-64.81 -5.97)"/><ellipse class="cls-24" cx="187.58" cy="327.4" rx="105.78" ry="16.4"/><path class="cls-51" d="M318.51,327.94c-1.79,3.51,0,8,0,8l14.15-4.27a2.9,2.9,0,0,1-.42-.73,67.24,67.24,0,0,1-12.36-3.35Z" transform="translate(-64.81 -5.97)"/><path class="cls-17" d="M332.34,324.06l-12.45,3.5a67.24,67.24,0,0,0,12.36,3.35C331.19,328.43,332.34,324.06,332.34,324.06Z" transform="translate(-64.81 -5.97)"/><path class="cls-16" d="M285.67,325l-4.07-.17c-3.62,5.26-.47,10.67-.47,10.67l4.74.2A14.29,14.29,0,0,1,285.67,325Z" transform="translate(-64.81 -5.97)"/><path class="cls-13" d="M289.44,325.15l-3.77-.17a14.29,14.29,0,0,0,.2,10.7l3.88.17A20.58,20.58,0,0,1,289.44,325.15Z" transform="translate(-64.81 -5.97)"/><path class="cls-16" d="M306,325.88l-16.6-.73a20.58,20.58,0,0,0,.31,10.7l16.65.73A20.09,20.09,0,0,1,306,325.88Z" transform="translate(-64.81 -5.97)"/><path class="cls-13" d="M310.6,326.08l-4.56-.2a20.09,20.09,0,0,0,.36,10.7l5.09.22A25.21,25.21,0,0,1,310.6,326.08Z" transform="translate(-64.81 -5.97)"/><path class="cls-16" d="M333.91,331.27l-15.39,4.64c-.87-4-.49-6.55,0-8h0l15.11-4.24a1.54,1.54,0,0,0,.06-1.43l-14.4,4.19-8.68-.38a25.21,25.21,0,0,0,.89,10.72l7.32.33h0l15.06-4.45A1.51,1.51,0,0,0,333.91,331.27Z" transform="translate(-64.81 -5.97)"/><polygon class="cls-27" points="216.79 318.84 235.06 314.82 268.87 316.3 254.47 320.49 216.79 318.84"/><path class="cls-23" d="M299.06,331.68,301,329l-3.22.44-2.65-2,.43,3.22-1.94,2.64,3.21-.43,2.65,1.95Z" transform="translate(-64.81 -5.97)"/><path class="cls-51" d="M189.76,324.22c1.93,3.44.31,8,.31,8l-14.31-3.7a3.84,3.84,0,0,0,.4-.75,67.92,67.92,0,0,0,12.22-3.84Z" transform="translate(-64.81 -5.97)"/><path class="cls-17" d="M175.79,320.88l12.59,3a67.92,67.92,0,0,1-12.22,3.84C177.12,325.21,175.79,320.88,175.79,320.88Z" transform="translate(-64.81 -5.97)"/><path class="cls-11" d="M222.46,320l4.06-.33c3.82,5.11.89,10.64.89,10.64l-4.73.39A14.26,14.26,0,0,0,222.46,320Z" transform="translate(-64.81 -5.97)"/><path class="cls-39" d="M218.7,320.28l3.76-.32a14.26,14.26,0,0,1,.22,10.7l-3.86.32A20.54,20.54,0,0,0,218.7,320.28Z" transform="translate(-64.81 -5.97)"/><path class="cls-11" d="M202.15,321.66l16.55-1.38a20.54,20.54,0,0,1,.12,10.7l-16.61,1.39A20.18,20.18,0,0,0,202.15,321.66Z" transform="translate(-64.81 -5.97)"/><path class="cls-39" d="M197.6,322l4.55-.38a20.18,20.18,0,0,1,.06,10.71l-5.08.43A25.36,25.36,0,0,0,197.6,322Z" transform="translate(-64.81 -5.97)"/><path class="cls-11" d="M174.51,328.15l15.56,4c1-5.48,1.12-4.27-.31-8h0l-15.26-3.64a1.56,1.56,0,0,1-.12-1.43l14.56,3.62,8.66-.73a25.36,25.36,0,0,1-.47,10.76l-7.3.61h0l-15.22-3.85A1.49,1.49,0,0,1,174.51,328.15Z" transform="translate(-64.81 -5.97)"/><polygon class="cls-40" points="161.71 313.66 143.3 310.37 109.57 313.19 124.13 316.8 161.71 313.66"/><path class="cls-43" d="M209.05,330.42l2.57-2.05,3.22.3-2.05-2.57.31-3.23-2.57,2.05-3.23-.3,2,2.57Z" transform="translate(-64.81 -5.97)"/><path class="cls-51" d="M319,315.76c-1.51,3.52-.05,8-.05,8l9.72-3.63a21.11,21.11,0,0,1-8-4.91Z" transform="translate(-64.81 -5.97)"/><path class="cls-17" d="M330.49,311.77l-9.84,3.42a21.11,21.11,0,0,0,8,4.91l2-.75C329.28,317.15,330.49,311.77,330.49,311.77Z" transform="translate(-64.81 -5.97)"/><path class="cls-23" d="M290.81,313l-2.35-.1a12.29,12.29,0,0,0-.47,10.67l2.82.12A17.8,17.8,0,0,1,290.81,313Z" transform="translate(-64.81 -5.97)"/><path class="cls-16" d="M293.19,313.11l-2.38-.11a17.8,17.8,0,0,0,0,10.69l2.47.11A24.57,24.57,0,0,1,293.19,313.11Z" transform="translate(-64.81 -5.97)"/><path class="cls-16" d="M315.23,314.07l-4.93-.21a27.17,27.17,0,0,0,.51,10.71l4.5.19A34.23,34.23,0,0,1,315.23,314.07Z" transform="translate(-64.81 -5.97)"/><path class="cls-23" d="M331.74,319,319,323.73a17.92,17.92,0,0,1,.05-8h0l12.54-4.36a1.83,1.83,0,0,0,.07-1.43l-12,4.3-4.43-.2a34.23,34.23,0,0,0,.08,10.69l3.88.17h0l12.5-4.55A1.81,1.81,0,0,0,331.74,319Z" transform="translate(-64.81 -5.97)"/><path class="cls-23" d="M310.3,313.86l-9.36-.41-4.78-.21-3-.13a24.57,24.57,0,0,0,.09,10.69l3.25.14,4.07.18,10.21.45A27.17,27.17,0,0,1,310.3,313.86Z" transform="translate(-64.81 -5.97)"/><polygon class="cls-1" points="223.65 306.93 238.81 302.78 266.8 304.01 254.84 308.3 223.65 306.93"/><path class="cls-31" d="M271.11,306.41s-16,8.84-37.57-.32l-7.39-2.93S213,323,233.91,329.86s44.8-.42,47.8-4.7S281,306.77,271.11,306.41Z" transform="translate(-64.81 -5.97)"/><path class="cls-52" d="M256.68,315.92,238.18,328l6.25,13,26.79-12.51,6.43-3.35a76.18,76.18,0,0,1-19.39-10.28Z" transform="translate(-64.81 -5.97)"/><path class="cls-3" d="M282.76,304.75c-3.45-3.63-8.78-.23-8.78-.23l-15.72,10.36a76.18,76.18,0,0,0,19.39,10.28l5.22-2.71S293.36,315.92,282.76,304.75Z" transform="translate(-64.81 -5.97)"/><path class="cls-43" d="M237.46,328.32c2.38,18,12.21,9.4,7.17,13.11,0,0-21.78,4.08-26.07-6.09C214.75,326.3,237.46,328.32,237.46,328.32Z" transform="translate(-64.81 -5.97)"/><path class="cls-42" d="M231.57,341.35a51.39,51.39,0,0,0,13.53-.66c-3.33-3.92-6.42-13-6.42-13a55.73,55.73,0,0,0-13,.45A21.4,21.4,0,0,1,231.57,341.35Z" transform="translate(-64.81 -5.97)"/><path class="cls-43" d="M237.7,332.84c2.11.84,4.7,1.9,6.94,1.08,1-.35,1.23-1.47.18-1.86a5.23,5.23,0,0,0-2.42.09,20.22,20.22,0,0,0-4.57,1.56l-.48-1.1c1.45-.62,2.91-1.19,4.32-1.9.51-.26,5.75-3.61,3-4-1.43-.19-3.18,2.33-3.92,3.25a43.13,43.13,0,0,0-2.55,3.59c-.5.77-1.66-.07-1.15-.83,1.33-2,5.73-9.19,8.82-6.74,3.92,3.09-6.34,7-8,7.71a.6.6,0,0,1-.48-1.1c2.25-1,4.8-1.95,7.31-1.7,1,.09,2.52,1,2.22,2.24-1,4.16-7.3,1.66-9.49.28a.34.34,0,0,1,.31-.59Z" transform="translate(-64.81 -5.97)"/><path class="cls-43" d="M225.7,328.17c-4.27.83-7.56,2.67-5.92,6.57,1.84,4.36,6.77,6.08,11.79,6.61A21.4,21.4,0,0,0,225.7,328.17Z" transform="translate(-64.81 -5.97)"/><path class="cls-43" d="M233.93,328.89c2,3.42,4.28,6.38,4.85,10.44,0,.25.47.23.45,0-.17-4-2.88-7.34-5-10.55-.11-.16-.38,0-.28.14Z" transform="translate(-64.81 -5.97)"/><path class="cls-43" d="M230.67,329.21c2,3.43,4.28,6.39,4.84,10.44,0,.26.47.24.46,0-.17-4-2.88-7.34-5-10.54-.1-.16-.37,0-.27.13Z" transform="translate(-64.81 -5.97)"/><path class="cls-52" d="M221,322.45l13.33,5.45,26.79,12.52,4.61-9.57c-17.37-.46-35.66-6.85-49.16-18.36C215.28,318.87,221,322.45,221,322.45Z" transform="translate(-64.81 -5.97)"/><path class="cls-3" d="M248.89,315.31l-19-10.79s-5.33-3.4-8.78.23c-2.76,2.91-4.08,5.5-4.54,7.74,13.5,11.51,31.79,17.9,49.16,18.36l1.64-3.41Z" transform="translate(-64.81 -5.97)"/><path class="cls-43" d="M268.11,327.72c-2.38,18-12.21,9.39-7.17,13.1,0,0,21.78,4.09,26.07-6.09C290.82,325.69,268.11,327.72,268.11,327.72Z" transform="translate(-64.81 -5.97)"/><path class="cls-42" d="M274,340.74a51.39,51.39,0,0,1-13.53-.66c3.33-3.92,6.42-13,6.42-13a55.73,55.73,0,0,1,13,.45A21.4,21.4,0,0,0,274,340.74Z" transform="translate(-64.81 -5.97)"/><path class="cls-43" d="M267.87,332.24c-2.11.84-4.7,1.9-6.94,1.07-1-.35-1.22-1.47-.18-1.86a5.37,5.37,0,0,1,2.42.09,20.73,20.73,0,0,1,4.57,1.56c.17-.37.33-.74.49-1.1-1.46-.62-2.92-1.19-4.33-1.9-.51-.26-5.75-3.61-3-4,1.43-.19,3.18,2.33,3.92,3.25a43.13,43.13,0,0,1,2.55,3.59c.5.77,1.66-.07,1.15-.82-1.33-2-5.73-9.2-8.82-6.75-3.91,3.09,6.34,7,8,7.71a.6.6,0,0,0,.49-1.1c-2.26-1-4.81-1.94-7.32-1.7-1,.1-2.52,1-2.22,2.24,1.05,4.16,7.3,1.66,9.49.28a.33.33,0,0,0-.31-.58Z" transform="translate(-64.81 -5.97)"/><path class="cls-43" d="M279.87,327.56c4.27.83,7.56,2.67,5.92,6.57-1.84,4.36-6.77,6.08-11.79,6.61A21.4,21.4,0,0,1,279.87,327.56Z" transform="translate(-64.81 -5.97)"/><path class="cls-43" d="M271.64,328.28c-2,3.43-4.28,6.38-4.85,10.44,0,.25-.46.23-.45,0,.17-4,2.88-7.34,5-10.55.11-.16.38,0,.28.14Z" transform="translate(-64.81 -5.97)"/><path class="cls-43" d="M274.9,328.6c-2,3.43-4.27,6.39-4.84,10.45,0,.25-.47.23-.46,0,.17-4,2.88-7.35,5-10.55.1-.16.37,0,.27.13Z" transform="translate(-64.81 -5.97)"/><path class="cls-53" d="M219.63,218.24s-12.33,54.33-17.57,60c0,0,1.09.89,2.91,2.09.94.63,6.77-5.23,6.77-5.23,1.28.72-2,7.91-2,7.91.56.24,1.21.51,1.91.78,9.72-20.38,13.47-43.55,13.81-66.16C221.88,218,219.63,218.24,219.63,218.24Z" transform="translate(-64.81 -5.97)"/><path class="cls-54" d="M225.5,217.66c-.34,22.61-4.09,45.78-13.81,66.16,3.7,1.46,9,3.2,12.18,2.88,8.76-.88,49.07.3,63.71-3.65-9.13-20.6-15.73-42.48-16.25-64.74C258,215.34,236,216.74,225.5,217.66Z" transform="translate(-64.81 -5.97)"/><path class="cls-53" d="M303,274.61s-16.88-36-20.78-49.64c-.94-3.29-5.13-5.38-10.9-6.66.52,22.26,7.12,44.14,16.25,64.74,2.34-.63,4-1.39,4.82-2.31l-1.5-8,5.62,6.8A32.4,32.4,0,0,0,303,274.61Z" transform="translate(-64.81 -5.97)"/><path class="cls-55" d="M221.43,277.61s-9.22,11.83-8.89,15.81,9.84.59,9.84.59l10.68-11Z" transform="translate(-64.81 -5.97)"/><path class="cls-55" d="M282.83,277.58s9.37,11.72,9.09,15.7-13.76.08-13.76.08l-5.84-9.8Z" transform="translate(-64.81 -5.97)"/><path class="cls-56" d="M259.44,261.9l-.92,2.8a17.79,17.79,0,0,1-6.3,1h-.08a17.79,17.79,0,0,1-6.3-1l-.14-2.51s-17.06-3.75-25.31,15.45c0,0,9.5,6.6,12.43,7,0,0-3.21,19.69-2.17,20.27,23,13,44,.86,44,.86l-3.09-21.13c2.94-.43,12.43-7,12.43-7C281.76,268.73,275.47,262.62,259.44,261.9Z" transform="translate(-64.81 -5.97)"/><path class="cls-12" d="M244.31,255.93a27.58,27.58,0,0,1,1.65,9.35s7,2,12.36-.09l3.65-11Z" transform="translate(-64.81 -5.97)"/><path class="cls-12" d="M214.18,241.55c.74,3.72,4.81,7.18,12.25,4l-.26-5.29A11.63,11.63,0,0,0,214.18,241.55Z" transform="translate(-64.81 -5.97)"/><path class="cls-55" d="M216.13,236.13a5.11,5.11,0,0,0-1.95,5.42,11.63,11.63,0,0,1,12-1.27l-.17-3.65S220.9,233.05,216.13,236.13Z" transform="translate(-64.81 -5.97)"/><path class="cls-57" d="M217.79,240.26c2-.09,4.38-1.12,6,.53,1.14,1.18,1.1,3.13,1.22,4.65a.22.22,0,0,0,.43,0c0-1.69-.18-3.79-1.51-5-1.63-1.5-4.24-.87-6.12-.31-.08,0-.07.14,0,.14Z" transform="translate(-64.81 -5.97)"/><path class="cls-57" d="M221.28,242.07a1.94,1.94,0,0,1,2.4.08,12.36,12.36,0,0,1,1.25,1.46c.18.2.48-.05.36-.27-.84-1.6-2.59-2.92-4.21-1.52-.14.12,0,.33.2.25Z" transform="translate(-64.81 -5.97)"/><path class="cls-12" d="M290.75,238.72c-.38,3.77-4.09,7.61-11.81,5.2l-.26-5.29A11.64,11.64,0,0,1,290.75,238.72Z" transform="translate(-64.81 -5.97)"/><path class="cls-55" d="M288.27,233.52a5.13,5.13,0,0,1,2.48,5.2,11.64,11.64,0,0,0-12.07-.09L278.5,235S283.22,230.92,288.27,233.52Z" transform="translate(-64.81 -5.97)"/><path class="cls-57" d="M287,237.65c-2-.37-4.64-.76-6.12.94-1.16,1.34-1.09,3.43-1,5.08a.22.22,0,0,0,.43,0c0-1.47-.23-3.18.57-4.49,1.3-2.13,4-1.29,6.07-1.39.07,0,.1-.12,0-.14Z" transform="translate(-64.81 -5.97)"/><path class="cls-57" d="M283.88,239.64c-1.75-1.24-3.38.33-4,2-.1.26.28.36.41.17a9.66,9.66,0,0,1,1.23-1.68,2,2,0,0,1,2.26-.17c.18.07.26-.2.13-.3Z" transform="translate(-64.81 -5.97)"/><path class="cls-12" d="M268.34,254.61c4.64-2,8.3-4.93,9.63-8.6,2.95-8.16,4-13.75,2.57-21.84s-2.69-13.52-11.27-19.35c-6.94-4.73-48.81-10.13-45.18,27.26,0,0,0,1.68.25,4C234.41,249.41,251.51,255.51,268.34,254.61Z" transform="translate(-64.81 -5.97)"/><path class="cls-53" d="M230.35,200.7c-11.61,6.22-11.27,23.66-11.27,23.66a8.33,8.33,0,0,1,4.79.28c.73-3.37,3.56-6.31,6.21-8.41a40.94,40.94,0,0,1,4.74-17.53A33.72,33.72,0,0,0,230.35,200.7Z" transform="translate(-64.81 -5.97)"/><path class="cls-58" d="M239,212.3s0,0,0,.07S239,212.4,239,212.3Z" transform="translate(-64.81 -5.97)"/><path class="cls-35" d="M242.84,196.81a35.08,35.08,0,0,0-8,1.89,40.94,40.94,0,0,0-4.74,17.53,35,35,0,0,1,5.09-3.35l2.42-8.46s1.32,7,1.37,7.88a12.9,12.9,0,0,1,3.4-.26A41.27,41.27,0,0,1,242.84,196.81Z" transform="translate(-64.81 -5.97)"/><path class="cls-53" d="M262.79,199.5a41.66,41.66,0,0,0-20-2.69,41.27,41.27,0,0,0-.48,15.23c5.93-.09,17.47.33,17.47.33l1-4.38,1.93,5.15a28.88,28.88,0,0,1,9.89,1.47A34.79,34.79,0,0,0,268.47,200,22.48,22.48,0,0,0,262.79,199.5Z" transform="translate(-64.81 -5.97)"/><path class="cls-35" d="M273,201.53a19.79,19.79,0,0,0-4.49-1.51,34.79,34.79,0,0,1,4.21,14.59,13.75,13.75,0,0,1,4.62,2.66A42.17,42.17,0,0,0,273,201.53Z" transform="translate(-64.81 -5.97)"/><path class="cls-53" d="M281.17,211.59A14.77,14.77,0,0,0,273,201.53a42.17,42.17,0,0,1,4.34,15.74,8.55,8.55,0,0,1,3.05,5.79l4.25,8.22S282.37,216.38,281.17,211.59Z" transform="translate(-64.81 -5.97)"/><path class="cls-59" d="M224.34,236.09c.33,3.44,1.06,8.29,2.68,11.26,2.72,5,11.29,10.23,22.39,10.7a44.71,44.71,0,0,0,18.93-3.44C251.51,255.51,234.41,249.41,224.34,236.09Z" transform="translate(-64.81 -5.97)"/><path class="cls-57" d="M251,226.68a28.32,28.32,0,0,0-.43,2.93,2.53,2.53,0,0,0,.24,1.91,1,1,0,0,0,1.08.46,2.09,2.09,0,0,0,.66-.39s.49-.42.61-.38l.65,1.21a1.32,1.32,0,0,1-.77.63c-.3.13,0,.57.26.44a1.76,1.76,0,0,0,1.15-1.8,1.17,1.17,0,0,0-1.41-.93c-.32.08-.51.37-.79.49-1.45.63-1.37-.91-1.23-1.84.12-.77.6-2,.16-2.76a.11.11,0,0,0-.18,0Z" transform="translate(-64.81 -5.97)"/><path class="cls-60" d="M241.83,225.74a1.5,1.5,0,1,1-1.59-1.66A1.65,1.65,0,0,1,241.83,225.74Z" transform="translate(-64.81 -5.97)"/><path class="cls-60" d="M265.94,225.56a1.5,1.5,0,1,1-1.59-1.66A1.64,1.64,0,0,1,265.94,225.56Z" transform="translate(-64.81 -5.97)"/><path class="cls-57" d="M232.85,221.77a7.45,7.45,0,0,1,4.8-3.58.23.23,0,0,0-.06-.45c-1.93,0-4.65,2-5,3.93,0,.14.14.22.22.1Z" transform="translate(-64.81 -5.97)"/><path class="cls-57" d="M265.07,216.1c1.9.36,3.76.54,5.24,1.92a.3.3,0,0,0,.43-.43,6.65,6.65,0,0,0-5.67-1.77c-.13,0-.14.26,0,.28Z" transform="translate(-64.81 -5.97)"/><path class="cls-55" d="M243.52,235a5.43,5.43,0,1,1-5.67-4.83A5.27,5.27,0,0,1,243.52,235Z" transform="translate(-64.81 -5.97)"/><path class="cls-55" d="M273.14,233.55a5.43,5.43,0,1,1-5.66-4.82A5.27,5.27,0,0,1,273.14,233.55Z" transform="translate(-64.81 -5.97)"/><path class="cls-57" d="M248.73,233.67c.49,2.35,3.46,2.32,5.31,2,.23,0,.17-.41-.06-.41-2,.05-3.85.27-5-1.7-.08-.14-.28,0-.25.11Z" transform="translate(-64.81 -5.97)"/><path class="cls-42" d="M232.68,281.61l1.13-5.58s13.35,5.32,17.47,11.07v25.4l-20.93-9.27Z" transform="translate(-64.81 -5.97)"/><path class="cls-42" d="M237.24,280.71l.91-5.58s10.72,5.32,14,11.07v25.39l-16.81-9.26Z" transform="translate(-64.81 -5.97)"/><path class="cls-42" d="M242.05,280.07l.62-5.58s7.32,5.32,9.58,11.07V311l-11.48-9.26Z" transform="translate(-64.81 -5.97)"/><path class="cls-42" d="M270.93,281.48l-1.13-5.58s-13.36,5.32-17.48,11.07v25.4l20.94-9.27Z" transform="translate(-64.81 -5.97)"/><path class="cls-42" d="M266.36,280.58l-.91-5.58s-10.72,5.32-14,11.07v25.4l16.81-9.27Z" transform="translate(-64.81 -5.97)"/><path class="cls-42" d="M261.56,279.94l-.62-5.58s-7.32,5.32-9.58,11.07v25.39l11.47-9.26Z" transform="translate(-64.81 -5.97)"/><path class="cls-13" d="M250,287v26.57s-16.45-8-21.4-9L227.85,282s-.53-4.43,3.68-3.64S248.71,285.93,250,287Z" transform="translate(-64.81 -5.97)"/><path class="cls-13" d="M254.46,286.78V313s16.45-8,21.41-9l.78-22.52s.52-4.44-3.69-3.64S255.79,285.76,254.46,286.78Z" transform="translate(-64.81 -5.97)"/><path class="cls-5" d="M250,313.53V287s2.89-1.81,4.43-.18V313S253.76,314.45,250,313.53Z" transform="translate(-64.81 -5.97)"/><path class="cls-12" d="M215.9,290.19l13.32-3.08s-.46-6.75,2-6.74,1.82,5,1.82,5,4.57-4,6.43-2.65c1.43,1-1.27,3.31-2.61,4.32-.41.31-.69.5-.69.5s3.59-2.7,5.12-1.08-3.77,2.86-3.77,2.86,4.9-1.57,4.28.73c-.33,1.21-13.82,10.82-19.41,12.75s-12.3-6.85-10.29-10.69C212.87,290.66,215.9,290.19,215.9,290.19Z" transform="translate(-64.81 -5.97)"/><path class="cls-12" d="M285.9,289.11l-13.26,3.36s-2.67-6.22-4.86-5.09.68,5.29.68,5.29-5.89-1.44-6.93.6c-.8,1.56,2.64,2.35,4.3,2.64.5.09.84.13.84.13s-4.43-.76-5.05,1.38,4.66.82,4.66.82-5.07.84-3.47,2.61c.84.92,17.24,3.29,23.1,2.44s7.79-11.71,4.24-14.21C288.81,288.13,285.9,289.11,285.9,289.11Z" transform="translate(-64.81 -5.97)"/><path class="cls-38" d="M248.53,228.65c.2-4.61-4.45-9.32-9.66-9.3a9.65,9.65,0,1,0,9.63,10.55c.5-.49,2.8-2.31,7.41.29.31,2.31,3.07,8.39,9.58,8.38a9.65,9.65,0,1,0-9.67-9.62S251.91,226.56,248.53,228.65Zm-9.61,9a8.67,8.67,0,1,1,8.65-8.69A8.68,8.68,0,0,1,238.92,237.66Zm26.57-.07a8.67,8.67,0,1,1,8.65-8.7A8.7,8.7,0,0,1,265.49,237.59Z" transform="translate(-64.81 -5.97)"/><text class="cls-61" transform="translate(61.87 113.94) rotate(13.45)">2X2=4</text><text class="cls-62" transform="translate(225.11 151.63) rotate(-17.67)">5+2=7</text></svg>