<svg xmlns="http://www.w3.org/2000/svg" xmlns:xlink="http://www.w3.org/1999/xlink" viewBox="0 0 540 450"><defs><style>.cls-1{isolation:isolate;}.cls-2{fill:url(#linear-gradient);}.cls-3{fill:#bbe3ff;}.cls-10,.cls-11,.cls-21,.cls-23,.cls-27,.cls-3,.cls-36,.cls-38,.cls-4,.cls-43,.cls-87{mix-blend-mode:multiply;}.cls-4{fill:#ebe7e7;}.cls-5{fill:#e7f4ff;}.cls-6{fill:#fff;}.cls-7{fill:#abdcff;}.cls-8{fill:aqua;}.cls-9{fill:#ddf1ff;}.cls-10{fill:#bbe6f5;}.cls-11{fill:#cee0ff;opacity:0.55;}.cls-12{fill:#ecf7ff;}.cls-13{fill:#100142;}.cls-14{fill:#f1b2df;}.cls-15{fill:#1b0b30;}.cls-16{fill:#4e15c4;}.cls-17{fill:#de79be;}.cls-18{fill:url(#linear-gradient-2);}.cls-19{fill:#4e2478;}.cls-20{fill:url(#linear-gradient-3);}.cls-21,.cls-47{fill:#d9e1f3;}.cls-22{fill:url(#linear-gradient-4);}.cls-23,.cls-28{fill:#cdd8ef;}.cls-24{fill:url(#linear-gradient-5);}.cls-25{fill:url(#linear-gradient-6);}.cls-26{fill:#0f001a;}.cls-29{fill:url(#linear-gradient-7);}.cls-30{fill:#e5e5e5;}.cls-31{fill:#09003f;}.cls-32{fill:#ee6392;}.cls-33{fill:url(#linear-gradient-8);}.cls-34{fill:url(#linear-gradient-9);}.cls-35{fill:#0f0024;}.cls-36{fill:#ac7f8d;}.cls-36,.cls-87{opacity:0.75;}.cls-37{fill:url(#linear-gradient-10);}.cls-38{fill:#a4489a;}.cls-39{fill:url(#linear-gradient-11);}.cls-40{fill:url(#linear-gradient-12);}.cls-41{fill:url(#linear-gradient-13);}.cls-42{fill:#dee0e6;}.cls-43{fill:#cd7fae;}.cls-44{fill:url(#linear-gradient-14);}.cls-45{fill:url(#linear-gradient-15);}.cls-46{fill:#929cae;}.cls-48{fill:#bac1dd;}.cls-49{fill:#e9eef8;}.cls-50{fill:#aabce4;}.cls-51{fill:url(#linear-gradient-16);}.cls-52{fill:#dae2f3;opacity:0.32;mix-blend-mode:screen;}.cls-53{fill:url(#linear-gradient-17);}.cls-54{fill:url(#linear-gradient-18);}.cls-55{fill:url(#linear-gradient-19);}.cls-56{fill:url(#linear-gradient-20);}.cls-57{fill:url(#linear-gradient-21);}.cls-58{fill:url(#linear-gradient-22);}.cls-59{fill:url(#linear-gradient-23);}.cls-60{fill:url(#linear-gradient-24);}.cls-61{fill:url(#linear-gradient-25);}.cls-62{fill:url(#linear-gradient-26);}.cls-63{fill:url(#linear-gradient-27);}.cls-64{fill:url(#linear-gradient-28);}.cls-65{fill:url(#linear-gradient-29);}.cls-66{fill:url(#linear-gradient-30);}.cls-67{fill:url(#linear-gradient-31);}.cls-68{fill:url(#linear-gradient-32);}.cls-69{fill:url(#linear-gradient-33);}.cls-70{fill:url(#linear-gradient-34);}.cls-71{fill:url(#linear-gradient-35);}.cls-72{fill:url(#linear-gradient-36);}.cls-73{fill:url(#linear-gradient-37);}.cls-74{fill:url(#linear-gradient-38);}.cls-75{fill:url(#linear-gradient-39);}.cls-76{fill:url(#linear-gradient-40);}.cls-77{fill:url(#linear-gradient-41);}.cls-78{fill:url(#linear-gradient-42);}.cls-79{fill:url(#linear-gradient-43);}.cls-80{fill:url(#linear-gradient-44);}.cls-81{fill:url(#linear-gradient-45);}.cls-82{fill:url(#linear-gradient-46);}.cls-83{fill:url(#linear-gradient-47);}.cls-84{fill:url(#linear-gradient-48);}.cls-85{fill:url(#linear-gradient-49);}.cls-86{fill:url(#linear-gradient-50);}.cls-87{fill:#b9b9b9;}.cls-88{fill:#3addcd;}.cls-89{fill:url(#linear-gradient-51);}.cls-90{fill:#f81a14;}.cls-91{fill:url(#linear-gradient-52);}.cls-92{fill:url(#linear-gradient-53);}.cls-93{fill:url(#linear-gradient-54);}.cls-94{fill:url(#linear-gradient-55);}.cls-95{fill:#101418;}</style><linearGradient id="linear-gradient" x1="246.04" y1="175.33" x2="198.09" y2="450.4" gradientUnits="userSpaceOnUse"><stop offset="0" stop-color="aqua"/><stop offset="1" stop-color="#42aaff"/></linearGradient><linearGradient id="linear-gradient-2" x1="205.59" y1="203.05" x2="195.73" y2="203.83" gradientTransform="translate(-59.88 31.53) rotate(-11.74)" gradientUnits="userSpaceOnUse"><stop offset="0" stop-color="#fc5653"/><stop offset="1" stop-color="#fc0053"/></linearGradient><linearGradient id="linear-gradient-3" x1="207.87" y1="239.16" x2="206.55" y2="409.33" gradientUnits="userSpaceOnUse"><stop offset="0" stop-color="#f6f8ff"/><stop offset="1" stop-color="#d2ecff"/></linearGradient><linearGradient id="linear-gradient-4" x1="138.75" y1="236.69" x2="137.11" y2="448.24" xlink:href="#linear-gradient-3"/><linearGradient id="linear-gradient-5" x1="165.93" y1="229.04" x2="161.71" y2="275.01" xlink:href="#linear-gradient-3"/><linearGradient id="linear-gradient-6" x1="130.19" y1="236.45" x2="119.85" y2="278.98" xlink:href="#linear-gradient-3"/><linearGradient id="linear-gradient-7" x1="88.47" y1="249.41" x2="87.19" y2="415.04" xlink:href="#linear-gradient-3"/><linearGradient id="linear-gradient-8" x1="95.09" y1="409.47" x2="20.47" y2="451.87" gradientTransform="matrix(1, 0, 0, 1, 0, 0)" xlink:href="#linear-gradient-2"/><linearGradient id="linear-gradient-9" x1="45.58" y1="435.63" x2="74.22" y2="435.63" gradientUnits="userSpaceOnUse"><stop offset="0" stop-color="#f6f8ff"/><stop offset="0.42" stop-color="#f3f7ff"/><stop offset="0.68" stop-color="#ebf4ff"/><stop offset="0.89" stop-color="#dcefff"/><stop offset="1" stop-color="#d2ecff"/></linearGradient><linearGradient id="linear-gradient-10" x1="322.84" y1="395.57" x2="321.84" y2="400.31" gradientTransform="matrix(0.97, 0.24, -0.24, 0.97, 104.08, -69.58)" xlink:href="#linear-gradient-2"/><linearGradient id="linear-gradient-11" x1="322.53" y1="364.33" x2="322.53" y2="399.17" gradientTransform="matrix(0.97, 0.24, -0.24, 0.97, 104.08, -69.58)" xlink:href="#linear-gradient-2"/><linearGradient id="linear-gradient-12" x1="322.53" y1="370.16" x2="322.53" y2="397.58" gradientTransform="translate(712.33 58.9) rotate(90)" gradientUnits="userSpaceOnUse"><stop offset="0" stop-color="aqua"/><stop offset="0.34" stop-color="#16e2ff"/><stop offset="1" stop-color="#42aaff"/></linearGradient><linearGradient id="linear-gradient-13" x1="322.53" y1="376.3" x2="322.53" y2="393" gradientTransform="translate(712.34 58.92) rotate(90)" gradientUnits="userSpaceOnUse"><stop offset="0" stop-color="#f6f9ff"/><stop offset="1" stop-color="#f6f8ff"/></linearGradient><linearGradient id="linear-gradient-14" x1="322.53" y1="359.15" x2="322.53" y2="362.75" gradientTransform="matrix(0.97, 0.24, -0.24, 0.97, 104.08, -69.58)" gradientUnits="userSpaceOnUse"><stop offset="0" stop-color="#d9e1f3"/><stop offset="1" stop-color="#cdd8ef"/></linearGradient><linearGradient id="linear-gradient-15" x1="323.19" y1="360.16" x2="321.87" y2="366.42" gradientTransform="matrix(0, 1, -1, 0, 695.1, 36.99)" gradientUnits="userSpaceOnUse"><stop offset="0" stop-color="#cdd8ef"/><stop offset="1" stop-color="#d9e1f3"/></linearGradient><linearGradient id="linear-gradient-16" x1="261.55" y1="197.69" x2="257.9" y2="201.04" gradientTransform="matrix(1, 0.02, -0.02, 1, 11.66, -8.79)" xlink:href="#linear-gradient-2"/><linearGradient id="linear-gradient-17" x1="271.42" y1="194.87" x2="267.77" y2="198.22" gradientTransform="matrix(1, 0.02, -0.02, 1, 11.66, -8.79)" xlink:href="#linear-gradient-2"/><linearGradient id="linear-gradient-18" x1="281.29" y1="192.05" x2="277.64" y2="195.4" gradientTransform="matrix(1, 0.02, -0.02, 1, 11.66, -8.79)" xlink:href="#linear-gradient-2"/><linearGradient id="linear-gradient-19" x1="291.16" y1="189.23" x2="287.51" y2="192.58" gradientTransform="matrix(1, 0.02, -0.02, 1, 11.66, -8.79)" xlink:href="#linear-gradient-2"/><linearGradient id="linear-gradient-20" x1="265.18" y1="209.78" x2="261.53" y2="213.14" gradientTransform="matrix(1, 0.02, -0.02, 1, 11.66, -8.79)" xlink:href="#linear-gradient-2"/><linearGradient id="linear-gradient-21" x1="275.05" y1="206.96" x2="271.41" y2="210.32" gradientTransform="matrix(1, 0.02, -0.02, 1, 11.66, -8.79)" xlink:href="#linear-gradient-2"/><linearGradient id="linear-gradient-22" x1="284.93" y1="204.14" x2="281.28" y2="207.5" gradientTransform="matrix(1, 0.02, -0.02, 1, 11.66, -8.79)" xlink:href="#linear-gradient-2"/><linearGradient id="linear-gradient-23" x1="294.8" y1="201.33" x2="291.15" y2="204.68" gradientTransform="matrix(1, 0.02, -0.02, 1, 11.66, -8.79)" xlink:href="#linear-gradient-2"/><linearGradient id="linear-gradient-24" x1="344.3" y1="267.3" x2="330.26" y2="277.77" gradientTransform="matrix(1, 0, 0, 1, 0, 0)" xlink:href="#linear-gradient-13"/><linearGradient id="linear-gradient-25" x1="348.32" y1="267.57" x2="339.45" y2="275.72" gradientTransform="matrix(1, 0, 0, 1, 0, 0)" xlink:href="#linear-gradient-2"/><linearGradient id="linear-gradient-26" x1="276.08" y1="362.3" x2="262.04" y2="372.77" gradientTransform="matrix(1, 0, 0, 1, 0, 0)" xlink:href="#linear-gradient-13"/><linearGradient id="linear-gradient-27" x1="280.1" y1="362.56" x2="271.23" y2="370.72" gradientTransform="matrix(1, 0, 0, 1, 0, 0)" xlink:href="#linear-gradient-2"/><linearGradient id="linear-gradient-28" x1="220.93" y1="490.03" x2="202.58" y2="503.71" gradientTransform="matrix(0.97, 0.24, -0.24, 0.97, 145.02, -237.34)" xlink:href="#linear-gradient-13"/><linearGradient id="linear-gradient-29" x1="226.19" y1="490.38" x2="214.59" y2="501.04" gradientTransform="matrix(0.97, 0.24, -0.24, 0.97, 145.02, -237.34)" gradientUnits="userSpaceOnUse"><stop offset="0.03" stop-color="#00bfff"/><stop offset="0.19" stop-color="#01b9fc"/><stop offset="0.4" stop-color="#06a9f5"/><stop offset="0.65" stop-color="#0c8de9"/><stop offset="0.91" stop-color="#1567d7"/><stop offset="1" stop-color="#1959d1"/></linearGradient><linearGradient id="linear-gradient-30" x1="31.33" y1="553.6" x2="17.46" y2="563.94" gradientTransform="matrix(0.69, -0.73, 0.73, 0.69, -405.9, -8.45)" xlink:href="#linear-gradient-13"/><linearGradient id="linear-gradient-31" x1="35.3" y1="553.86" x2="26.54" y2="561.92" gradientTransform="matrix(0.69, -0.73, 0.73, 0.69, -405.9, -8.45)" xlink:href="#linear-gradient-29"/><linearGradient id="linear-gradient-32" x1="214.95" y1="297.59" x2="200.91" y2="308.06" gradientTransform="translate(-60.76 439.72) rotate(-55.41)" xlink:href="#linear-gradient-13"/><linearGradient id="linear-gradient-33" x1="218.97" y1="297.86" x2="210.1" y2="306.01" gradientTransform="translate(-60.76 439.72) rotate(-55.41)" xlink:href="#linear-gradient-29"/><linearGradient id="linear-gradient-34" x1="-65.13" y1="-25.8" x2="-79.17" y2="-15.33" gradientTransform="matrix(0.96, -0.26, 0.26, 0.96, 94.58, 391.95)" xlink:href="#linear-gradient-13"/><linearGradient id="linear-gradient-35" x1="-61.1" y1="-25.54" x2="-69.98" y2="-17.38" gradientTransform="matrix(0.96, -0.26, 0.26, 0.96, 94.58, 391.95)" xlink:href="#linear-gradient-2"/><linearGradient id="linear-gradient-36" x1="237.01" y1="21.31" x2="222.97" y2="31.78" gradientTransform="translate(102.62 376.19) rotate(-43.1)" xlink:href="#linear-gradient-13"/><linearGradient id="linear-gradient-37" x1="241.03" y1="21.57" x2="232.16" y2="29.73" gradientTransform="translate(102.62 376.19) rotate(-43.1)" xlink:href="#linear-gradient-2"/><linearGradient id="linear-gradient-38" x1="296.54" y1="833.35" x2="292.85" y2="836.74" gradientTransform="matrix(-0.27, 1.1, -0.78, -0.19, 947.27, 44.5)" xlink:href="#linear-gradient-12"/><linearGradient id="linear-gradient-39" x1="296.48" y1="823.51" x2="292.79" y2="826.89" gradientTransform="matrix(-0.27, 1.1, -0.78, -0.19, 947.27, 44.5)" xlink:href="#linear-gradient-12"/><linearGradient id="linear-gradient-40" x1="296.42" y1="813.66" x2="292.74" y2="817.05" gradientTransform="matrix(-0.27, 1.1, -0.78, -0.19, 947.27, 44.5)" xlink:href="#linear-gradient-12"/><linearGradient id="linear-gradient-41" x1="296.37" y1="803.82" x2="292.68" y2="807.21" gradientTransform="matrix(-0.27, 1.1, -0.78, -0.19, 947.27, 44.5)" xlink:href="#linear-gradient-12"/><linearGradient id="linear-gradient-42" x1="296.31" y1="793.98" x2="292.62" y2="797.37" gradientTransform="matrix(-0.27, 1.1, -0.78, -0.19, 947.27, 44.5)" xlink:href="#linear-gradient-12"/><linearGradient id="linear-gradient-43" x1="307.71" y1="833" x2="304.02" y2="836.39" gradientTransform="matrix(-0.27, 1.1, -0.78, -0.19, 947.27, 44.5)" xlink:href="#linear-gradient-12"/><linearGradient id="linear-gradient-44" x1="307.65" y1="823.16" x2="303.97" y2="826.55" gradientTransform="matrix(-0.27, 1.1, -0.78, -0.19, 947.27, 44.5)" xlink:href="#linear-gradient-12"/><linearGradient id="linear-gradient-45" x1="307.6" y1="813.32" x2="303.91" y2="816.7" gradientTransform="matrix(-0.27, 1.1, -0.78, -0.19, 947.27, 44.5)" xlink:href="#linear-gradient-12"/><linearGradient id="linear-gradient-46" x1="307.54" y1="803.47" x2="303.85" y2="806.86" gradientTransform="matrix(-0.27, 1.1, -0.78, -0.19, 947.27, 44.5)" xlink:href="#linear-gradient-12"/><linearGradient id="linear-gradient-47" x1="307.48" y1="793.63" x2="303.8" y2="797.02" gradientTransform="matrix(-0.27, 1.1, -0.78, -0.19, 947.27, 44.5)" xlink:href="#linear-gradient-12"/><linearGradient id="linear-gradient-48" x1="316.43" y1="365.1" x2="338.93" y2="401.77" gradientTransform="translate(127.84 -132.38) rotate(15.31)" xlink:href="#linear-gradient"/><linearGradient id="linear-gradient-49" x1="221.35" y1="-1.7" x2="220.55" y2="41.69" gradientTransform="matrix(0.74, -0.67, 0.67, 0.74, 169.74, 460.34)" xlink:href="#linear-gradient-2"/><linearGradient id="linear-gradient-50" x1="275.91" y1="419.93" x2="295.1" y2="419.93" gradientTransform="translate(124.03 -61.51) rotate(15.67)" xlink:href="#linear-gradient-15"/><linearGradient id="linear-gradient-51" x1="258.12" y1="425.05" x2="300.93" y2="425.05" gradientTransform="matrix(1, 0, 0, 1, 0, 0)" xlink:href="#linear-gradient-12"/><linearGradient id="linear-gradient-52" x1="227.04" y1="287.28" x2="240.55" y2="287.28" gradientTransform="translate(382.68 -92.25) rotate(62.3)" xlink:href="#linear-gradient-15"/><linearGradient id="linear-gradient-53" x1="264.61" y1="289.94" x2="239.19" y2="305.78" gradientTransform="translate(34.53 -61.84) rotate(6)" gradientUnits="userSpaceOnUse"><stop offset="0" stop-color="#50eeef"/><stop offset="1" stop-color="#68a2f4"/></linearGradient><linearGradient id="linear-gradient-54" x1="236.92" y1="294.38" x2="257.19" y2="294.38" gradientTransform="matrix(0.46, 0.89, -0.89, 0.46, 395.25, -98.85)" xlink:href="#linear-gradient-13"/><linearGradient id="linear-gradient-55" x1="257.49" y1="295.48" x2="262.89" y2="295.48" gradientTransform="translate(34.53 -61.84) rotate(6)" xlink:href="#linear-gradient-2"/></defs><title>health</title><g class="cls-1"><g id="Layer_1" data-name="Layer 1"><path class="cls-2" d="M412,372.42c-1.53-10.51-4.22-21.26-9.34-29.77-5.68-9.43-13.36-15.88-16.47-27.87-6.09-23.47,5.54-47.48-3.76-70.75C376,228,363.37,214.12,349.91,209.4c-15.52-5.45-32.78-20.55-48.33-15.32-10.92,3.67-22.36,8.2-33.24,4.34-10.48-3.71-18.47-14.52-27.69-22-19.53-15.91-45.89-16.11-65.56-.48-7.1,5.64-13.44,13.19-21.27,16.81-15.45,7.16-32.26-1.3-48.41-4.92-44.63-10-41,40.95-52,44.53-7.75,2.51-16.39,5.31-21.95,13.37-7.09,10.26-6.66,22.77-4.8,35.61,1.34,9.21,2.94,19.51.12,28.54-2.37,7.55-8.47,12.42-13.56,16.48C-.24,337.08,0,362.77,0,383.43V450H412Z"/><path class="cls-3" d="M339.68,418.15l-17-11.88-3.49,6.25,19.34,8.34A22.08,22.08,0,0,1,339.68,418.15Z"/><polygon class="cls-4" points="319.18 412.52 331.48 417.83 333.65 413.94 322.67 406.27 319.18 412.52"/><rect class="cls-5" x="301.87" y="376.66" width="8.18" height="48.8" transform="translate(-193.31 473.1) rotate(-60.87)"/><path class="cls-6" d="M329.38,405.74c-.36-.19-.87.06-1.16.57l-6.08,10.91c-.28.51-.23,1.09.13,1.28l1,.56c.35.19.87-.06,1.15-.57l6.08-10.91c.29-.51.23-1.09-.12-1.28Z"/><polygon class="cls-7" points="250.3 370.2 275.77 384.98 276.41 383.83 250.44 369.95 250.3 370.2"/><rect class="cls-5" x="335.43" y="418.39" width="7.16" height="2.15" transform="translate(-192.43 511.42) rotate(-60.87)"/><polygon class="cls-8" points="274.5 385.2 283.6 391.06 285.7 387.3 275.92 382.65 274.5 385.2"/><path class="cls-9" d="M330.49,407.58c.29-.51.23-1.09-.12-1.28l-1-.56c-.36-.19-.87.06-1.16.57l-1.05,1.88-3-1.66-.15.29c-.27.56-.55,1.1-.84,1.64a41.36,41.36,0,0,1-2.45,3.91c-.28.38-.55.76-.82,1.15l3.26,1.82-1.05,1.88c-.28.51-.23,1.09.13,1.28l1,.56c.35.19.87-.06,1.15-.57l1.67-3,5.4,2.33,2.9,1.25q1.35-1.4,2.82-2.67l-8.37-5.84Z"/><polygon class="cls-10" points="283.15 391.93 325.78 415.69 327.41 411.83 284.57 389.38 283.15 391.93"/><path class="cls-11" d="M326.13,413a8.22,8.22,0,0,1,.7-1,19.71,19.71,0,0,1,2.42-6c.05-.09.11-.16.16-.24l0,0c-.36-.19-.87.06-1.16.57l-1.05,1.88-3-1.66-.15.29c-.27.56-.55,1.1-.84,1.64a41.36,41.36,0,0,1-2.45,3.91c-.28.38-.55.76-.82,1.15l3.26,1.82-1.05,1.88c-.28.51-.23,1.09.13,1.28l.36.21A51.38,51.38,0,0,0,326.13,413Z"/><path class="cls-12" d="M330.49,407.58c.29-.51.23-1.09-.12-1.28l-1-.56c-.36-.19-.87.06-1.16.57l-1.05,1.88-4,7.15-1.05,1.88c-.28.51-.23,1.09.13,1.28l1,.56c.35.19.87-.06,1.15-.57l1.67-3,2.75-4.93Z"/><path class="cls-13" d="M174.12,110.71s-6.48,23.88,14.2,37.92C188.32,148.63,216,120.09,174.12,110.71Z"/><path class="cls-13" d="M126.37,180.3l-13.54-5.87s-.77,8.22-12.26,14.33S71.46,206.61,80.65,247s55.24,11.24,59.67-7.66S144.75,186.69,126.37,180.3Z"/><path class="cls-14" d="M158.41,193.73c-11.31-3.81-17.63-16.63-27.7-22.88-2.18-1.35-6.71-3.67-8.62-5.17,1.19,13.37,1,46.33-10.92,65.7,0,0-1.15,32.95,31.41,37.93S169,237.13,169,237.13,158.93,229,158.41,193.73Z"/><path class="cls-15" d="M137.25,178.1c.21,8.14-1.75,19.57,4.23,28.9,5.37,8.36,11.82,11.59,19.82,13.19a121.83,121.83,0,0,1-2.89-26.46c-8.72-2.94-14.48-11.23-21.28-17.74C137.17,176.69,137.23,177.4,137.25,178.1Z"/><path class="cls-16" d="M136.84,247.58c-3-9.2-7.5-17.88-8.05-27.69-.88-15.69-1.7-33.3,1.32-49.4-2.33-1.37-6.26-3.43-8-4.81,1.19,13.37,1,46.33-10.92,65.7,0,0-1.15,32.95,31.41,37.93.9.13,1.76.23,2.61.3C141.5,262.69,139.27,255.14,136.84,247.58Z"/><path class="cls-14" d="M134.54,110.71s49,1.15,52.1,19.92,1,20.05,1.28,26.43c.2,5,4.06,23-2.74,39.09a18.11,18.11,0,0,1-20.59,10.48c-10.16-2.26-23.11-7.75-30.05-18.92-7.28-11.72-2-15.07-9.71-17.62-15-5-18.9-20.31-1.78-22,9.16-.89,10.72,8.18,10.72,8.18S125.34,114.41,134.54,110.71Z"/><path class="cls-13" d="M187.91,163.26a2.58,2.58,0,1,1-2.94-1.63A2.39,2.39,0,0,1,187.91,163.26Z"/><path class="cls-13" d="M168.77,166a2.8,2.8,0,1,1-3.2-1.78A2.61,2.61,0,0,1,168.77,166Z"/><path class="cls-17" d="M180.14,183.75l-.24,0a.69.69,0,0,1-.77-.58.68.68,0,0,1,.65-.7c1.45-.14,2.37-.48,2.62-.95.39-.75-.67-2.18-1.45-3.23-.3-.41-.58-.79-.78-1.12-1.22-2-1.79-7-1.82-7.17a.68.68,0,0,1,.63-.72.69.69,0,0,1,.78.56s.56,4.9,1.64,6.69c.19.3.45.65.73,1,1,1.38,2.28,3.09,1.54,4.51C183.2,183,182,183.54,180.14,183.75Z"/><path class="cls-18" d="M178.47,192.34c-1.6.15-3.69-.29-6.12-2.34a.71.71,0,0,1,.91-1.08c4.59,3.88,7.4,1.12,7.52,1a.71.71,0,0,1,1,0,.72.72,0,0,1,0,1A5.85,5.85,0,0,1,178.47,192.34Z"/><path class="cls-13" d="M161,163.35a.71.71,0,0,1-.66-.33.7.7,0,0,1,.22-1,13.72,13.72,0,0,1,9.72-1.57.7.7,0,1,1-.33,1.37,12.52,12.52,0,0,0-8.64,1.39A.72.72,0,0,1,161,163.35Z"/><path class="cls-13" d="M189.59,160.82a.67.67,0,0,1-.48-.13c-2.92-2.12-6.71-.3-6.74-.28a.71.71,0,0,1-1-.32.7.7,0,0,1,.32-.94c.19-.09,4.6-2.22,8.2.4a.72.72,0,0,1,.16,1A.75.75,0,0,1,189.59,160.82Z"/><path class="cls-13" d="M119.38,108.3c7.88-3,41.92-22.49,72.75,10.39,0,0,1.87,32.5-42.93,29.94,0,0-7.65,10.26-7.9,19.67a2,2,0,0,1-2,2c-1.83,0-5.58-3.57-7.74-9.47-1-2.74-7.29-13-13.66-6.32-7.52,7.92,5,14.79,5,14.79s-.42,13.25-.62,16.6c0,0-36.09-19.52-22.68-56.23C105.05,115,113.07,110.71,119.38,108.3Z"/><path class="cls-19" d="M102.56,129.93c4,.93,15.89,2.91,22.8-1.58,11.53-7.51,22.58-12.54,35.7-7.27,6.16,2.48,13.68,6.48,19.47.69a22.73,22.73,0,0,0,5.79-8.65c-29.17-24.94-59.55-7.64-66.94-4.82-6.29,2.4-14.26,6.64-19.63,21.19A21.27,21.27,0,0,1,102.56,129.93Z"/><path class="cls-20" d="M236.7,399.86c1.9-3.11,7.3-8.92,7.66-12.18a23,23,0,0,1,1.52-6.12l-18.25-33.34c-6.13-45.58-22.09-96.66-25.41-99.47s-33.4-18.14-33.4-18.14c5.88,4.61,11.69,43.29,13.17,56.7s6.56,49,14.23,67c5.56,13.09,26.7,37.29,37.84,49.54C234.94,402.63,235.81,401.32,236.7,399.86Z"/><path class="cls-21" d="M209.12,363.88c-6.49-15.95-13.4-29.74-12.07-47.38.56-7.39-4.19-10.13-6.46-16.73s-1.1-12.74-.89-19.61c.43-13.85-4.28-29.13-8.38-43.08-6.75-3.53-12.5-6.47-12.5-6.47,5.88,4.61,11.69,43.29,13.17,56.7s6.56,49,14.23,67c3.38,7.95,12.51,20,21.65,31C214.76,378.13,211.94,370.82,209.12,363.88Z"/><path class="cls-22" d="M74,241.34a139.6,139.6,0,0,0,39.9-15.09s25.6,34.59,39,33.86c0,0,11.53-29.48,10.36-33.1l28.35,15.55s-7.19,52.67-6.22,75.65S204.77,450,204.77,450H69.41s25.54-99.09,22-131.27S85.76,256.41,74,241.34Z"/><path class="cls-21" d="M154.08,260.16l-2.75.29c.76,10.15,2.81,154.06-.41,189.55h4.42C154.8,445.39,154.75,269.56,154.08,260.16Z"/><path class="cls-23" d="M176.18,450h28.59s-18.39-108.8-19.35-131.79c-.43-10.29.77-26.51,2.23-41.31-1.08,2.51-2.12,5-3,7.59a17.47,17.47,0,0,1-3.83,5.45,25.1,25.1,0,0,0-6.53,18.34c.31,6.47.85,12.85-1,19.76-3.15,11.89,7.11,17.92,11,28.57,4.25,11.5,2.23,23.89-4,34.31-2.58,4.28-5.78,8.44-7.86,13-1.76,3.86.94,5.59,2.82,9.11,5.87,11,7.71,21.63,2.6,33.36C177.34,447.61,176.77,448.81,176.18,450Z"/><path class="cls-23" d="M115.39,450c-.2-6.93,1.44-14.49,5.36-22.56,4.92-10.12,8-13.17,3.16-23.88-3.46-7.69-3.93-14.87-2.84-23.16,1-7.31,4.64-15.5,4-22.88-.43-5-8.9-9.89-11.23-14.56-3.28-6.58-5.69-13.57-5.21-21.06.4-6.24,3.21-15.38-.19-21.06-5.81-9.69-14.75-16.44-22.26-24.73h0c2.17,12.87,3.52,27.51,5.2,42.63C95,350.91,69.41,450,69.41,450Z"/><polygon class="cls-24" points="163.02 226.25 152.93 260.11 170.55 269.61 175.64 233.79 163.02 226.25"/><polygon class="cls-25" points="116.38 220.19 102.8 231.94 129.56 275.63 152.93 260.11 116.38 220.19"/><polygon class="cls-26" points="180.19 314.7 140.01 430.01 145.19 431.74 260.57 316.42 255.4 314.7 180.19 314.7"/><polygon class="cls-13" points="185.36 316.42 145.19 431.74 218.82 431.74 260.57 316.42 185.36 316.42"/><path class="cls-14" d="M231,397.67s13.71-.08,13.62,2.7a5.81,5.81,0,0,1-1.39,4s-5.12,4.37-8.64,4.37-12.14.06-11.46-2.76c1.11-4.64,7.78-2.72,9.54-2.63s-3.66-.15-3.66-.15Z"/><path class="cls-14" d="M233.53,390.68s13.65-.09,13.56,2.68a5.79,5.79,0,0,1-1.38,4s-4.89,4.89-8.4,4.89-14.88,1.67-14.23-3,10.36-3,12.11-2.88-3.64-.15-3.64-.15Z"/><path class="cls-14" d="M236.36,383.14s14.33-.09,14.23,2.81a6.11,6.11,0,0,1-1.45,4.17s-5.13,5.13-8.81,5.13-16.65,2.52-16-2.42,11.91-3.87,13.75-3.78-3.82-.16-3.82-.16Z"/><path class="cls-14" d="M239.7,374.08s16.7-.11,16.59,3.27-1.7,4.86-1.7,4.86-6,6-10.26,6-19.41,2.93-18.62-2.82,13.88-4.52,16-4.4-4.45-.19-4.45-.19Z"/><g class="cls-27"><path class="cls-28" d="M147.37,292.58c0,2.59-1,4.69-2.3,4.69s-2.31-2.1-2.31-4.69,1-4.69,2.31-4.69S147.37,290,147.37,292.58Z"/><path class="cls-28" d="M147.37,327.7c0,2.59-1,4.69-2.3,4.69s-2.31-2.1-2.31-4.69,1-4.7,2.31-4.7S147.37,325.1,147.37,327.7Z"/><path class="cls-28" d="M147.37,362.81c0,2.59-1,4.69-2.3,4.69s-2.31-2.1-2.31-4.69,1-4.69,2.31-4.69S147.37,360.22,147.37,362.81Z"/><path class="cls-28" d="M147.37,397.93c0,2.59-1,4.69-2.3,4.69s-2.31-2.1-2.31-4.69,1-4.7,2.31-4.7S147.37,395.34,147.37,397.93Z"/><path class="cls-28" d="M147.37,433c0,2.6-1,4.7-2.3,4.7s-2.31-2.1-2.31-4.7,1-4.69,2.31-4.69S147.37,430.45,147.37,433Z"/></g><path class="cls-14" d="M143,383.66s4.72.44,13.85-1.89,35.26-3.6,37.23,1.92-3.2,4.3-19.86,3c0,0,20.69.56,21.48,7.42s-26.85-.92-26.85-.92,25,4.77,23.05,10.29S166,401,166,401s19.54,4.85,16,9.32-18.38-3.32-22.47-2.68-8.17,9.52-29.88-4.12Z"/><path class="cls-29" d="M145.19,381.51,133.52,409.9S39.28,385.76,31.1,374.08,56,237.89,74,241.34s17.11,75.08,17.11,75.08-17.62,37.29-16.6,38.06S145.19,381.51,145.19,381.51Z"/><path class="cls-21" d="M74.52,354.48c-1-.77,16.6-38.06,16.6-38.06s.2-16.48-1.57-34c-.3,2.24-2.31,16.36-5.77,18.5-26.56,16.44-.19,27.78-22.62,47.4-4.66,4.08-1,19.48,11.33,22.17,7,1.53,17.87-2.72,31.33,11.3,8.25,8.59,12.23,11.8,24.52,8.58,4.88-1.27,9.73-2.48,14.61-3.43l2.24-5.42S75.54,355.25,74.52,354.48Z"/><path class="cls-13" d="M134.64,284.28c-.51-6-2.94-15.87-9-19.89-4.72-3.12-13-3.89-20,2.32a56.54,56.54,0,0,1-5.2-24.31c.2-5.34,3.74-11.23,5.56-13.41,5.82-7,10.38-8.8,10.38-8.8s2.18-7.23,2.18-7.23c-5.28,5.2-15.76,11.27-20.69,22.55-2.67,6.12-2.05,20.32,6,32.89-5.25,6.65-6.1,13.81-1.52,20.35,4.19,6,13.47,8.18,19.45,8.49a4.06,4.06,0,1,0-.3-2.36c-5.61-.33-13.58-2.36-17.05-7.14-3.67-5-3.41-12.11,1.37-18.08.24-.29,1.59-1.45,2-1.77a13.69,13.69,0,0,1,16.9-1.38c4.81,3.45,7.08,12,7.6,17.55a4.07,4.07,0,1,0,2.36.22Z"/><path class="cls-13" d="M163,226.25c.09.37,5.57,2.26,8.88,5.37,2.86,2.7,5.77,9.19,5.91,12.21a149.65,149.65,0,0,1-.38,16.77c-.65,11-8.08,21.11-12.38,24.71l2,1.27c4.84-4.1,12.82-13.79,13.46-25.5.35-6.41,1.3-12.85,0-19.22A25.24,25.24,0,0,0,171.14,227a31.74,31.74,0,0,0-6.42-3.82c-.28-.13-2.94-.94-3-1.23Z"/><path class="cls-13" d="M171.8,287.28a5.9,5.9,0,1,1-5.16-6.56A5.89,5.89,0,0,1,171.8,287.28Z"/><path class="cls-30" d="M169.53,287a3.62,3.62,0,1,1-3.16-4A3.62,3.62,0,0,1,169.53,287Z"/><polygon class="cls-31" points="23.61 450 23.61 408.93 14.31 402.92 14.31 450 23.61 450"/><polygon class="cls-32" points="83.86 402.92 96.19 408.91 23.62 408.91 14.31 402.92 83.86 402.92"/><rect class="cls-33" x="23.61" y="408.92" width="72.58" height="41.08"/><polygon class="cls-34" points="74.22 439.61 74.22 431.66 63.87 431.66 63.87 421.31 55.92 421.31 55.92 431.66 45.58 431.66 45.58 439.61 55.92 439.61 55.92 449.96 63.87 449.96 63.87 439.61 74.22 439.61"/><polygon class="cls-35" points="71.06 399.19 44.14 399.19 41.67 397.21 66.96 397.21 71.06 399.19"/><polygon class="cls-13" points="44.14 406.69 41.67 404.72 41.67 396.42 44.14 398.39 44.14 406.69"/><rect class="cls-13" x="44.14" y="398.39" width="1.63" height="8.3"/><polygon class="cls-13" points="69.43 406.69 66.96 404.72 66.96 396.42 69.43 398.39 69.43 406.69"/><rect class="cls-13" x="69.43" y="398.39" width="1.63" height="8.3"/><polygon class="cls-13" points="71.06 398.39 44.14 398.39 41.67 396.42 66.96 396.42 71.06 398.39"/><path class="cls-36" d="M71,450A95.59,95.59,0,0,1,56,445.81a51.47,51.47,0,0,1-19.71-13c-2.94-3.05-6.25-5.78-9-9-.39-.45-.75-.92-1.11-1.39V450Z"/><path class="cls-37" d="M328.16,396.35l-10-2.42a6,6,0,0,1-3.88-2.87l-.64-1.21,20.38,4.95-1.12.77A6,6,0,0,1,328.16,396.35Z"/><path class="cls-38" d="M328.16,396.35l-10-2.42a6,6,0,0,1-3.88-2.87l-.64-1.21,20.38,4.95-1.12.77A6,6,0,0,1,328.16,396.35Z"/><path class="cls-39" d="M335.17,392.44s4-16.62,4.57-18.83-3-5.21-4.1-6.17.64-5.62.64-5.62l-4.73-1.15-4.74-1.15s-.58,4.94-2,5.29-5.93,1.39-6.47,3.6-4.57,18.83-4.57,18.83-1.32,3.44,1.56,4.14l8.28,2,8.29,2C334.77,396.1,335.17,392.44,335.17,392.44Z"/><rect class="cls-40" x="318.52" y="370.44" width="15.95" height="22.02" transform="translate(-121.22 608.74) rotate(-76.35)"/><rect class="cls-41" x="321.64" y="374.76" width="9.72" height="13.41" rx="1.51" transform="translate(-121.23 608.75) rotate(-76.35)"/><rect class="cls-42" x="326.6" y="373.52" width="1.23" height="10" transform="translate(-117.82 607.21) rotate(-76.36)"/><rect class="cls-42" x="326.12" y="375.49" width="1.23" height="10" transform="translate(-120.09 608.23) rotate(-76.35)"/><rect class="cls-42" x="325.64" y="377.45" width="1.23" height="10" transform="translate(-122.36 609.28) rotate(-76.36)"/><rect class="cls-42" x="325.17" y="379.41" width="1.23" height="10" transform="translate(-124.63 610.31) rotate(-76.35)"/><path class="cls-43" d="M325.81,363.64l9.47,2.29a17.76,17.76,0,0,1,1-4.11l-9.47-2.3A17.67,17.67,0,0,1,325.81,363.64Z"/><path class="cls-36" d="M331.55,360.67l-4.74-1.15s-.58,4.94-2,5.29-5.93,1.39-6.47,3.6-4.57,18.83-4.57,18.83-1.32,3.44,1.56,4.14l4,1c.89-3.66,2.18-9,3.63-14.95,2.38-9.81,3.65-9.32,6.38-9.13C330.15,368.32,331.55,360.67,331.55,360.67Z"/><path class="cls-44" d="M337.51,359.31l-10.64-2.58,1.07-1.7a1.43,1.43,0,0,1,1.55-.64l6.76,1.65a1.43,1.43,0,0,1,1.09,1.27Z"/><rect class="cls-45" x="328.86" y="352.83" width="5.93" height="13.41" rx="1.02" transform="translate(-95.85 597.17) rotate(-76.35)"/><path class="cls-46" d="M326.25,360.28l-.35-.08a.22.22,0,0,1-.14-.27l.85-3.52a.22.22,0,0,1,.26-.17l.34.08a.22.22,0,0,1,.15.27l-.86,3.52A.21.21,0,0,1,326.25,360.28Z"/><path class="cls-46" d="M327.56,360.6l-.34-.08a.21.21,0,0,1-.15-.27l.85-3.52a.21.21,0,0,1,.26-.17l.34.08a.22.22,0,0,1,.15.27l-.86,3.52A.21.21,0,0,1,327.56,360.6Z"/><path class="cls-46" d="M328.87,360.92l-.34-.08a.22.22,0,0,1-.15-.27l.85-3.53a.23.23,0,0,1,.26-.17l.34.09a.21.21,0,0,1,.15.27l-.86,3.52A.21.21,0,0,1,328.87,360.92Z"/><path class="cls-46" d="M330.18,361.24l-.34-.09a.21.21,0,0,1-.15-.26l.86-3.53a.22.22,0,0,1,.25-.17l.34.09a.2.2,0,0,1,.15.26l-.85,3.53A.23.23,0,0,1,330.18,361.24Z"/><path class="cls-46" d="M331.49,361.56l-.34-.09a.21.21,0,0,1-.15-.26l.86-3.53a.21.21,0,0,1,.25-.17l.35.08a.22.22,0,0,1,.14.27l-.85,3.53A.22.22,0,0,1,331.49,361.56Z"/><path class="cls-46" d="M332.81,361.87l-.35-.08a.23.23,0,0,1-.15-.27l.86-3.52a.21.21,0,0,1,.25-.17l.35.08a.22.22,0,0,1,.15.27l-.86,3.52A.2.2,0,0,1,332.81,361.87Z"/><path class="cls-46" d="M334.12,362.19l-.34-.08a.21.21,0,0,1-.15-.27l.85-3.52a.22.22,0,0,1,.26-.17l.34.08a.22.22,0,0,1,.15.27l-.86,3.52A.21.21,0,0,1,334.12,362.19Z"/><path class="cls-46" d="M335.43,362.51l-.34-.08a.22.22,0,0,1-.15-.27l.85-3.52a.22.22,0,0,1,.26-.17l.34.08a.22.22,0,0,1,.15.27l-.86,3.52A.21.21,0,0,1,335.43,362.51Z"/><path class="cls-46" d="M336.74,362.83l-.34-.08a.22.22,0,0,1-.15-.27l.86-3.53a.2.2,0,0,1,.25-.16l.34.08a.22.22,0,0,1,.15.27l-.85,3.52A.22.22,0,0,1,336.74,362.83Z"/><path class="cls-47" d="M295.57,180.69c-9.51,2-30.89,8.53-32.18,9-1.63.55-4.86,1.18-2.63,9.07,2.48,8.74,3.27,18.1,11.22,16,6.34-1.68,21.44-5.41,30.51-8.55,2.82-1,5.95-3.28,4.05-9.57-1.34-4.42-1.91-7.37-3.55-11.54C301.91,182.31,301.62,179.42,295.57,180.69Z"/><path class="cls-21" d="M306.73,200.49a61.36,61.36,0,0,1-16.52-.17,119.34,119.34,0,0,1-18.42-3.84c-2.25-.7-4.86-1.37-6.76-2.83-.76-.59-1.51-1.23-2.31-1.78a5.2,5.2,0,0,0-.6-.36c-1.52,0-.79,3.23-.35,4.77,2.47,8.74,3.27,18.1,11.22,16,6.33-1.68,21.44-5.41,30.51-8.55C304.65,203.33,306.92,201.5,306.73,200.49Z"/><path class="cls-13" d="M303,204.87c-9.06,3.14-24.17,6.87-30.5,8.55-7.95,2.1-8.75-7.25-11.23-16a13.14,13.14,0,0,1-.63-6c-.71,1.21-1,3.34.16,7.25,2.48,8.74,3.27,18.1,11.22,16,6.34-1.68,21.44-5.41,30.51-8.55a6.25,6.25,0,0,0,4.43-4.39A6.69,6.69,0,0,1,303,204.87Z"/><path class="cls-48" d="M301,193c-2,.45-6,1.49-10.56,2.65-10.68,2.69-25.29,7.38-25.66,7.71-.72.63,8.68-2.4,20-5.35C291.48,196.28,308.08,191.44,301,193Z"/><path class="cls-49" d="M271.42,195.29a3.66,3.66,0,1,1-3.58-3.43A3.52,3.52,0,0,1,271.42,195.29Z"/><path class="cls-50" d="M267.89,195.44a30.32,30.32,0,0,1-3.34-1.78,3,3,0,0,0-.42,1.5,3.52,3.52,0,0,0,3.58,3.43,3.71,3.71,0,0,0,3.21-1.66C269.9,196.45,268.87,196,267.89,195.44Z"/><path class="cls-51" d="M270.83,195.28a3.06,3.06,0,1,1-3-2.88A2.94,2.94,0,0,1,270.83,195.28Z"/><path class="cls-52" d="M268.1,193.08a2.11,2.11,0,0,0-1.87,1,3.71,3.71,0,0,1,3,2.53,1.9,1.9,0,0,0,1-1.59A2,2,0,0,0,268.1,193.08Z"/><path class="cls-49" d="M281.35,192.65a3.66,3.66,0,1,1-3.59-3.43A3.52,3.52,0,0,1,281.35,192.65Z"/><path class="cls-50" d="M277.82,192.8a29.69,29.69,0,0,1-3.35-1.78,3.1,3.1,0,0,0-.42,1.5,3.52,3.52,0,0,0,3.59,3.43,3.71,3.71,0,0,0,3.2-1.66C279.83,193.82,278.79,193.37,277.82,192.8Z"/><path class="cls-53" d="M280.76,192.64a3.07,3.07,0,1,1-3-2.87A3,3,0,0,1,280.76,192.64Z"/><path class="cls-52" d="M278,190.44a2.11,2.11,0,0,0-1.88,1,3.72,3.72,0,0,1,3,2.53,1.89,1.89,0,0,0,1-1.59A2,2,0,0,0,278,190.44Z"/><path class="cls-49" d="M291.27,190a3.66,3.66,0,1,1-3.59-3.43A3.52,3.52,0,0,1,291.27,190Z"/><path class="cls-50" d="M287.74,190.17a29.75,29.75,0,0,1-3.35-1.79,3.1,3.1,0,0,0-.42,1.5,3.52,3.52,0,0,0,3.59,3.43,3.71,3.71,0,0,0,3.21-1.65C289.75,191.18,288.71,190.74,287.74,190.17Z"/><path class="cls-54" d="M290.68,190a3.07,3.07,0,1,1-3-2.88A2.95,2.95,0,0,1,290.68,190Z"/><path class="cls-52" d="M288,187.81a2.08,2.08,0,0,0-1.88,1,3.7,3.7,0,0,1,3,2.52,1.87,1.87,0,0,0,1-1.59A2,2,0,0,0,288,187.81Z"/><path class="cls-49" d="M301.19,187.38A3.66,3.66,0,1,1,297.6,184,3.52,3.52,0,0,1,301.19,187.38Z"/><path class="cls-50" d="M297.66,187.53a31.4,31.4,0,0,1-3.35-1.78,3.18,3.18,0,0,0-.42,1.5,3.52,3.52,0,0,0,3.59,3.43,3.74,3.74,0,0,0,3.21-1.66C299.67,188.54,298.63,188.1,297.66,187.53Z"/><path class="cls-55" d="M300.6,187.37a3.07,3.07,0,1,1-3-2.88A2.94,2.94,0,0,1,300.6,187.37Z"/><path class="cls-52" d="M297.87,185.17a2.12,2.12,0,0,0-1.88,1,3.69,3.69,0,0,1,3,2.53,1.88,1.88,0,0,0,1-1.59A2,2,0,0,0,297.87,185.17Z"/><path class="cls-49" d="M274.83,207.45a3.66,3.66,0,1,1-3.58-3.43A3.51,3.51,0,0,1,274.83,207.45Z"/><path class="cls-50" d="M271.3,207.6a28.71,28.71,0,0,1-3.34-1.78,3.1,3.1,0,0,0-.42,1.5,3.52,3.52,0,0,0,3.58,3.43,3.71,3.71,0,0,0,3.21-1.66C273.31,208.62,272.28,208.17,271.3,207.6Z"/><path class="cls-56" d="M274.25,207.44a3.07,3.07,0,1,1-3-2.87A2.95,2.95,0,0,1,274.25,207.44Z"/><path class="cls-52" d="M271.52,205.24a2.11,2.11,0,0,0-1.88,1,3.72,3.72,0,0,1,3,2.53,1.9,1.9,0,0,0,1-1.59A2,2,0,0,0,271.52,205.24Z"/><path class="cls-49" d="M284.76,204.82a3.66,3.66,0,1,1-3.59-3.43A3.52,3.52,0,0,1,284.76,204.82Z"/><path class="cls-50" d="M281.23,205a29.75,29.75,0,0,1-3.35-1.79,3.1,3.1,0,0,0-.42,1.5,3.52,3.52,0,0,0,3.59,3.43,3.71,3.71,0,0,0,3.21-1.65C283.24,206,282.2,205.54,281.23,205Z"/><path class="cls-57" d="M284.17,204.81a3.07,3.07,0,1,1-3-2.88A2.95,2.95,0,0,1,284.17,204.81Z"/><path class="cls-52" d="M281.44,202.61a2.07,2.07,0,0,0-1.88,1,3.7,3.7,0,0,1,3,2.52,1.89,1.89,0,0,0,1-1.59A2,2,0,0,0,281.44,202.61Z"/><path class="cls-49" d="M294.68,202.18a3.66,3.66,0,1,1-3.59-3.43A3.51,3.51,0,0,1,294.68,202.18Z"/><path class="cls-50" d="M291.15,202.33a31.4,31.4,0,0,1-3.35-1.78,3.14,3.14,0,0,0-.42,1.49,3.51,3.51,0,0,0,3.59,3.43,3.71,3.71,0,0,0,3.21-1.65C293.16,203.34,292.12,202.9,291.15,202.33Z"/><path class="cls-58" d="M294.09,202.17a3.07,3.07,0,1,1-3-2.88A2.94,2.94,0,0,1,294.09,202.17Z"/><path class="cls-52" d="M291.36,200a2.12,2.12,0,0,0-1.88,1,3.69,3.69,0,0,1,3,2.53,1.88,1.88,0,0,0,1-1.59A2,2,0,0,0,291.36,200Z"/><path class="cls-49" d="M304.6,199.54a3.66,3.66,0,1,1-3.58-3.43A3.51,3.51,0,0,1,304.6,199.54Z"/><path class="cls-50" d="M301.07,199.69a29.69,29.69,0,0,1-3.35-1.78,3.21,3.21,0,0,0-.41,1.5,3.51,3.51,0,0,0,3.58,3.43,3.72,3.72,0,0,0,3.21-1.66C303.08,200.71,302.05,200.26,301.07,199.69Z"/><path class="cls-59" d="M304,199.53a3.07,3.07,0,1,1-3-2.87A3,3,0,0,1,304,199.53Z"/><path class="cls-52" d="M301.28,197.33a2.13,2.13,0,0,0-1.88,1,3.72,3.72,0,0,1,3,2.53,1.92,1.92,0,0,0,1-1.59A2,2,0,0,0,301.28,197.33Z"/><path class="cls-31" d="M332.86,264.39c-1.93.5-2.19,4-2.11,5.52.06,1.24-.11,3,4.53,4s13.72,2.93,14.79,0,1.86-6.14-.57-7S334.78,263.89,332.86,264.39Z"/><path class="cls-60" d="M350.23,273.53c1-2.81,1.58-5.76-.73-6.57A91,91,0,0,0,334,264.32a21.52,21.52,0,0,0-.82,4.47c0,1.23-.13,2.42,4.51,3.42C341,272.93,346.92,274,350.23,273.53Z"/><path class="cls-61" d="M349.5,267a62,62,0,0,0-7.2-1.57,32.81,32.81,0,0,1-1.18,7.48,34.63,34.63,0,0,0,9.11.66C351.21,270.72,351.81,267.77,349.5,267Z"/><path class="cls-31" d="M264.63,359.38c-1.92.5-2.18,4-2.1,5.53.06,1.23-.11,3,4.53,4s13.72,2.93,14.79,0,1.86-6.15-.57-7S266.56,358.88,264.63,359.38Z"/><path class="cls-62" d="M282,368.53c1-2.81,1.58-5.76-.73-6.57a89.18,89.18,0,0,0-15.48-2.64,21.52,21.52,0,0,0-.82,4.47c0,1.23-.13,2.42,4.51,3.42C272.82,367.92,278.7,369,282,368.53Z"/><path class="cls-63" d="M281.28,362a63.62,63.62,0,0,0-7.2-1.58,32.82,32.82,0,0,1-1.18,7.49,34.63,34.63,0,0,0,9.11.66C283,365.72,283.59,362.77,281.28,362Z"/><path class="cls-31" d="M229.94,283.82c-2.6,0-4,4.39-4.39,6.37-.3,1.58-1.08,3.83,4.51,6.54s16.51,8,18.78,4.58,4.26-7.23,1.44-9.07S232.54,283.78,229.94,283.82Z"/><path class="cls-64" d="M249.17,300.81c2.12-3.26,3.79-6.82,1.11-8.57a119,119,0,0,0-18.85-8.15,28,28,0,0,0-2.41,5.43c-.35,1.57-.92,3,4.67,5.74C237.69,297.2,244.83,300.36,249.17,300.81Z"/><path class="cls-65" d="M250.28,292.24a84.47,84.47,0,0,0-8.66-4.23,42.71,42.71,0,0,1-3.82,9.14c3.79,1.65,8.28,3.34,11.37,3.66C251.29,297.55,253,294,250.28,292.24Z"/><path class="cls-31" d="M8.76,354.48c-1,1.73,1.39,4.27,2.55,5.26.92.79,2.11,2.14,6-.52s11.39-7.88,10-10.63-3.16-5.5-5.42-4.33S9.71,352.76,8.76,354.48Z"/><path class="cls-66" d="M27.09,348.18c-1.35-2.6-3.06-5-5.21-3.92A89.43,89.43,0,0,0,9.5,353.6a20.74,20.74,0,0,0,2.66,3.61c.9.82,1.65,1.74,5.51-.92C20.44,354.38,25.18,350.87,27.09,348.18Z"/><path class="cls-67" d="M21.88,344.26a61.37,61.37,0,0,0-6,4.12,31.92,31.92,0,0,1,4.58,5.91,34.15,34.15,0,0,0,6.64-6.11C25.74,345.58,24,343.15,21.88,344.26Z"/><path class="cls-31" d="M297.35,439.48c-.69,1.87,2,4.06,3.35,4.87,1.05.65,2.45,1.82,5.91-1.44s10.2-9.63,8.39-12.17-4-5-6.09-3.51S298,437.61,297.35,439.48Z"/><path class="cls-68" d="M314.73,430.37c-1.75-2.41-3.83-4.57-5.82-3.14a91.74,91.74,0,0,0-11,11.25,20.68,20.68,0,0,0,3.22,3.21c1,.68,1.91,1.49,5.37-1.77C309,437.59,313.23,433.35,314.73,430.37Z"/><path class="cls-69" d="M308.91,427.23a65.69,65.69,0,0,0-5.38,5,32.32,32.32,0,0,1,5.49,5.21,34,34,0,0,0,5.71-7.12C313,428,310.9,425.8,308.91,427.23Z"/><path class="cls-31" d="M13.16,384.32c-1.73,1-1.06,4.43-.58,5.89.38,1.17.69,3,5.44,2.72s14-.77,14.27-3.88.18-6.42-2.39-6.61S14.89,383.34,13.16,384.32Z"/><path class="cls-70" d="M32.32,388.59c.22-3,0-6-2.42-6.15A91.36,91.36,0,0,0,14.26,384a22,22,0,0,0,.39,4.53c.35,1.18.51,2.37,5.25,2.12C23.3,390.42,29.26,389.9,32.32,388.59Z"/><path class="cls-71" d="M29.9,382.44a65.29,65.29,0,0,0-7.37.37,32.31,32.31,0,0,1,.83,7.53,34.21,34.21,0,0,0,9-1.75C32.54,385.62,32.34,382.62,29.9,382.44Z"/><path class="cls-31" d="M279.89,235.51c-1.07,1.68,1.14,4.4,2.24,5.47.88.86,2,2.3,6.08-.14s12-7.23,10.8-10.1-2.85-5.76-5.2-4.73S281,233.83,279.89,235.51Z"/><path class="cls-72" d="M298.82,230.32c-1.19-2.73-2.77-5.29-5-4.31a91.05,91.05,0,0,0-13.12,8.66,22.54,22.54,0,0,0,2.46,3.82c.86.88,1.56,1.85,5.63-.59C291.7,236.15,296.72,232.9,298.82,230.32Z"/><path class="cls-73" d="M293.81,226a63.92,63.92,0,0,0-6.34,3.78,32.55,32.55,0,0,1,4.25,6.27,34.36,34.36,0,0,0,7.1-5.74C297.63,227.59,296.05,225,293.81,226Z"/><path class="cls-47" d="M245.63,210.11c-9.7-2.87-32.5-7.46-33.9-7.7-1.76-.31-5-1.33-6.88,7-2.06,9.23-5.95,18.18,2.37,20.19,6.63,1.59,22.3,5.64,32.15,7.25,3.07.5,7.08-.06,8.44-6.76,1-4.71,1.9-7.69,2.46-12.32C250.64,214.73,251.8,211.94,245.63,210.11Z"/><path class="cls-21" d="M213.47,221.16a34.29,34.29,0,0,1-7.18-10.62c-2,8.16-4.4,15.53,3.06,17.32,6.63,1.59,22.3,5.64,32.15,7.26a4.58,4.58,0,0,0,.77,0C231.78,232.56,221.06,229.11,213.47,221.16Z"/><path class="cls-13" d="M240.45,235.9c-9.86-1.61-25.53-5.66-32.16-7.25-8.32-2-4.42-11-2.37-20.19a13.7,13.7,0,0,1,2.37-5.77c-1.26.76-2.52,2.59-3.44,6.72-2.06,9.23-5.95,18.18,2.37,20.19,6.63,1.59,22.3,5.64,32.15,7.25a6.52,6.52,0,0,0,6.24-1.83A7,7,0,0,1,240.45,235.9Z"/><path class="cls-48" d="M244.63,223.43c-2.06-.59-6.2-1.6-11-2.8-11.11-2.81-26.81-5.74-27.31-5.63-1,.23,9.14,2.1,21,5C234.26,221.71,251.85,225.49,244.63,223.43Z"/><path class="cls-49" d="M212.13,213.38c-1.47-.37-2.21-2.48-1.66-4.73s2.2-3.78,3.67-3.42,2.21,2.48,1.66,4.73S213.61,213.74,212.13,213.38Z"/><path class="cls-50" d="M212.65,210.43a17,17,0,0,1,1.16-5.25c-1.38-.08-2.82,1.39-3.34,3.47-.55,2.25.19,4.36,1.66,4.73l.24,0C212.45,212.44,212.62,211.47,212.65,210.43Z"/><path class="cls-74" d="M212.3,212.72c-1.24-.31-1.86-2.08-1.4-4s1.84-3.17,3.08-2.86,1.85,2.08,1.39,4S213.53,213,212.3,212.72Z"/><path class="cls-52" d="M214.76,210a2.74,2.74,0,0,0-.33-2.28,4.2,4.2,0,0,1-2.79,2.88,1.55,1.55,0,0,0,1,1.36C213.5,212.21,214.44,211.33,214.76,210Z"/><path class="cls-49" d="M219.86,215.21c-1.47-.36-2.21-2.48-1.66-4.73s2.19-3.78,3.66-3.42,2.22,2.48,1.66,4.73S221.33,215.57,219.86,215.21Z"/><path class="cls-50" d="M220.38,212.26a16.86,16.86,0,0,1,1.15-5.24c-1.38-.08-2.82,1.38-3.33,3.46-.55,2.25.19,4.37,1.66,4.73l.23,0C220.18,214.27,220.35,213.31,220.38,212.26Z"/><path class="cls-75" d="M220,214.55c-1.23-.3-1.86-2.08-1.39-4s1.84-3.17,3.07-2.87,1.86,2.08,1.39,4S221.25,214.85,220,214.55Z"/><path class="cls-52" d="M222.48,211.88a2.73,2.73,0,0,0-.33-2.29,4.17,4.17,0,0,1-2.78,2.88,1.57,1.57,0,0,0,1,1.37C221.23,214,222.17,213.17,222.48,211.88Z"/><path class="cls-49" d="M227.58,217c-1.47-.36-2.21-2.48-1.66-4.73s2.2-3.78,3.67-3.41,2.21,2.47,1.66,4.72S229.05,217.4,227.58,217Z"/><path class="cls-50" d="M228.1,214.1a17.27,17.27,0,0,1,1.15-5.25c-1.37-.08-2.81,1.38-3.33,3.46-.55,2.25.19,4.37,1.66,4.73l.24,0C227.9,216.1,228.07,215.14,228.1,214.1Z"/><path class="cls-76" d="M227.75,216.38c-1.24-.3-1.86-2.07-1.4-4s1.84-3.17,3.08-2.87,1.85,2.08,1.39,4S229,216.69,227.75,216.38Z"/><path class="cls-52" d="M230.21,213.71a2.73,2.73,0,0,0-.33-2.28,4.21,4.21,0,0,1-2.79,2.87,1.55,1.55,0,0,0,1,1.37C229,215.88,229.89,215,230.21,213.71Z"/><ellipse class="cls-49" cx="236.31" cy="214.8" rx="4.19" ry="2.74" transform="translate(-28.72 392.96) rotate(-76.18)"/><path class="cls-50" d="M235.83,215.93a17,17,0,0,1,1.15-5.25c-1.38-.08-2.82,1.39-3.33,3.47-.56,2.25.19,4.36,1.66,4.72a.93.93,0,0,0,.23,0C235.62,217.94,235.8,217,235.83,215.93Z"/><path class="cls-77" d="M235.47,218.22c-1.23-.31-1.86-2.08-1.39-4s1.84-3.17,3.07-2.86,1.86,2.07,1.39,4S236.7,218.52,235.47,218.22Z"/><path class="cls-52" d="M237.93,215.54a2.7,2.7,0,0,0-.33-2.28,4.17,4.17,0,0,1-2.78,2.88,1.53,1.53,0,0,0,1,1.36C236.67,217.71,237.61,216.83,237.93,215.54Z"/><path class="cls-49" d="M243,220.71c-1.47-.36-2.21-2.48-1.66-4.73s2.2-3.78,3.67-3.42,2.21,2.48,1.66,4.73S244.5,221.07,243,220.71Z"/><path class="cls-50" d="M243.55,217.76a17,17,0,0,1,1.15-5.25c-1.37-.07-2.82,1.39-3.33,3.47-.55,2.25.19,4.37,1.66,4.73l.24,0C243.35,219.77,243.52,218.8,243.55,217.76Z"/><path class="cls-78" d="M243.19,220.05c-1.23-.3-1.85-2.08-1.39-4s1.84-3.17,3.07-2.87,1.86,2.08,1.4,4S244.43,220.35,243.19,220.05Z"/><path class="cls-52" d="M245.66,217.38a2.72,2.72,0,0,0-.34-2.29,4.17,4.17,0,0,1-2.78,2.88,1.54,1.54,0,0,0,1,1.36C244.4,219.54,245.34,218.66,245.66,217.38Z"/><path class="cls-49" d="M209.37,225.79c-1.47-.37-2.21-2.48-1.66-4.73s2.19-3.78,3.67-3.42,2.21,2.48,1.66,4.73S210.84,226.15,209.37,225.79Z"/><path class="cls-50" d="M209.89,222.84a17,17,0,0,1,1.15-5.25c-1.38-.07-2.82,1.39-3.33,3.47-.55,2.25.19,4.36,1.66,4.73a1,1,0,0,0,.24,0C209.69,224.85,209.86,223.88,209.89,222.84Z"/><path class="cls-79" d="M209.53,225.13c-1.23-.3-1.85-2.08-1.39-4s1.84-3.17,3.07-2.86,1.86,2.08,1.4,4S210.77,225.43,209.53,225.13Z"/><path class="cls-52" d="M212,222.45a2.67,2.67,0,0,0-.33-2.28,4.17,4.17,0,0,1-2.78,2.88,1.54,1.54,0,0,0,1,1.36C210.74,224.62,211.68,223.74,212,222.45Z"/><path class="cls-49" d="M217.1,227.62c-1.47-.36-2.22-2.48-1.66-4.73s2.19-3.78,3.66-3.42,2.21,2.48,1.66,4.73S218.57,228,217.1,227.62Z"/><path class="cls-50" d="M217.61,224.68a16.87,16.87,0,0,1,1.16-5.25c-1.38-.08-2.82,1.38-3.33,3.46-.56,2.25.19,4.37,1.66,4.73l.23,0C217.41,226.68,217.58,225.72,217.61,224.68Z"/><path class="cls-80" d="M217.26,227c-1.24-.3-1.86-2.08-1.39-4s1.83-3.17,3.07-2.87,1.85,2.08,1.39,4S218.49,227.26,217.26,227Z"/><path class="cls-52" d="M219.72,224.29a2.76,2.76,0,0,0-.33-2.29,4.2,4.2,0,0,1-2.79,2.88,1.58,1.58,0,0,0,1,1.37C218.46,226.45,219.4,225.58,219.72,224.29Z"/><path class="cls-49" d="M224.82,229.45c-1.47-.36-2.21-2.48-1.66-4.73s2.19-3.78,3.66-3.41,2.22,2.47,1.66,4.72S226.29,229.81,224.82,229.45Z"/><path class="cls-50" d="M225.34,226.51a17,17,0,0,1,1.15-5.25c-1.38-.08-2.82,1.38-3.33,3.46-.55,2.25.19,4.37,1.66,4.73l.23,0C225.14,228.51,225.31,227.55,225.34,226.51Z"/><path class="cls-81" d="M225,228.79c-1.23-.3-1.85-2.07-1.39-4s1.84-3.17,3.07-2.87,1.86,2.08,1.39,4S226.21,229.1,225,228.79Z"/><path class="cls-52" d="M227.44,226.12a2.7,2.7,0,0,0-.33-2.28,4.18,4.18,0,0,1-2.78,2.87,1.56,1.56,0,0,0,1,1.37C226.19,228.29,227.13,227.41,227.44,226.12Z"/><path class="cls-49" d="M232.54,231.29c-1.47-.37-2.21-2.48-1.66-4.73s2.2-3.78,3.67-3.42,2.21,2.48,1.66,4.73S234,231.65,232.54,231.29Z"/><path class="cls-50" d="M233.06,228.34a17.27,17.27,0,0,1,1.15-5.25c-1.37-.08-2.81,1.39-3.33,3.47-.55,2.25.19,4.36,1.66,4.73l.24,0C232.86,230.35,233,229.38,233.06,228.34Z"/><path class="cls-82" d="M232.71,230.63c-1.24-.31-1.86-2.08-1.4-4s1.84-3.17,3.08-2.86,1.85,2.07,1.39,4S233.94,230.93,232.71,230.63Z"/><path class="cls-52" d="M235.17,228a2.74,2.74,0,0,0-.33-2.28,4.2,4.2,0,0,1-2.79,2.88,1.55,1.55,0,0,0,1,1.36C233.91,230.12,234.85,229.24,235.17,228Z"/><path class="cls-49" d="M240.27,233.12c-1.47-.36-2.21-2.48-1.66-4.73s2.19-3.78,3.66-3.42,2.22,2.48,1.66,4.73S241.74,233.48,240.27,233.12Z"/><path class="cls-50" d="M240.79,230.17a16.86,16.86,0,0,1,1.15-5.24c-1.38-.08-2.82,1.38-3.33,3.46-.55,2.25.19,4.37,1.66,4.73l.23,0C240.59,232.18,240.76,231.22,240.79,230.17Z"/><path class="cls-83" d="M240.43,232.46c-1.23-.3-1.86-2.08-1.39-4s1.84-3.17,3.07-2.87,1.86,2.08,1.39,4S241.66,232.76,240.43,232.46Z"/><path class="cls-52" d="M242.89,229.79a2.73,2.73,0,0,0-.33-2.29,4.17,4.17,0,0,1-2.78,2.88,1.54,1.54,0,0,0,1,1.36C241.63,232,242.57,231.07,242.89,229.79Z"/><path class="cls-13" d="M317.62,299.55l-7.36-7.72a1.72,1.72,0,0,1,.27-2.39l0,0a1.72,1.72,0,0,1,2.4-.17l7.37,7.72a1.72,1.72,0,0,1-.28,2.39l0,0A1.71,1.71,0,0,1,317.62,299.55Z"/><path class="cls-84" d="M363.51,331.24l-27.64-24.38a.66.66,0,0,0-.89,0h0a.68.68,0,0,1-.86.05l-16-12.27-2.69,2.57,11.49,16.57a.67.67,0,0,1-.08.86h0a.66.66,0,0,0-.06.89l23,28.77c2.08,2.4,6.17,2.16,8.92-.48l3.91-3.72C365.38,337.5,365.82,333.43,363.51,331.24Z"/><path class="cls-85" d="M363.51,331.24l-27.64-24.38a.66.66,0,0,0-.89,0h0a.67.67,0,0,1-.49.18L327,314.18a.7.7,0,0,1-.2.49h0a.66.66,0,0,0-.06.89l23,28.77c2.08,2.4,6.17,2.16,8.92-.48l3.91-3.72C365.38,337.5,365.82,333.43,363.51,331.24Z"/><path class="cls-6" d="M357.9,339.09a5.43,5.43,0,1,1,.18-7.67A5.43,5.43,0,0,1,357.9,339.09Z"/><path class="cls-13" d="M357,338.1a4.06,4.06,0,1,1,.14-5.74A4.06,4.06,0,0,1,357,338.1Z"/><path class="cls-6" d="M344.39,331.33,332.53,318.9a1.29,1.29,0,0,1,.15-1.81l4.45-4.25a1.29,1.29,0,0,1,1.82-.06l11.85,12.43a1.28,1.28,0,0,1-.14,1.81l-4.45,4.25A1.29,1.29,0,0,1,344.39,331.33Z"/><rect class="cls-47" x="338.05" y="313.12" width="7.23" height="17.87" rx="1.11" transform="translate(-127.85 324.83) rotate(-43.65)"/><path class="cls-13" d="M339.42,316.9l-.86-.9a.15.15,0,0,1,0-.19l.19-.37a.17.17,0,0,1,.27,0l1,1.09a.17.17,0,0,1-.05.27l-.38.18A.17.17,0,0,1,339.42,316.9Z"/><path class="cls-13" d="M341.93,319.53l-.86-.9a.17.17,0,0,1,0-.19l.2-.38a.17.17,0,0,1,.27,0l1,1.09a.17.17,0,0,1-.05.27l-.38.17A.15.15,0,0,1,341.93,319.53Z"/><path class="cls-13" d="M337.65,318.59l-.86-.9a.15.15,0,0,1,0-.19l.19-.37a.17.17,0,0,1,.27,0l1,1.09a.17.17,0,0,1,0,.27l-.38.18A.17.17,0,0,1,337.65,318.59Z"/><path class="cls-13" d="M339.55,317.28l-.9.86a.17.17,0,0,0,0,.19l.18.38a.16.16,0,0,0,.26.05l1.1-1.05a.16.16,0,0,0,0-.26l-.37-.2A.18.18,0,0,0,339.55,317.28Z"/><path class="cls-13" d="M340.92,318.71l-.91.86a.15.15,0,0,1-.19,0l-.37-.19a.16.16,0,0,1,0-.27l1.09-1a.17.17,0,0,1,.27.05l.17.38A.17.17,0,0,1,340.92,318.71Z"/><path class="cls-13" d="M341.77,319.71l-1.12,1.08a.22.22,0,0,0-.07.22l.16.4c0,.11.19.12.29,0l1.37-1.3c.1-.1.1-.25,0-.3l-.4-.17A.21.21,0,0,0,341.77,319.71Z"/><path class="cls-13" d="M339.85,321.54l-1.14,1.09a.22.22,0,0,0-.07.22l.16.4c0,.11.19.12.29,0l1.38-1.32c.11-.1.1-.25,0-.29l-.4-.17A.21.21,0,0,0,339.85,321.54Z"/><path class="cls-13" d="M337.77,319l-.9.87a.17.17,0,0,0,0,.19l.18.38a.17.17,0,0,0,.27,0l1.09-1a.17.17,0,0,0,0-.27L338,319A.15.15,0,0,0,337.77,319Z"/><path class="cls-13" d="M335.57,318.86l.86.9a.17.17,0,0,1,0,.19l-.2.37a.17.17,0,0,1-.27,0l-1-1.1A.16.16,0,0,1,335,319l.38-.18A.17.17,0,0,1,335.57,318.86Z"/><path class="cls-13" d="M344.45,322.17l-.86-.9a.17.17,0,0,1,0-.19l.2-.37a.17.17,0,0,1,.27,0l1,1.09a.17.17,0,0,1-.05.27l-.38.18A.17.17,0,0,1,344.45,322.17Z"/><path class="cls-13" d="M343.42,321.37l-1,.92a.19.19,0,0,1-.21,0l-.37-.19a.17.17,0,0,1,0-.28l1.18-1.12a.18.18,0,0,1,.28,0l.17.39A.2.2,0,0,1,343.42,321.37Z"/><path class="cls-13" d="M344.33,322.32l-1,.93a.17.17,0,0,0,0,.2l.17.39a.17.17,0,0,0,.27,0l1.18-1.13a.16.16,0,0,0,0-.27l-.38-.19A.17.17,0,0,0,344.33,322.32Z"/><path class="cls-13" d="M341.73,323l-1,.91a.17.17,0,0,1-.2,0l-.38-.19a.17.17,0,0,1,0-.28l1.18-1.11a.16.16,0,0,1,.27,0l.17.39A.19.19,0,0,1,341.73,323Z"/><path class="cls-13" d="M342.64,323.93l-1,.92a.19.19,0,0,0,0,.2l.17.39a.18.18,0,0,0,.28,0l1.17-1.12a.18.18,0,0,0,0-.28l-.38-.18A.17.17,0,0,0,342.64,323.93Z"/><path class="cls-13" d="M340.6,324.13l.86.9a.15.15,0,0,1,0,.19l-.19.37a.17.17,0,0,1-.27,0l-1-1.1a.16.16,0,0,1,0-.26l.38-.18A.16.16,0,0,1,340.6,324.13Z"/><rect class="cls-13" x="339.2" y="323.42" width="0.43" height="0.43" transform="translate(-129.57 323.47) rotate(-43.62)"/><path class="cls-13" d="M346.66,323.79l-.35-.37a0,0,0,0,1,0-.07l.08-.15a.07.07,0,0,1,.11,0l.42.44a.07.07,0,0,1,0,.11l-.16.07A0,0,0,0,1,346.66,323.79Z"/><path class="cls-13" d="M346.2,323.43l-.39.37s-.06,0-.08,0l-.16-.07a.07.07,0,0,1,0-.11l.48-.46s.09,0,.11,0l.07.15A.1.1,0,0,1,346.2,323.43Z"/><path class="cls-13" d="M346.65,323.9l-.39.37a.09.09,0,0,0,0,.08l.07.16a.07.07,0,0,0,.11,0l.48-.46a.07.07,0,0,0,0-.11l-.16-.08A.08.08,0,0,0,346.65,323.9Z"/><path class="cls-13" d="M345.81,323.9l.35.37a.08.08,0,0,1,0,.08l-.08.15a.07.07,0,0,1-.11,0l-.42-.44a.06.06,0,0,1,0-.11l.15-.07A.06.06,0,0,1,345.81,323.9Z"/><path class="cls-13" d="M348.27,325.82l-.63-.66a.12.12,0,0,1,0-.14l.14-.27a.13.13,0,0,1,.2,0l.76.79a.12.12,0,0,1,0,.19l-.28.13A.12.12,0,0,1,348.27,325.82Z"/><path class="cls-13" d="M347.45,325.16l-.71.68a.14.14,0,0,1-.14,0l-.28-.14a.13.13,0,0,1,0-.2l.86-.81a.12.12,0,0,1,.2,0l.12.28A.12.12,0,0,1,347.45,325.16Z"/><path class="cls-13" d="M346.74,326l.63.65a.14.14,0,0,1,0,.14l-.14.27a.13.13,0,0,1-.2,0l-.76-.8a.13.13,0,0,1,0-.19l.28-.13A.11.11,0,0,1,346.74,326Z"/><rect class="cls-86" x="277.09" y="414.42" width="16.84" height="11.02" transform="translate(-102.81 92.72) rotate(-15.67)"/><rect class="cls-87" x="277.81" y="415.27" width="9.33" height="11.02" transform="translate(-103.15 91.93) rotate(-15.67)"/><path class="cls-88" d="M286.41,429.75l-33.36,9.36a9.61,9.61,0,0,1-11.84-6.65l-.05-.19a9.6,9.6,0,0,1,6.65-11.83l33.36-9.36Z"/><path class="cls-13" d="M286.41,429.75l-33.36,9.36a9.61,9.61,0,0,1-11.84-6.65l-.05-.19a9.6,9.6,0,0,1,6.65-11.83l33.36-9.36Z"/><path class="cls-89" d="M285.93,428.07l-31.62,8.87c-4.84,1.36-9.72-.93-10.89-5.12l0-.15c-1.18-4.18,1.8-8.68,6.63-10l31.63-8.87Z"/><rect class="cls-13" x="287.36" y="414.65" width="2.78" height="2.78" transform="translate(-101.63 93.44) rotate(-15.67)"/><rect class="cls-13" x="288.91" y="420.19" width="2.78" height="2.78" transform="translate(-103.09 94.09) rotate(-15.67)"/><path class="cls-6" d="M252.56,429.29l0-.08a4.28,4.28,0,0,1,3-5.28l13.06-3.67a4.29,4.29,0,0,1,5.29,3l0,.08a4.28,4.28,0,0,1-3,5.28l-13.07,3.67A4.29,4.29,0,0,1,252.56,429.29Z"/><path class="cls-90" d="M262.18,422.05l-6.67,1.88a4.28,4.28,0,0,0-3,5.28l0,.08a4.29,4.29,0,0,0,5.28,3l6.68-1.88Z"/><rect class="cls-91" x="234.39" y="242.04" width="5.26" height="12.5" transform="translate(-101.05 307.71) rotate(-56.3)"/><rect class="cls-87" x="236.07" y="245.18" width="5.26" height="8.47" transform="translate(-101.24 309.61) rotate(-56.3)"/><path class="cls-13" d="M244.93,241.28c-1.76.81-6.55,7.21-7,7.76h0v0h0c-.35.59-4.42,7.47-4.5,9.4s14.94,17.17,31.1,20.74a24.85,24.85,0,0,0,7.54-7.37h0v0l0,0h0A25,25,0,0,0,276,262C266.52,248.47,246.77,240.42,244.93,241.28Z"/><path class="cls-92" d="M246.65,244.55c-1.46.67-5.43,6-5.76,6.44h0v0h0c-.28.49-3.66,6.19-3.72,7.8s12.38,14.24,25.79,17.2a20.52,20.52,0,0,0,6.25-6.12h0v0h0a20.43,20.43,0,0,0,3.24-8.12C264.56,250.51,248.18,243.84,246.65,244.55Z"/><rect class="cls-93" x="241.64" y="249.41" width="15.67" height="14.66" transform="translate(-102.54 321.83) rotate(-56.3)"/><rect class="cls-28" x="242.9" y="250.58" width="13.15" height="12.3" transform="translate(-102.54 321.83) rotate(-56.3)"/><path class="cls-16" d="M258.22,265.5a2.7,2.7,0,1,1-3.75.75A2.69,2.69,0,0,1,258.22,265.5Z"/><path class="cls-94" d="M263.92,257a2.7,2.7,0,1,1-3.75.75A2.71,2.71,0,0,1,263.92,257Z"/><path class="cls-95" d="M246.25,256.24l-1,1.48a.26.26,0,0,1-.26.1l-.58-.16a.24.24,0,0,1-.13-.36l1.19-1.79a.24.24,0,0,1,.39,0l.36.47A.23.23,0,0,1,246.25,256.24Z"/><path class="cls-95" d="M248.79,252.44l-1,1.48a.24.24,0,0,1-.26.09l-.58-.16a.24.24,0,0,1-.14-.36l1.2-1.79a.23.23,0,0,1,.38,0l.37.47A.24.24,0,0,1,248.79,252.44Z"/><path class="cls-95" d="M249.16,258.18l-1,1.48a.23.23,0,0,1-.26.09l-.58-.15a.25.25,0,0,1-.13-.37l1.2-1.79a.23.23,0,0,1,.38,0l.37.47A.26.26,0,0,1,249.16,258.18Z"/><path class="cls-95" d="M245.37,258l1.48,1a.26.26,0,0,1,.1.26l-.16.58a.24.24,0,0,1-.36.13l-1.8-1.2a.23.23,0,0,1,0-.38l.48-.37A.23.23,0,0,1,245.37,258Z"/><path class="cls-95" d="M248,254.1l1.48,1a.24.24,0,0,1,.1.26l-.16.58a.24.24,0,0,1-.36.13l-1.79-1.2a.23.23,0,0,1,0-.38l.48-.37A.24.24,0,0,1,248,254.1Z"/><path class="cls-95" d="M249,252.54l1.48,1a.24.24,0,0,0,.28,0l.47-.37a.23.23,0,0,0,0-.38l-1.79-1.2a.24.24,0,0,0-.36.14l-.16.58A.24.24,0,0,0,249,252.54Z"/><path class="cls-95" d="M250.89,256.06l1.48,1a.27.27,0,0,1,.1.26l-.16.58a.24.24,0,0,1-.36.13l-1.79-1.2a.23.23,0,0,1,0-.38l.48-.37A.24.24,0,0,1,250.89,256.06Z"/><path class="cls-95" d="M251.94,254.5l1.48,1a.23.23,0,0,0,.27,0l.48-.37a.23.23,0,0,0,0-.38l-1.79-1.19a.24.24,0,0,0-.36.13l-.16.58A.23.23,0,0,0,251.94,254.5Z"/><path class="cls-95" d="M249.5,258.15l1.48,1a.24.24,0,0,0,.28,0l.47-.37a.23.23,0,0,0,0-.38l-1.8-1.19a.24.24,0,0,0-.36.13l-.16.58A.26.26,0,0,0,249.5,258.15Z"/><path class="cls-95" d="M250.18,261l1-1.47a.22.22,0,0,1,.26-.1l.57.16a.24.24,0,0,1,.14.36l-1.2,1.79a.23.23,0,0,1-.38,0l-.37-.47A.24.24,0,0,1,250.18,261Z"/><path class="cls-95" d="M252.72,257.19l1-1.48a.24.24,0,0,1,.26-.09l.58.15a.24.24,0,0,1,.13.36l-1.19,1.8a.24.24,0,0,1-.39,0l-.36-.47A.23.23,0,0,1,252.72,257.19Z"/><path class="cls-95" d="M250.75,253.9l-.83,1.24a.2.2,0,0,0,0,.21l.16.32a.17.17,0,0,0,.14.1l.36,0a.19.19,0,0,0,.18-.09l.83-1.25a.22.22,0,0,0,0-.21l-.16-.32a.17.17,0,0,0-.14-.09l-.36,0A.22.22,0,0,0,250.75,253.9Z"/><rect class="cls-95" x="252.3" y="258.37" width="0.61" height="0.61" transform="translate(-102.79 325.18) rotate(-56.28)"/></g></g></svg>