<svg xmlns="http://www.w3.org/2000/svg" xmlns:xlink="http://www.w3.org/1999/xlink" viewBox="0 0 357.49 420.24"><defs><style>.cls-1{isolation:isolate;}.cls-2{fill:url(#linear-gradient);}.cls-3{fill:#09003f;}.cls-4{fill:#ee6392;}.cls-5{fill:url(#linear-gradient-2);}.cls-6{fill:url(#linear-gradient-3);}.cls-7{fill:#0f0024;}.cls-8{fill:#100142;}.cls-9{fill:#ac7f8d;}.cls-66,.cls-68,.cls-73,.cls-9{opacity:0.75;}.cls-27,.cls-30,.cls-37,.cls-38,.cls-40,.cls-48,.cls-49,.cls-50,.cls-54,.cls-56,.cls-60,.cls-64,.cls-66,.cls-68,.cls-71,.cls-73,.cls-80,.cls-9,.cls-93,.cls-94,.cls-96,.cls-97{mix-blend-mode:multiply;}.cls-10{fill:#4e15c4;}.cls-11{fill:url(#linear-gradient-4);}.cls-12{fill:url(#linear-gradient-5);}.cls-13{fill:url(#linear-gradient-6);}.cls-14{fill:url(#linear-gradient-7);}.cls-15{fill:url(#linear-gradient-8);}.cls-16{fill:url(#linear-gradient-9);}.cls-17{fill:url(#linear-gradient-10);}.cls-18{fill:url(#linear-gradient-11);}.cls-19{fill:url(#linear-gradient-12);}.cls-20{fill:url(#linear-gradient-13);}.cls-21{fill:url(#linear-gradient-14);}.cls-22{fill:#f1b2df;}.cls-23{fill:#1b0b30;}.cls-24{fill:#4e2478;}.cls-25{fill:url(#linear-gradient-15);}.cls-26{fill:url(#linear-gradient-16);}.cls-27,.cls-28{fill:#d9e1f3;}.cls-29{fill:url(#linear-gradient-17);}.cls-30,.cls-81{fill:#cdd8ef;}.cls-31{fill:url(#linear-gradient-18);}.cls-32{fill:url(#linear-gradient-19);}.cls-33{fill:url(#linear-gradient-20);}.cls-34{fill:url(#linear-gradient-21);}.cls-35{fill:url(#linear-gradient-22);}.cls-36{fill:url(#linear-gradient-23);}.cls-37{fill:#bbe3ff;}.cls-38{fill:#ebe7e7;}.cls-39{fill:#e7f4ff;}.cls-40{fill:#e5eeff;}.cls-41{fill:#fff;}.cls-42{fill:#b8d0ff;}.cls-43{fill:aqua;}.cls-44{fill:#ddf1ff;}.cls-45{fill:#de79be;}.cls-46{fill:url(#linear-gradient-24);}.cls-47{fill:url(#linear-gradient-25);}.cls-48,.cls-49,.cls-54,.cls-56,.cls-60,.cls-71{opacity:0.55;}.cls-48{fill:url(#linear-gradient-26);}.cls-49{fill:url(#linear-gradient-27);}.cls-50{fill:#83a8de;}.cls-51{fill:url(#linear-gradient-28);}.cls-52{fill:url(#linear-gradient-29);}.cls-53{fill:url(#linear-gradient-30);}.cls-54{fill:url(#linear-gradient-31);}.cls-55{fill:url(#linear-gradient-32);}.cls-56{fill:url(#linear-gradient-33);}.cls-57{fill:url(#linear-gradient-34);}.cls-58{fill:url(#linear-gradient-35);}.cls-59{fill:url(#linear-gradient-36);}.cls-60{fill:url(#linear-gradient-37);}.cls-61{fill:url(#linear-gradient-38);}.cls-62{fill:#1c0a34;}.cls-63{fill:url(#linear-gradient-39);}.cls-64{opacity:0.65;fill:url(#linear-gradient-40);}.cls-65{fill:url(#linear-gradient-41);}.cls-66{fill:url(#linear-gradient-42);}.cls-67{fill:url(#linear-gradient-43);}.cls-68{fill:url(#linear-gradient-44);}.cls-69{fill:url(#linear-gradient-45);}.cls-70{fill:url(#linear-gradient-46);}.cls-71{fill:url(#linear-gradient-47);}.cls-72{fill:url(#linear-gradient-48);}.cls-73{fill:url(#linear-gradient-49);}.cls-74{fill:url(#linear-gradient-50);}.cls-75{fill:url(#linear-gradient-51);}.cls-76{fill:url(#linear-gradient-52);}.cls-77{fill:url(#linear-gradient-53);}.cls-78{fill:url(#linear-gradient-54);}.cls-79{fill:#0f001a;}.cls-82{fill:url(#linear-gradient-55);}.cls-83{fill:#e5e5e5;}.cls-84{fill:url(#linear-gradient-56);}.cls-85{fill:url(#linear-gradient-57);}.cls-86{fill:url(#linear-gradient-58);}.cls-87{fill:url(#linear-gradient-59);}.cls-88{fill:url(#linear-gradient-60);}.cls-89{fill:url(#linear-gradient-61);}.cls-90{fill:url(#linear-gradient-62);}.cls-91{fill:url(#linear-gradient-63);}.cls-92{fill:url(#linear-gradient-64);}.cls-93{fill:url(#linear-gradient-65);}.cls-94{fill:url(#linear-gradient-66);}.cls-95{fill:url(#linear-gradient-67);}.cls-96{fill:url(#linear-gradient-68);}.cls-97{fill:url(#linear-gradient-69);}.cls-98{fill:url(#linear-gradient-70);}.cls-99{fill:url(#linear-gradient-71);}</style><linearGradient id="linear-gradient" x1="-456.39" y1="239.81" x2="-63.87" y2="239.81" gradientTransform="matrix(-0.91, 0, 0, 1, 23.23, 0)" gradientUnits="userSpaceOnUse"><stop offset="0" stop-color="aqua"/><stop offset="1" stop-color="#42aaff"/></linearGradient><linearGradient id="linear-gradient-2" x1="-136.82" y1="395.24" x2="-222.6" y2="443.98" gradientTransform="matrix(-0.91, 0, 0, 1, -58.17, -29.69)" gradientUnits="userSpaceOnUse"><stop offset="0" stop-color="#fc5653"/><stop offset="1" stop-color="#fc0053"/></linearGradient><linearGradient id="linear-gradient-3" x1="-196.95" y1="419.96" x2="-163.69" y2="419.96" gradientTransform="matrix(-0.91, 0, 0, 1, -58.17, -29.69)" gradientUnits="userSpaceOnUse"><stop offset="0" stop-color="#f6f8ff"/><stop offset="0.42" stop-color="#f3f7ff"/><stop offset="0.68" stop-color="#ebf4ff"/><stop offset="0.89" stop-color="#dcefff"/><stop offset="1" stop-color="#d2ecff"/></linearGradient><linearGradient id="linear-gradient-4" x1="-287.87" y1="72.25" x2="-290.43" y2="102.96" gradientTransform="matrix(-0.91, 0, 0, 1, 23.23, 0)" xlink:href="#linear-gradient-3"/><linearGradient id="linear-gradient-5" x1="-291.31" y1="72.02" x2="-293.86" y2="102.65" gradientTransform="matrix(-0.91, 0, 0, 1, 23.23, 0)" xlink:href="#linear-gradient-3"/><linearGradient id="linear-gradient-6" x1="-305.72" y1="70.83" x2="-308.27" y2="101.49" gradientTransform="matrix(-0.91, 0, 0, 1, 23.23, 0)" xlink:href="#linear-gradient-3"/><linearGradient id="linear-gradient-7" x1="-302.39" y1="71.06" x2="-304.95" y2="101.77" gradientTransform="matrix(-0.91, 0, 0, 1, 23.23, 0)" xlink:href="#linear-gradient-3"/><linearGradient id="linear-gradient-8" x1="-295.93" y1="71.56" x2="-298.49" y2="102.31" gradientTransform="matrix(-0.91, 0, 0, 1, 23.23, 0)" xlink:href="#linear-gradient-3"/><linearGradient id="linear-gradient-9" x1="-298.18" y1="71.41" x2="-300.74" y2="102.11" gradientTransform="matrix(-0.91, 0, 0, 1, 23.23, 0)" xlink:href="#linear-gradient-3"/><linearGradient id="linear-gradient-10" x1="-292.43" y1="71.92" x2="-294.99" y2="102.56" gradientTransform="matrix(-0.91, 0, 0, 1, 23.23, 0)" xlink:href="#linear-gradient-3"/><linearGradient id="linear-gradient-11" x1="-295.29" y1="71.71" x2="-297.84" y2="102.32" gradientTransform="matrix(-0.91, 0, 0, 1, 23.23, 0)" xlink:href="#linear-gradient-3"/><linearGradient id="linear-gradient-12" x1="-298.74" y1="71.36" x2="-301.3" y2="102.08" gradientTransform="matrix(-0.91, 0, 0, 1, 23.23, 0)" xlink:href="#linear-gradient-3"/><linearGradient id="linear-gradient-13" x1="-291.06" y1="72.01" x2="-293.61" y2="102.69" gradientTransform="matrix(-0.91, 0, 0, 1, 23.23, 0)" xlink:href="#linear-gradient-3"/><linearGradient id="linear-gradient-14" x1="-293.83" y1="71.84" x2="-296.38" y2="102.43" gradientTransform="matrix(-0.91, 0, 0, 1, 23.23, 0)" xlink:href="#linear-gradient-3"/><linearGradient id="linear-gradient-15" x1="-363.27" y1="65.36" x2="-365.6" y2="65.54" gradientTransform="matrix(-0.91, 0, 0, 1, 23.23, 0)" xlink:href="#linear-gradient-2"/><linearGradient id="linear-gradient-16" x1="-336.9" y1="86.98" x2="-337.11" y2="114.01" gradientTransform="matrix(-0.91, 0, 0, 1, 23.23, 0)" gradientUnits="userSpaceOnUse"><stop offset="0" stop-color="#f6f8ff"/><stop offset="1" stop-color="#d2ecff"/></linearGradient><linearGradient id="linear-gradient-17" x1="-374.66" y1="81.8" x2="-375.12" y2="141.3" xlink:href="#linear-gradient-16"/><linearGradient id="linear-gradient-18" x1="-378.06" y1="78.2" x2="-376.21" y2="92.45" gradientTransform="matrix(-0.91, 0, 0, 1, -58.17, -29.69)" gradientUnits="userSpaceOnUse"><stop offset="0" stop-color="#f6f9ff"/><stop offset="1" stop-color="#f6f8ff"/></linearGradient><linearGradient id="linear-gradient-19" x1="472.13" y1="79.41" x2="473.17" y2="87.45" gradientTransform="translate(-153.81 -29.69) scale(0.91 1)" xlink:href="#linear-gradient-18"/><linearGradient id="linear-gradient-20" x1="-376.9" y1="85.78" x2="-381.4" y2="102.45" gradientTransform="matrix(-0.91, 0, 0, 1, 23.23, 0)" xlink:href="#linear-gradient-3"/><linearGradient id="linear-gradient-21" x1="-363.33" y1="82.2" x2="-372.02" y2="101.61" gradientTransform="matrix(-0.91, 0, 0, 1, 23.23, 0)" xlink:href="#linear-gradient-3"/><linearGradient id="linear-gradient-22" x1="-370.59" y1="104.04" x2="-375.7" y2="120.54" xlink:href="#linear-gradient-16"/><linearGradient id="linear-gradient-23" x1="-311.76" y1="199.06" x2="-195.35" y2="126.52" gradientTransform="matrix(-0.91, 0, 0, 1, 23.23, 0)" gradientUnits="userSpaceOnUse"><stop offset="0" stop-color="#d1ffff"/><stop offset="1" stop-color="#d5e4f7"/></linearGradient><linearGradient id="linear-gradient-24" x1="820.67" y1="275.75" x2="817.15" y2="276.03" gradientTransform="matrix(0.89, -0.2, 0.19, 0.98, -513.98, 22.38)" xlink:href="#linear-gradient-2"/><linearGradient id="linear-gradient-25" x1="-254.32" y1="145.27" x2="-253.53" y2="209.49" xlink:href="#linear-gradient"/><linearGradient id="linear-gradient-26" x1="806.46" y1="174.98" x2="789.32" y2="210.25" gradientTransform="translate(-458.59) scale(0.91 1)" gradientUnits="userSpaceOnUse"><stop offset="0" stop-color="#b0c9f8"/><stop offset="1" stop-color="#71bbf2"/></linearGradient><linearGradient id="linear-gradient-27" x1="775.4" y1="160.25" x2="753.51" y2="209.8" xlink:href="#linear-gradient-26"/><linearGradient id="linear-gradient-28" x1="785.4" y1="141.68" x2="777.53" y2="147.26" gradientTransform="translate(-458.59) scale(0.91 1)" gradientUnits="userSpaceOnUse"><stop offset="0" stop-color="#f0eef7"/><stop offset="0.43" stop-color="#e6eff1"/><stop offset="1" stop-color="#d4e4eb"/></linearGradient><linearGradient id="linear-gradient-29" x1="792.03" y1="139.74" x2="794.4" y2="149.25" xlink:href="#linear-gradient-28"/><linearGradient id="linear-gradient-30" x1="-283.66" y1="144.01" x2="-298.51" y2="179.55" gradientTransform="matrix(-0.91, 0, 0, 1, 23.23, 0)" gradientUnits="userSpaceOnUse"><stop offset="0" stop-color="aqua"/><stop offset="0.18" stop-color="#06f8ff"/><stop offset="0.46" stop-color="#15e4ff"/><stop offset="0.78" stop-color="#2ec4ff"/><stop offset="1" stop-color="#42aaff"/></linearGradient><linearGradient id="linear-gradient-31" x1="817.29" y1="154.38" x2="804.12" y2="184.52" xlink:href="#linear-gradient-26"/><linearGradient id="linear-gradient-32" x1="-254.4" y1="154.31" x2="-256.52" y2="193.16" xlink:href="#linear-gradient"/><linearGradient id="linear-gradient-33" x1="779.6" y1="163.91" x2="765.98" y2="192.36" xlink:href="#linear-gradient-26"/><linearGradient id="linear-gradient-34" x1="-323.02" y1="158.35" x2="-441.91" y2="256.01" gradientTransform="matrix(-0.91, 0, 0, 1, 23.23, 0)" xlink:href="#linear-gradient-2"/><linearGradient id="linear-gradient-35" x1="1261.89" y1="-342.38" x2="1259.81" y2="-342.21" gradientTransform="matrix(0.74, 0.58, -0.53, 0.82, -738.54, -274.3)" xlink:href="#linear-gradient-2"/><linearGradient id="linear-gradient-36" x1="1040.27" y1="977.53" x2="1039.85" y2="1044.53" gradientTransform="matrix(0.46, -0.86, 0.79, 0.5, -882.95, 605.85)" xlink:href="#linear-gradient-16"/><linearGradient id="linear-gradient-37" x1="1040.27" y1="977.5" x2="1039.85" y2="1044.55" gradientTransform="matrix(0.46, -0.86, 0.79, 0.5, -882.95, 605.85)" xlink:href="#linear-gradient-26"/><linearGradient id="linear-gradient-38" x1="1216.8" y1="217.54" x2="1216.8" y2="227.77" gradientTransform="translate(-791.08 -29.69) scale(0.91 1)" gradientUnits="userSpaceOnUse"><stop offset="0" stop-color="#d443d0"/><stop offset="0.91" stop-color="#7d28de"/></linearGradient><linearGradient id="linear-gradient-39" x1="1118.11" y1="647.47" x2="1118.11" y2="666.11" gradientTransform="matrix(0.77, -0.53, 0.48, 0.85, -867.44, 182.06)" gradientUnits="userSpaceOnUse"><stop offset="0" stop-color="#50eeef"/><stop offset="1" stop-color="#68a2f4"/></linearGradient><linearGradient id="linear-gradient-40" x1="1117.94" y1="646.9" x2="1117.94" y2="660.37" gradientTransform="matrix(0.77, -0.53, 0.48, 0.85, -867.44, 182.06)" gradientUnits="userSpaceOnUse"><stop offset="0.56" stop-color="#867ab0"/><stop offset="1" stop-color="#d4d0eb"/></linearGradient><linearGradient id="linear-gradient-41" x1="-306.81" y1="667.48" x2="-314.74" y2="676.3" gradientTransform="matrix(-0.77, 0.53, 0.48, 0.85, -163.66, -214.42)" xlink:href="#linear-gradient-39"/><linearGradient id="linear-gradient-42" x1="-308.71" y1="667.36" x2="-313.42" y2="678.06" gradientTransform="matrix(-0.77, 0.53, 0.48, 0.85, -163.66, -214.42)" gradientUnits="userSpaceOnUse"><stop offset="0" stop-color="#7d4cca"/><stop offset="0.53" stop-color="#1b2aab"/><stop offset="1" stop-color="#17256e"/></linearGradient><linearGradient id="linear-gradient-43" x1="1220.01" y1="191.67" x2="1203.79" y2="228.5" gradientTransform="translate(-709.68) scale(0.91 1)" xlink:href="#linear-gradient-38"/><linearGradient id="linear-gradient-44" x1="-387.43" y1="178.71" x2="-410.66" y2="231.49" gradientTransform="matrix(-0.91, 0, 0, 1, 23.23, 0)" gradientUnits="userSpaceOnUse"><stop offset="0" stop-color="#9c01db"/><stop offset="1" stop-color="#8b00c7"/></linearGradient><linearGradient id="linear-gradient-45" x1="1433.94" y1="183.83" x2="1400.59" y2="269.56" gradientTransform="translate(-947.18) scale(0.91 1)" xlink:href="#linear-gradient-16"/><linearGradient id="linear-gradient-46" x1="1446.47" y1="190.39" x2="1439.64" y2="236.98" gradientTransform="translate(-947.18) scale(0.91 1)" xlink:href="#linear-gradient-16"/><linearGradient id="linear-gradient-47" x1="1441.08" y1="177.13" x2="1423.1" y2="299.74" gradientTransform="translate(-947.18) scale(0.91 1)" xlink:href="#linear-gradient-26"/><linearGradient id="linear-gradient-48" x1="1539.77" y1="322.21" x2="1463.42" y2="248.39" gradientTransform="translate(-1028.58 -29.69) scale(0.91 1)" xlink:href="#linear-gradient-42"/><linearGradient id="linear-gradient-49" x1="1532.73" y1="315.4" x2="1461.84" y2="246.86" gradientTransform="translate(-1028.58 -29.69) scale(0.91 1)" xlink:href="#linear-gradient-42"/><linearGradient id="linear-gradient-50" x1="-153.01" y1="145.34" x2="-157.47" y2="145.69" gradientTransform="matrix(-0.89, -0.2, -0.19, 0.98, 78.62, 22.38)" xlink:href="#linear-gradient-2"/><linearGradient id="linear-gradient-51" x1="-169.71" y1="217.95" x2="-170.28" y2="292.28" xlink:href="#linear-gradient-16"/><linearGradient id="linear-gradient-52" x1="-200.97" y1="216.87" x2="-201.69" y2="309.29" xlink:href="#linear-gradient-16"/><linearGradient id="linear-gradient-53" x1="-188.68" y1="213.53" x2="-190.52" y2="233.6" gradientTransform="matrix(-0.91, 0, 0, 1, -58.17, -29.69)" xlink:href="#linear-gradient-16"/><linearGradient id="linear-gradient-54" x1="-204.85" y1="216.79" x2="-209.36" y2="235.33" gradientTransform="matrix(-0.91, 0, 0, 1, -58.17, -29.69)" xlink:href="#linear-gradient-16"/><linearGradient id="linear-gradient-55" x1="-223.68" y1="222.43" x2="-224.25" y2="294.78" xlink:href="#linear-gradient-16"/><linearGradient id="linear-gradient-56" x1="-301.58" y1="287.62" x2="-290.86" y2="370.14" gradientTransform="matrix(-0.91, 0, 0, 1, 23.23, 0)" xlink:href="#linear-gradient-18"/><linearGradient id="linear-gradient-57" x1="-315.9" y1="279.94" x2="-312.01" y2="309.91" xlink:href="#linear-gradient-18"/><linearGradient id="linear-gradient-58" x1="394.1" y1="279.94" x2="397.99" y2="309.91" gradientTransform="translate(-153.81 -29.69) scale(0.91 1)" xlink:href="#linear-gradient-18"/><linearGradient id="linear-gradient-59" x1="-333.66" y1="287.38" x2="-334.91" y2="448.4" gradientTransform="matrix(-0.91, 0, 0, 1, 23.23, 0)" gradientUnits="userSpaceOnUse"><stop offset="0" stop-color="#f6f8ff"/><stop offset="0.55" stop-color="#f4f7ff"/><stop offset="0.75" stop-color="#edf5ff"/><stop offset="0.89" stop-color="#e2f1ff"/><stop offset="1" stop-color="#d2ecff"/></linearGradient><linearGradient id="linear-gradient-60" x1="359.47" y1="287.42" x2="358.22" y2="448.44" gradientTransform="translate(-52.3) scale(0.91 1)" xlink:href="#linear-gradient-59"/><linearGradient id="linear-gradient-61" x1="-321.93" y1="299.58" x2="-315.55" y2="407.83" gradientTransform="matrix(-0.91, 0, 0, 1, -58.17, -29.69)" gradientUnits="userSpaceOnUse"><stop offset="0" stop-color="#f6f8ff"/><stop offset="0.32" stop-color="#f1f6ff"/><stop offset="0.69" stop-color="#e4f2ff"/><stop offset="1" stop-color="#d2ecff"/></linearGradient><linearGradient id="linear-gradient-62" x1="-271.84" y1="278.82" x2="-310.55" y2="396.91" xlink:href="#linear-gradient-3"/><linearGradient id="linear-gradient-63" x1="-242.08" y1="294.24" x2="-243.08" y2="422.28" xlink:href="#linear-gradient-59"/><linearGradient id="linear-gradient-64" x1="-270" y1="415.84" x2="-270.26" y2="449.69" gradientTransform="matrix(-0.91, 0, 0, 1, -58.17, -29.69)" xlink:href="#linear-gradient-16"/><linearGradient id="linear-gradient-65" x1="-269.36" y1="416" x2="-269.65" y2="452.96" xlink:href="#linear-gradient-16"/><linearGradient id="linear-gradient-66" x1="-269.69" y1="375.91" x2="-270.96" y2="539.36" gradientTransform="matrix(-0.91, 0, 0, 1, -58.17, -29.69)" xlink:href="#linear-gradient-16"/><linearGradient id="linear-gradient-67" x1="420.96" y1="415.84" x2="420.7" y2="449.69" gradientTransform="translate(-137.1 -29.69) scale(0.91 1)" xlink:href="#linear-gradient-16"/><linearGradient id="linear-gradient-68" x1="421.6" y1="416" x2="421.31" y2="452.96" gradientTransform="translate(-55.7) scale(0.91 1)" xlink:href="#linear-gradient-16"/><linearGradient id="linear-gradient-69" x1="421.27" y1="375.91" x2="420" y2="539.36" gradientTransform="translate(-137.1 -29.69) scale(0.91 1)" xlink:href="#linear-gradient-16"/><linearGradient id="linear-gradient-70" x1="-378.94" y1="293.47" x2="-379.82" y2="407.2" xlink:href="#linear-gradient-59"/><linearGradient id="linear-gradient-71" x1="-296.44" y1="257.78" x2="-306.55" y2="258.58" gradientTransform="matrix(-0.91, 0, 0, 1, 23.23, 0)" xlink:href="#linear-gradient-2"/></defs><title>health-02</title><g class="cls-1"><g id="Layer_1" data-name="Layer 1"><path class="cls-2" d="M428.89,172.65c-9.94,10.41-19.21,25.6-13.54,39.14,5.51,13.16,23.44,19.54,23.54,33.93.09,14-16.58,20.34-24,31.94a27.38,27.38,0,0,0-1.68,25.58c3.14,6.77,9,11.95,11.34,19.09,3.17,9.86-1.34,20.6-6.77,29.29s-12,17.11-13.7,27.38c-3.11,19.36,12.4,39.29,5.9,57.67-1.91,5.4-5.35,9.58-9.45,13.26H81.4a20.35,20.35,0,0,1,1.42-2.14c6-7.9,17.27-12.93,17.57-23.09.23-7.61-6.18-13.56-8.07-20.9-2.75-10.7,4.81-21.57,13.74-27.34s22.22-5.19,28.34-14.18c9.67-14.18-7.61-17.24-11.7-28.86-6.38-18.18,12-36.63,19.8-41.56s10.39-4.33,10.7-13.91c.36-11-11.26-19.45-10.77-30.46.44-9.79,10.07-15.94,18.83-19.05S180,222.78,185,214.51c6.4-10.69,1.08-25.69,6.69-36.87,8.87-17.7,36.39-12.61,48.7-27.82,8.12-10,6.6-24.84,6.65-38s4.53-29.24,16.72-31.95c4.08-.91,8.29-.06,12.45.22,9.31.61,19.89-2.67,24-11.53,2.3-4.94,2.2-10.7,3.45-16,3.52-15,19.24-25.4,33.47-22.2,10.47,2.35,19.22,10.82,29.86,12.05,9,1,18-3.34,27-2.41,12.86,1.32,23.42,15,22.12,28.61-1.33,14-13.17,27-9,40.38,5.38,17.5,27.89,12.59,31,30.7C440.45,153.33,435.87,165.33,428.89,172.65Z" transform="translate(-81.4 -29.69)"/><polygon class="cls-3" points="154.27 420.24 144.44 420.24 144.44 360.3 154.27 353.56 154.27 420.24"/><polygon class="cls-4" points="80.71 353.56 67.68 360.29 144.43 360.29 154.27 353.56 80.71 353.56"/><rect class="cls-5" x="67.68" y="360.3" width="76.75" height="59.94"/><polygon class="cls-6" points="90.92 394.73 90.92 385.81 101.86 385.81 101.86 374.2 110.26 374.2 110.26 385.81 121.2 385.81 121.2 394.73 110.26 394.73 110.26 406.34 101.86 406.34 101.86 394.73 90.92 394.73"/><polygon class="cls-7" points="94.25 349.37 122.73 349.37 125.34 347.15 98.59 347.15 94.25 349.37"/><polygon class="cls-8" points="122.73 357.79 125.34 355.57 125.34 346.26 122.73 348.48 122.73 357.79"/><rect class="cls-8" x="121" y="348.48" width="1.72" height="9.31"/><polygon class="cls-8" points="95.98 357.79 98.59 355.57 98.59 346.26 95.98 348.48 95.98 357.79"/><rect class="cls-8" x="94.25" y="348.48" width="1.72" height="9.31"/><polygon class="cls-8" points="94.25 348.48 122.73 348.48 125.34 346.26 98.59 346.26 94.25 348.48"/><path class="cls-9" d="M164.79,438.33c9-1.79,18.18-3.43,26.74-6.95a54.38,54.38,0,0,0,20.85-14.54c3.1-3.42,6.61-6.49,9.5-10.12.41-.5.79-1,1.17-1.55v42.59H151.86v-7.31Q158.35,439.61,164.79,438.33Z" transform="translate(-81.4 -29.69)"/><path class="cls-10" d="M333.58,141.81h70.81c6.34,0,11.48-5.45,11.48-12.18V88.69c0-6.73-5.14-12.18-11.48-12.18H333.58c-6.34,0-11.47,5.45-11.47,12.18v40.94C322.11,136.36,327.24,141.81,333.58,141.81Z" transform="translate(-81.4 -29.69)"/><polygon class="cls-8" points="219.36 37.79 229.14 69.12 204.64 77.89 194.1 47.06 219.36 37.79"/><path class="cls-11" d="M285.07,87.18a1.76,1.76,0,0,0,1.73.28c1.14-.32.51.41,2.36,1.11,1.35.52,1.36,1.16.27,1.8a3.67,3.67,0,0,1-2.1.25c-1.81-.3-1.9.7-3.47.12S284.33,86.33,285.07,87.18Z" transform="translate(-81.4 -29.69)"/><path class="cls-12" d="M291.28,71S290,82,290.82,83.29a1.84,1.84,0,0,1,.06,2.38c-.31.39-.42-.67-2-.57-.85.05-1.15.43-1.62.4-.68,0-.79-1,.2-2.84.7-1.34-.06-9.9-.23-10.2Z" transform="translate(-81.4 -29.69)"/><path class="cls-13" d="M302.75,94.58a8.44,8.44,0,0,1,2,.75c.26.28-2.8,1.15-2.3.26C302.65,95.16,302.28,94.44,302.75,94.58Z" transform="translate(-81.4 -29.69)"/><path class="cls-14" d="M299.58,93.45s.41.83,2.12,1c1.34.14.27.36.37.87s.22.68-.81.48a3.76,3.76,0,0,0-2.29,0c-.43.21-.55-.08-.28-.54a2.24,2.24,0,0,0,.35-.67C299.13,94.2,299.18,92.93,299.58,93.45Z" transform="translate(-81.4 -29.69)"/><path class="cls-15" d="M293.43,92.32a18.31,18.31,0,0,0,2.88,1.11c.94.18.95.47.68.95s-.57.33-1.18-.12a6,6,0,0,0-3.4-.59c-.66,0-.88-.41-.59-.87a2.73,2.73,0,0,1,.61-.8C292.9,91.55,293,92.14,293.43,92.32Z" transform="translate(-81.4 -29.69)"/><path class="cls-16" d="M294.16,92.18s3.48,1,3.39,1.8.5,1.4.94,1c.16-.13,0-.59.2-1,1-1.58-.26-1.14-.78-1.2a5.17,5.17,0,0,1-2.06-1.07,3.41,3.41,0,0,1-.72-.75c-.13-.21-.42-.72-.81-.14C293.77,91.66,293.39,91.92,294.16,92.18Z" transform="translate(-81.4 -29.69)"/><path class="cls-17" d="M290.8,90.14c.6.18,2.08,1.16,1.23,1.93s-1.67,1.29-2.11-.26C289.45,90.1,290.29,90,290.8,90.14Z" transform="translate(-81.4 -29.69)"/><path class="cls-18" d="M294.94,89.17c.25.06.2.48-.2.84-.9.8-1.28,2.16-1.88,1.16-.2-.34-.73-.54-.82-.67s.26-.29,1-1.06c.5-.56.5-.94.91-.91S294.45,89,294.94,89.17Z" transform="translate(-81.4 -29.69)"/><path class="cls-19" d="M295.71,90.26A6.93,6.93,0,0,0,298,92.18c.69.31.71.49.32.47a3.2,3.2,0,0,1-1.14-.24,5.56,5.56,0,0,1-1.07-1,4.61,4.61,0,0,0-.95-.8C294.7,90.38,295.64,89.65,295.71,90.26Z" transform="translate(-81.4 -29.69)"/><path class="cls-20" d="M287.84,85.88a2.24,2.24,0,0,1,2.07-.19c.77.28.79,1.18,1.06,1.24a8.22,8.22,0,0,1,1.12.38c.57.3.45.72-.26,1.11s-.9.64-1.55.29-.51-.89-1.4-1-2.46-.72-2.41-1.18S287.2,86.51,287.84,85.88Z" transform="translate(-81.4 -29.69)"/><path class="cls-21" d="M293.5,88.19c.32.16-.27.6-.72,1.07s-.62.93-1,.95-.35-.38-1-.46,1.29-1,1.58-1.37.11-.51.31-.58S292.92,87.92,293.5,88.19Z" transform="translate(-81.4 -29.69)"/><path class="cls-22" d="M308.05,93.72a3.71,3.71,0,0,0,.93.12l-2-6.37c1.27.7,3.2,1.79,3.66,2.15.7.54,2.91,8.94,2.91,8.94l-1,4a6.7,6.7,0,0,1-3.82-2.5c-.7-1-1-3.17-1.39-3.81-.51-.79-4.94-.82-5.32-2.91C301.75,91.73,307.56,93.59,308.05,93.72Z" transform="translate(-81.4 -29.69)"/><path class="cls-22" d="M372.35,58.18s-3,16.15,0,20.38c0,0,.76,19.15-13.77,17.64S354,81.79,354,81.79s7.79-2.82,5.79-15.62C359.81,66.17,369.32,61.4,372.35,58.18Z" transform="translate(-81.4 -29.69)"/><path class="cls-23" d="M366.59,62.41a39.16,39.16,0,0,0-.07,4.2c.12,4.12-2.1,5.55-5.43,7.22l-1.48.77a20.69,20.69,0,0,0,.2-8.43S363.21,64.47,366.59,62.41Z" transform="translate(-81.4 -29.69)"/><path class="cls-10" d="M360.36,92.62c1.83-4,3.71-8,5.26-12.15a44.54,44.54,0,0,0,2.71-14.39,33.62,33.62,0,0,1,.52-5.11,22,22,0,0,0,3.5-2.79s-3,16.15,0,20.38c0,0,.76,19.15-13.77,17.64h-.07A32.68,32.68,0,0,0,360.36,92.62Z" transform="translate(-81.4 -29.69)"/><path class="cls-22" d="M369.88,44.31s-11.3.1-12.91,1.91-3.71,8.16-3.8,8.87.73,2.75.41,3.76-1.33,4.23-.89,4.43a6.14,6.14,0,0,1,1.4,1c.44.4.5,6.58,2.91,6.65s8.48.07,11.52-9.2c0,0,4.68-2.35,2.78-5.91s-4.37.74-5,4.5c0,0-1.2.8-1.83.06s.31-1.74-.32-3.76S369.88,44.31,369.88,44.31Z" transform="translate(-81.4 -29.69)"/><path class="cls-8" d="M357.69,49.18c-1.59-.62-2.71,1.08-3.34,2.28-.63-1-3.11-5.68,2-9A11,11,0,0,1,370,43.67S363.07,51.26,357.69,49.18Z" transform="translate(-81.4 -29.69)"/><path class="cls-24" d="M362.17,44c-2,2.12-4.51-.28-7.88,1.26-.22.11-.45.16-.66.25a7,7,0,0,1,2.73-3A11,11,0,0,1,365,40.92C362.93,41.54,363.28,42.8,362.17,44Z" transform="translate(-81.4 -29.69)"/><path class="cls-8" d="M367.19,43.54s8.42-1.55,10.89,6-4.05,16.12-7,19.95c0,0-2.31-4.35-1.52-8.39,0,0,3.07-3.36.48-5.31s-3.8,5.51-3.8,5.51a3,3,0,0,1-1.9-1.07c-.7-1,0-4.57-.7-6.12S360.35,45.28,367.19,43.54Z" transform="translate(-81.4 -29.69)"/><path class="cls-8" d="M356.08,58.33a.85.85,0,0,0,.45,1.07.76.76,0,0,0,1.07-.31.85.85,0,0,0-.45-1.07A.77.77,0,0,0,356.08,58.33Z" transform="translate(-81.4 -29.69)"/><path class="cls-25" d="M356,65.11a.2.2,0,0,1,.28.1.23.23,0,0,1-.1.3,2.44,2.44,0,0,1-1.78.31c0-.2-.06-.38-.09-.56A1.9,1.9,0,0,0,356,65.11Z" transform="translate(-81.4 -29.69)"/><path class="cls-8" d="M358.78,56.54a.2.2,0,0,0,.2-.1.22.22,0,0,0-.06-.31,4,4,0,0,0-2.92-.59.21.21,0,0,0-.16.26.2.2,0,0,0,.25.18,3.62,3.62,0,0,1,2.59.52A.18.18,0,0,0,358.78,56.54Z" transform="translate(-81.4 -29.69)"/><path class="cls-26" d="M347.76,85.52s-16.59,18-18.23,18-16-6.32-16-6.32l-3,5.75S328,116.31,332.09,114s16.3-10.65,16.3-10.65S351.81,88.2,347.76,85.52Z" transform="translate(-81.4 -29.69)"/><path class="cls-27" d="M315.69,102.24c4.93,2.05,9.3,9.56,15.07,4.46,2.18-1.93,5.1-1,7.73-2.34a16.1,16.1,0,0,0,5.87-5.5c2-2.94,3.29-6.52,5.17-9.59.82,5.39-1.14,14.11-1.14,14.11s-12.19,8.36-16.3,10.65S310.54,103,310.54,103l1-2A33.8,33.8,0,0,1,315.69,102.24Z" transform="translate(-81.4 -29.69)"/><path class="cls-28" d="M356,80.58a3.88,3.88,0,0,0,2.34.73,4,4,0,0,0,2-.5l.32.47s6.65-.4,11.37-3.41l2.75,1.67S362.82,94.25,359,95.73s-3.41-14.82-3.41-14.82Z" transform="translate(-81.4 -29.69)"/><polygon class="cls-8" points="277.69 55.97 276.11 54.22 278 51.27 279.34 51.27 280.84 51.94 281.4 55.44 279.26 56.34 279.03 72.74 274.52 75.34 271.44 70.97 277.69 55.97"/><path class="cls-29" d="M374.19,78.84s8.25,6.55,11.1,7.49c0,0-5.93,35.32-3.63,55.47H344.08s2.63-35.33,2.73-39.46,0-16,.47-16.82,5.7-3.07,8.25-5.15c0,0,2.23,13.41,3.37,14.28S373.92,81.29,374.19,78.84Z" transform="translate(-81.4 -29.69)"/><path class="cls-30" d="M344.08,141.8s2.63-35.33,2.73-39.46c.05-2.52,0-7.93.13-12a60.16,60.16,0,0,0,4.8,7.91c2.1,3.12,3.22,5.49,1.3,9-1.55,2.88-3.24,6.25-3.1,9.7.15,3.84,2.08,6.22,3.05,9.73,1.12,4-2.21,6.14-2.1,10a22.11,22.11,0,0,0,.76,5Z" transform="translate(-81.4 -29.69)"/><path class="cls-30" d="M369,141.8c.72-2.59,1.67-4.39.93-7.12a29.57,29.57,0,0,0-2.76-5.79c-2-3.48,1.29-7.29,2.85-10.37,1.73-3.4,1.34-7.37.38-11-1-3.87,2.91-7.85,5.24-11.2,2.68-3.86,6.32-6.76,9.55-10.08l.12,0s-5.93,35.32-3.63,55.47Z" transform="translate(-81.4 -29.69)"/><path class="cls-27" d="M357.67,95.59a7.75,7.75,0,0,0,1.11.44c-.27,8-2.13,44.11-2.46,45.77h-1.1c.33-4.86,2.11-33.21,2.42-46.23Z" transform="translate(-81.4 -29.69)"/><polygon class="cls-31" points="279.13 51.08 290.67 46.56 292.8 49.14 281.18 57.74 279.13 51.08"/><polygon class="cls-32" points="279.21 51.19 276.77 48.18 273.51 51.27 275.28 55.45 279.21 51.19"/><path class="cls-27" d="M351.89,86.85l1.76-1.33-.41-3.58a20.63,20.63,0,0,0,2.29-1.57s.46,2.72,1.06,5.8a30.65,30.65,0,0,0,2.78,7.93c3.3-2.06,13.8-12.29,14.75-15l.18-.2c.4.3,1.89,1.38,3.7,2.65l-4.83,2.89,2.23,2S361.29,97.92,359,99.87l-.2,2.19Z" transform="translate(-81.4 -29.69)"/><path class="cls-33" d="M373.59,78.11,377.38,81,372,84.21l2.22,2s-15.95,13-16.37,13.35l.81-6.57S370.9,81.33,373.59,78.11Z" transform="translate(-81.4 -29.69)"/><path class="cls-34" d="M356.63,79.87s.9,11,2,13.13l-.57,6.36-5.48-12.51,1.77-1.33-.57-4.84Z" transform="translate(-81.4 -29.69)"/><path class="cls-22" d="M338.13,111.44s-5.06-1-6.2-1.12-5.32-2.5-7.22-3.24-9.68-.68-9.55,1.21,5.68.35,6.86.45,3,.65,2.85.91-5.17.75-6.17,1.51a17.63,17.63,0,0,0-2.92,3.57.84.84,0,0,0,.82,1.35c1.24-.39,1.39-2.17,4-3.11a22.06,22.06,0,0,1,3.35-.45,8.05,8.05,0,0,0-4.49,1.56c-1.67,1.48-3.3,3.28-1.76,3.58,1.16.21,2.59-1.9,3.16-2.3a12,12,0,0,1,3.17-1.07,11.14,11.14,0,0,0-3.18,1.43c-1,.81-2.26,2.3-1.49,2.78,1.25.77,2.6-1.65,3.36-2a19.36,19.36,0,0,1,2.13-.74,7.85,7.85,0,0,0-2.94,1.83c-.76,1-.73,2,.36,1.87.54-.09.86-.69,1.44-1.26A7.17,7.17,0,0,1,326.2,117c1.05-.47,3,.5,3.94.37s7.39,0,7.39,0Z" transform="translate(-81.4 -29.69)"/><path class="cls-35" d="M335.89,109.39l-1.05,9.3s23.05,3.8,28,1.58,24.37-19.49,23.89-29.78c-.38-8.13-8-5.38-10.73-1.65S364.36,106,360.42,107.58,335.89,109.39,335.89,109.39Z" transform="translate(-81.4 -29.69)"/><path class="cls-27" d="M337.83,115.79c.83,0,2.21-.37,3,.13,2.33,1.52,5,3.37,7.88,2.58,2.71-.73,5.13-3.75,8.12-2.82,5.81,1.81,11.3-1,13.4-7.22,1.29-3.82,3.35-4.57,6.31-6.74a11.9,11.9,0,0,0,4.25-5c1.06-2.44,1.26-5.47,3.61-7.07a12.06,12.06,0,0,1,2-1.13,9.15,9.15,0,0,1,.28,2c.48,10.29-19,27.57-23.89,29.78s-28-1.58-28-1.58l.35-3.13A10.68,10.68,0,0,0,337.83,115.79Z" transform="translate(-81.4 -29.69)"/><path class="cls-36" d="M217.39,203.82H299.8c7.37,0,13.35-6.35,13.35-14.17V142c0-7.83-6-14.17-13.35-14.17H217.39C210,127.83,204,134.17,204,142v47.65C204,197.47,210,203.82,217.39,203.82Z" transform="translate(-81.4 -29.69)"/><path class="cls-8" d="M237.19,134.27s-1.87,2.29-.56,6.86,9.18,9.25,21.92,9.25,16.49-8.45,15.09-14c0,0-2.23,2.51-3.35,0s.49-10.07,1-13.57-.77-12.76-3-14.92-6.64-2.7-15-5.81c-10.43-3.91-10.4,10.36-10.19,17.37s-.4,15.88-2.78,16.65C238.38,136.71,237.33,135.72,237.19,134.27Z" transform="translate(-81.4 -29.69)"/><path class="cls-22" d="M295.44,139.66a28.4,28.4,0,0,1-5.27-1.37c.42-2,.72-4.07.72-4.07s5.67-1,5.18.41A32.26,32.26,0,0,0,295.44,139.66Z" transform="translate(-81.4 -29.69)"/><path class="cls-22" d="M289.91,129.47c0-.16,1.71-.34,1.54-5.07a14.65,14.65,0,0,1,4,.25c1.29.42,2.84,4.58.73,8.14-1.06,1.78-1,3.54-1.5,4s-.87.5-1.71-.23c-.18-.16-.72,0-.89-.08a25.73,25.73,0,0,0-2.56-3,1.76,1.76,0,0,1-.37-1.92C289.49,130.6,289.91,129.56,289.91,129.47Z" transform="translate(-81.4 -29.69)"/><path class="cls-10" d="M289.93,129.45c.11,0,.7-.3,1.09-1.59h0c.05-.17.1-.36.14-.57a.59.59,0,0,0,0-.13c0-.22.08-.45.11-.72v0c0-.25,0-.52,0-.81a1.77,1.77,0,0,0,0-.23c0-.32,0-.65,0-1h0l.14-.05.16-.06.21-.07a5,5,0,0,1,4.1,1.48.47.47,0,0,0,.06.09,4.08,4.08,0,0,1,0,4h0l-.16.15c-.59.54-2.39,2.22-3.39,2.33s-.86-.47-1.94-.66C289.84,131.44,289.83,130.32,289.93,129.45Z" transform="translate(-81.4 -29.69)"/><path class="cls-22" d="M286.83,124.76c2.54-.67,2.64,2.94,2.74,3.37a27.83,27.83,0,0,0,1.87,3.11c1.92,3.37.6,5.19.6,5.19-.92-.35-3.68-3.75-3.83-4.14a22.87,22.87,0,0,1-.72-2.63c0-.09-.49-2.47-.86-3.73C286.53,125.58,286.38,124.89,286.83,124.76Z" transform="translate(-81.4 -29.69)"/><path class="cls-22" d="M289.38,119a36.44,36.44,0,0,1,5,2.5,16.8,16.8,0,0,1,1.85,2.43s-6.14-2.69-7.3-3.16a1,1,0,0,1-.68-.91A.83.83,0,0,1,289.38,119Z" transform="translate(-81.4 -29.69)"/><path class="cls-37" d="M288.11,124.91l1.67-4.36,1.35.76-2.49,4A3.87,3.87,0,0,0,288.11,124.91Z" transform="translate(-81.4 -29.69)"/><polygon class="cls-38" points="209.73 91.61 208.15 94.14 207.31 93.67 208.38 90.85 209.73 91.61"/><polygon class="cls-39" points="213.98 83.35 209.1 93.13 207.56 92.26 212.44 82.48 213.98 83.35"/><polygon class="cls-40" points="213.8 83.25 208.92 93.03 208.18 92.5 213.25 82.94 213.8 83.25"/><path class="cls-41" d="M288.51,121.27a.21.21,0,0,1,.28,0l2.36,1.32c.11.07.16.18.12.26l-.11.23a.19.19,0,0,1-.27,0l-2.36-1.33c-.11-.06-.17-.18-.13-.26Z" transform="translate(-81.4 -29.69)"/><polygon class="cls-42" points="217.16 75.06 214.31 81.02 214.06 80.88 217.1 75.03 217.16 75.06"/><polygon class="cls-39" points="207.77 95.55 207.56 95.98 206.21 95.22 206.42 94.79 207.77 95.55"/><polygon class="cls-43" points="214.56 80.9 213.62 83.14 212.8 82.68 214.01 80.59 214.56 80.9"/><path class="cls-44" d="M288.53,121.76c-.11-.06-.17-.18-.13-.26l.11-.23a.21.21,0,0,1,.28,0l.41.23.34-.69.06,0,.34.21a8.16,8.16,0,0,0,.89.44l.28.12-.37.75.41.22c.11.07.16.18.12.26l-.11.23a.19.19,0,0,1-.27,0l-.65-.37-.7,1.11-.37.6a7.43,7.43,0,0,0-.82-.16l.82-2.15Z" transform="translate(-81.4 -29.69)"/><path class="cls-22" d="M288.53,119.52c1.53.61,5.2,2.19,5.32,2.21s2.88,1.3,3,1.72.61,2,.61,2c-.49.2-3-2.05-4.34-2.24a8.33,8.33,0,0,1-2.92-1.26,2.94,2.94,0,0,1-2.14-1C287.35,119.83,288.27,119.42,288.53,119.52Z" transform="translate(-81.4 -29.69)"/><path class="cls-22" d="M289.11,123.62l.88-.38a5.89,5.89,0,0,1,2.75-.39c1.63.16,4,.35,4.15.6a16.05,16.05,0,0,1,1.41,2.45c0,.18-.26,2.37-.26,2.37-.77-.45-3.34-3.39-3.43-3.38a14.06,14.06,0,0,1-2.71-.2,3.26,3.26,0,0,1-2.62.13.87.87,0,0,1-.44-.55A.64.64,0,0,1,289.11,123.62Z" transform="translate(-81.4 -29.69)"/><path class="cls-22" d="M292.65,124.93a7.37,7.37,0,0,1,2.84.21c.81.26,1.54.46,1.54.46.17.5.83-.4,1.21.17a11.36,11.36,0,0,1,.14,2.74,33.81,33.81,0,0,1-2.93,7.24c-1,1.59-1.63,1.29-1.63,1.29a17.17,17.17,0,0,0,.95-2.63c.1-.27-1.73-2.11-.57-3.15a4.34,4.34,0,0,0,1.38-4,2.83,2.83,0,0,1-.66-.21,4.84,4.84,0,0,0-2.35-.52,1.8,1.8,0,0,1-1.16-.26C291.14,126.1,290,125.35,292.65,124.93Z" transform="translate(-81.4 -29.69)"/><path class="cls-24" d="M247.44,121.33c-1.4,3.68-1.9,6.57-.67,10.26.74,2.23,1.92,3.38-.17,5.15-1,.83-2.62,1.78-4,1.34a6.52,6.52,0,0,1-2.8-1.89,3.84,3.84,0,0,0,.54-.13c2.38-.77,3-9.64,2.78-16.65-.2-6.85-.23-20.62,9.5-17.6C245.85,108.6,250.94,112.17,247.44,121.33Z" transform="translate(-81.4 -29.69)"/><path class="cls-22" d="M255,122s.91,16.85-4.36,20.21c0,0-2.39,11.78,7.45,11.48s9.42-10.66,9.42-10.66-4.92-.45-2.53-16.48C265,126.57,257.57,121.27,255,122Z" transform="translate(-81.4 -29.69)"/><path class="cls-10" d="M256.1,147.63a14.54,14.54,0,0,1,.41-10.25c2.21-5.08.28-9.95.29-15.24A3.44,3.44,0,0,0,255,122s.91,16.85-4.36,20.21c0,0-2.39,11.78,7.45,11.48a12.29,12.29,0,0,0,2.31-.31A12.69,12.69,0,0,1,256.1,147.63Z" transform="translate(-81.4 -29.69)"/><path class="cls-23" d="M256.55,122.08c.3,1.52,1.1,2.85,1.38,4.39a17.74,17.74,0,0,0,1.87,5.85,12.67,12.67,0,0,0,4.71,4.81,42,42,0,0,1,.51-10.56S259.72,122.81,256.55,122.08Z" transform="translate(-81.4 -29.69)"/><path class="cls-22" d="M271.41,108.6s-3.58-2.61-13.42,0c0,0,1.83,10.51-1.48,11.11L254.65,118a2,2,0,0,0-2.91,2.09,4.54,4.54,0,0,0,3.3,3.58s5.1,9.68,11.62,7.54,5.71-12.28,5.48-15.11S271.41,108.6,271.41,108.6Z" transform="translate(-81.4 -29.69)"/><path class="cls-8" d="M270.79,117.74a.82.82,0,0,1-.66.93.79.79,0,0,1-1-.57.82.82,0,0,1,.67-.92A.77.77,0,0,1,270.79,117.74Z" transform="translate(-81.4 -29.69)"/><path class="cls-8" d="M264.39,118.34a.9.9,0,0,1-.73,1,.85.85,0,0,1-1-.62.89.89,0,0,1,.73-1A.84.84,0,0,1,264.39,118.34Z" transform="translate(-81.4 -29.69)"/><path class="cls-45" d="M268.1,124H268a.21.21,0,0,1-.27-.16.23.23,0,0,1,.17-.27c.47-.11.75-.27.81-.44s-.31-.72-.61-1l-.3-.35a8.39,8.39,0,0,1-.89-2.38.23.23,0,0,1,.17-.27.22.22,0,0,1,.27.16,9.21,9.21,0,0,0,.82,2.21,2.56,2.56,0,0,0,.28.32c.39.43.87,1,.69,1.47C269.06,123.63,268.71,123.86,268.1,124Z" transform="translate(-81.4 -29.69)"/><path class="cls-46" d="M267.53,126.78a2.55,2.55,0,0,1-2-.81.25.25,0,0,1,0-.34.24.24,0,0,1,.33,0c1.49,1.34,2.41.39,2.44.35a.23.23,0,0,1,.33,0,.26.26,0,0,1,0,.35A1.87,1.87,0,0,1,267.53,126.78Z" transform="translate(-81.4 -29.69)"/><path class="cls-8" d="M261.86,116.66a.25.25,0,0,1-.15-.45,4.29,4.29,0,0,1,3.17-.55.26.26,0,0,1,.17.3.23.23,0,0,1-.28.18,3.84,3.84,0,0,0-2.81.48Z" transform="translate(-81.4 -29.69)"/><path class="cls-8" d="M271.34,116.11a.24.24,0,0,1-.16,0A2.21,2.21,0,0,0,269,116a.23.23,0,0,1-.31-.11.25.25,0,0,1,.1-.33,2.65,2.65,0,0,1,2.67.14.24.24,0,0,1,.05.34A.2.2,0,0,1,271.34,116.11Z" transform="translate(-81.4 -29.69)"/><path class="cls-8" d="M253.89,101.71s5.73-4.66,15.48-1.17c8.58,3.06,8.48,14.76.47,13.26S256,109.43,253.89,101.71Z" transform="translate(-81.4 -29.69)"/><path class="cls-47" d="M276.54,203.82s-5.19-18.2-3.79-27,1.78-32.47,1.78-32.47-3.25-1.52-5.85-3a16.32,16.32,0,0,0-3.14-1.47c-1.34,2-5.6,8-6.55,8.14-1.14.15-5.89-9.8-5.89-9.8s-15.11,6.12-18.58,6.52c0,0,3.93,18.84,3.93,31.67s-5.9,21.18-6.6,27.44Z" transform="translate(-81.4 -29.69)"/><path class="cls-48" d="M267.43,203.82h9.11s-5.19-18.2-3.79-27c1.07-6.68,1.54-21.91,1.7-28.87-.64,2.78-2.22,5.34-3,8.78-.78,3.59-.12,7.17-1.18,10.72-.81,2.7-3.13,4.5-4.3,7-3.23,6.87,4.16,12.73,2.45,20C267.66,197.86,267.77,200.92,267.43,203.82Z" transform="translate(-81.4 -29.69)"/><path class="cls-49" d="M250.08,179.14c-1-2.53-.6-5,.18-7.56a14.63,14.63,0,0,0-2.33-13.3c-3.82-4.91-8.85-9.22-13.34-13.25.5,2.51,3.86,19.49,3.86,31.35,0,12.82-5.9,21.18-6.6,27.44h17.38a15.91,15.91,0,0,1,1-6.54c1.07-3.44-1.34-5-1.34-8.13C248.9,185.47,251.68,183.08,250.08,179.14Z" transform="translate(-81.4 -29.69)"/><path class="cls-8" d="M257.66,154.31c0,.54-.2,1-.43,1s-.4-.44-.39-1,.2-1,.43-1S257.67,153.77,257.66,154.31Z" transform="translate(-81.4 -29.69)"/><path class="cls-8" d="M257.31,163.75c0,.54-.2,1-.43,1s-.4-.44-.39-1,.2-1,.43-1S257.32,163.21,257.31,163.75Z" transform="translate(-81.4 -29.69)"/><path class="cls-8" d="M257,173.19c0,.54-.2,1-.43,1s-.4-.44-.39-1,.2-1,.42-1S257,172.65,257,173.19Z" transform="translate(-81.4 -29.69)"/><path class="cls-8" d="M256.6,182.63c0,.54-.2,1-.42,1s-.4-.44-.39-1,.2-1,.42-1S256.61,182.09,256.6,182.63Z" transform="translate(-81.4 -29.69)"/><path class="cls-8" d="M256.25,192.07c0,.53-.2,1-.42,1s-.41-.44-.4-1,.2-1,.43-1S256.26,191.53,256.25,192.07Z" transform="translate(-81.4 -29.69)"/><path class="cls-8" d="M255.9,201.51c0,.53-.2,1-.43,1s-.4-.44-.39-1,.2-1,.43-1S255.91,201,255.9,201.51Z" transform="translate(-81.4 -29.69)"/><path class="cls-50" d="M259.67,148c-.1,0-.27-.22-.68,0,.16,4.26-.71,48.09-.94,55.83h1C259.29,200,259.86,147.93,259.67,148Z" transform="translate(-81.4 -29.69)"/><path class="cls-51" d="M259.28,148.05l-6.18-9.86s-4.33,1.07-4.47,1.44.66,8.79,3,11.7C251.63,151.33,256.88,149.28,259.28,148.05Z" transform="translate(-81.4 -29.69)"/><path class="cls-52" d="M264.84,139.16s-4.84,8.1-5.66,8.83c0,0,5.41,3.21,6.33,3.85,0,0,3-10,3-10.59C268.55,141.25,265.67,139.58,264.84,139.16Z" transform="translate(-81.4 -29.69)"/><path class="cls-53" d="M289.41,137.55c0-.29,7.52,0,7.52,0s4.45,39.08-4.6,39.38S278,171.56,271.67,164.8c0,0,1-15.61,2.86-20.44a61.78,61.78,0,0,1,13.05,19.14A216,216,0,0,1,289.41,137.55Z" transform="translate(-81.4 -29.69)"/><path class="cls-54" d="M294.42,137.47c-2.18-.06-5-.1-5,.08-1.38,11-1.75,21.86-1.83,25.83.54,2.43-.18,3.64-1.65,4-2.88.77-4.9-2.24-5.67-4.23-1.13-2.86-2.35-6.31-4.64-8.38-.89-.81-1.83-1.54-2.74-2.3-.79,5.88-1.21,12.3-1.21,12.3,5.63,6,10.4,11.09,17.68,12,2.95-1.68,2.26-4.21,2.38-7.06a38.58,38.58,0,0,1,.26-4c.74-5.09,3.12-8.23,1.17-13.66C291.53,147.47,292.27,142,294.42,137.47Z" transform="translate(-81.4 -29.69)"/><path class="cls-22" d="M274.47,156.76a7.19,7.19,0,0,0,2.3-1.74c1-1.2,2.34-6.91,3.28-7.66s8.1-1,8.53.6-3,1.19-4.55,1.29c0,0,5.15-.25,5.2,1s-3.7,1-5.34,1c0,0,4.83.15,4.55,1.59s-4.64.55-4.64.55,4.67-.05,4.17,1.64-4.59-.15-5,.24-2.58,4.18-3.79,4a12.67,12.67,0,0,0-3.61.55Z" transform="translate(-81.4 -29.69)"/><path class="cls-55" d="M275.23,154.29l4.59,6.82S257.8,183.7,249,185s-25.58-33-15.6-39.66c10.16-6.81,13.81,26.81,15.31,26.51S275.23,154.29,275.23,154.29Z" transform="translate(-81.4 -29.69)"/><path class="cls-56" d="M277.13,162.06a8.81,8.81,0,0,1-3.89,0c-4.17-.63-3.22.63-5.25,2.72-3.19,3.28-6.11,3.54-10.06,5.11-3.46,1.38-5.25,4.58-8.35,6.4-4.46,2.61-7.6-6.15-8.38-9.15-1.4-5.34-.8-8.58-1.61-12.71a19.54,19.54,0,0,0-5-9.71,5.42,5.42,0,0,0-1.17.6c-10,6.68,6.79,40.92,15.6,39.66s30.82-23.86,30.82-23.86l-.34-.51A5.66,5.66,0,0,1,277.13,162.06Z" transform="translate(-81.4 -29.69)"/><path class="cls-57" d="M318.63,251.45H419.51c9,0,16.35-7.76,16.35-17.34V175.77c0-9.58-7.32-17.35-16.35-17.35H318.63c-9,0-16.35,7.77-16.35,17.35v58.34C302.28,243.69,309.6,251.45,318.63,251.45Z" transform="translate(-81.4 -29.69)"/><path class="cls-22" d="M363.32,154.59c-2.13,3.14-15.66,21.17-20,24.21l16,4.23s5.55-10.79,9.51-16Z" transform="translate(-81.4 -29.69)"/><path class="cls-10" d="M364.07,156.3l.16-.23-.91-1.48,0,0c-.34.5-3,4.32-6.12,8.14h0c-2.27,2.74-12.89,15.24-15,16.74l10.61,2.64c-.68-3.15,3.66-13.27,5-16.23l0,0a4.25,4.25,0,0,1,5.47-2.2,10.3,10.3,0,0,1,4.87,4.2c.21-.3.43-.6.64-.88Z" transform="translate(-81.4 -29.69)"/><path class="cls-22" d="M385,148.05c2.72,2.42,3.23,5.65,2.89,9.4a9.31,9.31,0,0,1-1,3.45c-1.79,3.41-1.9,8.83-2.21,10.36s-1.54.28-2.44-.58-.86-.27-1.28.16-9.9,7.36-12.78.7a60.54,60.54,0,0,1-4.66-15.92c-.8-4.88-.48-10,4.45-10.6a31,31,0,0,1,13.42,1A8.82,8.82,0,0,1,385,148.05Z" transform="translate(-81.4 -29.69)"/><path class="cls-8" d="M382.8,162.81a1.09,1.09,0,0,1-1.5.5,1.21,1.21,0,0,1-.68-1.5,1.09,1.09,0,0,1,1.5-.49A1.19,1.19,0,0,1,382.8,162.81Z" transform="translate(-81.4 -29.69)"/><path class="cls-8" d="M381.32,158.87a.31.31,0,0,1-.15-.3.31.31,0,0,1,.31-.3,5.76,5.76,0,0,1,3.79,2,.34.34,0,0,1,0,.46.29.29,0,0,1-.42,0,5.19,5.19,0,0,0-3.37-1.75A.28.28,0,0,1,381.32,158.87Z" transform="translate(-81.4 -29.69)"/><path class="cls-8" d="M374.54,144.79s-2.5-6.15-5.66-7.26-6.89.27-8.55,4.78.19,6-.79,9.34a16.05,16.05,0,0,0,.12,7.8c.12-.12,2.64-2.49,3.85-3.83,0,0-1.35-5.36,2.1-6.24s1.93,3.83,1.93,3.83a33.12,33.12,0,0,0-4.11,6.19c-2,3.78-3.71,11.73,3.59,19.54s14.19-8,14.79-8.6c0,0-.13-1-1.76-1.42s-6.45,1.43-7.62.71-4.29-3.37-1.28-7.29S378.2,152.63,374.54,144.79Z" transform="translate(-81.4 -29.69)"/><path class="cls-8" d="M371.74,140.51s.48-5,4.59-4.41,4.08,4.73,7.57,6.17,7.7-.16,13,5.89-.85,11.38-2,12.23-6,2.71-8.11-.81-2.31-4.57-3.93-6.28-6.57-5-8.17-6.87S371.74,140.51,371.74,140.51Z" transform="translate(-81.4 -29.69)"/><path class="cls-24" d="M378.51,143.65c2,1.45,4.43,1.14,6.75,1.52a5.57,5.57,0,0,1,4.28,4.14c1,4.3,1.37,8.5,6.76,8.44l1.13,0c1.62-2.31,2.76-5.79-.54-9.56-5.29-6-9.51-4.45-13-5.89s-3.47-5.6-7.57-6.17h-.06C375,138.64,376.25,142,378.51,143.65Z" transform="translate(-81.4 -29.69)"/><path class="cls-58" d="M380,173.44a4,4,0,0,1-.66-1.51.31.31,0,0,0-.37-.23.33.33,0,0,0-.22.39,4.47,4.47,0,0,0,.91,1.91Z" transform="translate(-81.4 -29.69)"/><path class="cls-22" d="M392.22,191.61l4.85,3s9.9-9.22,9.37-10.71-4.81-10-10.15-5.08C394.86,180.14,394,185.43,392.22,191.61Z" transform="translate(-81.4 -29.69)"/><path class="cls-59" d="M339.44,183.9c1.64,0,2.94,0,3.63,0,4.05,0,28.67,33,30.47,30.94s18.07-24.69,18.07-24.69l7,3.9S382.75,224,380.82,226.42c-.69.85-7.91,2.6-18.73-1.2-13.1-4.59-24.32-21.15-26.1-36.08A7.23,7.23,0,0,0,339.44,183.9Z" transform="translate(-81.4 -29.69)"/><path class="cls-60" d="M336.89,193a7.21,7.21,0,0,0,3.32-4.57,8.87,8.87,0,0,1,.38-1.68l.17-.41c.36-.8.71-1.6,1-2.42h1.28c4.05,0,28.67,33,30.47,30.94s18.07-24.69,18.07-24.69l7,3.91S382.75,224,380.82,226.41c-.69.86-7.91,2.6-18.73-1.19-11.95-4.19-22.33-18.34-25.41-32.12A1.39,1.39,0,0,0,336.89,193Z" transform="translate(-81.4 -29.69)"/><polygon class="cls-61" points="309.84 191.55 320.42 184.07 324.43 184.07 316.2 197.57 311.21 197.15 309.84 191.55"/><polygon class="cls-62" points="330.61 173.93 332.48 172.69 330.14 168.73 328.27 169.97 330.61 173.93"/><polygon class="cls-62" points="326.75 176.49 328.62 175.25 326.29 171.28 324.42 172.52 326.75 176.49"/><polygon class="cls-63" points="318.81 153.47 316.2 155.2 307.11 140.04 309.73 138.31 318.81 153.47"/><polygon class="cls-64" points="310.35 139.37 312.01 142.19 308.7 142.74 307.74 141.1 310.35 139.37"/><path class="cls-65" d="M411.72,197.29l-7.22,4.79L396,187.54a3.69,3.69,0,0,1,1.08-4.93l1.49-1a3.26,3.26,0,0,1,4.65,1.14Z" transform="translate(-81.4 -29.69)"/><path class="cls-62" d="M413.71,198.64l-8.94,5.92a.89.89,0,0,1-1.26-.35L402,201.7a1,1,0,0,1,.25-1.36l8.94-5.93a.9.9,0,0,1,1.27.36l1.48,2.51A1,1,0,0,1,413.71,198.64Z" transform="translate(-81.4 -29.69)"/><polygon class="cls-62" points="312.48 138.87 306.38 142.92 304 138.86 310.1 134.82 312.48 138.87"/><path class="cls-66" d="M403.87,188a8.54,8.54,0,0,1,.37,7.17,33.11,33.11,0,0,1-1.69,3.56L396,187.54a3.7,3.7,0,0,1-.38-.95c0-.12.77-.76.87-.86.3-.27,5-.5,6.13.55A5.26,5.26,0,0,1,403.87,188Z" transform="translate(-81.4 -29.69)"/><path class="cls-67" d="M388.88,228.05s-6.39-6-6.39-21.87c0-9.06,5.6-16.85,10.88-19.82,2.8-1.57,7.05-3.22,9.89-.9a5.49,5.49,0,0,1,1.92,5,7.19,7.19,0,0,1-3.34,4.34c-2.22,1.49-5.17,2.73-7.09,4.3-4.27,3.52-5.44,20.63,7.48,27.77Z" transform="translate(-81.4 -29.69)"/><path class="cls-68" d="M386.4,212.86a26.17,26.17,0,0,0,6,.52,19.92,19.92,0,0,0,9.87,13.54l-12.07,1c-.7-.74-4.75-5.37-5.94-15.76A12.07,12.07,0,0,0,386.4,212.86Z" transform="translate(-81.4 -29.69)"/><path class="cls-62" d="M390.3,232.77h-3.54a.5.5,0,0,1-.49-.52v-1.78a.5.5,0,0,1,.49-.51h3.54a.5.5,0,0,1,.49.51v1.78A.5.5,0,0,1,390.3,232.77Z" transform="translate(-81.4 -29.69)"/><path class="cls-62" d="M407.57,232.77H404a.5.5,0,0,1-.49-.52v-1.78A.5.5,0,0,1,404,230h3.54a.5.5,0,0,1,.49.51v1.78A.5.5,0,0,1,407.57,232.77Z" transform="translate(-81.4 -29.69)"/><path class="cls-62" d="M411.41,230.79H382.92a.88.88,0,0,1-.84-.9v-4.1a.87.87,0,0,1,.84-.9h28.49a.87.87,0,0,1,.84.9v4.1A.88.88,0,0,1,411.41,230.79Z" transform="translate(-81.4 -29.69)"/><path class="cls-62" d="M403.38,189.08a1.76,1.76,0,1,1-1.75-1.86A1.81,1.81,0,0,1,403.38,189.08Z" transform="translate(-81.4 -29.69)"/><rect class="cls-62" x="316.38" y="180.02" width="18.43" height="5.61"/><path class="cls-22" d="M390.35,226.1v6s19.86,1.93,20.81.69-6.45-9.36-8.34-9.36S396.28,224.63,390.35,226.1Z" transform="translate(-81.4 -29.69)"/><path class="cls-69" d="M361.34,251.45H320c1.06-22.62,6.15-52.11,8.86-57.82,3.74-7.91,16-17.78,16-17.78l14.32,6.73c4.67,9.41,6.45,19.57,6.21,21.41C365.16,205.66,361.33,243.4,361.34,251.45Z" transform="translate(-81.4 -29.69)"/><path class="cls-70" d="M394,224.39l.26,8.28s-26,.57-28.3,0-32.45-26.63-25-40.6c9.16-17.16,17.25,9.59,18.89,13.28s8.65,14.32,10.71,14.94S394,224.39,394,224.39Z" transform="translate(-81.4 -29.69)"/><path class="cls-71" d="M365.93,232.67c-1.5-.36-19-15.52-25.32-29.06.36,3.19.67,6.41-.29,9.55-1.18,3.89-2.18,7.89-1.13,12,.88,3.42,2.63,6.64,2.51,10.38-.18,6-4.79,10.23-5.6,15.91H320c1.06-22.62,6.15-52.11,8.86-57.82,3.74-7.91,16-17.78,16-17.78L350,177c-1.39,2.3-5.08,8.09-6.38,10.46.91,5.28,3.49,13,5.75,16.68a22.54,22.54,0,0,0,5.4,6c3.34,2.75,5.13,8.38,7.43,11.91,3.54,5.43,16,6.58,20.89,6.34,3.74-.18,7.33-.75,11,0l.14,4.38S368,233.17,365.93,232.67Z" transform="translate(-81.4 -29.69)"/><rect class="cls-72" x="269.29" y="213.84" width="68.22" height="7.93"/><rect class="cls-73" x="269.29" y="213.84" width="68.22" height="7.93"/><rect class="cls-8" x="260.62" y="203.08" width="85.57" height="10.76"/><path class="cls-10" d="M154.49,310.05h121c10.83,0,19.6-9.31,19.6-20.81v-70c0-11.49-8.77-20.81-19.6-20.81h-121c-10.83,0-19.61,9.32-19.61,20.81v70C134.88,300.74,143.66,310.05,154.49,310.05Z" transform="translate(-81.4 -29.69)"/><path class="cls-8" d="M191.68,161.83s2.67,10.43-5.85,16.57C185.83,178.4,174.46,165.93,191.68,161.83Z" transform="translate(-81.4 -29.69)"/><path class="cls-8" d="M211.34,192.23l5.57-2.56s.32,3.59,5.05,6.26,12,7.8,8.2,25.42-22.74,4.91-24.57-3.34S203.77,195,211.34,192.23Z" transform="translate(-81.4 -29.69)"/><path class="cls-22" d="M198.14,198.1c4.66-1.66,7.26-7.27,11.41-10,.9-.59,2.76-1.61,3.55-2.26-.49,5.84-.41,20.23,4.49,28.7,0,0,.48,14.39-12.93,16.57s-10.88-14.06-10.88-14.06S197.93,213.49,198.14,198.1Z" transform="translate(-81.4 -29.69)"/><path class="cls-23" d="M206.86,191.27c-.09,3.56.72,8.55-1.75,12.63a11.46,11.46,0,0,1-8.15,5.76,56.48,56.48,0,0,0,1.18-11.56c3.6-1.28,6-4.91,8.77-7.75C206.89,190.66,206.86,191,206.86,191.27Z" transform="translate(-81.4 -29.69)"/><path class="cls-10" d="M207,221.62c1.21-4,3.08-7.81,3.31-12.09.36-6.86.7-14.55-.54-21.58.95-.6,2.57-1.5,3.3-2.1-.49,5.84-.41,20.23,4.49,28.7,0,0,.48,14.39-12.93,16.57-.37.06-.72.1-1.07.13A59.8,59.8,0,0,0,207,221.62Z" transform="translate(-81.4 -29.69)"/><path class="cls-22" d="M208,161.83s-20.18.5-21.45,8.7-.42,8.76-.52,11.55c-.08,2.2-1.67,10,1.12,17.07a7.37,7.37,0,0,0,8.48,4.59c4.18-1,9.52-3.39,12.37-8.27,3-5.12.84-6.58,4-7.7,6.16-2.18,7.78-8.87.73-9.59-3.77-.39-4.41,3.57-4.41,3.57S211.76,163.45,208,161.83Z" transform="translate(-81.4 -29.69)"/><path class="cls-8" d="M186,185.78a1,1,0,0,0,.84,1.17,1,1,0,0,0,1.21-.71,1,1,0,0,0-.84-1.17A1,1,0,0,0,186,185.78Z" transform="translate(-81.4 -29.69)"/><path class="cls-8" d="M193.88,187a1.13,1.13,0,0,0,.92,1.27,1.06,1.06,0,0,0,1.32-.78,1.13,1.13,0,0,0-.92-1.27A1.07,1.07,0,0,0,193.88,187Z" transform="translate(-81.4 -29.69)"/><path class="cls-45" d="M189.2,193.74h.1a.27.27,0,0,0,.31-.25.29.29,0,0,0-.26-.31c-.6-.06-1-.21-1.08-.41s.28-.95.59-1.41c.13-.18.25-.35.33-.49a11.25,11.25,0,0,0,.74-3.13.28.28,0,0,0-.25-.32.28.28,0,0,0-.32.25,11.23,11.23,0,0,1-.68,2.92l-.3.45c-.42.6-.94,1.34-.63,2C187.94,193.41,188.42,193.65,189.2,193.74Z" transform="translate(-81.4 -29.69)"/><path class="cls-74" d="M189.89,197.49a3.24,3.24,0,0,0,2.52-1,.32.32,0,0,0,0-.43.28.28,0,0,0-.41,0c-1.89,1.69-3,.49-3.09.43a.28.28,0,0,0-.41,0,.32.32,0,0,0,0,.44A2.32,2.32,0,0,0,189.89,197.49Z" transform="translate(-81.4 -29.69)"/><path class="cls-8" d="M197.08,184.83a.28.28,0,0,0,.28-.15.33.33,0,0,0-.09-.42,5.45,5.45,0,0,0-4-.69.31.31,0,0,0-.21.37.28.28,0,0,0,.35.23,5,5,0,0,1,3.56.61A.31.31,0,0,0,197.08,184.83Z" transform="translate(-81.4 -29.69)"/><path class="cls-8" d="M185.31,183.72a.29.29,0,0,0,.2-.05,2.81,2.81,0,0,1,2.77-.13.27.27,0,0,0,.39-.14.32.32,0,0,0-.13-.41,3.33,3.33,0,0,0-3.37.18.32.32,0,0,0-.07.43A.27.27,0,0,0,185.31,183.72Z" transform="translate(-81.4 -29.69)"/><path class="cls-8" d="M214.21,160.78c-3.24-1.32-17.25-9.83-30,4.54,0,0-.77,14.19,17.68,13.08,0,0,3.15,4.48,3.25,8.59a.84.84,0,0,0,.81.88c.75,0,2.29-1.57,3.18-4.15.41-1.19,3-5.69,5.63-2.75,3.09,3.45-2.08,6.46-2.08,6.46s.18,5.79.26,7.25c0,0,14.86-8.53,9.34-24.57C220.11,163.69,216.81,161.83,214.21,160.78Z" transform="translate(-81.4 -29.69)"/><path class="cls-24" d="M221.14,170.23c-1.67.4-6.54,1.27-9.39-.69-4.75-3.28-9.29-5.48-14.69-3.18-2.54,1.08-5.64,2.83-8,.31a10.13,10.13,0,0,1-2.39-3.78c12-10.9,24.52-3.34,27.56-2.11,2.59,1.05,5.88,2.9,8.09,9.26A6.68,6.68,0,0,0,221.14,170.23Z" transform="translate(-81.4 -29.69)"/><path class="cls-75" d="M165.91,288.15c-.78-1.36-3-3.9-3.15-5.32a11,11,0,0,0-.62-2.67l7.51-14.57c2.52-19.91,9.09-42.23,10.46-43.46s13.75-7.92,13.75-7.92c-2.42,2-4.81,18.91-5.42,24.77s-2.7,21.42-5.86,29.29c-2.29,5.72-11,16.29-15.58,21.64C166.64,289.36,166.28,288.79,165.91,288.15Z" transform="translate(-81.4 -29.69)"/><path class="cls-27" d="M177.27,272.43c2.67-7,5.52-13,5-20.7-.23-3.22,1.72-4.42,2.66-7.3s.45-5.57.36-8.57c-.17-6.05,1.77-12.73,3.45-18.82,2.78-1.55,5.15-2.83,5.15-2.83-2.42,2-4.81,18.91-5.42,24.77s-2.7,21.42-5.86,29.29c-1.39,3.47-5.15,8.74-8.92,13.53C174.94,278.66,176.11,275.46,177.27,272.43Z" transform="translate(-81.4 -29.69)"/><path class="cls-76" d="M232.89,218.9a55.16,55.16,0,0,1-16.42-6.6s-10.54,15.12-16.07,14.8c0,0-4.75-12.88-4.26-14.46l-11.68,6.79s3,23,2.57,33-8,57.57-8,57.57h55.73s-10.52-43.29-9-57.34S228.06,225.48,232.89,218.9Z" transform="translate(-81.4 -29.69)"/><path class="cls-27" d="M199.93,227.12l1.13.13c-.31,4.43-1.16,67.3.17,82.8h-1.82C199.63,308,199.65,231.23,199.93,227.12Z" transform="translate(-81.4 -29.69)"/><path class="cls-30" d="M190.83,310.05H179.06s7.57-47.53,8-57.57a161.93,161.93,0,0,0-.92-18c.44,1.1.87,2.2,1.25,3.32a7.64,7.64,0,0,0,1.57,2.38,11.36,11.36,0,0,1,2.69,8,28.73,28.73,0,0,0,.4,8.63c1.3,5.2-2.92,7.83-4.54,12.49a18.19,18.19,0,0,0,1.67,15,58.57,58.57,0,0,1,3.23,5.66c.73,1.69-.39,2.45-1.16,4-2.42,4.81-3.17,9.45-1.07,14.58C190.35,309,190.58,309.53,190.83,310.05Z" transform="translate(-81.4 -29.69)"/><path class="cls-30" d="M215.86,310.05a22.27,22.27,0,0,0-2.21-9.85c-2-4.42-3.28-5.75-1.3-10.43a18.68,18.68,0,0,0,1.17-10.12c-.4-3.2-1.91-6.77-1.65-10,.18-2.19,3.66-4.32,4.62-6.36a18.76,18.76,0,0,0,2.15-9.2c-.17-2.72-1.32-6.72.08-9.2,2.39-4.23,6.07-7.18,9.16-10.8h0c-.89,5.62-1.45,12-2.14,18.63-1.47,14,9,57.34,9,57.34Z" transform="translate(-81.4 -29.69)"/><polygon class="cls-77" points="114.85 182.61 119.01 197.41 111.75 201.56 109.65 185.91 114.85 182.61"/><polygon class="cls-78" points="134.05 179.97 139.64 185.1 128.63 204.19 119.01 197.41 134.05 179.97"/><polygon class="cls-79" points="107.78 221.25 124.32 271.63 122.19 272.38 74.69 222.01 76.82 221.25 107.78 221.25"/><polygon class="cls-8" points="105.65 222.01 122.19 272.38 91.88 272.38 74.69 222.01 105.65 222.01"/><path class="cls-22" d="M168.26,287.2s-5.64,0-5.6,1.17a2.65,2.65,0,0,0,.57,1.74s2.11,1.91,3.56,1.91,5,0,4.72-1.21c-.46-2-3.21-1.18-3.93-1.14l1.51-.07Z" transform="translate(-81.4 -29.69)"/><path class="cls-22" d="M167.22,284.14s-5.62,0-5.58,1.17a2.54,2.54,0,0,0,.57,1.73s2,2.14,3.45,2.14,6.13.73,5.86-1.32-4.26-1.3-5-1.26l1.5-.07Z" transform="translate(-81.4 -29.69)"/><path class="cls-22" d="M166.05,280.85s-5.89,0-5.85,1.22a2.77,2.77,0,0,0,.59,1.82s2.12,2.25,3.63,2.25,6.86,1.09,6.58-1.06-4.91-1.69-5.66-1.65l1.57-.07Z" transform="translate(-81.4 -29.69)"/><path class="cls-22" d="M164.68,276.89s-6.88-.05-6.83,1.43a3.2,3.2,0,0,0,.7,2.12s2.46,2.61,4.22,2.61,8,1.28,7.67-1.23-5.72-2-6.6-1.92l1.84-.09Z" transform="translate(-81.4 -29.69)"/><g class="cls-80"><path class="cls-81" d="M202.69,241.28c0,1.14.43,2.05.95,2.05s1-.91,1-2.05-.43-2.05-1-2.05S202.69,240.15,202.69,241.28Z" transform="translate(-81.4 -29.69)"/><path class="cls-81" d="M202.69,256.62c0,1.14.43,2.05.95,2.05s1-.91,1-2.05-.43-2.05-1-2.05S202.69,255.49,202.69,256.62Z" transform="translate(-81.4 -29.69)"/><path class="cls-81" d="M202.69,272c0,1.14.43,2.05.95,2.05s1-.91,1-2.05-.43-2-1-2S202.69,270.83,202.69,272Z" transform="translate(-81.4 -29.69)"/><path class="cls-81" d="M202.69,287.31c0,1.13.43,2.05.95,2.05s1-.92,1-2.05-.43-2.05-1-2.05S202.69,286.17,202.69,287.31Z" transform="translate(-81.4 -29.69)"/><path class="cls-81" d="M202.69,302.65c0,1.13.43,2.05.95,2.05s1-.92,1-2.05-.43-2-1-2S202.69,301.51,202.69,302.65Z" transform="translate(-81.4 -29.69)"/></g><path class="cls-22" d="M204.5,281.07a17.92,17.92,0,0,1-5.7-.82c-3.76-1-14.51-1.58-15.33.84s1.32,1.88,8.18,1.31c0,0-8.52.24-8.85,3.24s11.06-.4,11.06-.4-10.28,2.08-9.49,4.49,10.67-1.1,10.67-1.1-8,2.12-6.57,4.07,7.57-1.45,9.25-1.17,3.37,4.16,12.3-1.8Z" transform="translate(-81.4 -29.69)"/><path class="cls-82" d="M203.59,280.13l4.8,12.41s38.8-10.55,42.17-15.65-10.25-59.5-17.67-58-7,32.8-7,32.8,7.25,16.29,6.83,16.63S203.59,280.13,203.59,280.13Z" transform="translate(-81.4 -29.69)"/><path class="cls-27" d="M232.68,268.33c.42-.34-6.83-16.63-6.83-16.63s-.08-7.2.65-14.86c.12,1,.94,7.15,2.37,8.08,10.93,7.18.08,12.14,9.31,20.71,1.92,1.78.42,8.51-4.66,9.69-2.89.66-7.36-1.19-12.9,4.93-3.4,3.76-5,5.16-10.1,3.75-2-.56-4-1.09-6-1.5l-.92-2.37S232.26,268.66,232.68,268.33Z" transform="translate(-81.4 -29.69)"/><path class="cls-8" d="M207.93,237.66c.21-2.61,1.21-6.94,3.72-8.69a6.47,6.47,0,0,1,8.22,1A26,26,0,0,0,222,219.36a11.79,11.79,0,0,0-2.29-5.86c-2.39-3.06-4.27-3.84-4.27-3.84s-.9-3.16-.9-3.16c2.18,2.27,6.49,4.92,8.52,9.85,1.1,2.67.84,8.88-2.48,14.37,2.17,2.91,2.52,6,.63,8.89-1.72,2.61-5.54,3.58-8,3.71a1.65,1.65,0,0,1-2,1,1.78,1.78,0,0,1-1.17-2.18,1.66,1.66,0,0,1,2-1.25,1.73,1.73,0,0,1,1.21,1.41c2.31-.14,5.59-1,7-3.12a6.7,6.7,0,0,0-.57-7.9c-.1-.13-.65-.63-.8-.77a5.37,5.37,0,0,0-7-.6c-2,1.5-2.91,5.22-3.13,7.66a1.72,1.72,0,0,1,1.29,1.33A1.78,1.78,0,0,1,209,241a1.69,1.69,0,0,1-2-1.32A1.8,1.8,0,0,1,207.93,237.66Z" transform="translate(-81.4 -29.69)"/><path class="cls-8" d="M196.25,212.3c0,.17-2.3,1-3.66,2.35a10.83,10.83,0,0,0-2.43,5.34,73.14,73.14,0,0,0,.15,7.32,17.59,17.59,0,0,0,5.1,10.8l-.82.55c-2-1.79-5.28-6-5.54-11.14-.14-2.8-.53-5.61,0-8.39a11.14,11.14,0,0,1,3.83-6.48,13.12,13.12,0,0,1,2.65-1.67c.11-.06,1.21-.41,1.23-.54Z" transform="translate(-81.4 -29.69)"/><path class="cls-8" d="M192.63,239a2.46,2.46,0,0,0,2.7,2.25,2.54,2.54,0,0,0,2.13-2.86,2.48,2.48,0,0,0-2.7-2.26A2.56,2.56,0,0,0,192.63,239Z" transform="translate(-81.4 -29.69)"/><path class="cls-83" d="M193.57,238.85a1.51,1.51,0,0,0,1.65,1.38,1.55,1.55,0,0,0,1.3-1.75,1.49,1.49,0,0,0-1.65-1.38A1.55,1.55,0,0,0,193.57,238.85Z" transform="translate(-81.4 -29.69)"/><path class="cls-22" d="M283.15,258.41l15.58,1,15.57-1s-.65,17.89,5.23,21.22c0,0-7.5,32.73-20.8,32.73s-20.81-32.73-20.81-32.73C283.8,276.3,283.15,258.41,283.15,258.41Z" transform="translate(-81.4 -29.69)"/><path class="cls-10" d="M304.94,285.89c.09-8.74.49-18.33-2.18-26.75h0l11.55-.72s-.65,17.89,5.23,21.22c0,0-6.29,27.41-17.56,32.05C304.76,303.22,304.87,292.11,304.94,285.89Z" transform="translate(-81.4 -29.69)"/><path class="cls-22" d="M271.13,241.37c.62-2.82,3.72-3.58,5-4.22.11-.06.26,0,.42.11-1.11-8-2.18-19.75,1.05-23.78,4.43-5.55,20.91-4.72,20.91-4.72h.22s16.48-.83,20.91,4.72c3.23,4,2.16,15.76,1.05,23.78.16-.11.31-.17.42-.11,1.28.64,4.38,1.4,5,4.22.29,1.32-.16,3.52-.73,5.48a7.54,7.54,0,0,1-6.68,5.72c-.22,0-.43,0-.64,0-2.24,9.24-7.38,22.08-19.33,22.08h-.22c-12,0-17.09-12.84-19.33-22.08-.21,0-.43,0-.64,0a7.54,7.54,0,0,1-6.68-5.72C271.29,244.89,270.84,242.69,271.13,241.37Z" transform="translate(-81.4 -29.69)"/><path class="cls-8" d="M320.18,211.81s-5.62-15.39-18.82-13.45-14.63,9.85-27.31,2.77c0,0-6.27,10.65,1.86,17.05a12.43,12.43,0,0,0,12.88,1.43,20,20,0,0,1,7.17-1.78C302.89,217.42,305.15,227.34,320.18,211.81Z" transform="translate(-81.4 -29.69)"/><path class="cls-24" d="M308.59,203.22c-6.88.52-12.09,4.83-18.12,7.79-7,3.45-10.57-3.09-13.6-8.49,10.14,4.43,12.35-2.37,24.49-4.16,6.05-.89,10.5,1.86,13.55,5.1A26.12,26.12,0,0,0,308.59,203.22Z" transform="translate(-81.4 -29.69)"/><path class="cls-84" d="M281.07,275.28c6.26,10.1,17.66,12.12,17.66,12.12s11.39-2,17.65-12.12c0,0,6.74,3.93,11.74,5.32,0,0-15,64.63-29.39,64.63s-29.4-64.63-29.4-64.63C274.33,279.21,281.07,275.28,281.07,275.28Z" transform="translate(-81.4 -29.69)"/><path class="cls-27" d="M281.07,275.28c6.26,10.1,17.66,12.12,17.66,12.12s11.39-2,17.65-12.12c0,0,6.74,3.93,11.74,5.32,0,0-15,64.63-29.39,64.63s-29.4-64.63-29.4-64.63C274.33,279.21,281.07,275.28,281.07,275.28Z" transform="translate(-81.4 -29.69)"/><polygon class="cls-8" points="215.08 270.6 209.76 266.8 213.25 257.57 221.4 257.57 224.89 266.8 219.58 270.6 228.18 315.54 217.33 325.5 206.47 315.54 215.08 270.6"/><polygon class="cls-85" points="217.33 257.7 234.98 245.59 240.62 252.43 229.64 271.16 217.33 257.7"/><polygon class="cls-86" points="217.33 257.7 199.68 245.59 194.04 252.43 205.02 271.16 217.33 257.7"/><path class="cls-87" d="M325.18,279.59s28.72,7.9,31.47,8.47c0,0-3.4,44-8.11,60.91s-2.61,71,3.14,101H298.73V333.37S311.75,318.6,325.18,279.59Z" transform="translate(-81.4 -29.69)"/><path class="cls-30" d="M321.7,449.93c0-.16.09-.32.12-.48a27.9,27.9,0,0,0,.4-9.58,24.44,24.44,0,0,0,2-10.17c.27-4.95-7.12-9.13-6.55-13.87.51-4.25,4.17-8,6.21-11.48a32.9,32.9,0,0,0,4.78-13.77c.89-10.11-2.74-18.64-5.31-28.1-2.38-8.72,1.51-11.06,6.75-14.19,7.9-4.73,7.81-14.42,9-16.48A37.35,37.35,0,0,1,353.1,318l.64-.37c-1.37,11.69-3.16,24.07-5.2,31.38-4.7,16.92-2.61,71,3.14,101Z" transform="translate(-81.4 -29.69)"/><path class="cls-88" d="M272.27,279.59s-28.72,7.9-31.47,8.47c0,0,3.4,44,8.11,60.91s2.61,71-3.14,101h62.46L304.5,346.47A316,316,0,0,1,272.27,279.59Z" transform="translate(-81.4 -29.69)"/><path class="cls-30" d="M248.91,349c-1.66-6-3.15-15.27-4.4-24.83,1.41,1.43,22.22,9,22.93,27.58.38,10.13-4.79,17.68-1.86,28,2.56,9.05,4.43,6.56,9.86,13.39a21.09,21.09,0,0,1,1.42,23.55c-3.53,5.55-2.76,14.27-.41,20.48a19.37,19.37,0,0,0,1,3.92c1.19,3.16,3.15,6,4.11,8.84H245.77C251.52,420,253.61,365.89,248.91,349Z" transform="translate(-81.4 -29.69)"/><g class="cls-80"><path class="cls-28" d="M297.45,365.71c0,1.43.78,2.59,1.75,2.59s1.74-1.16,1.74-2.59-.78-2.59-1.74-2.59S297.45,364.28,297.45,365.71Z" transform="translate(-81.4 -29.69)"/></g><g class="cls-80"><path class="cls-28" d="M297.45,391.2c0,1.43.78,2.59,1.75,2.59s1.74-1.16,1.74-2.59-.78-2.59-1.74-2.59S297.45,389.77,297.45,391.2Z" transform="translate(-81.4 -29.69)"/></g><g class="cls-80"><path class="cls-28" d="M297.45,416.69c0,1.43.78,2.59,1.75,2.59s1.74-1.16,1.74-2.59-.78-2.59-1.74-2.59S297.45,415.26,297.45,416.69Z" transform="translate(-81.4 -29.69)"/></g><g class="cls-80"><path class="cls-28" d="M297.45,442.18c0,1.43.78,2.59,1.75,2.59s1.74-1.16,1.74-2.59-.78-2.59-1.74-2.59S297.45,440.75,297.45,442.18Z" transform="translate(-81.4 -29.69)"/></g><path class="cls-27" d="M335.94,282.54,333.65,304,325,307.09l9.16,8.74-33.48,36.33-.06-14.49,28-57.13Z" transform="translate(-81.4 -29.69)"/><path class="cls-27" d="M262.17,282.54,264.46,304l8.68,3.12L264,315.83l41.12,47.29.62-15.12-36.24-67.46Z" transform="translate(-81.4 -29.69)"/><polygon class="cls-89" points="243.79 249.9 253.43 252.54 248.61 273.72 239.93 276.84 249.09 285.58 220.56 317.41 215.56 307.42 243.79 249.9"/><polygon class="cls-90" points="191.02 249.9 181.38 252.54 186.2 273.72 194.87 276.84 185.72 285.58 223.81 330.72 224.38 317.41 191.02 249.9"/><path class="cls-22" d="M275.6,418.19s-5.93-11.6-9.33-13.54-13.07,10.87-13.07,10.87l5.1,10.07Z" transform="translate(-81.4 -29.69)"/><path class="cls-91" d="M240.8,288.06s-5,4.69-8.05,14.94c-7,23.48-13.33,46.28-13.33,68.72,0,12.5,23.52,42.16,34.76,51.86L269.33,405s-21.94-29.4-22.73-31.9,3.66-22.44,3.66-29.4C250.26,325.39,240.8,288.06,240.8,288.06Z" transform="translate(-81.4 -29.69)"/><polygon class="cls-92" points="202.28 420.24 175.19 420.24 173.49 393.02 199.32 384.41 202.28 420.24"/><path class="cls-93" d="M256.4,432.74l-.88.14-.1-1.58c5-1.52,22.41-6.55,26.16-6.75l.3,3.63C279.2,429.33,262.24,431.91,256.4,432.74Z" transform="translate(-81.4 -29.69)"/><polygon class="cls-94" points="174.11 403 173.49 393.02 199.32 384.41 202.28 420.24 175.19 420.24 174.13 403.19 174.13 403.19 174.11 403"/><polygon class="cls-95" points="231.76 420.24 258.84 420.24 260.54 393.02 234.72 384.41 231.76 420.24"/><path class="cls-96" d="M340.43,432.74l.88.14.1-1.58c-5-1.52-22.41-6.55-26.16-6.75l-.3,3.63C317.63,429.33,334.59,431.91,340.43,432.74Z" transform="translate(-81.4 -29.69)"/><polygon class="cls-97" points="259.92 403 260.54 393.02 234.72 384.41 231.76 420.24 258.84 420.24 259.91 403.19 259.91 403.19 259.92 403"/><path class="cls-27" d="M240,357.26c3.93-7.55-1.31-16.4,8.63-30.78a163,163,0,0,1,1.59,17.22c0,7-4.44,26.91-3.66,29.4S269.33,405,269.33,405l-7.73,9.48c-4.51-5.26-10.27-8.17-14.84-13.31-4-4.47-3-13.86-5.92-19.5-2-3.92-5.87-7.9-5.38-12.72C235.9,364.65,238.12,361,240,357.26Z" transform="translate(-81.4 -29.69)"/><polygon class="cls-8" points="257.25 326.79 277.9 385.59 235.03 400.01 215.56 341.35 257.25 326.79"/><path class="cls-22" d="M336.64,395.63c1.95,0,7.18-.72,10.51-1.21,1.51-.22,6.38-1.07,7.57-1.28,1.53,2,3.15,3.92,4.76,5.88.35.43.71.84,1.06,1.25-.94,2.87-3.59,8.94-3.49,10.07.7,8.37-1.49,12.9-3.36,14.76-1.57,1.58-3.8,1.27-3.06-.25,2.76-5.67,2.34-9.5,2.34-9.5-1,14.81-11.07,14.54-7.51,8.58a12.46,12.46,0,0,1-3.85,3.21c-3.13,1.51-5.12-.69-2.62-3.24,5-5.11,6.17-8.88,6.17-8.88a38.26,38.26,0,0,1-2.84,4.05,23.73,23.73,0,0,1-9.72,7.26c-7.35,2.92-6.64-2.53-4.7-3.68,3.58-2.13,9.61-5.66,10.84-8.55s1.61-7.34,1.85-10.35-2.22-3.41-7.9-1.05-11.36,3-11.36,0S333.68,395.63,336.64,395.63Z" transform="translate(-81.4 -29.69)"/><path class="cls-98" d="M356.65,288.06s30.32,69.79,32.67,84.49-30.52,36-30.52,36L348.54,394s10.46-20.6,10.72-24.76S348.54,349,348.54,349,354.82,299.83,356.65,288.06Z" transform="translate(-81.4 -29.69)"/><path class="cls-27" d="M348.54,349s2-15.42,4-31.06c.91,2.92-.23,18.58,9.44,26.25,5.5,4.36-1.47,10,6,19.16,9.63,11.8-1.19,15.52-7.75,25.07-2.35,3.41-3.88,8.95-6.06,13.62l-5.67-8s10.46-20.6,10.72-24.76S348.54,349,348.54,349Z" transform="translate(-81.4 -29.69)"/><path class="cls-45" d="M299.72,250.59l.21,0a.59.59,0,0,0,.53-.62.58.58,0,0,0-.69-.42c-1.26.21-2.11.15-2.41-.17-.48-.5.12-1.86.56-2.85.17-.39.34-.76.44-1.06.62-1.85.09-5.87.06-6a.56.56,0,0,0-.68-.43.58.58,0,0,0-.53.61s.52,4,0,5.62a9.62,9.62,0,0,1-.4,1c-.58,1.31-1.3,2.93-.38,3.89C297,250.66,298.07,250.84,299.72,250.59Z" transform="translate(-81.4 -29.69)"/><path class="cls-99" d="M294.42,257.45a.6.6,0,0,1,.84-.23,7.54,7.54,0,0,0,3.06,1.17H299a7.43,7.43,0,0,0,3.07-1.17.6.6,0,0,1,.84.23.68.68,0,0,1-.22.89,8.18,8.18,0,0,1-3.79,1.35h-.54a8.31,8.31,0,0,1-3.76-1.35A.68.68,0,0,1,294.42,257.45Z" transform="translate(-81.4 -29.69)"/><path class="cls-8" d="M312.06,231.31a.63.63,0,0,0,.52-.41.68.68,0,0,0-.35-.85,11.43,11.43,0,0,0-8.58.29.67.67,0,0,0-.3.87.6.6,0,0,0,.81.32,10.28,10.28,0,0,1,7.62-.26A.56.56,0,0,0,312.06,231.31Z" transform="translate(-81.4 -29.69)"/><path class="cls-8" d="M285.55,231.18a.61.61,0,0,1-.5-.43.65.65,0,0,1,.37-.83,11.33,11.33,0,0,1,8.56.56.67.67,0,0,1,.29.87.61.61,0,0,1-.83.3,10.21,10.21,0,0,0-7.61-.5A.67.67,0,0,1,285.55,231.18Z" transform="translate(-81.4 -29.69)"/><path class="cls-8" d="M281.36,211s1.92,9-1.87,16.35.78,10.41,1.18,16.37c.23,3.65,2.56,9.41,7,13.34,2.32-6.57,11.06-5.64,11.06-5.64s8.73-.93,11,5.64c4.44-3.93,6.77-9.69,7-13.34.4-6,5-9,1.18-16.37S316.09,211,316.09,211c12.48-3.9,13.11,9.84,11.25,16.08A67.76,67.76,0,0,0,325,239.33c-1.51-.58-3.37.22-4.94,4.38s-1.43,14.28-7.18,24.69-14.14,9.15-14.14,9.15-8.39,1.25-14.14-9.15-5.62-20.53-7.19-24.69-3.43-5-4.94-4.38a67.76,67.76,0,0,0-2.35-12.26C268.25,220.83,268.88,207.09,281.36,211Zm17.37,50.33a16.23,16.23,0,0,0,6-1.12c-.52-2.22-2-5.08-6-5.08s-5.49,2.86-6,5.08A16.24,16.24,0,0,0,298.73,261.32Z" transform="translate(-81.4 -29.69)"/><path class="cls-8" d="M305.56,236.43a2.38,2.38,0,0,0,2.09,2.57,2.27,2.27,0,0,0,2.7-1.81,2.38,2.38,0,0,0-2.09-2.57A2.27,2.27,0,0,0,305.56,236.43Z" transform="translate(-81.4 -29.69)"/><path class="cls-8" d="M292.06,236.43A2.37,2.37,0,0,1,290,239a2.27,2.27,0,0,1-2.7-1.81,2.37,2.37,0,0,1,2.08-2.57A2.27,2.27,0,0,1,292.06,236.43Z" transform="translate(-81.4 -29.69)"/><polygon class="cls-41" points="285.88 245.91 285.88 242.74 289.78 242.74 289.78 238.6 292.77 238.6 292.77 242.74 296.67 242.74 296.67 245.91 292.77 245.91 292.77 250.04 289.78 250.04 289.78 245.91 285.88 245.91"/><polygon class="cls-41" points="315.44 300.61 315.44 297.44 319.34 297.44 319.34 293.3 322.33 293.3 322.33 297.44 326.22 297.44 326.22 300.61 322.33 300.61 322.33 304.75 319.34 304.75 319.34 300.61 315.44 300.61"/><polygon class="cls-41" points="292.61 392.77 292.61 389.6 296.5 389.6 296.5 385.46 299.5 385.46 299.5 389.6 303.39 389.6 303.39 392.77 299.5 392.77 299.5 396.91 296.5 396.91 296.5 392.77 292.61 392.77"/><polygon class="cls-41" points="108.57 314.46 108.57 311.29 112.46 311.29 112.46 307.15 115.45 307.15 115.45 311.29 119.35 311.29 119.35 314.46 115.45 314.46 115.45 318.6 112.46 318.6 112.46 314.46 108.57 314.46"/><polygon class="cls-41" points="65.07 298.38 65.07 295.21 68.97 295.21 68.97 291.07 71.96 291.07 71.96 295.21 75.86 295.21 75.86 298.38 71.96 298.38 71.96 302.51 68.97 302.51 68.97 298.38 65.07 298.38"/><polygon class="cls-41" points="310.05 31.4 310.05 28.22 313.94 28.22 313.94 24.09 316.94 24.09 316.94 28.22 320.83 28.22 320.83 31.4 316.94 31.4 316.94 35.53 313.94 35.53 313.94 31.4 310.05 31.4"/><polygon class="cls-41" points="236.63 120.75 236.63 117.57 240.52 117.57 240.52 113.44 243.51 113.44 243.51 117.57 247.41 117.57 247.41 120.75 243.51 120.75 243.51 124.88 240.52 124.88 240.52 120.75 236.63 120.75"/><polygon class="cls-41" points="233.51 36.98 233.51 33.81 237.41 33.81 237.41 29.67 240.4 29.67 240.4 33.81 244.3 33.81 244.3 36.98 240.4 36.98 240.4 41.11 237.41 41.11 237.41 36.98 233.51 36.98"/><polygon class="cls-41" points="39.2 384.43 39.2 381.26 43.1 381.26 43.1 377.12 46.09 377.12 46.09 381.26 49.98 381.26 49.98 384.43 46.09 384.43 46.09 388.56 43.1 388.56 43.1 384.43 39.2 384.43"/></g></g></svg>