<svg id="OBJECTS" xmlns="http://www.w3.org/2000/svg" viewBox="0 0 500 400"><defs><style>.cls-1{fill:#424285;}.cls-2{fill:#8d8f8e;}.cls-3{fill:#c4c4c4;}.cls-4{fill:#fff;}.cls-5{fill:#5656ac;}.cls-6{fill:#33225c;}.cls-7{fill:#261944;}.cls-8{fill:#6b6bd6;}.cls-9{fill:#fc596c;}.cls-10{fill:#db3549;}.cls-11{fill:#cfcfff;}.cls-12{fill:#ffdf57;}.cls-13{fill:#d8bd49;}.cls-14,.cls-18{fill:#e83f53;}.cls-15{fill:#b4204d;}.cls-16{fill:#8b193b;}.cls-17{fill:#ff8478;}.cls-18{opacity:0.56;}.cls-19,.cls-35,.cls-66{fill:#301f55;}.cls-20{fill:#ff7465;}.cls-21{fill:#ff8b80;}.cls-22{fill:#c3c6c5;}.cls-23{fill:#4a1b26;}.cls-24{fill:#c41e16;}.cls-25{fill:#ff1c68;}.cls-26{fill:#fdbfa8;}.cls-27{fill:#fbfbf9;}.cls-28{fill:#ffa1a1;}.cls-29{fill:#ff9a9a;}.cls-30{fill:#ccedff;}.cls-31{fill:#1b0a24;}.cls-32{fill:#ffa3a3;}.cls-33{fill:#ff8282;}.cls-34{fill:#edb32d;}.cls-35{font-size:13.12px;}.cls-35,.cls-66{font-family:Poppins-Bold, Poppins;font-weight:700;}.cls-36{fill:#172b59;}.cls-37{fill:#6077ad;}.cls-38{fill:#495984;}.cls-39{fill:#b1bbd6;}.cls-40{fill:#ff4f4f;}.cls-41{fill:#230e0a;}.cls-42{fill:#fd9a8b;}.cls-43,.cls-57{fill:#fd7058;}.cls-44,.cls-50{fill:#88c3e1;}.cls-45,.cls-46{fill:#62a5c7;}.cls-46{opacity:0.6;}.cls-47{fill:#a3e5f3;}.cls-48{fill:#ffe36b;}.cls-49{fill:#fbfbfb;}.cls-50{opacity:0.45;}.cls-51{fill:#dceff3;}.cls-52{fill:#1c0d24;}.cls-53{fill:#352655;}.cls-54{fill:#6e2e1c;}.cls-55{fill:#ebb994;}.cls-56{fill:#1f2b4a;}.cls-57{opacity:0.34;}.cls-58{fill:#cc6543;}.cls-59{fill:#1c0a0e;}.cls-60{opacity:0.48;}.cls-61,.cls-62{fill:#9c2d07;}.cls-61{opacity:0.39;}.cls-63{fill:#ac4f30;}.cls-64{fill:#c35a36;}.cls-65{fill:#9e482c;}.cls-66{font-size:12.09px;}.cls-67{fill:#230d09;}.cls-68{fill:#080f1f;}.cls-69{fill:#404f73;}.cls-70{fill:#29324a;}.cls-71{fill:#81889c;}</style></defs><title>home</title><path class="cls-1" d="M120.12,307.1H85.29a3.79,3.79,0,0,1-3.65-3.91v-18a4.83,4.83,0,0,1,4.65-5H114.2a4.72,4.72,0,0,1,4.54,3.92l4,19.57A2.77,2.77,0,0,1,120.12,307.1Z"/><path class="cls-2" d="M135.55,359.17h-.26a2.76,2.76,0,0,1-2.75-2.76V306.36a5.85,5.85,0,0,0-5.84-5.84H116.29v2.86H126.7a3,3,0,0,1,3,3v50.05a5.62,5.62,0,0,0,5.61,5.62h.26Z"/><path class="cls-3" d="M94.85,297.3c16.1,0,29.15,16.1,29.15,35.95s-13,35.94-29.15,35.94S65.71,353.1,65.71,333.25,78.76,297.3,94.85,297.3m0-3.78c-8.94,0-17.31,4.24-23.54,11.93a45.89,45.89,0,0,0,0,55.6C77.54,368.74,85.91,373,94.85,373s17.31-4.23,23.55-11.92a45.89,45.89,0,0,0,0-55.6c-6.24-7.69-14.6-11.93-23.55-11.93Z"/><path class="cls-4" d="M90.07,365.13c-14.44,0-26.19-14.3-26.19-31.88s11.75-31.88,26.19-31.88,26.2,14.3,26.2,31.88S104.52,365.13,90.07,365.13Zm0-60.1c-12.42,0-22.53,12.66-22.53,28.22s10.11,28.22,22.53,28.22,22.54-12.66,22.54-28.22S102.5,305,90.07,305Z"/><path class="cls-5" d="M126,362.81c0-4.25,2.62-7.69,5.85-7.69s5.85,3.44,5.85,7.69-2.62,7.69-5.85,7.69S126,367.05,126,362.81Z"/><path class="cls-6" d="M131.83,356.42c2.86,0,5.18,2.86,5.18,6.39s-2.32,6.38-5.18,6.38-5.18-2.86-5.18-6.38,2.32-6.39,5.18-6.39m0-3.78c-4.94,0-9,4.56-9,10.17s4,10.16,9,10.16,9-4.56,9-10.16-4-10.17-9-10.17Z"/><path class="cls-7" d="M97.74,331.14c0-2.95-1.88-5.34-4.21-5.34s-4.21,2.39-4.21,5.34,1.88,5.33,4.21,5.33S97.74,334.08,97.74,331.14Z"/><polygon class="cls-7" points="96.05 332.27 85.05 306.56 81.82 306.56 92.82 332.27 96.05 332.27"/><polygon class="cls-7" points="48.67 307.29 45.36 307.29 37.25 332.08 40.55 332.08 48.67 307.29"/><rect class="cls-7" x="34.9" y="329.65" width="59.84" height="2.93"/><path class="cls-8" d="M42.28,331.14c0-2.95-1.89-5.34-4.22-5.34s-4.21,2.39-4.21,5.34,1.88,5.33,4.21,5.33S42.28,334.08,42.28,331.14Z"/><polygon class="cls-7" points="42.28 305.8 40.66 314.04 86.14 314.04 112.61 311.62 112.61 305.8 42.28 305.8"/><path class="cls-9" d="M105.88,299.08c-1.42,1.4,1.87,8.54,1.87,8.54L106,312.31a9.9,9.9,0,0,0-.24,6.46l8.58,27.35,6.64-.25,3.94-45.49S115.2,289.94,105.88,299.08Z"/><path class="cls-10" d="M124.91,300.38s-9.71-10.44-19-1.3c-1.3,1.28,1.36,7.4,1.81,8.4a70.24,70.24,0,0,0,16.69-.93Z"/><polygon class="cls-11" points="114.33 346.12 120.97 345.87 122.18 331.91 110.68 334.48 114.33 346.12"/><path d="M109.77,339.57c-.06-.38.54-.59.83-.28a3.27,3.27,0,0,0,1.87,1.12c2.64.46,3.81-2.71,6-3.78S123,339.8,123,339.8l.61-.05v.05c4-.92,10.36-1.53,14.34,2.63,1.46,1.52,2.19,5,1.79,7.83,0,0-17.73,4.2-28.38-1.26a2.25,2.25,0,0,1-1.31-1.63Z"/><path d="M125.11,302.14C126,299.25,127,294.23,122,289c-5.31-5.61-53.15-6.68-53.15-6.68s-2.73,10.68-.63,16,37.91,4.63,43.31,5C114.37,303.66,120.28,304.11,125.11,302.14Z"/><rect class="cls-8" x="90.2" y="349.74" width="49.68" height="5.23"/><rect class="cls-5" x="90.2" y="349.74" width="20.95" height="5.23"/><path class="cls-9" d="M110.64,257.26c3.14,7.05,4.26,12.75,5.57,17.65,1.38,5.12-2.58,12-7.37,9.72-2.59-1.23-5.31-4.41-7.62-11.2l-9.15-23.79a13.44,13.44,0,0,1-.74-7.6c.63-2.9,2.22-5.31,4.44-6.3l1-1.83C99.42,236,106.58,248.14,110.64,257.26Z"/><path class="cls-12" d="M55.12,287.31H92.59l7.1-45.52a8.57,8.57,0,0,0-3-7.88c-3.14-2.61-8.79-5.79-18.51-7.3a29.83,29.83,0,0,0-23,6.21l1.29,38.81Z"/><path class="cls-13" d="M56,255.87l.52,15.76-1.42,15.68H92.59l4.17-26.74C76.8,263.64,64.11,260.67,56,255.87Z"/><path class="cls-14" d="M78.22,226.61a28.66,28.66,0,0,0-10.94.4c6.63,3.22,6,10.21,16.16,10.21,4.62,0,6.76-1.53,7.43-6.78A42.55,42.55,0,0,0,78.22,226.61Z"/><path class="cls-15" d="M95.41,255.49a18.27,18.27,0,1,1-18.27-18.27A18.27,18.27,0,0,1,95.41,255.49Z"/><path class="cls-16" d="M62.76,266.76a18.27,18.27,0,1,0,27.93-23.53C86.17,261.71,73.47,266.38,62.76,266.76Z"/><path class="cls-7" d="M95.4,255.79c0-.1,0-.2,0-.3s0-.2,0-.3h-18v-5.45a10.86,10.86,0,0,0,10.4-9.05l-.54-.39a10.28,10.28,0,0,1-9.86,8.85V237.22h-.6v11.93A10.29,10.29,0,0,1,67,240.3l-.54.39a10.87,10.87,0,0,0,10.41,9.05v5.45h-18v.6h18v5.44a10.89,10.89,0,0,0-10.41,9.06l.54.38a10.27,10.27,0,0,1,9.87-8.84v11.92h.6V261.83a10.27,10.27,0,0,1,9.86,8.84c.19-.12.37-.25.54-.38a10.87,10.87,0,0,0-10.4-9.06v-5.44Z"/><path class="cls-17" d="M91.19,301c-1.68,1.34.22,8.61.22,8.61l-2.65,4.61a10.57,10.57,0,0,0-1.47,6.45l3.27,27.65h6.65L109.85,303S102.2,292.19,91.19,301Z"/><path class="cls-18" d="M91.19,301c-1.47,1.18-.19,6.9.14,8.3,8.55,1.13,13.92,0,17.29-1.88l1.23-4.41S102.2,292.19,91.19,301Z"/><polygon class="cls-4" points="90.56 348.3 97.21 348.3 101.09 334.4 89.17 336.54 90.56 348.3"/><path class="cls-19" d="M89.49,339.57c-.06-.38.54-.59.83-.28a3.24,3.24,0,0,0,1.87,1.12c2.64.46,3.8-2.71,6-3.78s4.54,3.17,4.54,3.17l.61-.05v.05c4-.92,10.35-1.53,14.34,2.63,1.45,1.52,2.18,5,1.78,7.83,0,0-17.73,4.2-28.38-1.26a2.3,2.3,0,0,1-1.31-1.63Z"/><path class="cls-19" d="M54.17,300.58c-5-7.39,1.14-19.83,1.14-19.83S103,285.31,108,291.23c3.4,4.07,2.47,8.33,1.9,11.76-.16,1-4.17,3.17-10.06,3.43C84.31,307.09,58.5,307,54.17,300.58Z"/><path class="cls-20" d="M38.88,252.86c-4.19,6.48-6.17,11.94-8.23,16.58-2.15,4.84.7,12.23,5.78,10.74,2.75-.82,7.32-3.08,10.65-9.44l11.79-20.39c1.31-2.28,1.59-7,1.44-9.55-.17-3-1.37-5.59-3.41-6.91l-1.65-1.07C53.37,234.17,44.31,244.48,38.88,252.86Z"/><path class="cls-21" d="M30,279.32c-2.26-3.87-.68-10.24,6.86-14.84,8-4.86,22.06-7.87,22.06-7.87l1,9.61a37,37,0,0,0-10.64,8.4C41,283.85,31.83,282.64,30,279.32Z"/><path class="cls-14" d="M60.83,250.45a21.67,21.67,0,0,0,2.57-2.18c.33-1.8.86-5.25.54-7.16a2.52,2.52,0,0,0-2.09-2s-2,5-3.45,8.55a8,8,0,0,1-.61,1.2A6.4,6.4,0,0,1,60.83,250.45Z"/><path class="cls-21" d="M73.29,242.49c-.16-1.12-5.74-2-11.87.59a5.88,5.88,0,0,0-1.82,1.37,2.32,2.32,0,0,0-.21.26,5.87,5.87,0,0,0-1,1.9,55.45,55.45,0,0,0-2,6.47c-1.1,3.31-.65,5.74-.56,7.85.22,5.73,4,5.29,4,5.29,3.14.33,3.41-6.15,3.8-7.32l.21-.77c1.15,0,6.33.36,5.84-1.33s-5-2.68-5-2.62,7.39.49,7.21-1.05-5-3-6.91-3c2.35-.29,7.74,0,7.11-1.78s-6.53-2.13-8.2-1.72C65.66,246.12,73.52,244.14,73.29,242.49Z"/><path class="cls-17" d="M114.17,284.59c3.15-2.61,3.78-8.56-1.25-14.86-5.32-6.66-16.44-13.63-16.44-13.63l-2.39,7.16a51.77,51.77,0,0,1,5.74,10.82C104,284.56,111.55,286.86,114.17,284.59Z"/><path class="cls-14" d="M97,249.21a21.85,21.85,0,0,1-2.27-2.5c-.09-1.82-.17-5.32.4-7.16a2.52,2.52,0,0,1,2.34-1.76s1.35,5.2,2.3,8.93C99.87,247.17,97.9,248.5,97,249.21Z"/><path class="cls-17" d="M85,239.3c.28-1.1,5.92-1.36,11.75,1.81a6,6,0,0,1,1.67,1.55,1.46,1.46,0,0,1,.18.29,5.48,5.48,0,0,1,.75,2,55.36,55.36,0,0,1,1.35,6.65c.74,3.41,0,5.77-.26,7.86-.81,5.69-4.56,4.85-4.56,4.85-3.15,0-2.75-6.47-3-7.68l-.13-.78c-1.15-.12-6.33-.31-5.67-1.93s5.23-2.15,5.2-2.09-7.41-.29-7.07-1.8,5.3-2.47,7.19-2.29c-2.31-.53-7.7-.83-6.89-2.5s6.72-1.44,8.34-.86C92.19,243.69,84.58,240.91,85,239.3Z"/><path class="cls-22" d="M95.29,359.17H95a2.76,2.76,0,0,1-2.75-2.76V309.19a5.85,5.85,0,0,0-5.85-5.85H73.91v2.87H86.43a3,3,0,0,1,3,3v47.22A5.62,5.62,0,0,0,95,362h.26Z"/><path class="cls-8" d="M79.13,310.92H44.3A3.78,3.78,0,0,1,40.66,307V289a4.82,4.82,0,0,1,4.64-5H73.21a4.73,4.73,0,0,1,4.54,3.93l4,19.57A2.77,2.77,0,0,1,79.13,310.92Z"/><path class="cls-5" d="M46.05,291a26,26,0,0,0-5.39.58V307a3.78,3.78,0,0,0,3.64,3.91H73.63C68.22,299,57.9,291,46.05,291Z"/><path class="cls-7" d="M46.05,291c17.45,0,31.59,17.45,31.59,39s-14.14,39-31.59,39-31.58-17.44-31.58-39,14.14-39,31.58-39m0-4.09c-9.69,0-18.76,4.59-25.52,12.92a49.76,49.76,0,0,0,0,60.26C27.29,368.38,36.36,373,46.05,373s18.76-4.59,25.52-12.92a49.72,49.72,0,0,0,0-60.26c-6.76-8.33-15.82-12.92-25.52-12.92Z"/><path class="cls-22" d="M40.87,364.47c-15.65,0-28.39-15.5-28.39-34.55s12.74-34.55,28.39-34.55,28.39,15.5,28.39,34.55S56.53,364.47,40.87,364.47Zm0-65.13c-13.46,0-24.42,13.72-24.42,30.58s11,30.58,24.42,30.58S65.3,346.78,65.3,329.92,54.34,299.34,40.87,299.34Z"/><ellipse class="cls-8" cx="92.49" cy="361.95" rx="6.34" ry="8.33"/><path class="cls-6" d="M92.49,355c3.1,0,5.61,3.1,5.61,6.92s-2.51,6.93-5.61,6.93-5.62-3.1-5.62-6.93S89.39,355,92.49,355m0-4.1c-5.36,0-9.71,4.95-9.71,11s4.35,11,9.71,11,9.71-4.94,9.71-11-4.36-11-9.71-11Z"/><path class="cls-23" d="M62.18,208.9a12.06,12.06,0,0,1-1.47,2c0,.77,0,1.51.07,2.22a3.31,3.31,0,0,0,3.38,3h35.3a3.31,3.31,0,0,0,3.39-3.21v0a75.65,75.65,0,0,0,3.82-13.26c3.38-.06,5.86-.11,5.87-.17s-.49-9.65-5.47-12.18h9.22c0-9.15-7.78-16.56-17.39-16.56H93.75L98.48,168S72,156.8,57.42,177.38a32.17,32.17,0,0,0-4.44,7c-1.73,3.6-.37,11.92,2.2,19.05A8.63,8.63,0,0,0,62.18,208.9Z"/><path class="cls-9" d="M96.81,207.08c-2.2,4.21-1.28,9,2.06,10.78s7.83-.25,10-4.46,1.27-9-2.06-10.78S99,202.87,96.81,207.08Z"/><path class="cls-24" d="M98.74,215.12c0-.18,0-.32.06-.49,0,.12,0,.22,0,.3a6.1,6.1,0,0,1,.37-2.11,10.21,10.21,0,0,1,8.4-7.84,21.86,21.86,0,0,0-6.79,6.15c2.4-1,6.1,1.09,6.1,1.09-4.39-1.17-6.39-.2-7.31.91A10.14,10.14,0,0,0,98.74,215.12Z"/><path class="cls-9" d="M66.38,207c2.13,4.07,1.24,8.75-2,10.44s-7.58-.25-9.71-4.32-1.24-8.75,2-10.44S64.25,202.89,66.38,207Z"/><path class="cls-24" d="M64.51,214.74c0-.17,0-.31-.06-.47,0,.12,0,.21,0,.29a6,6,0,0,0-.35-2A9.88,9.88,0,0,0,56,204.93a21.19,21.19,0,0,1,6.56,5.95c-2.31-.95-5.9,1.05-5.9,1.05,4.25-1.12,6.19-.19,7.08.89A9.63,9.63,0,0,1,64.51,214.74Z"/><path class="cls-17" d="M96.5,185a23.43,23.43,0,0,1,1.75,7.25s-7-3-9.47-3.56a20.64,20.64,0,0,0-7.33-.27,23.54,23.54,0,0,0-13.23,6.18c-.56.53-.94,1-.94,1.17,1.18,9.74-3.9,15.11-3.9,15.11,0,16.09,8.91,20,19.95,20.06,20.17,0,20.17-6.23,20.17-20.06V195.07A10.76,10.76,0,0,0,96.5,185Z"/><path class="cls-25" d="M103.5,195.88v-.81a10.65,10.65,0,0,0-1.78-5.9,32.88,32.88,0,0,0-4.27-1.42,22.59,22.59,0,0,1,.8,4.5s-7-3-9.47-3.56a20.64,20.64,0,0,0-7.33-.27,23.54,23.54,0,0,0-13.23,6.18c-.56.53-.94,1-.94,1.17.08.62.12,1.23.15,1.82C75.68,195.49,90.8,192.65,103.5,195.88Z"/><path d="M98.25,205.51c0,1.45-.49,2.62-1.09,2.62s-1.1-1.17-1.1-2.62.49-2.62,1.1-2.62S98.25,204.06,98.25,205.51Z"/><path class="cls-23" d="M102.56,202.66a79.56,79.56,0,0,0-9.22-3.89s.42-3.44,4.75-1.6C101.15,198.47,102.56,202.66,102.56,202.66Z"/><path d="M80.53,205.51c0,1.45.49,2.62,1.09,2.62s1.1-1.17,1.1-2.62-.49-2.62-1.1-2.62S80.53,204.06,80.53,205.51Z"/><path class="cls-23" d="M74.4,204.33a90.88,90.88,0,0,1,10.77-5.5s-1.1-3.54-5.41-1.66S74.4,204.33,74.4,204.33Z"/><path class="cls-14" d="M94.06,211.67c0,1-1.18,1.88-2.64,1.88s-2.64-.85-2.64-1.88c0-1.72.63-7.81,2.09-7.81S94.06,210.17,94.06,211.67Z"/><path class="cls-14" d="M90.43,218.71a5.54,5.54,0,0,0,.73,0,.47.47,0,0,0,.43-.52.48.48,0,0,0-.53-.44c-.21,0-5.12.44-5.93-3.39a.49.49,0,1,0-.95.2C84.88,217.86,88.24,218.71,90.43,218.71Z"/><path class="cls-14" d="M79,214.42a.5.5,0,0,1-.21,0,.48.48,0,0,1-.23-.65l1.53-3.17a.48.48,0,0,1,.65-.22A.47.47,0,0,1,81,211l-1.53,3.17A.47.47,0,0,1,79,214.42Z"/><path class="cls-14" d="M75.94,214.42a.54.54,0,0,1-.22,0,.48.48,0,0,1-.22-.65L77,210.55a.48.48,0,0,1,.65-.22.47.47,0,0,1,.22.64l-1.53,3.17A.47.47,0,0,1,75.94,214.42Z"/><path class="cls-14" d="M98.85,214.42a.49.49,0,0,1-.44-.28L96.88,211a.49.49,0,0,1,.88-.42l1.53,3.17a.5.5,0,0,1-.23.65A.54.54,0,0,1,98.85,214.42Z"/><path class="cls-14" d="M101.91,214.42a.49.49,0,0,1-.44-.28L99.94,211a.49.49,0,0,1,.88-.42l1.53,3.17a.49.49,0,0,1-.23.65A.54.54,0,0,1,101.91,214.42Z"/><path class="cls-23" d="M61,191.73c-3.54,14,2.42,19.15,2.42,19.15s5.08-5.37,3.9-15.11c0-.21.38-.64.94-1.17a23.54,23.54,0,0,1,13.23-6.18,20.64,20.64,0,0,1,7.33.27c2.46.59,9.47,3.56,9.47,3.56a22.63,22.63,0,0,0-4-11.19C71.14,177.72,61,191.73,61,191.73Z"/><path class="cls-26" d="M232.88,233.15a124.12,124.12,0,0,1,12.22,18.53,9,9,0,0,1-7.95,3.27,10.42,10.42,0,0,1-2.52-.6,14,14,0,0,1-6.46-4.89l-13-17.55a11.07,11.07,0,0,1-2.28-6.23,8.27,8.27,0,0,1,2.5-6.57l-.34-2.5C217.4,217.47,227.39,226.57,232.88,233.15Z"/><path class="cls-26" d="M172.06,233.77C168,239.25,165.85,244,163.74,248c-2.2,4.15-.13,10.88,4.46,9.87,2.49-.55,5.47-2.77,8.82-8.19l12.63-18.79a12,12,0,0,0,2.15-6.44,7.69,7.69,0,0,0-2.6-6.33L187.8,217C186.21,217,177.39,226.67,172.06,233.77Z"/><path class="cls-27" d="M167.42,240.94c-1.43,2.54-2.55,4.88-3.68,7-2.2,4.15-.13,10.88,4.46,9.87,2.49-.55,5.47-2.77,8.82-8.19l.66-1C173.74,245.74,170.2,243.08,167.42,240.94Z"/><path class="cls-26" d="M222.81,294.76h0c.51-3.43,2.1-16.07-2.48-27.31H186.28a8.62,8.62,0,0,1-3.38,1.6s-2.58,20.78-4.74,46.76l13.7.08,3.6-4.5,1.88-7.79,3.46-11.53a11.9,11.9,0,0,0,2.56.05c.27.79.61,2,1,3.51.07,7.57,3,19.28,4.71,27.36,0,0,4.08,19.06,6.67,39.81.25,2,8.82-1.51,8.82-1.51.89-8.13,1.2-27.08-2.48-37.34C222.93,320.31,222.76,295.29,222.81,294.76Z"/><path class="cls-28" d="M204.34,295.63c0,.9.07,1.9.17,3a30.31,30.31,0,0,0,18.28.9c0-2.73,0-4.6,0-4.74Z"/><path class="cls-29" d="M212.24,327.6a5.18,5.18,0,0,0,3.11.18,16,16,0,0,0,3.85-1.37s-1.74,5.27-4.64,5.07C212.88,331.36,212.24,327.6,212.24,327.6Z"/><path class="cls-28" d="M179.66,299.11c10,3.72,16.22,1.29,19.24-.69.53-1.77,1-3.49,1.53-5.11l-1-5.15L190.38,284l-9.91,7C180.21,293.53,179.93,296.25,179.66,299.11Z"/><path class="cls-4" d="M213.28,345.92c.85,5.22,1.7,11,2.44,16.88.25,2,8.82-1.51,8.82-1.51a129.53,129.53,0,0,0,.55-15.37Z"/><path class="cls-30" d="M214.75,355.53c.33,2.38.66,4.81,1,7.27.25,2,8.82-1.51,8.82-1.51.17-1.56.32-3.53.42-5.76Z"/><path class="cls-19" d="M213.24,364.15c.12-.51.67-2.09.76-2.39s.06-.79.14-1.17a1.58,1.58,0,0,1,.58-.92.92.92,0,0,1,.59-.22,1,1,0,0,1,.62.36l.19-.65a3.32,3.32,0,0,1,3.21-2.36,3.73,3.73,0,0,1,3.35,2.17l.5,1.09h0c.25-.41.56-.74.88-.75a1,1,0,0,1,.61.21,1.84,1.84,0,0,1,.66.92c.12.38.11.78.25,1.15a9.58,9.58,0,0,1,3.13,6.67c.23,4.88-3.42,4.7-7.92,4.7s-8.12.18-8.35-4.7A9,9,0,0,1,213.24,364.15Z"/><path class="cls-4" d="M212.48,368.27c0-.75,1.13-5.47,7.88-5.47a9.87,9.87,0,0,1,8.35,5.06c0,.14,0,.28,0,.41.23,4.88-3.42,4.7-7.92,4.7S212.71,373.15,212.48,368.27Z"/><path class="cls-19" d="M195.12,267.44c-5.22.74-11.8,1.56-12.22,1.61a175,175,0,0,0-3,27.31h.1c11.25,3,17.91.36,19.63-.49.4-1.32.78-2.59,1.14-3.8a11.9,11.9,0,0,0,2.56.05c.27.79.61,2,1,3.51,2.89,1.52,8.63,3.19,18.33.73v-.69c-.07,0,2.91-14.58-2.08-27.58l-10.94-1A62,62,0,0,0,195.12,267.44Z"/><path class="cls-31" d="M182.26,272.6c6.63,2.27,20.91,5.54,40,.83A33.45,33.45,0,0,0,215,258.74c-4.67,0-10.27,0-15.45-.05l-1.79.64,0,.6c-5.62,2.05-11.62,8.75-14.9,9.12C182.9,269,182.63,270.34,182.26,272.6Z"/><path class="cls-32" d="M182.9,269.05a77.24,77.24,0,0,0,19.17,2.4c11.24,0,18.55-3.29,18.55-3.29l-3.12-12.55a17.3,17.3,0,0,1,1-12.39l.16-.31a15.24,15.24,0,0,0,1.36-8.54l-1.79-13.68a4.33,4.33,0,0,0-2.81-3.86c-3.8-1.44-10.64-3.85-13.63-3.85s-9.83,2.41-13.63,3.85a4.36,4.36,0,0,0-2.81,3.86l-1.79,13.67a15.17,15.17,0,0,0,1.38,8.55l.14.31a17.22,17.22,0,0,1,1,12.4Z"/><path class="cls-33" d="M218.48,243.22l.16-.31a15.24,15.24,0,0,0,1.36-8.54l-1.79-13.68a4.33,4.33,0,0,0-2.81-3.86c-3.8-1.44-10.64-3.85-13.63-3.85s-9.83,2.41-13.63,3.85a4.36,4.36,0,0,0-2.81,3.86l-1.79,13.67a15.17,15.17,0,0,0,1.38,8.55l.14.31a17.21,17.21,0,0,1,1.22,11.49c5.81,1.94,15.63,3.4,31.21.89A17.33,17.33,0,0,1,218.48,243.22Z"/><path class="cls-33" d="M203.35,260.63c0,1.11-.41,2-.92,2s-.92-.9-.92-2,.41-2,.92-2S203.35,259.52,203.35,260.63Z"/><path class="cls-12" d="M220,234.37l-1.79-13.68a4.33,4.33,0,0,0-2.81-3.86c-3.8-1.44-10.64-3.85-13.63-3.85s-9.83,2.41-13.63,3.85a4.36,4.36,0,0,0-2.81,3.86l-1.79,13.67a15.17,15.17,0,0,0,1.38,8.55l.14.31a17.33,17.33,0,0,1,1.7,7.89v-.06c4.84,2,14.08,4,30.1,1.14a17.31,17.31,0,0,1,1.62-9l.16-.31A15.24,15.24,0,0,0,220,234.37Z"/><path class="cls-19" d="M188.14,216.83a4.5,4.5,0,0,0-1.85,1.6,4.27,4.27,0,0,0-.7,2.28h0v0c-.28,3-.66,6-1.08,9-.21,1.5-.44,3-.7,4.49a17.8,17.8,0,0,0-.19,4.5,13.44,13.44,0,0,1-.28-4.56c.14-1.51.3-3,.48-4.52.36-3,.77-6,1.27-9v0a4.54,4.54,0,0,1,.95-2.43A4.3,4.3,0,0,1,188.14,216.83Z"/><path class="cls-19" d="M220,238.4a18.56,18.56,0,0,0-.27-4.41c-.26-1.47-.48-2.93-.7-4.41-.41-2.94-.78-5.89-1.06-8.85v0h0a4.3,4.3,0,0,0-.7-2.27,4.49,4.49,0,0,0-1.86-1.61,4.21,4.21,0,0,1,2.11,1.42,4.44,4.44,0,0,1,1,2.43v0c.49,2.94.89,5.88,1.25,8.83.17,1.48.33,3,.46,4.44A13.67,13.67,0,0,1,220,238.4Z"/><path class="cls-34" d="M202.16,247a23.42,23.42,0,0,1-18.66-9.15,14.94,14.94,0,0,0,1.42,5.09l.14.31a17.33,17.33,0,0,1,1.7,7.89v-.06c4.84,2,14.08,4,30.1,1.14a17.31,17.31,0,0,1,1.62-9l.16-.31A15.42,15.42,0,0,0,219.9,239,23.51,23.51,0,0,1,202.16,247Z"/><path class="cls-19" d="M185.23,221.46l-1,7.68c9.62,8.23,21.27,15.29,32.58,21.05a17.21,17.21,0,0,1,1.06-5.52A205.3,205.3,0,0,1,185.23,221.46Z"/><path class="cls-32" d="M208.37,203.28H196.49l-.61,10.9c-1.32.39-2.68.84-4,1.28v6.75a9.87,9.87,0,0,0,9.86,9.86h0a9.87,9.87,0,0,0,9.87-9.86v-6.75c-.86-.29-1.75-.59-2.64-.87Z"/><path class="cls-19" d="M201.77,232.43a10.23,10.23,0,0,1-10.22-10.22v-6.75a.36.36,0,0,1,.36-.36.37.37,0,0,1,.37.36v6.75a9.5,9.5,0,0,0,19,0v-6.75a.37.37,0,0,1,.73,0v6.75A10.23,10.23,0,0,1,201.77,232.43Z"/><path class="cls-33" d="M196.49,203.28l-.51,9.07a23.56,23.56,0,0,0,12.9,0l-.51-9.07Z"/><path class="cls-27" d="M216.39,244.72a114.46,114.46,0,0,1-28.77,0q1.22-9.65,2.44-19.28a95.5,95.5,0,0,0,23.89,0Q215.17,235.09,216.39,244.72Z"/><text class="cls-35" transform="translate(192.9 240.51)">84</text><rect class="cls-36" x="178.29" y="327.07" width="13.23" height="3.6" transform="matrix(0.13, -0.99, 0.99, 0.13, -164.53, 471.15)"/><polygon class="cls-36" points="185.95 341.84 182.35 357.13 180.07 357.13 180.08 341.84 185.95 341.84"/><path class="cls-37" d="M183,348.56h-.76a3.33,3.33,0,0,1-3.39-3.63l.88-13.2a3.19,3.19,0,0,1,3.11-2.91h4.31c1.83,0,2.36,3.5,2.36,3.5l.72,3a6.38,6.38,0,0,1-.43,4.15l-3,6.59A4.29,4.29,0,0,1,183,348.56Z"/><path class="cls-38" d="M182.82,328.82h4.31c.92,0,1.5.87,1.86,1.74a10.25,10.25,0,0,1-3.81.73h0a10.21,10.21,0,0,1-4.83-1.22A3.17,3.17,0,0,1,182.82,328.82Z"/><path class="cls-39" d="M183.64,346.35a.82.82,0,1,0,.82-.82A.82.82,0,0,0,183.64,346.35Z"/><path class="cls-37" d="M177.86,319.17,179.29,303a24.62,24.62,0,0,0,18.12.41c-1.09,5-4.75,18.69-4.75,18.69a7.59,7.59,0,0,1-14.8-2.91Z"/><path class="cls-19" d="M181.09,351.59l-1.46-.06a2.57,2.57,0,0,0-2.67,2.62,14.06,14.06,0,0,1-.41,4s-11-4.12-16.47,4c-1.32,1.94-2,5.4-1.62,8.64,0,0,.63,1.36,8,.63a34.44,34.44,0,0,0,17.79-7.11l.78-8.25A4.13,4.13,0,0,0,181.09,351.59Z"/><path class="cls-4" d="M181.22,357.92c0,1.32.48,2.38,1.07,2.38s1.07-1.06,1.07-2.38-.48-2.37-1.07-2.37S181.22,356.61,181.22,357.92Z"/><path class="cls-4" d="M158.37,369.51c0-.56,0-1.12,0-1.67l0-.5c0-.19.05-.38.08-.57s.05-.36.08-.53.06-.35.1-.52.08-.37.12-.54.08-.31.13-.46.11-.37.17-.55l.14-.39.24-.56c.05-.09.09-.19.13-.28a6.73,6.73,0,0,1,.44-.75.76.76,0,0,1,.08-.11,5.44,5.44,0,0,1,7.85-1,12,12,0,0,1,4.09,6.12,83.4,83.4,0,0,0,12.28-4.52l-.15,1.63a34,34,0,0,1-16.3,6.93h0l-.19,0c-.44.06-.87.12-1.28.16-7.35.73-8-.63-8-.63q-.08-.65-.09-1.32Z"/><path class="cls-14" d="M238.93,188a.76.76,0,0,0-.08-.11,12.35,12.35,0,0,1-2.69-8.19c.38-9.06-2.81-24.42-20.41-32.8a16.31,16.31,0,0,0-4.88-1.57c-.29-.12-.58-.24-.88-.34a21.86,21.86,0,0,0-3.12-.89,22.26,22.26,0,0,0-4.43-.45h0a10.34,10.34,0,0,0-2.35.28c-9.1,2.11-9.43,9-9.43,9C176,154.29,172,170.6,172.34,179.66a12.35,12.35,0,0,1-2.69,8.19l-.08.11c-2.83,3.53-5.57,8-5.07,14.41H244C244.51,196,241.76,191.49,238.93,188Z"/><path class="cls-33" d="M186.51,184.31c2.15,4.13,1.25,8.87-2,10.58s-7.67-.25-9.83-4.38-1.26-8.86,2-10.57S184.35,180.18,186.51,184.31Z"/><path class="cls-40" d="M184.61,192.2c0-.17,0-.32-.06-.48,0,.12,0,.22,0,.29a6.1,6.1,0,0,0-.36-2.06,10,10,0,0,0-8.24-7.7,21.73,21.73,0,0,1,6.66,6c-2.35-.95-6,1.07-6,1.07,4.31-1.14,6.27-.19,7.17.9A9.66,9.66,0,0,1,184.61,192.2Z"/><path class="cls-33" d="M219.62,184.31c-2.16,4.13-1.25,8.87,2,10.58s7.68-.25,9.84-4.38,1.25-8.86-2-10.57S221.78,180.18,219.62,184.31Z"/><path class="cls-40" d="M221.51,192.2c0-.17.05-.32.07-.48a2.53,2.53,0,0,0-.05.29,6.12,6.12,0,0,1,.35-2.06,10,10,0,0,1,8.24-7.7,21.67,21.67,0,0,0-6.65,6c2.35-.95,6,1.07,6,1.07-4.31-1.14-6.27-.19-7.17.9A10.21,10.21,0,0,0,221.51,192.2Z"/><path class="cls-26" d="M197.11,160.83a13.83,13.83,0,0,0-13.84,13.69l-.13,13.19c0,12.06,9,21.84,20,21.84s20-9.78,20-21.84l-.07-26.88Z"/><path class="cls-33" d="M206,188a2.91,2.91,0,1,1-5.72,0c0-1.89,1.28-4.26,2.86-4.26S206,186.14,206,188Z"/><path class="cls-41" d="M213.44,182c0,1.57-.53,2.84-1.19,2.84s-1.19-1.27-1.19-2.84.53-2.84,1.19-2.84S213.44,180.38,213.44,182Z"/><path class="cls-14" d="M217.84,178.84c.15-.09-6.42-4.25-10.48-4.1-.05.07.08-3.62,5.46-1.69C218,175.2,217.79,178.9,217.84,178.84Z"/><path class="cls-41" d="M192.84,182c0,1.57.54,2.84,1.19,2.84s1.19-1.27,1.19-2.84-.53-2.84-1.19-2.84S192.84,180.38,192.84,182Z"/><path class="cls-14" d="M187.84,178.84c-.15-.09,6.42-4.25,10.49-4.1,0,.07-.09-3.62-5.47-1.69C187.64,175.2,187.89,178.9,187.84,178.84Z"/><path class="cls-33" d="M191.19,191.6a.46.46,0,0,1-.23-.06.53.53,0,0,1-.25-.7l1.66-3.43a.53.53,0,0,1,.95.46l-1.66,3.43A.52.52,0,0,1,191.19,191.6Z"/><path class="cls-33" d="M187.87,191.6a.53.53,0,0,1-.23-.06.52.52,0,0,1-.24-.7l1.66-3.43a.52.52,0,1,1,.94.46l-1.65,3.43A.54.54,0,0,1,187.87,191.6Z"/><path class="cls-33" d="M214.78,191.6a.51.51,0,0,1-.47-.3l-1.66-3.43a.52.52,0,0,1,.24-.7.53.53,0,0,1,.71.24l1.65,3.43a.52.52,0,0,1-.24.7A.49.49,0,0,1,214.78,191.6Z"/><path class="cls-33" d="M218.1,191.6a.53.53,0,0,1-.48-.3L216,187.87a.53.53,0,0,1,.25-.7.52.52,0,0,1,.7.24l1.66,3.43a.53.53,0,0,1-.25.7A.46.46,0,0,1,218.1,191.6Z"/><path class="cls-33" d="M198.44,195.42c-.25-.17-.48-.34-.69-.5a.56.56,0,0,1-.08-.79.57.57,0,0,1,.79-.09c.19.15,4.7,3.68,7.92.47a.56.56,0,0,1,.79,0,.57.57,0,0,1,0,.8C204.36,198.11,200.56,196.8,198.44,195.42Z"/><path class="cls-14" d="M238.93,188a.76.76,0,0,0-.08-.11,12.35,12.35,0,0,1-2.69-8.19,33.74,33.74,0,0,0-16.92-30.93v.06l-.83-.51c-4.08-2.34-8.52-4.2-12.62-4.41l5.27,17a22.78,22.78,0,0,0,4.59,9.12,10.82,10.82,0,0,1,1.78,10.36,6.07,6.07,0,0,1-.24.59,15.22,15.22,0,0,0-.49,9.47,44.76,44.76,0,0,1,1.49,11v1H244C244.51,196,241.76,191.49,238.93,188Z"/><path class="cls-33" d="M219.07,265.09a14,14,0,0,1-2.32-.12,18.37,18.37,0,0,1-3.28-3.69,1.73,1.73,0,0,1,.3-2l5.45,3.25a5.74,5.74,0,0,0,.83.4A4.35,4.35,0,0,0,219.07,265.09Z"/><path class="cls-26" d="M219,262.25h0a4.62,4.62,0,0,0-4.41-.47c-4.89,2.33-6,6.09-5.41,6.8.88,1,4.94-2.57,6.15-3.31-1.15.79-3.6,3.91-2.94,5.24s3-1.4,4.47-2.67c-1,1.16-2.32,4.09-1.44,5.17s4.06-3.19,4.08-3.14-2.39,3.8-1.6,5.11,2.78-1.74,3.41-2.44l.58.29a3.86,3.86,0,0,0,5.09-1.52l1.33-2.32Z"/><path class="cls-26" d="M245.1,251.68A39.22,39.22,0,0,1,227,271.32l-4.82-4.17s2.65-5,5.62-10.22c1.85-3.26,5.46-7.71,9.2-8A11.1,11.1,0,0,1,245.1,251.68Z"/><path class="cls-42" d="M357.47,368a4.71,4.71,0,0,1-2.64-.75,19.76,19.76,0,0,0-2.1-1.51c-3.14-2.12-11.1-7.46-12.18-12.6l-.13-.33-8.5,1.83.27.34c.18.25.47.66.69,1-.48.78-1,1.52-1,1.52a13.65,13.65,0,0,0-1.07,1.86c-1.4,3-1.13,5.51.77,7.09a6.24,6.24,0,0,0,5.69,1.32,9.44,9.44,0,0,1,4.41.16,42.84,42.84,0,0,1,5.49,2.35c3.26,1.56,6.36,3,8.57,2.7,2.68-.42,4.14-.83,4.66-1.93a2.22,2.22,0,0,0,.09-1.46C360.18,368.21,358.74,368.07,357.47,368Z"/><path class="cls-43" d="M346.49,361.06c-2.76-2.36-5.35-5.19-5.94-8l-.13-.33-8.5,1.83.27.34c.18.25.47.66.69,1-.48.78-1,1.52-1,1.52a13.65,13.65,0,0,0-1.07,1.86,9.71,9.71,0,0,0-.71,2.06A27.71,27.71,0,0,0,346.49,361.06Z"/><path class="cls-42" d="M275.3,368a4.74,4.74,0,0,0,2.65-.75,20.47,20.47,0,0,1,2.09-1.51c3.14-2.12,11.1-7.46,12.19-12.6l.12-.33,8.51,1.83-.27.34c-.19.25-.48.66-.69,1,.47.78,1,1.52,1,1.52A11.72,11.72,0,0,1,302,359.3c1.41,3,1.14,5.51-.77,7.09-2.18,1.82-4,1.57-5.68,1.32a9.44,9.44,0,0,0-4.41.16,41.67,41.67,0,0,0-5.49,2.35c-3.27,1.56-6.37,3-8.58,2.7-2.68-.42-4.14-.83-4.65-1.93a2.16,2.16,0,0,1-.1-1.46C272.6,368.21,274,368.07,275.3,368Z"/><path class="cls-43" d="M300.86,354.59l-8.51-1.83-.12.33c-.6,2.81-3.25,5.68-6,8.05a34.68,34.68,0,0,0,16.36-.26,10.25,10.25,0,0,0-.59-1.58,11.72,11.72,0,0,0-1.07-1.86s-.52-.74-1-1.52c.21-.33.5-.74.69-1Z"/><path class="cls-44" d="M335,292.67V281.81H293.1v10.86l-11.43,64.06s12.53,6.48,23.39,0l7.34-43.8a1.62,1.62,0,0,1,1.63-1.35,1.64,1.64,0,0,1,1.64,1.35l9.69,44.45a31,31,0,0,0,23.4,0Z"/><path class="cls-45" d="M336,298.33l-1-5.66V281.81H293.1v10.86l-.84,5.66s11.59,1.27,20.73,1.27C323.68,299.6,336,298.33,336,298.33Z"/><path class="cls-46" d="M343.14,331l-1.61-7.56h-9.25a8.88,8.88,0,0,0,8.81,7.8A9.2,9.2,0,0,0,343.14,331Z"/><path class="cls-46" d="M286.23,331.17a8.81,8.81,0,0,0,10.08-7.7H287.6Z"/><path class="cls-44" d="M351.9,241.84A198.89,198.89,0,0,1,366,262.46s-6.52,7.73-12.42,7.1a13.71,13.71,0,0,1-2.91-.67,16.11,16.11,0,0,1-7.46-5.45l-16.14-17.62c-1.55-2-1.48-6.31-1.55-8.82-.09-2.92,7.05-11.55,7.05-11.55C335.35,226.4,345.19,233.52,351.9,241.84Z"/><path class="cls-44" d="M277.48,240.72a198.89,198.89,0,0,0-14.11,20.62s6.52,7.73,12.42,7.1a13.26,13.26,0,0,0,2.91-.67,16.12,16.12,0,0,0,7.45-5.44l16.14-17.63c1.56-2,1.48-6.31,1.56-8.82.09-2.92-7.05-11.55-7.05-11.55C294,225.29,284.19,232.4,277.48,240.72Z"/><path class="cls-47" d="M287.36,291.82h54.17l-3.21-17.55L345,237.44a4.28,4.28,0,0,0-1.49-4.54l-6.67-5.32A30.46,30.46,0,0,0,317.91,221h-7.24a30.4,30.4,0,0,0-19.34,6.9l-6,5a4.27,4.27,0,0,0-1.43,4.49l6.71,36.88Z"/><circle class="cls-48" cx="331.94" cy="245.6" r="6.51" transform="translate(-78.91 286.91) rotate(-42.24)"/><path class="cls-49" d="M332,251.13v-.72a5.31,5.31,0,0,0,.68,0l.1.71A5.12,5.12,0,0,1,332,251.13Zm-.79,0a6.6,6.6,0,0,1-.77-.17l.2-.69a5.32,5.32,0,0,0,.67.14Zm2.34-.18-.2-.69A4.93,4.93,0,0,0,334,250l.3.66A4.66,4.66,0,0,1,333.51,250.9Zm-3.85-.26a5.76,5.76,0,0,1-.69-.38l.39-.61a3.51,3.51,0,0,0,.6.33Zm5.28-.39-.39-.61a5.23,5.23,0,0,0,.55-.41l.47.54A4.77,4.77,0,0,1,334.94,250.25Zm-6.6-.46a4.86,4.86,0,0,1-.56-.55l.54-.48a4.45,4.45,0,0,0,.49.48Zm7.79-.58-.55-.47a4.36,4.36,0,0,0,.41-.55l.61.39A4.91,4.91,0,0,1,336.13,249.21Zm-8.83-.6a5.76,5.76,0,0,1-.38-.69l.65-.3a5,5,0,0,0,.34.59Zm9.68-.72-.66-.3a4.93,4.93,0,0,0,.24-.64l.69.2A5.05,5.05,0,0,1,337,247.89Zm-10.34-.71a5,5,0,0,1-.17-.77l.71-.1c0,.22.09.45.15.67Zm10.78-.8-.72-.1a4,4,0,0,0,.05-.68l.5,0,.23,0A5.19,5.19,0,0,1,337.42,246.38Zm-11-.75v0a6.33,6.33,0,0,1,0-.76l.72.1a4.89,4.89,0,0,0-.05.66Zm10.29-.77a5,5,0,0,0-.16-.67l.7-.21a6.6,6.6,0,0,1,.17.77Zm-9.38-.59-.7-.2a6.55,6.55,0,0,1,.27-.74l.66.3A4.41,4.41,0,0,0,327.32,244.27Zm9-.72a4.42,4.42,0,0,0-.34-.6l.6-.4a5.28,5.28,0,0,1,.39.69Zm-8.42-.53-.61-.38a5,5,0,0,1,.46-.64l.55.47A4.29,4.29,0,0,0,327.88,243Zm7.67-.61c-.16-.17-.32-.33-.49-.48l.46-.55a5.9,5.9,0,0,1,.57.55Zm-6.78-.43-.48-.54a6,6,0,0,1,.62-.48l.4.61A4.26,4.26,0,0,0,328.77,242Zm5.73-.46a5,5,0,0,0-.6-.32l.29-.66a6.7,6.7,0,0,1,.7.37Zm-4.59-.28-.31-.66a5.1,5.1,0,0,1,.74-.28l.21.69A5,5,0,0,0,329.91,241.24Zm3.34-.27a3.62,3.62,0,0,0-.67-.14l.1-.72a6.57,6.57,0,0,1,.77.16Zm-2-.13-.11-.71a5.14,5.14,0,0,1,.78-.07v.73A5.06,5.06,0,0,0,331.22,240.84Z"/><path class="cls-50" d="M338.32,274.27l.77-4.23-14.94,1.65L319.08,245l17.45-17.61a30,30,0,0,0-4-2.62l-12.75,11.11L313,245l6.09,32.74,19.69-.94Z"/><path class="cls-51" d="M306.4,233l5.66,13.36L335,226.21a30.33,30.33,0,0,0-14.5-5.09Z"/><path class="cls-42" d="M324.26,221.68l-2.72-15.38H306.19l-2.68,15.57a36.61,36.61,0,0,0-4,1.26l14.39,14.22,16.61-13.62A31.18,31.18,0,0,0,324.26,221.68Z"/><path class="cls-43" d="M306.19,206.3l-2.58,14.57a55.33,55.33,0,0,0,10.75.91,59.71,59.71,0,0,0,9.79-.71l-2.61-14.77Z"/><path class="cls-47" d="M326.59,295.32l-11.75-55.56a6.15,6.15,0,0,0-1.66-3l-13.64-13.58-.2,0a31.23,31.23,0,0,0-8.69,5.07l-6.34,5.24a4.52,4.52,0,0,0-1.5,4.72l7.05,38.76-3.38,18.44Z"/><path class="cls-49" d="M314.79,239.54a5.4,5.4,0,0,0-1.45-2.67l-13.8-13.74-.2,0a31.71,31.71,0,0,0-6.82,3.64l13.78,12.58a5.38,5.38,0,0,1,1.63,2.85l11,53.16h7.65Z"/><path class="cls-52" d="M338.07,272.92a163.59,163.59,0,0,1-48.9.19l.69,3.77-.71,3.9a171.59,171.59,0,0,0,50.29-.39l-1.12-6.12.11-.58Z"/><path class="cls-53" d="M329.33,308.33l-8-26.14a5.67,5.67,0,0,0,1.17-3.44,6.06,6.06,0,0,0-12.11,0,5.66,5.66,0,0,0,.72,2.77L303,308.33h6.61L315,284.42a6.76,6.76,0,0,0,1.44.17,7.36,7.36,0,0,0,.82-.06l5.42,23.8Z"/><path class="cls-42" d="M294.61,192.06c2.58,4.77,1.5,10.24-2.43,12.22s-9.2-.29-11.79-5.06S278.89,189,282.82,187,292,187.29,294.61,192.06Z"/><path class="cls-43" d="M292.33,201.17c0-.2-.05-.37-.07-.55a3.09,3.09,0,0,1,.06.34,6.77,6.77,0,0,0-.43-2.39,11.9,11.9,0,0,0-9.87-8.89,25.57,25.57,0,0,1,8,7c-2.81-1.11-7.16,1.23-7.16,1.23,5.16-1.32,7.51-.23,8.59,1A10.57,10.57,0,0,1,292.33,201.17Z"/><path class="cls-42" d="M334.29,192.06c-2.59,4.77-1.5,10.24,2.42,12.22s9.21-.29,11.79-5.06S350,189,346.08,187,336.88,187.29,334.29,192.06Z"/><path class="cls-43" d="M336.56,201.17c0-.2.05-.37.08-.55a3.09,3.09,0,0,0-.06.34,6.79,6.79,0,0,1,.42-2.39,11.92,11.92,0,0,1,9.88-8.89,25.63,25.63,0,0,0-8,7c2.82-1.11,7.17,1.23,7.17,1.23-5.16-1.32-7.51-.23-8.59,1A11.05,11.05,0,0,0,336.56,201.17Z"/><path class="cls-54" d="M337.67,197.1A28.39,28.39,0,0,0,339.89,183h0a24.16,24.16,0,0,0-2.53-10.78h0l-.35-.67c-.06-.1-.11-.21-.17-.32s-.28-.48-.42-.73l-.12-.2c-.16-.26-.33-.53-.51-.79l-.05-.08c-.19-.29-.39-.57-.59-.84h0a26.28,26.28,0,0,0-21.29-10.66h0a26.87,26.87,0,0,0-9.87,1.87v-8.58a14.57,14.57,0,0,0-4.3,9L297,155.41c-1.13,4.83-.33,7,.9,7.81a25.34,25.34,0,0,0-6.42,7.08h0a24.91,24.91,0,0,0-1.71,3.38h0a24.29,24.29,0,0,0-1.84,9.27h0a30.47,30.47,0,0,0,3.47,14.14s3.41-5.24,2.38-14.14h39.63C333.3,191.86,337.67,197.1,337.67,197.1Z"/><path class="cls-55" d="M328.68,178.33a42.93,42.93,0,0,1-16.08-6.14l5.24,6.44S309.33,181,307,172.68l-.26,6.26s-5.76-.93-3.26-6.46a28.42,28.42,0,0,0-6.66,2.6,6.4,6.4,0,0,0-3.26,6.57c1.55,9.69-2.2,15.45-2.2,15.45,0,12.26.28,22.2,23,22.2,23,0,23-9.94,23-22.2v-.36a23.62,23.62,0,0,1-4-13.21A5.36,5.36,0,0,0,328.68,178.33Z"/><path class="cls-43" d="M311,198.3c0,1.42,1.53,2.58,3.42,2.58s3.42-1.16,3.42-2.58a3.44,3.44,0,0,0-6.84,0Z"/><path class="cls-43" d="M327.5,201a.69.69,0,0,0,.24-.05.52.52,0,0,0,.26-.72l-1.76-3.5a.56.56,0,0,0-.74-.25.52.52,0,0,0-.26.71l1.76,3.51A.55.55,0,0,0,327.5,201Z"/><path class="cls-43" d="M331,201a.74.74,0,0,0,.25-.05.53.53,0,0,0,.25-.72l-1.75-3.5a.57.57,0,0,0-.75-.25.53.53,0,0,0-.26.71l1.76,3.51A.57.57,0,0,0,331,201Z"/><path class="cls-43" d="M302.5,201a.57.57,0,0,0,.5-.3l1.76-3.51a.53.53,0,0,0-.26-.71.57.57,0,0,0-.75.25l-1.75,3.5a.52.52,0,0,0,.26.72A.64.64,0,0,0,302.5,201Z"/><path class="cls-43" d="M299,201a.57.57,0,0,0,.51-.3l1.75-3.51a.51.51,0,0,0-.26-.71.56.56,0,0,0-.74.25l-1.76,3.5a.53.53,0,0,0,.26.72A.69.69,0,0,0,299,201Z"/><path class="cls-54" d="M302.3,186.29s4.22-2.34,6.49-2.64c0,0-.7-3.27-3.72-2A4.78,4.78,0,0,0,302.3,186.29Z"/><path class="cls-56" d="M307.24,190.15c-1.06-.45-2.3-.39-2.36.22s1,1.46,1.9,1.84,1.51.23,1.72-.3S308.32,190.61,307.24,190.15Z"/><path class="cls-43" d="M304.06,191.36a3.51,3.51,0,0,0,4.72,1.6s-1.44,1.91-3.39,1.07A2.38,2.38,0,0,1,304.06,191.36Z"/><path class="cls-43" d="M304.88,188.9s3.54-.69,4.6,2.46C309.48,191.36,309.11,187.2,304.88,188.9Z"/><path class="cls-54" d="M326.26,186.29s-4.22-2.34-6.49-2.64c0,0,.7-3.27,3.72-2A4.8,4.8,0,0,1,326.26,186.29Z"/><path class="cls-56" d="M321.32,190.15c1.06-.45,2.3-.39,2.36.22s-1,1.46-1.9,1.84-1.52.23-1.73-.3S320.24,190.61,321.32,190.15Z"/><path class="cls-43" d="M324.5,191.36a3.51,3.51,0,0,1-4.72,1.6s1.44,1.91,3.39,1.07A2.38,2.38,0,0,0,324.5,191.36Z"/><path class="cls-43" d="M323.68,188.9s-3.54-.69-4.6,2.46C319.08,191.36,319.45,187.2,323.68,188.9Z"/><path class="cls-43" d="M313.76,205.64a11.55,11.55,0,0,1-7-2.76.77.77,0,0,1-.06-1.08.76.76,0,0,1,1.08-.06s3.36,3,7.2,2.26c5.77-1,8.14-3.29,8.16-3.32a.77.77,0,0,1,1.08,0,.76.76,0,0,1,0,1.08c-.11.11-2.68,2.6-9,3.74A8.69,8.69,0,0,1,313.76,205.64Z"/><path class="cls-57" d="M312.06,208.2s6-.13,7.94-1.39C320,206.81,317.82,212.29,312.06,208.2Z"/><path class="cls-44" d="M263.37,261.86s2.33,22.73,20.34,28.21l8.33-8.26a67.76,67.76,0,0,0-6-13.33c-2.49-4.25-6.73-9.82-11.77-10.19A15.49,15.49,0,0,0,263.37,261.86Z"/><path class="cls-43" d="M292.22,283.18a21.29,21.29,0,0,0,3.13.29,23.8,23.8,0,0,0,5.11-4.13,2.19,2.19,0,0,0,0-2.62l-7.93,3.13a7.81,7.81,0,0,1-1.2.36A5.45,5.45,0,0,1,292.22,283.18Z"/><path class="cls-42" d="M298.84,279.79a6.37,6.37,0,0,0-3.23-.86h0c-8.89-1.35-13.47,2.93-15.4,5.57a3.77,3.77,0,0,0-.46,3.65l.62,1.52a5.29,5.29,0,0,0,6.5,2.95l.82-.27c.71,1,2.83,5.22,4.07,3.8s-1.07-6.94-1.11-6.88,3.53,5.88,4.83,4.83c1.39-1.22.25-5.25-.9-6.94,1.7,1.91,4.21,5.89,5.44,4.3s-1.49-6.07-2.88-7.32c1.47,1.2,6.18,6.62,7.55,5.45C305.64,288.79,304.9,283.73,298.84,279.79Z"/><path class="cls-44" d="M366,263s-2.33,22.73-20.34,28.21l-8.52-6.89a62.55,62.55,0,0,1,5.93-14.7c2.5-4.25,6.93-9.82,12-10.19A15.44,15.44,0,0,1,366,263Z"/><path class="cls-43" d="M337.15,284.3a21,21,0,0,1-3.12.29,24.11,24.11,0,0,1-5.12-4.13,2.18,2.18,0,0,1,0-2.62l7.93,3.13a7.81,7.81,0,0,0,1.2.36A5.46,5.46,0,0,0,337.15,284.3Z"/><path class="cls-42" d="M330.54,280.91a6.35,6.35,0,0,1,3.23-.86h0c8.89-1.35,13.47,2.93,15.4,5.57a3.77,3.77,0,0,1,.45,3.65l-.62,1.52a5.26,5.26,0,0,1-6.49,2.94l-.83-.26c-.7,1-2.82,5.22-4.07,3.8s1.07-6.94,1.11-6.88-3.52,5.88-4.82,4.83c-1.39-1.22-.25-5.25.89-6.94-1.69,1.91-4.2,5.88-5.43,4.3s1.49-6.07,2.88-7.32c-1.47,1.2-6.18,6.62-7.56,5.45C323.74,289.91,324.47,284.85,330.54,280.91Z"/><path class="cls-58" d="M423.79,217.07a8.55,8.55,0,0,0-2.58-6.79l1.27-3.39c-3.41,1.28-13.71,11.09-19.38,17.88-4,4.74-7.52,9.39-9.84,12.5a7.46,7.46,0,0,0-.43,8.29,57.11,57.11,0,0,0,16.47,17.52l5-4.18a91,91,0,0,0-6-13.26,23.58,23.58,0,0,0-3.08-4.07c3.08-3,6.36-4.23,7.72-5.38a58.71,58.71,0,0,0,9.89-10.52C424.22,223.8,423.72,219.4,423.79,217.07Z"/><path class="cls-59" d="M467.88,202.34c.8,13.84-6.56,24.87-16.45,24.64s-18.57-11.65-19.38-25.49,6.56-24.87,16.45-24.63S467.07,188.5,467.88,202.34Z"/><path class="cls-58" d="M483.11,225.52c3.35,3.17,3.85,5.4-.47,7-3,1.13-13.81-3.13-16.88-4.54A98.55,98.55,0,0,0,450,222.46c-1.85-1.34-3.93-16.17-3.93-16.17.29-.45,5.94-.06,15.39,5.33,2.72,1.55,4,.4,8.55,2.26C477.86,217.08,479.16,221.77,483.11,225.52Z"/><path class="cls-58" d="M481.62,232.68c3.5-.07,7.11-3.72,7.1-10.63,0-7.31-2.49-25.55-2.49-25.55l-6.77.51s-.06,15.12-1.84,21C474.8,227.22,478.65,232.8,481.62,232.68Z"/><path class="cls-58" d="M474.24,191.16s-4.17,1.13-2.28,4.12,7.7,6.85,15.31,2.9c0,0,4.61-2.55,4-9.79-.19-2.41-3.92-8.19-7.55-6,0,0-2.21-1.1-3.67.18,0,0-.87-2-4.4.68A6.76,6.76,0,0,0,474.24,191.16Z"/><g class="cls-60"><path class="cls-61" d="M474.54,191.14s7.7,1.24,7.14,4.84a3.85,3.85,0,0,1-1.22,1.74s7.81.25,6.39-7c0,0-.88,3.44-2.55,3.5,0,0-.82.21-.74-3.56,0,0-1.38,2.86-2.45,2.94,0,0-1,.49-.9-3a2.78,2.78,0,0,1-2.74,1.09s-1.23.07-1.08-2.07Z"/><path class="cls-62" d="M478.85,184.2a15.48,15.48,0,0,1,1.38-1.76.71.71,0,0,0-.14.1,9.28,9.28,0,0,0-3.56,4.9,9.72,9.72,0,0,0-.21,4.06l0,.14.11.07a2.43,2.43,0,0,0,2.17.19,3.65,3.65,0,0,0,1.58-1.34c.1-.15.19-.31.27-.46a4.78,4.78,0,0,1-.07-.65,7.66,7.66,0,0,1-.56.84,3.08,3.08,0,0,1-1.42,1.05,1.88,1.88,0,0,1-1.44-.14,9.36,9.36,0,0,1,.29-3.56A12,12,0,0,1,478.85,184.2Z"/><path class="cls-62" d="M477.24,192.39a17.78,17.78,0,0,1,1.94.68,3.46,3.46,0,0,1,1.54,1.08,2.64,2.64,0,0,1,.58,1.77,3.1,3.1,0,0,1-.84,1.8,2.72,2.72,0,0,0,.75-3.92,3.92,3.92,0,0,0-1.74-1.41,17.76,17.76,0,0,0-2-.74,32.89,32.89,0,0,0-3.36-.82c.05.11.08.22.13.33a4.89,4.89,0,0,0-.59.22C474.85,191.7,476.06,192,477.24,192.39Z"/><path class="cls-62" d="M483.76,182.36a10,10,0,0,0-1.74,2.38,11.12,11.12,0,0,0-1,2.72,14.75,14.75,0,0,0-.37,2.89,15.58,15.58,0,0,0,.15,2.9l-.08-.16c.21.25.64.2,1-.16a5,5,0,0,0,.94-1.28A25.44,25.44,0,0,0,484,188.6a16,16,0,0,1-.95,3.26,5.1,5.1,0,0,1-.93,1.51,1.73,1.73,0,0,1-.87.52,1.19,1.19,0,0,1-1.09-.35l-.06-.06,0-.1a13.73,13.73,0,0,1-.23-3.06,12.41,12.41,0,0,1,.46-3,9.43,9.43,0,0,1,1.28-2.79A7.78,7.78,0,0,1,483.76,182.36Z"/><path class="cls-62" d="M474.74,191.38a1.57,1.57,0,0,0,.79-.47,4.8,4.8,0,0,0,.86-1.33,12.61,12.61,0,0,0,.86-2.91,23.8,23.8,0,0,1-1.26,2.7,4.62,4.62,0,0,1-.86,1.11c-.34.29-.71.32-.88.13h0l0,0-.33-.33c.1.29.21.6.35.91l-.27.09A1.1,1.1,0,0,0,474.74,191.38Z"/><path class="cls-62" d="M487,183a10.24,10.24,0,0,0-1.74,2.38,11,11,0,0,0-1,2.73,15.45,15.45,0,0,0-.37,2.88,16.44,16.44,0,0,0,.15,2.9l-.08-.16c.21.25.64.2,1-.15a5.36,5.36,0,0,0,.94-1.28,25.59,25.59,0,0,0,1.36-3.06,15.86,15.86,0,0,1-.95,3.27,5.19,5.19,0,0,1-.93,1.5,1.74,1.74,0,0,1-.87.53,1.19,1.19,0,0,1-1.09-.35l-.05-.06,0-.1a13.25,13.25,0,0,1-.24-3.07,13.54,13.54,0,0,1,.46-3,9.55,9.55,0,0,1,1.28-2.79A7.92,7.92,0,0,1,487,183Z"/></g><path class="cls-58" d="M462.69,284.78a78.74,78.74,0,0,0-3.21-19.39c-3.15-9.28-6.52-16.62-7.57-21.9a17.89,17.89,0,0,1,1.68-9.26l.16-.33a15.74,15.74,0,0,0,1.41-8.81L453.31,211a4.5,4.5,0,0,0-2.9-4c-1.93-.72-4.61-1.7-7.21-2.5l-.4-9.07-5.67-.08H437l-5.66-.09-.77,8.9c-2.93.85-6.14,2-8.35,2.84a4.49,4.49,0,0,0-2.9,4l-1.85,14.12a15.71,15.71,0,0,0,1.42,8.83l.15.31a17.93,17.93,0,0,1,1.75,8.15v-.06h0v.06c-.58,8.69-5.31,14-7,18.81-.18.5-.36,1-.53,1.51,0,0-6.69,17.13-5.88,24.82.46,4.31,1.29,16.28,2,23.43h17.4c1.57-7.83,5.56-19.29,5.78-27.18.66.24,1.93-3,2.77-3,.29-.11,1.77,3.47,2,3.33.42,8.08,5,20.5,6.81,28.13l17.06-3.61C461.83,301.23,462.8,289.19,462.69,284.78Z"/><path class="cls-63" d="M432.09,271.69l-20.43-4.51c-.74,2.15-1.61,4.87-2.38,7.7,5.88,1.47,16.21,4.89,23.1,11.82.12-1,.2-2,.23-2.94.4.14,1-1,1.62-1.87Z"/><path class="cls-63" d="M460.63,269.71l-4.36-2.42c-.3-.18-16.45,2.47-16.88,2.54s-3.68,9.33-3.68,9.33l.16,2.25c.55,1,1.36,2.79,1.54,2.69,0,.86.15,1.77.28,2.72,2.88-2.69,10.52-8.51,24.23-10.46C461.53,273.8,461.06,271.52,460.63,269.71Z"/><path class="cls-64" d="M451.91,243.49a18,18,0,0,1,1.07-7.81H419.69a17.85,17.85,0,0,1,1.14,6.69v-.06h0v.06c-.58,8.69-5.31,14-7,18.81-.18.5-.36,1-.53,1.51,0,0-.72,1.87-1.67,4.63H460c-.33-1.22-.55-1.93-.55-1.93C456.33,256.11,453,248.77,451.91,243.49Z"/><path class="cls-63" d="M452,239.73c-7,0-15.08-.11-15.66-.21s-10.28-1.65-16.23-2.59a17.94,17.94,0,0,1,.73,5.44v-.06h0v.06a25.67,25.67,0,0,1-.45,3.31c5.6,1.54,19.86,4.6,32.1.14-.23-.82-.42-1.6-.57-2.33A17.49,17.49,0,0,1,452,239.73Z"/><path class="cls-65" d="M438.08,253c0,1.29-.57,2.33-1.23,2.32s-1.16-1.07-1.14-2.37.57-2.33,1.23-2.32S438.1,251.72,438.08,253Z"/><path class="cls-63" d="M455,224.05,453.31,211a4.5,4.5,0,0,0-2.9-4c-1.93-.72-4.61-1.7-7.21-2.5l-.4-9.07-5.67-.08H437l-5.66-.09-.77,8.9c-2.93.85-6.14,2-8.35,2.84a4.49,4.49,0,0,0-2.9,4l-1.72,13.09Z"/><path class="cls-62" d="M442.8,195.4l-5.67-.08H437l-5.66-.09-.7,8.12a19.1,19.1,0,0,0,12.5.58Z"/><path class="cls-12" d="M457.73,260c-14.75,2.39-30,2.39-43-1.15-.51,1.24-4.41,10.4-5,14.22,11.5-.35,21.63,9.56,23,10.85l.17.16a7.72,7.72,0,0,0,3.16.41,2.77,2.77,0,0,0,1.74-.76l.33-.32c6.56-6.39,16.47-9,23.38-9.65A62.11,62.11,0,0,0,457.73,260Z"/><path class="cls-12" d="M455.16,225.09,453.31,211a4.5,4.5,0,0,0-2.9-4l-2.5-.92v4.8a6.73,6.73,0,0,1-6.73,6.73h-8.57a6.73,6.73,0,0,1-6.73-6.73v-5.19l1.23-.42c-1.8.6-3.51,1.23-4.85,1.73a4.49,4.49,0,0,0-2.9,4l-1.85,14.12a15.71,15.71,0,0,0,1.42,8.83l.15.31a17.93,17.93,0,0,1,1.75,8.15v-.06c5,2.08,14.54,4.09,31.08,1.18a17.89,17.89,0,0,1,1.68-9.26l.16-.33A15.74,15.74,0,0,0,455.16,225.09Z"/><path class="cls-34" d="M436.53,236.93c-8.25,0-15.43-3.87-19.15-9.57a15.59,15.59,0,0,0,1.55,6.55l.15.31a17.93,17.93,0,0,1,1.75,8.15v-.06c5,2.08,14.54,4.09,31.08,1.18a17.89,17.89,0,0,1,1.68-9.26l.16-.33a15.65,15.65,0,0,0,1.51-5.92C451.43,233.34,444.48,236.93,436.53,236.93Z"/><path class="cls-27" d="M450.16,237.52a105.16,105.16,0,0,1-26.53,0l2.25-17.77a88.27,88.27,0,0,0,22,0Z"/><text class="cls-66" transform="translate(429.13 233.64)">25</text><path class="cls-62" d="M417.56,256.77a15,15,0,0,0,2.4-.12,18.74,18.74,0,0,0,3.38-3.82,1.78,1.78,0,0,0-.31-2.06s-3.28,1.95-5.62,3.36a4.92,4.92,0,0,1-.87.41A4.39,4.39,0,0,1,417.56,256.77Z"/><path class="cls-58" d="M417.6,253.83h0a4.76,4.76,0,0,1,4.55-.47c5,2.4,6.2,6.28,5.59,7-.91,1.07-5.1-2.65-6.35-3.42,1.19.82,3.72,4,3,5.42s-3.1-1.45-4.61-2.76c1.06,1.2,2.4,4.23,1.49,5.34s-4.19-3.3-4.21-3.24,2.46,3.92,1.64,5.27-2.87-1.8-3.52-2.52l-.59.3a4,4,0,0,1-5.26-1.57L408,260.81Z"/><path class="cls-23" d="M461.29,156.9a21,21,0,0,0-.44-2.37,22.8,22.8,0,0,0-.66-2.28A23.81,23.81,0,0,0,458.8,149c-.36-.7-.76-1.37-1.18-2q-.31-.48-.66-1c-.45-.62-.93-1.23-1.44-1.81s-.79-.86-1.21-1.27a24.46,24.46,0,0,0-6.1-4.4c-.7-.35-1.42-.67-2.15-.95a24.59,24.59,0,0,0-3.42-1,23.58,23.58,0,0,0-4.86-.57h0a11.36,11.36,0,0,0-2.6.26c-10,2.14-10.54,9.68-10.54,9.68a10.78,10.78,0,0,0-10.62,8,24.26,24.26,0,0,0-.82,5.82l-.25,11.92c0,.17,0,.34,0,.51a6.36,6.36,0,0,1,5.45.89l0-1.8a29,29,0,0,1,.52-5.39c8.33-1.45,11.59-7,12.85-11.64a76.08,76.08,0,0,0,25.64,13.56c0,2.89,0,5.21,0,5.76v.17a7.11,7.11,0,0,1,3.58-1l.21-.2.25-11.92A23.55,23.55,0,0,0,461.29,156.9Z"/><path class="cls-63" d="M421.76,176.85c2,4,1.07,8.63-2.14,10.23s-7.45-.37-9.48-4.42-1.06-8.63,2.15-10.23S419.74,172.8,421.76,176.85Z"/><path class="cls-62" d="M419.79,184.47c0-.17,0-.31-.05-.47,0,.12,0,.21,0,.29a5.89,5.89,0,0,0-.31-2,9.74,9.74,0,0,0-7.87-7.62,21.06,21.06,0,0,1,6.36,6c-2.27-1-5.83.94-5.83.94,4.21-1,6.09-.08,6.95,1A9.79,9.79,0,0,1,419.79,184.47Z"/><path class="cls-63" d="M453.92,177.42c-2.16,4-1.37,8.58,1.78,10.3s7.47-.1,9.63-4.08,1.37-8.58-1.78-10.3S456.09,173.45,453.92,177.42Z"/><path class="cls-62" d="M455.63,185.11c0-.17.05-.31.07-.46a2,2,0,0,0-.06.28,5.9,5.9,0,0,1,.39-2,9.72,9.72,0,0,1,8.13-7.33,21,21,0,0,0-6.57,5.74c2.3-.89,5.79,1.14,5.79,1.14-4.16-1.18-6.08-.3-7,.75A9.42,9.42,0,0,0,455.63,185.11Z"/><path class="cls-58" d="M431.81,154.21c-1.26,4.67-4.52,10.19-12.85,11.64a29,29,0,0,0-.52,5.39l-.09,5.32.09,3.52c-.21,11.72,8.32,21.37,19,21.56s19.6-9.15,19.81-20.87l.08-1.38.11-5.86c0-.55,0-2.87,0-5.76A76.08,76.08,0,0,1,431.81,154.21Z"/><path class="cls-62" d="M440.09,181.06c0,1.69-1,3-2.29,3s-2.22-1.4-2.19-3.09,1.11-6.17,2.35-6.14S440.12,179.37,440.09,181.06Z"/><path class="cls-67" d="M448,175c0,1.53-.56,2.75-1.2,2.74s-1.13-1.25-1.1-2.78.56-2.75,1.2-2.74S448,173.49,448,175Z"/><path class="cls-23" d="M453.17,169.58c.1-.14-7.39-1.15-10.92.62,0,.08-1.39-3.23,4.15-3.7C451.88,166.28,453.15,169.65,453.17,169.58Z"/><path class="cls-67" d="M428,174.66c0,1.52.47,2.77,1.11,2.78s1.17-1.22,1.2-2.74-.47-2.77-1.11-2.78S428,173.13,428,174.66Z"/><path class="cls-23" d="M422.39,169.2c-.1-.14,7.39-1.1,10.91.7,0,.07,1.41-3.23-4.12-3.74C423.7,165.92,422.4,169.28,422.39,169.2Z"/><path class="cls-62" d="M426.19,184A.64.64,0,0,1,426,184a.51.51,0,0,1-.22-.69l1.67-3.3a.5.5,0,0,1,.68-.23.51.51,0,0,1,.23.69l-1.67,3.3A.52.52,0,0,1,426.19,184Z"/><path class="cls-62" d="M423,183.94a.54.54,0,0,1-.22-.05.51.51,0,0,1-.23-.69l1.67-3.3a.51.51,0,0,1,.68-.23.51.51,0,0,1,.23.69l-1.67,3.3A.49.49,0,0,1,423,183.94Z"/><path class="cls-62" d="M449.1,184.41a.53.53,0,0,1-.46-.3l-1.55-3.36a.52.52,0,0,1,.25-.68.53.53,0,0,1,.68.25l1.55,3.36a.51.51,0,0,1-.25.68A.59.59,0,0,1,449.1,184.41Z"/><path class="cls-62" d="M452.32,184.47a.55.55,0,0,1-.46-.3l-1.55-3.36a.52.52,0,0,1,.25-.68.51.51,0,0,1,.68.25l1.55,3.36a.51.51,0,0,1-.25.68A.59.59,0,0,1,452.32,184.47Z"/><path class="cls-67" d="M444.76,183.14a6.92,6.92,0,0,1,.42,2.38,6.6,6.6,0,0,1-13.09,1.38Z"/><path class="cls-25" d="M438.57,192.3a6.48,6.48,0,0,1-3.13-.81,6.74,6.74,0,0,1,6.71-5.17,7.2,7.2,0,0,1,2.88.6A6.65,6.65,0,0,1,438.57,192.3Z"/><rect class="cls-68" x="451.88" y="314.81" width="4.28" height="15.71" transform="translate(-36.82 59.38) rotate(-7.19)"/><polygon class="cls-68" points="452.77 338.07 457.06 356.23 459.76 356.23 459.75 338.07 452.77 338.07"/><path class="cls-69" d="M456.3,346.05h.9a4,4,0,0,0,4-4.31l-1-15.68a3.79,3.79,0,0,0-3.69-3.46h-5.13c-2.18,0-2.8,4.16-2.8,4.16l-.86,3.53a7.69,7.69,0,0,0,.52,4.93l3.52,7.82A5.09,5.09,0,0,0,456.3,346.05Z"/><path class="cls-70" d="M456.5,322.6h-5.13c-1.08,0-1.78,1-2.21,2.07a12.18,12.18,0,0,0,4.53.87h0a12.11,12.11,0,0,0,5.73-1.44A3.73,3.73,0,0,0,456.5,322.6Z"/><path class="cls-71" d="M455.52,343.43a1,1,0,1,1-1-1A1,1,0,0,1,455.52,343.43Z"/><path class="cls-69" d="M462.38,311.14s-.43-10.1-.45-13.06a40.32,40.32,0,0,0-19.82,6.43c.83,2.83,2,8.05,2,8.05,1.06,4.8,4.59,8.33,9.28,8.33A9,9,0,0,0,462.38,311.14Z"/><path class="cls-47" d="M458.12,350.75l1.57-.07a2.77,2.77,0,0,1,2.88,2.83,15.62,15.62,0,0,0,.45,4.36s11.81-4.46,17.77,4.31c1.42,2.09,2.14,5.83,1.75,9.33,0,0-.68,1.46-8.61.67-4.67-.46-12.69-2.33-19.19-7.67l-.85-8.91A4.44,4.44,0,0,1,458.12,350.75Z"/><path class="cls-4" d="M458,357.58c0,1.41-.51,2.56-1.15,2.56s-1.15-1.15-1.15-2.56.52-2.56,1.15-2.56S458,356.16,458,357.58Z"/><path class="cls-4" d="M482.63,370.08a15.57,15.57,0,0,0-.05-1.81c0-.18,0-.36,0-.54s-.05-.41-.08-.61,0-.39-.08-.57-.07-.38-.11-.56-.09-.4-.14-.59-.08-.33-.13-.49-.12-.4-.19-.59l-.15-.42c-.08-.21-.17-.41-.26-.6s-.09-.22-.14-.32a8.85,8.85,0,0,0-.47-.8l-.09-.12a5.88,5.88,0,0,0-8.47-1,13,13,0,0,0-4.42,6.61c-5.25-1.59-10.9-3.6-13.24-4.88l.17,1.76A36.64,36.64,0,0,0,472.32,372h0l.2,0c.48.07.94.13,1.39.17,7.93.79,8.61-.67,8.61-.67,0-.48.08-.95.09-1.43Z"/><rect class="cls-68" x="409.07" y="320.53" width="15.71" height="4.28" transform="translate(44.61 695.92) rotate(-82.81)"/><path class="cls-69" d="M428.57,303.73A41.3,41.3,0,0,0,408.3,298c.23,2.83.26,13.14.26,13.14a9,9,0,0,0,9,9.75c4.69,0,8.37-3.72,9.31-8.39C426.86,312.5,427.89,306.31,428.57,303.73Z"/><polygon class="cls-68" points="418.17 338.07 413.89 356.23 411.18 356.23 411.2 338.07 418.17 338.07"/><path class="cls-69" d="M414.65,346.05h-.91a4,4,0,0,1-4-4.31l1.05-15.68a3.78,3.78,0,0,1,3.69-3.46h5.13c2.17,0,2.8,4.16,2.8,4.16l.85,3.53a7.62,7.62,0,0,1-.51,4.93L419.19,343A5.08,5.08,0,0,1,414.65,346.05Z"/><path class="cls-70" d="M414.45,322.6h5.13c1.08,0,1.78,1,2.2,2.07a12.16,12.16,0,0,1-4.52.87h0a12.15,12.15,0,0,1-5.74-1.44A3.75,3.75,0,0,1,414.45,322.6Z"/><path class="cls-71" d="M415.42,343.43a1,1,0,1,0,1-1A1,1,0,0,0,415.42,343.43Z"/><path class="cls-47" d="M412.71,351.56l-1.61-.14a2.7,2.7,0,0,0-3,2.78,15.53,15.53,0,0,1-.46,4.46s-12.13-5.08-18.25,3.66c-1.46,2.09-2.19,5.89-1.79,9.5,0,0,.7,1.53,8.84,1.07,4.79-.28,13-1.85,19.71-7.05l.86-9.11A4.79,4.79,0,0,0,412.71,351.56Z"/><path class="cls-4" d="M412.86,358.58c0,1.45.53,2.65,1.18,2.68s1.18-1.13,1.18-2.58S414.69,356,414,356,412.86,357.12,412.86,358.58Z"/><path class="cls-4" d="M387.54,370.35c0-.62,0-1.24,0-1.85,0-.19,0-.37,0-.55s.06-.42.08-.63l.09-.59.12-.56c0-.21.08-.4.13-.6s.09-.34.14-.5.13-.4.19-.6.1-.28.16-.42a6.65,6.65,0,0,1,.27-.61,2.92,2.92,0,0,1,.14-.31,6.92,6.92,0,0,1,.48-.81l.09-.12a6,6,0,0,1,8.7-.7,14.11,14.11,0,0,1,4.54,7c5.39-1.41,11.19-3.23,13.6-4.44l-.17,1.8a36.14,36.14,0,0,1-18.06,6.91h0l-.2,0c-.49.06-1,.1-1.42.13-8.14.46-8.84-1.07-8.84-1.07-.05-.49-.08-1-.1-1.47Z"/></svg>